{"accessors" : [{"bufferView" : 0, "byteOffset" : 0, "componentType" : 5123, "count" : 672, "type" : "SCALAR", "max" : [579], "min" : [0]}, {"bufferView" : 1, "byteOffset" : 0, "componentType" : 5126, "count" : 580, "type" : "VEC3", "max" : [42.900840759277344, 24.039918899536133, -58.43313217163086], "min" : [28.425872802734375, 22.924602508544922, -66.49968719482422], "name" : "POSITION"}, {"bufferView" : 1, "byteOffset" : 12, "componentType" : 5126, "count" : 580, "type" : "VEC2", "max" : [0.11993499845266342, -0.00030499999411404133], "min" : [0.004395000170916319, -0.10148599743843079], "name" : "TEXCOORD_0"}, {"bufferView" : 1, "byteOffset" : 20, "componentType" : 5126, "count" : 580, "type" : "VEC3", "max" : [1.0000044107437134, 1.0000042915344238, 1.0000029802322388], "min" : [-1.0000042915344238, -1.0000042915344238, -1.0000029802322388], "name" : "NORMAL"}, {"bufferView" : 0, "byteOffset" : 1344, "componentType" : 5123, "count" : 672, "type" : "SCALAR", "max" : [575], "min" : [0]}, {"bufferView" : 2, "byteOffset" : 0, "componentType" : 5126, "count" : 576, "type" : "VEC3", "max" : [27.878263473510742, 24.04464340209961, -51.359073638916016], "min" : [12.971885681152344, 22.90043830871582, -60.116512298583984], "name" : "POSITION"}, {"bufferView" : 2, "byteOffset" : 12, "componentType" : 5126, "count" : 576, "type" : "VEC2", "max" : [0.11990799754858017, -0.00030499999411404133], "min" : [0.004395000170916319, -0.10148599743843079], "name" : "TEXCOORD_0"}, {"bufferView" : 2, "byteOffset" : 20, "componentType" : 5126, "count" : 576, "type" : "VEC3", "max" : [0.9975932836532593, 1.0000044107437134, 0.9975231885910034], "min" : [-0.9975932836532593, -1.0000044107437134, -0.9975161552429199], "name" : "NORMAL"}, {"bufferView" : 0, "byteOffset" : 2688, "componentType" : 5123, "count" : 669, "type" : "SCALAR", "max" : [575], "min" : [0]}, {"bufferView" : 3, "byteOffset" : 0, "componentType" : 5126, "count" : 576, "type" : "VEC3", "max" : [15.537759780883789, 24.040517807006836, 56.00631332397461], "min" : [1.0637099742889404, 22.900421142578125, 47.904598236083984], "name" : "POSITION"}, {"bufferView" : 3, "byteOffset" : 12, "componentType" : 5126, "count" : 576, "type" : "VEC2", "max" : [0.11998700350522995, -0.00030499999411404133], "min" : [0.004395000170916319, -0.10148599743843079], "name" : "TEXCOORD_0"}, {"bufferView" : 3, "byteOffset" : 20, "componentType" : 5126, "count" : 576, "type" : "VEC3", "max" : [1.0000009536743164, 1.0000044107437134, 0.9999979138374329], "min" : [-1.0000009536743164, -1.0000044107437134, -0.9999979138374329], "name" : "NORMAL"}, {"bufferView" : 0, "byteOffset" : 4028, "componentType" : 5123, "count" : 672, "type" : "SCALAR", "max" : [577], "min" : [0]}, {"bufferView" : 4, "byteOffset" : 0, "componentType" : 5126, "count" : 578, "type" : "VEC3", "max" : [-7.574756145477295, 24.030559539794922, 57.17548370361328], "min" : [-22.465354919433594, 22.924646377563477, 48.44538116455078], "name" : "POSITION"}, {"bufferView" : 4, "byteOffset" : 12, "componentType" : 5126, "count" : 578, "type" : "VEC2", "max" : [0.11993400007486343, -0.00030499999411404133], "min" : [0.004395000170916319, -0.10148599743843079], "name" : "TEXCOORD_0"}, {"bufferView" : 4, "byteOffset" : 20, "componentType" : 5126, "count" : 578, "type" : "VEC3", "max" : [0.9977709650993347, 1.0000019073486328, 0.9977009296417236], "min" : [-0.9977709650993347, -1.0000019073486328, -0.9977009296417236], "name" : "NORMAL"}, {"bufferView" : 0, "byteOffset" : 5372, "componentType" : 5123, "count" : 339, "type" : "SCALAR", "max" : [289], "min" : [0]}, {"bufferView" : 5, "byteOffset" : 0, "componentType" : 5126, "count" : 290, "type" : "VEC3", "max" : [22.893901824951172, 20.71950340270996, -93.1871337890625], "min" : [22.255823135375977, 8.637776374816895, -105.86116027832031], "name" : "POSITION"}, {"bufferView" : 5, "byteOffset" : 12, "componentType" : 5126, "count" : 290, "type" : "VEC2", "max" : [0.6266810297966003, -0.6471160054206848], "min" : [0.3978799879550934, -0.9874150156974792], "name" : "TEXCOORD_0"}, {"bufferView" : 5, "byteOffset" : 20, "componentType" : 5126, "count" : 290, "type" : "VEC3", "max" : [1.0000042915344238, 0.6569924354553223, 0.6087384223937988], "min" : [-1.0000042915344238, -0.7719157338142395, -1.0000044107437134], "name" : "NORMAL"}, {"bufferView" : 0, "byteOffset" : 6052, "componentType" : 5123, "count" : 339, "type" : "SCALAR", "max" : [293], "min" : [0]}, {"bufferView" : 6, "byteOffset" : 0, "componentType" : 5126, "count" : 294, "type" : "VEC3", "max" : [22.886892318725586, 20.71950340270996, -104.9145736694336], "min" : [22.255823135375977, 8.637776374816895, -117.55596923828125], "name" : "POSITION"}, {"bufferView" : 6, "byteOffset" : 12, "componentType" : 5126, "count" : 294, "type" : "VEC2", "max" : [0.7519689798355103, -0.6444990038871765], "min" : [0.5247229933738708, -0.9857400059700012], "name" : "TEXCOORD_0"}, {"bufferView" : 6, "byteOffset" : 20, "componentType" : 5126, "count" : 294, "type" : "VEC3", "max" : [1.0000042915344238, 0.772006630897522, 1.0000044107437134], "min" : [-1.0000042915344238, -0.656886875629425, -0.6087824106216431], "name" : "NORMAL"}, {"bufferView" : 0, "byteOffset" : 6732, "componentType" : 5123, "count" : 339, "type" : "SCALAR", "max" : [290], "min" : [0]}, {"bufferView" : 7, "byteOffset" : 0, "componentType" : 5126, "count" : 291, "type" : "VEC3", "max" : [-14.467455863952637, 20.719079971313477, -19.573043823242188], "min" : [-15.101709365844727, 8.63753890991211, -32.2470703125], "name" : "POSITION"}, {"bufferView" : 7, "byteOffset" : 12, "componentType" : 5126, "count" : 291, "type" : "VEC2", "max" : [0.6266810297966003, -0.6471160054206848], "min" : [0.3978799879550934, -0.9874150156974792], "name" : "TEXCOORD_0"}, {"bufferView" : 7, "byteOffset" : 20, "componentType" : 5126, "count" : 291, "type" : "VEC3", "max" : [1.0000044107437134, 0.6568292379379272, 1.0000044107437134], "min" : [-1.0000044107437134, -0.7717771530151367, -0.6087938547134399], "name" : "NORMAL"}, {"bufferView" : 0, "byteOffset" : 7412, "componentType" : 5123, "count" : 339, "type" : "SCALAR", "max" : [294], "min" : [0]}, {"bufferView" : 8, "byteOffset" : 0, "componentType" : 5126, "count" : 295, "type" : "VEC3", "max" : [-14.467458724975586, 20.719079971313477, -7.878230094909668], "min" : [-15.09469985961914, 8.63753890991211, -20.51963233947754], "name" : "POSITION"}, {"bufferView" : 8, "byteOffset" : 12, "componentType" : 5126, "count" : 295, "type" : "VEC2", "max" : [0.7519689798355103, -0.6444990038871765], "min" : [0.524412989616394, -0.9857400059700012], "name" : "TEXCOORD_0"}, {"bufferView" : 8, "byteOffset" : 20, "componentType" : 5126, "count" : 295, "type" : "VEC3", "max" : [1.0000044107437134, 0.7718276381492615, 0.6648079752922058], "min" : [-1.0000044107437134, -0.656886875629425, -1.0000044107437134], "name" : "NORMAL"}, {"bufferView" : 0, "byteOffset" : 8092, "componentType" : 5123, "count" : 480, "type" : "SCALAR", "max" : [406], "min" : [0]}, {"bufferView" : 9, "byteOffset" : 0, "componentType" : 5126, "count" : 407, "type" : "VEC3", "max" : [46.43425750732422, 23.978866577148438, -88.0245361328125], "min" : [24.127721786499023, 18.64310073852539, -118.1149673461914], "name" : "POSITION"}, {"bufferView" : 9, "byteOffset" : 12, "componentType" : 5126, "count" : 407, "type" : "VEC2", "max" : [0.4134179949760437, -0.6041730046272278], "min" : [0.00929499976336956, -0.9966310262680054], "name" : "TEXCOORD_0"}, {"bufferView" : 9, "byteOffset" : 20, "componentType" : 5126, "count" : 407, "type" : "VEC3", "max" : [1.0000042915344238, 1.0000042915344238, 1.0000044107437134], "min" : [-1.0000042915344238, -1.0000042915344238, -1.0000044107437134], "name" : "NORMAL"}, {"bufferView" : 0, "byteOffset" : 9052, "componentType" : 5123, "count" : 486, "type" : "SCALAR", "max" : [416], "min" : [0]}, {"bufferView" : 10, "byteOffset" : 0, "componentType" : 5126, "count" : 417, "type" : "VEC3", "max" : [-16.333457946777344, 23.975828170776367, -2.809523105621338], "min" : [-38.638214111328125, 18.640703201293945, -32.89994430541992], "name" : "POSITION"}, {"bufferView" : 10, "byteOffset" : 12, "componentType" : 5126, "count" : 417, "type" : "VEC2", "max" : [0.4134179949760437, -0.6041730046272278], "min" : [0.00929499976336956, -0.9966310262680054], "name" : "TEXCOORD_0"}, {"bufferView" : 10, "byteOffset" : 20, "componentType" : 5126, "count" : 417, "type" : "VEC3", "max" : [1.0000044107437134, 1.0000044107437134, 1.0000044107437134], "min" : [-1.0000044107437134, -1.0000044107437134, -1.0000044107437134], "name" : "NORMAL"}, {"bufferView" : 0, "byteOffset" : 10024, "componentType" : 5123, "count" : 165, "type" : "SCALAR", "max" : [137], "min" : [0]}, {"bufferView" : 11, "byteOffset" : 0, "componentType" : 5126, "count" : 138, "type" : "VEC3", "max" : [45.451019287109375, 23.987627029418945, 166.33090209960938], "min" : [-34.15337371826172, 23.55084991455078, -166.00308227539062], "name" : "POSITION"}, {"bufferView" : 11, "byteOffset" : 12, "componentType" : 5126, "count" : 138, "type" : "VEC2", "max" : [0.9751260280609131, -0.022881999611854553], "min" : [0.01020899973809719, -0.9529719948768616], "name" : "TEXCOORD_0"}, {"bufferView" : 11, "byteOffset" : 20, "componentType" : 5126, "count" : 138, "type" : "VEC3", "max" : [0.03010149486362934, 1.0000044107437134, 0.025899318978190422], "min" : [-0.038699012249708176, 0.9991745352745056, 0], "name" : "NORMAL"}, {"bufferView" : 0, "byteOffset" : 10356, "componentType" : 5123, "count" : 3045, "type" : "SCALAR", "max" : [2616], "min" : [0]}, {"bufferView" : 12, "byteOffset" : 0, "componentType" : 5126, "count" : 2617, "type" : "VEC3", "max" : [50.926753997802734, 24.024484634399414, 165.9965057373047], "min" : [-34.155487060546875, -5.684020042419434, -169.99339294433594], "name" : "POSITION"}, {"bufferView" : 12, "byteOffset" : 12, "componentType" : 5126, "count" : 2617, "type" : "VEC2", "max" : [0.9963499903678894, -0.005735000129789114], "min" : [0.0003110000106971711, -0.9572190046310425], "name" : "TEXCOORD_0"}, {"bufferView" : 12, "byteOffset" : 20, "componentType" : 5126, "count" : 2617, "type" : "VEC3", "max" : [1.0000044107437134, 1.0000044107437134, 1.0000044107437134], "min" : [-1.0000044107437134, -1.0000042915344238, -1.0000044107437134], "name" : "NORMAL"}, {"bufferView" : 0, "byteOffset" : 16448, "componentType" : 5123, "count" : 3489, "type" : "SCALAR", "max" : [2994], "min" : [0]}, {"bufferView" : 13, "byteOffset" : 0, "componentType" : 5126, "count" : 2995, "type" : "VEC3", "max" : [24.126089096069336, 66.07115173339844, -7.424702167510986], "min" : [-37.94256591796875, 3.2200241088867188, -118.1053466796875], "name" : "POSITION"}, {"bufferView" : 13, "byteOffset" : 12, "componentType" : 5126, "count" : 2995, "type" : "VEC2", "max" : [0.9955419898033142, -0.006316999904811382], "min" : [0.0026630000211298466, -0.9943060278892517], "name" : "TEXCOORD_0"}, {"bufferView" : 13, "byteOffset" : 20, "componentType" : 5126, "count" : 2995, "type" : "VEC3", "max" : [1.0000042915344238, 1.0000042915344238, 1.0000044107437134], "min" : [-1.0000042915344238, -1.0000044107437134, -1.0000044107437134], "name" : "NORMAL"}], "asset" : {"generator" : "Aspose.3D 22.3", "version" : "2.0"}, "buffers" : [{"uri" : "data:application/octet-stream;base64,", "byteLength" : 398076}], "bufferViews" : [{"buffer" : 0, "byteOffset" : 0, "byteLength" : 23428, "target" : 34963}, {"buffer" : 0, "byteOffset" : 23432, "byteLength" : 21504, "byteStride" : 32, "target" : 34962}, {"buffer" : 0, "byteOffset" : 44940, "byteLength" : 21504, "byteStride" : 32, "target" : 34962}, {"buffer" : 0, "byteOffset" : 66448, "byteLength" : 21408, "byteStride" : 32, "target" : 34962}, {"buffer" : 0, "byteOffset" : 87860, "byteLength" : 21504, "byteStride" : 32, "target" : 34962}, {"buffer" : 0, "byteOffset" : 109368, "byteLength" : 10848, "byteStride" : 32, "target" : 34962}, {"buffer" : 0, "byteOffset" : 120220, "byteLength" : 10848, "byteStride" : 32, "target" : 34962}, {"buffer" : 0, "byteOffset" : 131072, "byteLength" : 10848, "byteStride" : 32, "target" : 34962}, {"buffer" : 0, "byteOffset" : 141924, "byteLength" : 10848, "byteStride" : 32, "target" : 34962}, {"buffer" : 0, "byteOffset" : 152776, "byteLength" : 15360, "byteStride" : 32, "target" : 34962}, {"buffer" : 0, "byteOffset" : 168140, "byteLength" : 15552, "byteStride" : 32, "target" : 34962}, {"buffer" : 0, "byteOffset" : 183696, "byteLength" : 5280, "byteStride" : 32, "target" : 34962}, {"buffer" : 0, "byteOffset" : 188980, "byteLength" : 97440, "byteStride" : 32, "target" : 34962}, {"buffer" : 0, "byteOffset" : 286424, "byteLength" : 111648, "byteStride" : 32, "target" : 34962}], "meshes" : [{"primitives" : [{"attributes" : {"POSITION" : 1, "TEXCOORD_0" : 2, "NORMAL" : 3}, "indices" : 0, "mode" : 4}], "name" : ""}, {"primitives" : [{"attributes" : {"POSITION" : 5, "TEXCOORD_0" : 6, "NORMAL" : 7}, "indices" : 4, "mode" : 4}], "name" : ""}, {"primitives" : [{"attributes" : {"POSITION" : 9, "TEXCOORD_0" : 10, "NORMAL" : 11}, "indices" : 8, "mode" : 4}], "name" : ""}, {"primitives" : [{"attributes" : {"POSITION" : 13, "TEXCOORD_0" : 14, "NORMAL" : 15}, "indices" : 12, "mode" : 4}], "name" : ""}, {"primitives" : [{"attributes" : {"POSITION" : 17, "TEXCOORD_0" : 18, "NORMAL" : 19}, "indices" : 16, "mode" : 4}], "name" : ""}, {"primitives" : [{"attributes" : {"POSITION" : 21, "TEXCOORD_0" : 22, "NORMAL" : 23}, "indices" : 20, "mode" : 4}], "name" : ""}, {"primitives" : [{"attributes" : {"POSITION" : 25, "TEXCOORD_0" : 26, "NORMAL" : 27}, "indices" : 24, "mode" : 4}], "name" : ""}, {"primitives" : [{"attributes" : {"POSITION" : 29, "TEXCOORD_0" : 30, "NORMAL" : 31}, "indices" : 28, "mode" : 4}], "name" : ""}, {"primitives" : [{"attributes" : {"POSITION" : 33, "TEXCOORD_0" : 34, "NORMAL" : 35}, "indices" : 32, "mode" : 4}], "name" : ""}, {"primitives" : [{"attributes" : {"POSITION" : 37, "TEXCOORD_0" : 38, "NORMAL" : 39}, "indices" : 36, "mode" : 4}], "name" : ""}, {"primitives" : [{"attributes" : {"POSITION" : 41, "TEXCOORD_0" : 42, "NORMAL" : 43}, "indices" : 40, "mode" : 4}], "name" : ""}, {"primitives" : [{"attributes" : {"POSITION" : 45, "TEXCOORD_0" : 46, "NORMAL" : 47}, "indices" : 44, "mode" : 4}], "name" : ""}, {"primitives" : [{"attributes" : {"POSITION" : 49, "TEXCOORD_0" : 50, "NORMAL" : 51}, "indices" : 48, "mode" : 4}], "name" : ""}], "nodes" : [{"mesh" : 0, "name" : "deflector1_Mesh.002"}, {"mesh" : 1, "name" : "deflector2_Mesh.002"}, {"mesh" : 2, "name" : "deflector3_Mesh.002"}, {"mesh" : 3, "name" : "deflector4_Mesh.002"}, {"mesh" : 4, "name" : "doorLeft1_Mesh.002"}, {"mesh" : 5, "name" : "doorLeft2_Mesh.002"}, {"mesh" : 6, "name" : "doorRight1_Mesh.002"}, {"mesh" : 7, "name" : "doorRight2_Mesh.002"}, {"mesh" : 8, "name" : "elevatorLeft_Mesh.005"}, {"mesh" : 9, "name" : "elevatorRight_Mesh.005"}, {"mesh" : 10, "name" : "flightdeck.001_Mesh.002"}, {"mesh" : 11, "name" : "hull_Mesh.002"}, {"mesh" : 12, "name" : "island_Mesh.002"}], "scene" : 0, "scenes" : [{"nodes" : [0, 1, 2, 3, 4, 5, 6, 7, 8, 9, 10, 11, 12]}]}