{"accessors" : [{"bufferView" : 0, "byteOffset" : 0, "componentType" : 5123, "count" : 360, "type" : "SCALAR", "max" : [316], "min" : [0]}, {"bufferView" : 1, "byteOffset" : 0, "componentType" : 5126, "count" : 317, "type" : "VEC3", "max" : [1.982442021369934, 2.6090989112854004, 4.144018173217773], "min" : [-1.9789220094680786, -0.0050650001503527164, -4.1731719970703125], "name" : "POSITION"}, {"bufferView" : 1, "byteOffset" : 12, "componentType" : 5126, "count" : 317, "type" : "VEC2", "max" : [0.5634769797325134, -0.18701200187206268], "min" : [0.1579589992761612, -0.7846680283546448], "name" : "TEXCOORD_0"}, {"bufferView" : 1, "byteOffset" : 20, "componentType" : 5126, "count" : 317, "type" : "VEC3", "max" : [1.0000044107437134, 1.000002145767212, 1.0000044107437134], "min" : [-1.0000044107437134, -1.0000044107437134, -0.7071098685264587], "name" : "NORMAL"}, {"bufferView" : 0, "byteOffset" : 720, "componentType" : 5123, "count" : 987, "type" : "SCALAR", "max" : [850], "min" : [0]}, {"bufferView" : 2, "byteOffset" : 0, "componentType" : 5126, "count" : 851, "type" : "VEC3", "max" : [-1.220128059387207, 1.362828016281128, -1.790945053100586], "min" : [-1.785230040550232, -0.004251000005751848, -3.174767017364502], "name" : "POSITION"}, {"bufferView" : 2, "byteOffset" : 12, "componentType" : 5126, "count" : 851, "type" : "VEC2", "max" : [0.9944279789924622, -0.4313870072364807], "min" : [0.0006220000213943422, -0.9980180263519287], "name" : "TEXCOORD_0"}, {"bufferView" : 2, "byteOffset" : 20, "componentType" : 5126, "count" : 851, "type" : "VEC3", "max" : [0.9460030794143677, 0.9995760321617126, 0.9995760321617126], "min" : [-1.0000044107437134, -0.9995760321617126, -0.9995760321617126], "name" : "NORMAL"}, {"bufferView" : 0, "byteOffset" : 2696, "componentType" : 5123, "count" : 987, "type" : "SCALAR", "max" : [850], "min" : [0]}, {"bufferView" : 3, "byteOffset" : 0, "componentType" : 5126, "count" : 851, "type" : "VEC3", "max" : [-1.220128059387207, 1.3633509874343872, -0.28238600492477417], "min" : [-1.785230040550232, -0.003728999989107251, -1.666208028793335], "name" : "POSITION"}, {"bufferView" : 3, "byteOffset" : 12, "componentType" : 5126, "count" : 851, "type" : "VEC2", "max" : [0.9944279789924622, -0.4313870072364807], "min" : [0.0006220000213943422, -0.9980180263519287], "name" : "TEXCOORD_0"}, {"bufferView" : 3, "byteOffset" : 20, "componentType" : 5126, "count" : 851, "type" : "VEC3", "max" : [0.9460030794143677, 0.9995760321617126, 0.9995760321617126], "min" : [-1.0000044107437134, -0.9995760321617126, -0.9995760321617126], "name" : "NORMAL"}, {"bufferView" : 0, "byteOffset" : 4672, "componentType" : 5123, "count" : 987, "type" : "SCALAR", "max" : [850], "min" : [0]}, {"bufferView" : 4, "byteOffset" : 0, "componentType" : 5126, "count" : 851, "type" : "VEC3", "max" : [-1.220128059387207, 1.3640400171279907, 1.7098309993743896], "min" : [-1.785230040550232, -0.00303900009021163, 0.32600900530815125], "name" : "POSITION"}, {"bufferView" : 4, "byteOffset" : 12, "componentType" : 5126, "count" : 851, "type" : "VEC2", "max" : [0.9944279789924622, -0.4313870072364807], "min" : [0.0006220000213943422, -0.9980180263519287], "name" : "TEXCOORD_0"}, {"bufferView" : 4, "byteOffset" : 20, "componentType" : 5126, "count" : 851, "type" : "VEC3", "max" : [0.9460030794143677, 0.9995760321617126, 0.9995760321617126], "min" : [-1.0000044107437134, -0.9995760321617126, -0.9995760321617126], "name" : "NORMAL"}, {"bufferView" : 0, "byteOffset" : 6648, "componentType" : 5123, "count" : 987, "type" : "SCALAR", "max" : [850], "min" : [0]}, {"bufferView" : 5, "byteOffset" : 0, "componentType" : 5126, "count" : 851, "type" : "VEC3", "max" : [-1.220128059387207, 1.3645720481872559, 3.2450509071350098], "min" : [-1.785230040550232, -0.0025080000050365925, 1.8612289428710938], "name" : "POSITION"}, {"bufferView" : 5, "byteOffset" : 12, "componentType" : 5126, "count" : 851, "type" : "VEC2", "max" : [0.9944279789924622, -0.4313870072364807], "min" : [0.0006220000213943422, -0.9980180263519287], "name" : "TEXCOORD_0"}, {"bufferView" : 5, "byteOffset" : 20, "componentType" : 5126, "count" : 851, "type" : "VEC3", "max" : [0.9460030794143677, 0.9995760321617126, 0.9995760321617126], "min" : [-1.0000044107437134, -0.9995760321617126, -0.9995760321617126], "name" : "NORMAL"}, {"bufferView" : 0, "byteOffset" : 8624, "componentType" : 5123, "count" : 987, "type" : "SCALAR", "max" : [851], "min" : [0]}, {"bufferView" : 6, "byteOffset" : 0, "componentType" : 5126, "count" : 852, "type" : "VEC3", "max" : [1.785233974456787, 1.362828016281128, -1.790945053100586], "min" : [1.2201319932937622, -0.004251000005751848, -3.174767017364502], "name" : "POSITION"}, {"bufferView" : 6, "byteOffset" : 12, "componentType" : 5126, "count" : 852, "type" : "VEC2", "max" : [0.9944279789924622, -0.4313870072364807], "min" : [0.0006220000213943422, -0.9980180263519287], "name" : "TEXCOORD_0"}, {"bufferView" : 6, "byteOffset" : 20, "componentType" : 5126, "count" : 852, "type" : "VEC3", "max" : [1.0000044107437134, 0.9995760321617126, 0.9995760321617126], "min" : [-0.9460030794143677, -0.9995760321617126, -0.9995760321617126], "name" : "NORMAL"}, {"bufferView" : 0, "byteOffset" : 10600, "componentType" : 5123, "count" : 987, "type" : "SCALAR", "max" : [851], "min" : [0]}, {"bufferView" : 7, "byteOffset" : 0, "componentType" : 5126, "count" : 852, "type" : "VEC3", "max" : [1.785233974456787, 1.3633509874343872, -0.28238600492477417], "min" : [1.2201319932937622, -0.003728999989107251, -1.666208028793335], "name" : "POSITION"}, {"bufferView" : 7, "byteOffset" : 12, "componentType" : 5126, "count" : 852, "type" : "VEC2", "max" : [0.9944279789924622, -0.4313870072364807], "min" : [0.0006220000213943422, -0.9980180263519287], "name" : "TEXCOORD_0"}, {"bufferView" : 7, "byteOffset" : 20, "componentType" : 5126, "count" : 852, "type" : "VEC3", "max" : [1.0000044107437134, 0.9995760321617126, 0.9995760321617126], "min" : [-0.9460030794143677, -0.9995760321617126, -0.9995760321617126], "name" : "NORMAL"}, {"bufferView" : 0, "byteOffset" : 12576, "componentType" : 5123, "count" : 987, "type" : "SCALAR", "max" : [851], "min" : [0]}, {"bufferView" : 8, "byteOffset" : 0, "componentType" : 5126, "count" : 852, "type" : "VEC3", "max" : [1.785233974456787, 1.3640400171279907, 1.7098309993743896], "min" : [1.2201319932937622, -0.00303900009021163, 0.32600900530815125], "name" : "POSITION"}, {"bufferView" : 8, "byteOffset" : 12, "componentType" : 5126, "count" : 852, "type" : "VEC2", "max" : [0.9944279789924622, -0.4313870072364807], "min" : [0.0006220000213943422, -0.9980180263519287], "name" : "TEXCOORD_0"}, {"bufferView" : 8, "byteOffset" : 20, "componentType" : 5126, "count" : 852, "type" : "VEC3", "max" : [1.0000044107437134, 0.9995760321617126, 0.9995760321617126], "min" : [-0.9460030794143677, -0.9995760321617126, -0.9995760321617126], "name" : "NORMAL"}, {"bufferView" : 0, "byteOffset" : 14552, "componentType" : 5123, "count" : 987, "type" : "SCALAR", "max" : [851], "min" : [0]}, {"bufferView" : 9, "byteOffset" : 0, "componentType" : 5126, "count" : 852, "type" : "VEC3", "max" : [1.785233974456787, 1.3645720481872559, 3.2450509071350098], "min" : [1.2201319932937622, -0.0025080000050365925, 1.8612289428710938], "name" : "POSITION"}, {"bufferView" : 9, "byteOffset" : 12, "componentType" : 5126, "count" : 852, "type" : "VEC2", "max" : [0.9944279789924622, -0.4313870072364807], "min" : [0.0006220000213943422, -0.9980180263519287], "name" : "TEXCOORD_0"}, {"bufferView" : 9, "byteOffset" : 20, "componentType" : 5126, "count" : 852, "type" : "VEC3", "max" : [1.0000044107437134, 0.9995760321617126, 0.9995760321617126], "min" : [-0.9460030794143677, -0.9995760321617126, -0.9995760321617126], "name" : "NORMAL"}, {"bufferView" : 0, "byteOffset" : 16528, "componentType" : 5123, "count" : 30, "type" : "SCALAR", "max" : [25], "min" : [0]}, {"bufferView" : 10, "byteOffset" : 0, "componentType" : 5126, "count" : 26, "type" : "VEC3", "max" : [1.3517669439315796, 3.7996439933776855, 1.6643019914627075], "min" : [-1.3517669439315796, 2.9983789920806885, -0.4265030026435852], "name" : "POSITION"}, {"bufferView" : 10, "byteOffset" : 12, "componentType" : 5126, "count" : 26, "type" : "VEC2", "max" : [0.5924429893493652, -0.5373579859733582], "min" : [0.520609974861145, -0.6091910004615784], "name" : "TEXCOORD_0"}, {"bufferView" : 10, "byteOffset" : 20, "componentType" : 5126, "count" : 26, "type" : "VEC3", "max" : [1.0000044107437134, 1.0000044107437134, 1.0000044107437134], "min" : [0, -1.0000044107437134, 0], "name" : "NORMAL"}, {"bufferView" : 0, "byteOffset" : 16588, "componentType" : 5123, "count" : 1014, "type" : "SCALAR", "max" : [845], "min" : [0]}, {"bufferView" : 11, "byteOffset" : 0, "componentType" : 5126, "count" : 846, "type" : "VEC3", "max" : [1.3479549884796143, 3.797898054122925, 1.6609129905700684], "min" : [-1.3479549884796143, 3.0036609172821045, -0.42420798540115356], "name" : "POSITION"}, {"bufferView" : 11, "byteOffset" : 12, "componentType" : 5126, "count" : 846, "type" : "VEC2", "max" : [0.9854450225830078, -0.000615999975707382], "min" : [0.0015360000543296337, -0.993698000907898], "name" : "TEXCOORD_0"}, {"bufferView" : 11, "byteOffset" : 20, "componentType" : 5126, "count" : 846, "type" : "VEC3", "max" : [1.0000044107437134, 1.0000044107437134, 0.9995759129524231], "min" : [-1.0000044107437134, -1.0000044107437134, -1.0000044107437134], "name" : "NORMAL"}, {"bufferView" : 0, "byteOffset" : 18616, "componentType" : 5123, "count" : 153, "type" : "SCALAR", "max" : [135], "min" : [0]}, {"bufferView" : 12, "byteOffset" : 0, "componentType" : 5126, "count" : 136, "type" : "VEC3", "max" : [0.9780229926109314, 4.122269153594971, 1.6856319904327393], "min" : [-0.9780229926109314, 2.6335349082946777, -0.31436601281166077], "name" : "POSITION"}, {"bufferView" : 12, "byteOffset" : 12, "componentType" : 5126, "count" : 136, "type" : "VEC2", "max" : [0.4909839928150177, -0.5231540203094482], "min" : [0.4203850030899048, -0.5937520265579224], "name" : "TEXCOORD_0"}, {"bufferView" : 12, "byteOffset" : 20, "componentType" : 5126, "count" : 136, "type" : "VEC3", "max" : [1.0000044107437134, 1.0000044107437134, 1.0000044107437134], "min" : [-1.0000044107437134, -1.0000044107437134, -1.0000044107437134], "name" : "NORMAL"}, {"bufferView" : 0, "byteOffset" : 18924, "componentType" : 5123, "count" : 993, "type" : "SCALAR", "max" : [856], "min" : [0]}, {"bufferView" : 13, "byteOffset" : 0, "componentType" : 5126, "count" : 857, "type" : "VEC3", "max" : [0.1592019945383072, 4.134034156799316, 1.324537992477417], "min" : [-0.1592009961605072, 3.737942934036255, 0.8383060097694397], "name" : "POSITION"}, {"bufferView" : 13, "byteOffset" : 12, "componentType" : 5126, "count" : 857, "type" : "VEC2", "max" : [0.9873440265655518, -0.2342970073223114], "min" : [0.04720599949359894, -0.9901559948921204], "name" : "TEXCOORD_0"}, {"bufferView" : 13, "byteOffset" : 20, "componentType" : 5126, "count" : 857, "type" : "VEC3", "max" : [1.0000044107437134, 1.0000044107437134, 1.0000044107437134], "min" : [-1.0000044107437134, -1.0000044107437134, -1.0000044107437134], "name" : "NORMAL"}], "asset" : {"generator" : "Aspose.3D 22.3", "version" : "2.0"}, "buffers" : [{"uri" : "data:application/octet-stream;base64,", "byteLength" : 355240}], "bufferViews" : [{"buffer" : 0, "byteOffset" : 0, "byteLength" : 20912, "target" : 34963}, {"buffer" : 0, "byteOffset" : 20916, "byteLength" : 11520, "byteStride" : 32, "target" : 34962}, {"buffer" : 0, "byteOffset" : 32440, "byteLength" : 31584, "byteStride" : 32, "target" : 34962}, {"buffer" : 0, "byteOffset" : 64028, "byteLength" : 31584, "byteStride" : 32, "target" : 34962}, {"buffer" : 0, "byteOffset" : 95616, "byteLength" : 31584, "byteStride" : 32, "target" : 34962}, {"buffer" : 0, "byteOffset" : 127204, "byteLength" : 31584, "byteStride" : 32, "target" : 34962}, {"buffer" : 0, "byteOffset" : 158792, "byteLength" : 31584, "byteStride" : 32, "target" : 34962}, {"buffer" : 0, "byteOffset" : 190380, "byteLength" : 31584, "byteStride" : 32, "target" : 34962}, {"buffer" : 0, "byteOffset" : 221968, "byteLength" : 31584, "byteStride" : 32, "target" : 34962}, {"buffer" : 0, "byteOffset" : 253556, "byteLength" : 31584, "byteStride" : 32, "target" : 34962}, {"buffer" : 0, "byteOffset" : 285144, "byteLength" : 960, "byteStride" : 32, "target" : 34962}, {"buffer" : 0, "byteOffset" : 286108, "byteLength" : 32448, "byteStride" : 32, "target" : 34962}, {"buffer" : 0, "byteOffset" : 318560, "byteLength" : 4896, "byteStride" : 32, "target" : 34962}, {"buffer" : 0, "byteOffset" : 323460, "byteLength" : 31776, "byteStride" : 32, "target" : 34962}], "meshes" : [{"primitives" : [{"attributes" : {"POSITION" : 1, "TEXCOORD_0" : 2, "NORMAL" : 3}, "indices" : 0, "mode" : 4}], "name" : ""}, {"primitives" : [{"attributes" : {"POSITION" : 5, "TEXCOORD_0" : 6, "NORMAL" : 7}, "indices" : 4, "mode" : 4}], "name" : ""}, {"primitives" : [{"attributes" : {"POSITION" : 9, "TEXCOORD_0" : 10, "NORMAL" : 11}, "indices" : 8, "mode" : 4}], "name" : ""}, {"primitives" : [{"attributes" : {"POSITION" : 13, "TEXCOORD_0" : 14, "NORMAL" : 15}, "indices" : 12, "mode" : 4}], "name" : ""}, {"primitives" : [{"attributes" : {"POSITION" : 17, "TEXCOORD_0" : 18, "NORMAL" : 19}, "indices" : 16, "mode" : 4}], "name" : ""}, {"primitives" : [{"attributes" : {"POSITION" : 21, "TEXCOORD_0" : 22, "NORMAL" : 23}, "indices" : 20, "mode" : 4}], "name" : ""}, {"primitives" : [{"attributes" : {"POSITION" : 25, "TEXCOORD_0" : 26, "NORMAL" : 27}, "indices" : 24, "mode" : 4}], "name" : ""}, {"primitives" : [{"attributes" : {"POSITION" : 29, "TEXCOORD_0" : 30, "NORMAL" : 31}, "indices" : 28, "mode" : 4}], "name" : ""}, {"primitives" : [{"attributes" : {"POSITION" : 33, "TEXCOORD_0" : 34, "NORMAL" : 35}, "indices" : 32, "mode" : 4}], "name" : ""}, {"primitives" : [{"attributes" : {"POSITION" : 37, "TEXCOORD_0" : 38, "NORMAL" : 39}, "indices" : 36, "mode" : 4}], "name" : ""}, {"primitives" : [{"attributes" : {"POSITION" : 41, "TEXCOORD_0" : 42, "NORMAL" : 43}, "indices" : 40, "mode" : 4}], "name" : ""}, {"primitives" : [{"attributes" : {"POSITION" : 45, "TEXCOORD_0" : 46, "NORMAL" : 47}, "indices" : 44, "mode" : 4}], "name" : ""}, {"primitives" : [{"attributes" : {"POSITION" : 49, "TEXCOORD_0" : 50, "NORMAL" : 51}, "indices" : 48, "mode" : 4}], "name" : ""}], "nodes" : [{"mesh" : 0, "name" : "apc_lowPoly_Mesh.5027"}, {"mesh" : 1, "name" : "wheel_L_1_Mesh.5030"}, {"mesh" : 2, "name" : "wheel_L_2_Mesh.5031"}, {"mesh" : 3, "name" : "wheel_L_3_Mesh.5032"}, {"mesh" : 4, "name" : "wheel_L_4_Mesh.5033"}, {"mesh" : 5, "name" : "wheel_R_1_Mesh.5034"}, {"mesh" : 6, "name" : "wheel_R_2_Mesh.5035"}, {"mesh" : 7, "name" : "wheel_R_3_Mesh.5036"}, {"mesh" : 8, "name" : "wheel_R_4_Mesh.5037"}, {"mesh" : 9, "name" : "launcher_LOD_Mesh.5041"}, {"mesh" : 10, "name" : "tubes_Mesh.5042"}, {"mesh" : 11, "name" : "turret_LOD_Mesh.5051"}, {"mesh" : 12, "name" : "camera_Mesh.5054"}], "scene" : 0, "scenes" : [{"nodes" : [0, 1, 2, 3, 4, 5, 6, 7, 8, 9, 10, 11, 12]}]}