{"accessors" : [{"bufferView" : 0, "byteOffset" : 0, "componentType" : 5123, "count" : 519, "type" : "SCALAR", "max" : [447], "min" : [0]}, {"bufferView" : 1, "byteOffset" : 0, "componentType" : 5126, "count" : 448, "type" : "VEC3", "max" : [10.11906909942627, 8.434918403625488, 107.61837005615234], "min" : [-10.157478332519531, 3.5083770751953125, 102.10575866699219], "name" : "POSITION"}, {"bufferView" : 1, "byteOffset" : 12, "componentType" : 5126, "count" : 448, "type" : "VEC2", "max" : [0.3539949953556061, -0.005566000007092953], "min" : [0.29719799757003784, -0.052246998995542526], "name" : "TEXCOORD_0"}, {"bufferView" : 1, "byteOffset" : 20, "componentType" : 5126, "count" : 448, "type" : "VEC3", "max" : [0.9314096570014954, 0.90108323097229, 0.9999402761459351], "min" : [-0.9314096570014954, -0.9447916150093079, -0.9999779462814331], "name" : "NORMAL"}, {"bufferView" : 0, "byteOffset" : 1040, "componentType" : 5123, "count" : 861, "type" : "SCALAR", "max" : [750], "min" : [0]}, {"bufferView" : 2, "byteOffset" : 0, "componentType" : 5126, "count" : 751, "type" : "VEC3", "max" : [15.884199142456055, 21.134498596191406, 134.67828369140625], "min" : [-15.884195327758789, 21.054275512695312, -97.32169342041016], "name" : "POSITION"}, {"bufferView" : 2, "byteOffset" : 12, "componentType" : 5126, "count" : 751, "type" : "VEC2", "max" : [0.9617159962654114, -0.025301000103354454], "min" : [0.007646999787539244, -0.6556299924850464], "name" : "TEXCOORD_0"}, {"bufferView" : 2, "byteOffset" : 20, "componentType" : 5126, "count" : 751, "type" : "VEC3", "max" : [0.24079515039920807, 1.0000042915344238, -0.000199995978618972], "min" : [-0.1720002293586731, 0.970580518245697, -0.00040002205059863627], "name" : "NORMAL"}, {"bufferView" : 0, "byteOffset" : 2764, "componentType" : 5123, "count" : 612, "type" : "SCALAR", "max" : [529], "min" : [0]}, {"bufferView" : 3, "byteOffset" : 0, "componentType" : 5126, "count" : 530, "type" : "VEC3", "max" : [30.693084716796875, 21.09871482849121, -16.448678970336914], "min" : [12.616387367248535, 16.77491569519043, -37.095130920410156], "name" : "POSITION"}, {"bufferView" : 3, "byteOffset" : 12, "componentType" : 5126, "count" : 530, "type" : "VEC2", "max" : [0.4134179949760437, -0.6041730046272278], "min" : [0.00863999966531992, -0.9966310262680054], "name" : "TEXCOORD_0"}, {"bufferView" : 3, "byteOffset" : 20, "componentType" : 5126, "count" : 530, "type" : "VEC3", "max" : [1.0000044107437134, 1.0000044107437134, 1.0000044107437134], "min" : [-1.0000044107437134, -1.0000044107437134, -1.0000044107437134], "name" : "NORMAL"}, {"bufferView" : 0, "byteOffset" : 3988, "componentType" : 5123, "count" : 612, "type" : "SCALAR", "max" : [528], "min" : [0]}, {"bufferView" : 4, "byteOffset" : 0, "componentType" : 5126, "count" : 529, "type" : "VEC3", "max" : [-11.147395133972168, 20.917104721069336, -59.35796356201172], "min" : [-29.22409439086914, 16.593305587768555, -80.0044174194336], "name" : "POSITION"}, {"bufferView" : 4, "byteOffset" : 12, "componentType" : 5126, "count" : 529, "type" : "VEC2", "max" : [0.4134179949760437, -0.6041730046272278], "min" : [0.00863999966531992, -0.9966310262680054], "name" : "TEXCOORD_0"}, {"bufferView" : 4, "byteOffset" : 20, "componentType" : 5126, "count" : 529, "type" : "VEC3", "max" : [1.0000044107437134, 1.0000044107437134, 1.0000044107437134], "min" : [-1.0000044107437134, -1.0000044107437134, -1.0000044107437134], "name" : "NORMAL"}, {"bufferView" : 0, "byteOffset" : 5212, "componentType" : 5123, "count" : 1575, "type" : "SCALAR", "max" : [1316], "min" : [0]}, {"bufferView" : 5, "byteOffset" : 0, "componentType" : 5126, "count" : 1317, "type" : "VEC3", "max" : [15.895930290222168, 21.134498596191406, 134.67889404296875], "min" : [-15.89594554901123, -8.318499565124512, -103.65422058105469], "name" : "POSITION"}, {"bufferView" : 5, "byteOffset" : 12, "componentType" : 5126, "count" : 1317, "type" : "VEC2", "max" : [0.8536890149116516, -0], "min" : [0, -0.7978860139846802], "name" : "TEXCOORD_0"}, {"bufferView" : 5, "byteOffset" : 20, "componentType" : 5126, "count" : 1317, "type" : "VEC3", "max" : [1.0000044107437134, 1.0000044107437134, 1.0000042915344238], "min" : [-1.0000044107437134, -1.0000042915344238, -1.0000044107437134], "name" : "NORMAL"}, {"bufferView" : 0, "byteOffset" : 8364, "componentType" : 5123, "count" : 762, "type" : "SCALAR", "max" : [675], "min" : [0]}, {"bufferView" : 6, "byteOffset" : 0, "componentType" : 5126, "count" : 676, "type" : "VEC3", "max" : [15.884211540222168, 21.08275604248047, -10.942806243896484], "min" : [-15.884182929992676, -8.393403053283691, -90.72160339355469], "name" : "POSITION"}, {"bufferView" : 6, "byteOffset" : 12, "componentType" : 5126, "count" : 676, "type" : "VEC2", "max" : [0.8518530130386353, -0], "min" : [0, -0.6639670133590698], "name" : "TEXCOORD_0"}, {"bufferView" : 6, "byteOffset" : 20, "componentType" : 5126, "count" : 676, "type" : "VEC3", "max" : [1.0000044107437134, 1.0000042915344238, 1.0000042915344238], "min" : [-1.0000044107437134, -1.0000042915344238, -1.0000042915344238], "name" : "NORMAL"}, {"bufferView" : 0, "byteOffset" : 9888, "componentType" : 5123, "count" : 2547, "type" : "SCALAR", "max" : [2199], "min" : [0]}, {"bufferView" : 7, "byteOffset" : 0, "componentType" : 5126, "count" : 2200, "type" : "VEC3", "max" : [-2.739238977432251, 53.66657257080078, 36.157718658447266], "min" : [-17.121030807495117, 18.994586944580078, -29.335981369018555], "name" : "POSITION"}, {"bufferView" : 7, "byteOffset" : 12, "componentType" : 5126, "count" : 2200, "type" : "VEC2", "max" : [0.9921309947967529, -0], "min" : [0, -0.8843680024147034], "name" : "TEXCOORD_0"}, {"bufferView" : 7, "byteOffset" : 20, "componentType" : 5126, "count" : 2200, "type" : "VEC3", "max" : [1.0000044107437134, 1.0000044107437134, 1.0000044107437134], "min" : [-1.0000044107437134, -1.0000044107437134, -1.0000044107437134], "name" : "NORMAL"}, {"bufferView" : 0, "byteOffset" : 14984, "componentType" : 5123, "count" : 99, "type" : "SCALAR", "max" : [86], "min" : [0]}, {"bufferView" : 8, "byteOffset" : 0, "componentType" : 5126, "count" : 87, "type" : "VEC3", "max" : [-2.8977670669555664, 35.32574462890625, 13.022640228271484], "min" : [-16.78652000427246, 28.296659469604492, 5.578106880187988], "name" : "POSITION"}, {"bufferView" : 8, "byteOffset" : 12, "componentType" : 5126, "count" : 87, "type" : "VEC2", "max" : [0.3848229944705963, -0.32394498586654663], "min" : [0.21959400177001953, -0.49479299783706665], "name" : "TEXCOORD_0"}, {"bufferView" : 8, "byteOffset" : 20, "componentType" : 5126, "count" : 87, "type" : "VEC3", "max" : [1.0000044107437134, 0, 0.8461597561836243], "min" : [-0.8238734006881714, -0.6971220970153809, -0.8453001379966736], "name" : "NORMAL"}, {"bufferView" : 0, "byteOffset" : 15184, "componentType" : 5123, "count" : 63, "type" : "SCALAR", "max" : [53], "min" : [0]}, {"bufferView" : 9, "byteOffset" : 0, "componentType" : 5126, "count" : 54, "type" : "VEC3", "max" : [13.77143383026123, 7.248064994812012, -96.71923065185547], "min" : [-13.81213092803955, -0.8782830238342285, -97.21492767333984], "name" : "POSITION"}, {"bufferView" : 9, "byteOffset" : 12, "componentType" : 5126, "count" : 54, "type" : "VEC2", "max" : [0.3819980025291443, -0.10836999863386154], "min" : [0.3000650107860565, -0.5490189790725708], "name" : "TEXCOORD_0"}, {"bufferView" : 9, "byteOffset" : 20, "componentType" : 5126, "count" : 54, "type" : "VEC3", "max" : [1.0000044107437134, 1.0000042915344238, 1.0000042915344238], "min" : [-1.0000044107437134, -1.0000042915344238, -1.0000042915344238], "name" : "NORMAL"}, {"bufferView" : 0, "byteOffset" : 15312, "componentType" : 5123, "count" : 21, "type" : "SCALAR", "max" : [17], "min" : [0]}, {"bufferView" : 10, "byteOffset" : 0, "componentType" : 5126, "count" : 18, "type" : "VEC3", "max" : [-11.593847274780273, 24.06334686279297, 25.479310989379883], "min" : [-13.479461669921875, 23.944704055786133, 23.523038864135742], "name" : "POSITION"}, {"bufferView" : 10, "byteOffset" : 12, "componentType" : 5126, "count" : 18, "type" : "VEC2", "max" : [0.6248980164527893, -0.003891000058501959], "min" : [0.003891000058501959, -0.5304359793663025], "name" : "TEXCOORD_0"}, {"bufferView" : 10, "byteOffset" : 20, "componentType" : 5126, "count" : 18, "type" : "VEC3", "max" : [0.9996123313903809, 1.0000044107437134, 0.9996123313903809], "min" : [-0.9996123313903809, 0, -0.028000345453619957], "name" : "NORMAL"}, {"bufferView" : 0, "byteOffset" : 15356, "componentType" : 5123, "count" : 21, "type" : "SCALAR", "max" : [18], "min" : [0]}, {"bufferView" : 11, "byteOffset" : 0, "componentType" : 5126, "count" : 19, "type" : "VEC3", "max" : [-11.821535110473633, 15.619823455810547, -99.78374481201172], "min" : [-14.978517532348633, 15.422922134399414, -102.82118225097656], "name" : "POSITION"}, {"bufferView" : 11, "byteOffset" : 12, "componentType" : 5126, "count" : 19, "type" : "VEC2", "max" : [0.6248980164527893, -0.003891000058501959], "min" : [0.003891000058501959, -0.6328570246696472], "name" : "TEXCOORD_0"}, {"bufferView" : 11, "byteOffset" : 20, "componentType" : 5126, "count" : 19, "type" : "VEC3", "max" : [0.9999979138374329, 1.0000042915344238, 0.9999978542327881], "min" : [-0.9999979138374329, -0.00029999922844581306, -0.9999974966049194], "name" : "NORMAL"}, {"bufferView" : 0, "byteOffset" : 15400, "componentType" : 5123, "count" : 1716, "type" : "SCALAR", "max" : [1455], "min" : [0]}, {"bufferView" : 12, "byteOffset" : 0, "componentType" : 5126, "count" : 1456, "type" : "VEC3", "max" : [-12.066150665283203, 18.03015899658203, -99.89400482177734], "min" : [-14.80964469909668, 15.550948143005371, -102.56950378417969], "name" : "POSITION"}, {"bufferView" : 12, "byteOffset" : 12, "componentType" : 5126, "count" : 1456, "type" : "VEC2", "max" : [0.9651700258255005, -0.003891000058501959], "min" : [0.003891000058501959, -0.9653769731521606], "name" : "TEXCOORD_0"}, {"bufferView" : 12, "byteOffset" : 20, "componentType" : 5126, "count" : 1456, "type" : "VEC3", "max" : [0.9843773245811462, 0.9993922114372253, 0.999155580997467], "min" : [-0.9819414615631104, -0.9991624355316162, -0.9687367677688599], "name" : "NORMAL"}, {"bufferView" : 0, "byteOffset" : 18832, "componentType" : 5123, "count" : 1506, "type" : "SCALAR", "max" : [1267], "min" : [0]}, {"bufferView" : 13, "byteOffset" : 0, "componentType" : 5126, "count" : 1268, "type" : "VEC3", "max" : [-13.53171443939209, 17.60785484313965, -101.30533599853516], "min" : [-15.634991645812988, 17.35651397705078, -103.81736755371094], "name" : "POSITION"}, {"bufferView" : 13, "byteOffset" : 12, "componentType" : 5126, "count" : 1268, "type" : "VEC2", "max" : [0.7182739973068237, -0.3100169897079468], "min" : [0.5618219971656799, -0.40731099247932434], "name" : "TEXCOORD_0"}, {"bufferView" : 13, "byteOffset" : 20, "componentType" : 5126, "count" : 1268, "type" : "VEC3", "max" : [0.8212028741836548, 0.9999440312385559, 0.6671911478042603], "min" : [-0.8122348785400391, -0.9999383687973022, -0.7767741680145264], "name" : "NORMAL"}, {"bufferView" : 0, "byteOffset" : 21844, "componentType" : 5123, "count" : 174, "type" : "SCALAR", "max" : [146], "min" : [0]}, {"bufferView" : 14, "byteOffset" : 0, "componentType" : 5126, "count" : 147, "type" : "VEC3", "max" : [-15.094057083129883, 17.602956771850586, -103.22350311279297], "min" : [-15.637958526611328, 17.356897354125977, -103.81227111816406], "name" : "POSITION"}, {"bufferView" : 14, "byteOffset" : 12, "componentType" : 5126, "count" : 147, "type" : "VEC2", "max" : [0.55936598777771, -0.43488600850105286], "min" : [0.2886979877948761, -0.8323130011558533], "name" : "TEXCOORD_0"}, {"bufferView" : 14, "byteOffset" : 20, "componentType" : 5126, "count" : 147, "type" : "VEC3", "max" : [0.7750288844108582, 0.9999987483024597, 0.7750332355499268], "min" : [-0.775029182434082, -0.9999987483024597, -0.7751619219779968], "name" : "NORMAL"}, {"bufferView" : 0, "byteOffset" : 22192, "componentType" : 5123, "count" : 693, "type" : "SCALAR", "max" : [579], "min" : [0]}, {"bufferView" : 15, "byteOffset" : 0, "componentType" : 5126, "count" : 580, "type" : "VEC3", "max" : [-13.484500885009766, 17.658447265625, -101.26593017578125], "min" : [-14.587198257446289, 17.30384063720703, -102.5130615234375], "name" : "POSITION"}, {"bufferView" : 15, "byteOffset" : 12, "componentType" : 5126, "count" : 580, "type" : "VEC2", "max" : [0.5436210036277771, -0.5380550026893616], "min" : [0.5138339996337891, -0.5989930033683777], "name" : "TEXCOORD_0"}, {"bufferView" : 15, "byteOffset" : 20, "componentType" : 5126, "count" : 580, "type" : "VEC3", "max" : [0.8459913730621338, 0.9876027703285217, 0.7749841809272766], "min" : [-0.7644380331039429, -0.9860422611236572, -0.7755662798881531], "name" : "NORMAL"}, {"bufferView" : 0, "byteOffset" : 23580, "componentType" : 5123, "count" : 9570, "type" : "SCALAR", "max" : [8057], "min" : [0]}, {"bufferView" : 16, "byteOffset" : 0, "componentType" : 5126, "count" : 8058, "type" : "VEC3", "max" : [-12.40471363067627, 20.28670883178711, -100.09542083740234], "min" : [-14.619460105895996, 16.244972229003906, -102.53083038330078], "name" : "POSITION"}, {"bufferView" : 16, "byteOffset" : 12, "componentType" : 5126, "count" : 8058, "type" : "VEC2", "max" : [0.9882400035858154, -0.003891000058501959], "min" : [0.003891000058501959, -0.9883210062980652], "name" : "TEXCOORD_0"}, {"bufferView" : 16, "byteOffset" : 20, "componentType" : 5126, "count" : 8058, "type" : "VEC3", "max" : [0.9994578957557678, 0.9999005198478699, 0.9995906949043274], "min" : [-0.9994732737541199, -0.9999113082885742, -0.9995350241661072], "name" : "NORMAL"}, {"bufferView" : 0, "byteOffset" : 42720, "componentType" : 5123, "count" : 456, "type" : "SCALAR", "max" : [379], "min" : [0]}, {"bufferView" : 17, "byteOffset" : 0, "componentType" : 5126, "count" : 380, "type" : "VEC3", "max" : [0.46586599946022034, 20.12323760986328, -99.99970245361328], "min" : [-0.6458659768104553, 18.881744384765625, -101.03923034667969], "name" : "POSITION"}, {"bufferView" : 17, "byteOffset" : 12, "componentType" : 5126, "count" : 380, "type" : "VEC2", "max" : [0.9559310078620911, -0.16543899476528168], "min" : [0.0026549999602138996, -0.9575639963150024], "name" : "TEXCOORD_0"}, {"bufferView" : 17, "byteOffset" : 20, "componentType" : 5126, "count" : 380, "type" : "VEC3", "max" : [0.9835160970687866, 1.0000042915344238, 1.0000042915344238], "min" : [-1.0000044107437134, -1.0000042915344238, -1.0000042915344238], "name" : "NORMAL"}, {"bufferView" : 0, "byteOffset" : 43632, "componentType" : 5123, "count" : 870, "type" : "SCALAR", "max" : [735], "min" : [0]}, {"bufferView" : 18, "byteOffset" : 0, "componentType" : 5126, "count" : 736, "type" : "VEC3", "max" : [0.47054800391197205, 21.422964096069336, -99.6232681274414], "min" : [-0.6505489945411682, 19.596147537231445, -101.04977416992188], "name" : "POSITION"}, {"bufferView" : 18, "byteOffset" : 12, "componentType" : 5126, "count" : 736, "type" : "VEC2", "max" : [0.968093991279602, -0.0026549999602138996], "min" : [0.0026549999602138996, -0.9682160019874573], "name" : "TEXCOORD_0"}, {"bufferView" : 18, "byteOffset" : 20, "componentType" : 5126, "count" : 736, "type" : "VEC3", "max" : [1.0000044107437134, 1.0000044107437134, 1.0000044107437134], "min" : [-1.0000044107437134, -1.0000044107437134, -1.0000044107437134], "name" : "NORMAL"}, {"bufferView" : 0, "byteOffset" : 45372, "componentType" : 5123, "count" : 11454, "type" : "SCALAR", "max" : [9687], "min" : [0]}, {"bufferView" : 19, "byteOffset" : 0, "componentType" : 5126, "count" : 9688, "type" : "VEC3", "max" : [2.216341018676758, 22.051830291748047, -98.46337890625], "min" : [-2.39634108543396, 20.1144962310791, -102.7264633178711], "name" : "POSITION"}, {"bufferView" : 19, "byteOffset" : 12, "componentType" : 5126, "count" : 9688, "type" : "VEC2", "max" : [0.9898300170898438, -0.0026549999602138996], "min" : [0.0026549999602138996, -0.9897459745407104], "name" : "TEXCOORD_0"}, {"bufferView" : 19, "byteOffset" : 20, "componentType" : 5126, "count" : 9688, "type" : "VEC3", "max" : [1.0000044107437134, 1.0000044107437134, 1.0000044107437134], "min" : [-1.0000044107437134, -1.0000044107437134, -1.0000044107437134], "name" : "NORMAL"}, {"bufferView" : 0, "byteOffset" : 68280, "componentType" : 5123, "count" : 24, "type" : "SCALAR", "max" : [20], "min" : [0]}, {"bufferView" : 20, "byteOffset" : 0, "componentType" : 5126, "count" : 21, "type" : "VEC3", "max" : [0.7859749794006348, 18.963348388671875, -99.55712127685547], "min" : [-1.0470889806747437, 18.84470558166504, -101.46288299560547], "name" : "POSITION"}, {"bufferView" : 20, "byteOffset" : 12, "componentType" : 5126, "count" : 21, "type" : "VEC2", "max" : [0.6248980164527893, -0.003891000058501959], "min" : [0.003891000058501959, -0.6328570246696472], "name" : "TEXCOORD_0"}, {"bufferView" : 20, "byteOffset" : 20, "componentType" : 5126, "count" : 21, "type" : "VEC3", "max" : [1.0000044107437134, 1.0000044107437134, 1.0000044107437134], "min" : [-1.0000044107437134, 0, -1.0000044107437134], "name" : "NORMAL"}], "asset" : {"generator" : "Aspose.3D 22.3", "version" : "2.0"}, "buffers" : [{"uri" : "data:application/octet-stream;base64,", "byteLength" : 1161372}], "bufferViews" : [{"buffer" : 0, "byteOffset" : 0, "byteLength" : 68328, "target" : 34963}, {"buffer" : 0, "byteOffset" : 68332, "byteLength" : 16608, "byteStride" : 32, "target" : 34962}, {"buffer" : 0, "byteOffset" : 84944, "byteLength" : 27552, "byteStride" : 32, "target" : 34962}, {"buffer" : 0, "byteOffset" : 112500, "byteLength" : 19584, "byteStride" : 32, "target" : 34962}, {"buffer" : 0, "byteOffset" : 132088, "byteLength" : 19584, "byteStride" : 32, "target" : 34962}, {"buffer" : 0, "byteOffset" : 151676, "byteLength" : 50400, "byteStride" : 32, "target" : 34962}, {"buffer" : 0, "byteOffset" : 202080, "byteLength" : 24384, "byteStride" : 32, "target" : 34962}, {"buffer" : 0, "byteOffset" : 226468, "byteLength" : 81504, "byteStride" : 32, "target" : 34962}, {"buffer" : 0, "byteOffset" : 307976, "byteLength" : 3168, "byteStride" : 32, "target" : 34962}, {"buffer" : 0, "byteOffset" : 311148, "byteLength" : 2016, "byteStride" : 32, "target" : 34962}, {"buffer" : 0, "byteOffset" : 313168, "byteLength" : 672, "byteStride" : 32, "target" : 34962}, {"buffer" : 0, "byteOffset" : 313844, "byteLength" : 672, "byteStride" : 32, "target" : 34962}, {"buffer" : 0, "byteOffset" : 314520, "byteLength" : 54912, "byteStride" : 32, "target" : 34962}, {"buffer" : 0, "byteOffset" : 369436, "byteLength" : 48192, "byteStride" : 32, "target" : 34962}, {"buffer" : 0, "byteOffset" : 417632, "byteLength" : 5568, "byteStride" : 32, "target" : 34962}, {"buffer" : 0, "byteOffset" : 423204, "byteLength" : 22176, "byteStride" : 32, "target" : 34962}, {"buffer" : 0, "byteOffset" : 445384, "byteLength" : 306240, "byteStride" : 32, "target" : 34962}, {"buffer" : 0, "byteOffset" : 751628, "byteLength" : 14592, "byteStride" : 32, "target" : 34962}, {"buffer" : 0, "byteOffset" : 766224, "byteLength" : 27840, "byteStride" : 32, "target" : 34962}, {"buffer" : 0, "byteOffset" : 794068, "byteLength" : 366528, "byteStride" : 32, "target" : 34962}, {"buffer" : 0, "byteOffset" : 1160600, "byteLength" : 768, "byteStride" : 32, "target" : 34962}], "meshes" : [{"primitives" : [{"attributes" : {"POSITION" : 1, "TEXCOORD_0" : 2, "NORMAL" : 3}, "indices" : 0, "mode" : 4}], "name" : ""}, {"primitives" : [{"attributes" : {"POSITION" : 5, "TEXCOORD_0" : 6, "NORMAL" : 7}, "indices" : 4, "mode" : 4}], "name" : ""}, {"primitives" : [{"attributes" : {"POSITION" : 9, "TEXCOORD_0" : 10, "NORMAL" : 11}, "indices" : 8, "mode" : 4}], "name" : ""}, {"primitives" : [{"attributes" : {"POSITION" : 13, "TEXCOORD_0" : 14, "NORMAL" : 15}, "indices" : 12, "mode" : 4}], "name" : ""}, {"primitives" : [{"attributes" : {"POSITION" : 17, "TEXCOORD_0" : 18, "NORMAL" : 19}, "indices" : 16, "mode" : 4}], "name" : ""}, {"primitives" : [{"attributes" : {"POSITION" : 21, "TEXCOORD_0" : 22, "NORMAL" : 23}, "indices" : 20, "mode" : 4}], "name" : ""}, {"primitives" : [{"attributes" : {"POSITION" : 25, "TEXCOORD_0" : 26, "NORMAL" : 27}, "indices" : 24, "mode" : 4}], "name" : ""}, {"primitives" : [{"attributes" : {"POSITION" : 29, "TEXCOORD_0" : 30, "NORMAL" : 31}, "indices" : 28, "mode" : 4}], "name" : ""}, {"primitives" : [{"attributes" : {"POSITION" : 33, "TEXCOORD_0" : 34, "NORMAL" : 35}, "indices" : 32, "mode" : 4}], "name" : ""}, {"primitives" : [{"attributes" : {"POSITION" : 37, "TEXCOORD_0" : 38, "NORMAL" : 39}, "indices" : 36, "mode" : 4}], "name" : ""}, {"primitives" : [{"attributes" : {"POSITION" : 41, "TEXCOORD_0" : 42, "NORMAL" : 43}, "indices" : 40, "mode" : 4}], "name" : ""}, {"primitives" : [{"attributes" : {"POSITION" : 45, "TEXCOORD_0" : 46, "NORMAL" : 47}, "indices" : 44, "mode" : 4}], "name" : ""}, {"primitives" : [{"attributes" : {"POSITION" : 49, "TEXCOORD_0" : 50, "NORMAL" : 51}, "indices" : 48, "mode" : 4}], "name" : ""}, {"primitives" : [{"attributes" : {"POSITION" : 53, "TEXCOORD_0" : 54, "NORMAL" : 55}, "indices" : 52, "mode" : 4}], "name" : ""}, {"primitives" : [{"attributes" : {"POSITION" : 57, "TEXCOORD_0" : 58, "NORMAL" : 59}, "indices" : 56, "mode" : 4}], "name" : ""}, {"primitives" : [{"attributes" : {"POSITION" : 61, "TEXCOORD_0" : 62, "NORMAL" : 63}, "indices" : 60, "mode" : 4}], "name" : ""}, {"primitives" : [{"attributes" : {"POSITION" : 65, "TEXCOORD_0" : 66, "NORMAL" : 67}, "indices" : 64, "mode" : 4}], "name" : ""}, {"primitives" : [{"attributes" : {"POSITION" : 69, "TEXCOORD_0" : 70, "NORMAL" : 71}, "indices" : 68, "mode" : 4}], "name" : ""}, {"primitives" : [{"attributes" : {"POSITION" : 73, "TEXCOORD_0" : 74, "NORMAL" : 75}, "indices" : 72, "mode" : 4}], "name" : ""}, {"primitives" : [{"attributes" : {"POSITION" : 77, "TEXCOORD_0" : 78, "NORMAL" : 79}, "indices" : 76, "mode" : 4}], "name" : ""}], "nodes" : [{"mesh" : 0, "name" : "waspAnchors_Mesh.001"}, {"mesh" : 1, "name" : "waspDeck_Mesh.001"}, {"mesh" : 2, "name" : "waspElevatorLeft_Mesh.001"}, {"mesh" : 3, "name" : "waspElevatorRight_Mesh.001"}, {"mesh" : 4, "name" : "waspHull_Mesh.001"}, {"mesh" : 5, "name" : "waspHull2_Mesh.001"}, {"mesh" : 6, "name" : "waspIsland_Mesh.001"}, {"mesh" : 7, "name" : "waspIslandWindows_Mesh.001"}, {"mesh" : 8, "name" : "waspRearDoor_Mesh.001"}, {"mesh" : 9, "name" : "base_Mesh.001"}, {"mesh" : 10, "name" : "base.001_Mesh.001"}, {"mesh" : 11, "name" : "gear_Mesh.001"}, {"mesh" : 12, "name" : "Cylinder_Mesh.001"}, {"mesh" : 13, "name" : "barrels.002_Mesh.001"}, {"mesh" : 14, "name" : "barrels_Mesh.001"}, {"mesh" : 15, "name" : "turret_Mesh.001"}, {"mesh" : 16, "name" : "basemech.001_Mesh.001"}, {"mesh" : 17, "name" : "pitchmesh.001_Mesh.001"}, {"mesh" : 18, "name" : "tubes.001_Mesh.001"}, {"mesh" : 19, "name" : "base.002_Mesh.001"}], "scene" : 0, "scenes" : [{"nodes" : [0, 1, 2, 3, 4, 5, 6, 7, 8, 9, 10, 11, 12, 13, 14, 15, 16, 17, 18, 19]}]}