{"accessors":[{"name":"waspAnchors_Mesh.001-Mesh_0_positions","componentType":5126,"count":305,"min":[-10.157478332519531,3.5083770751953125,102.10575866699219],"max":[10.11906909942627,8.434918403625488,107.61837005615234],"type":"VEC3","bufferView":0,"byteOffset":0},{"name":"waspAnchors_Mesh.001-Mesh_0_normals","componentType":5126,"count":305,"min":[-0.9314055442810059,-0.9447874426841736,-0.9999735355377197],"max":[0.9314055442810059,0.9010793566703796,0.9999358654022217],"type":"VEC3","bufferView":1,"byteOffset":0},{"name":"waspAnchors_Mesh.001-Mesh_0_texcoords","componentType":5126,"count":305,"min":[0.29719799757003784,0.9477530121803284],"max":[0.3539949953556061,0.9944339990615845],"type":"VEC2","bufferView":2,"byteOffset":0},{"name":"waspAnchors_Mesh.001-Mesh_0_indices","componentType":5123,"count":519,"min":[0],"max":[304],"type":"SCALAR","bufferView":3,"byteOffset":0},{"name":"waspDeck_Mesh.001-Mesh_0_positions","componentType":5126,"count":409,"min":[-15.884195327758789,21.054275512695312,-97.32169342041016],"max":[15.884199142456055,21.134498596191406,134.67828369140625],"type":"VEC3","bufferView":0,"byteOffset":3660},{"name":"waspDeck_Mesh.001-Mesh_0_normals","componentType":5126,"count":409,"min":[-0.1719994693994522,0.9705762267112732,-0.0004000202752649784],"max":[0.2407940924167633,0.9999999403953552,-0.00019999509095214307],"type":"VEC3","bufferView":1,"byteOffset":3660},{"name":"waspDeck_Mesh.001-Mesh_0_texcoords","componentType":5126,"count":409,"min":[0.007646999787539244,0.3443700075149536],"max":[0.9617159962654114,0.9746990203857422],"type":"VEC2","bufferView":2,"byteOffset":2440},{"name":"waspDeck_Mesh.001-Mesh_0_indices","componentType":5123,"count":861,"min":[0],"max":[408],"type":"SCALAR","bufferView":3,"byteOffset":1040},{"name":"waspElevatorLeft_Mesh.001-Mesh_0_positions","componentType":5126,"count":428,"min":[12.616387367248535,16.77491569519043,-37.095130920410156],"max":[30.693084716796875,21.09871482849121,-16.448678970336914],"type":"VEC3","bufferView":0,"byteOffset":8568},{"name":"waspElevatorLeft_Mesh.001-Mesh_0_normals","componentType":5126,"count":428,"min":[-1,-1,-1],"max":[1,1,1],"type":"VEC3","bufferView":1,"byteOffset":8568},{"name":"waspElevatorLeft_Mesh.001-Mesh_0_texcoords","componentType":5126,"count":428,"min":[0.00863999966531992,0.003369000041857362],"max":[0.4134179949760437,0.3958269953727722],"type":"VEC2","bufferView":2,"byteOffset":5712},{"name":"waspElevatorLeft_Mesh.001-Mesh_0_indices","componentType":5123,"count":612,"min":[0],"max":[427],"type":"SCALAR","bufferView":3,"byteOffset":2764},{"name":"waspElevatorRight_Mesh.001-Mesh_0_positions","componentType":5126,"count":428,"min":[-29.22409439086914,16.593305587768555,-80.0044174194336],"max":[-11.147395133972168,20.917104721069336,-59.35796356201172],"type":"VEC3","bufferView":0,"byteOffset":13704},{"name":"waspElevatorRight_Mesh.001-Mesh_0_normals","componentType":5126,"count":428,"min":[-1,-1,-1],"max":[1,1,1],"type":"VEC3","bufferView":1,"byteOffset":13704},{"name":"waspElevatorRight_Mesh.001-Mesh_0_texcoords","componentType":5126,"count":428,"min":[0.00863999966531992,0.003369000041857362],"max":[0.4134179949760437,0.3958269953727722],"type":"VEC2","bufferView":2,"byteOffset":9136},{"name":"waspElevatorRight_Mesh.001-Mesh_0_indices","componentType":5123,"count":612,"min":[0],"max":[427],"type":"SCALAR","bufferView":3,"byteOffset":3988},{"name":"waspHull_Mesh.001-Mesh_0_positions","componentType":5126,"count":696,"min":[-15.89594554901123,-8.318499565124512,-103.65422058105469],"max":[15.895930290222168,21.134498596191406,134.67889404296875],"type":"VEC3","bufferView":0,"byteOffset":18840},{"name":"waspHull_Mesh.001-Mesh_0_normals","componentType":5126,"count":696,"min":[-1,-0.9999999403953552,-1],"max":[1,1,0.9999999403953552],"type":"VEC3","bufferView":1,"byteOffset":18840},{"name":"waspHull_Mesh.001-Mesh_0_texcoords","componentType":5126,"count":696,"min":[0,0.20211400091648102],"max":[0.8536890149116516,1],"type":"VEC2","bufferView":2,"byteOffset":12560},{"name":"waspHull_Mesh.001-Mesh_0_indices","componentType":5123,"count":1575,"min":[0],"max":[695],"type":"SCALAR","bufferView":3,"byteOffset":5212},{"name":"waspHull2_Mesh.001-Mesh_0_positions","componentType":5126,"count":368,"min":[-15.884182929992676,-8.393403053283691,-90.72160339355469],"max":[15.884211540222168,21.08275604248047,-10.942806243896484],"type":"VEC3","bufferView":0,"byteOffset":27192},{"name":"waspHull2_Mesh.001-Mesh_0_normals","componentType":5126,"count":368,"min":[-1,-0.9999999403953552,-0.9999999403953552],"max":[1,0.9999999403953552,0.9999999403953552],"type":"VEC3","bufferView":1,"byteOffset":27192},{"name":"waspHull2_Mesh.001-Mesh_0_texcoords","componentType":5126,"count":368,"min":[0,0.3360329866409302],"max":[0.8518530130386353,1],"type":"VEC2","bufferView":2,"byteOffset":18128},{"name":"waspHull2_Mesh.001-Mesh_0_indices","componentType":5123,"count":762,"min":[0],"max":[367],"type":"SCALAR","bufferView":3,"byteOffset":8364},{"name":"waspIsland_Mesh.001-Mesh_0_positions","componentType":5126,"count":1544,"min":[-17.121030807495117,18.994586944580078,-29.335981369018555],"max":[-2.739238977432251,53.66657257080078,36.157718658447266],"type":"VEC3","bufferView":0,"byteOffset":31608},{"name":"waspIsland_Mesh.001-Mesh_0_normals","componentType":5126,"count":1544,"min":[-1,-1,-1],"max":[1,1,1],"type":"VEC3","bufferView":1,"byteOffset":31608},{"name":"waspIsland_Mesh.001-Mesh_0_texcoords","componentType":5126,"count":1544,"min":[0,0.11563199758529663],"max":[0.9921309947967529,1],"type":"VEC2","bufferView":2,"byteOffset":21072},{"name":"waspIsland_Mesh.001-Mesh_0_indices","componentType":5123,"count":2547,"min":[0],"max":[1543],"type":"SCALAR","bufferView":3,"byteOffset":9888},{"name":"waspIslandWindows_Mesh.001-Mesh_0_positions","componentType":5126,"count":75,"min":[-16.78652000427246,28.296659469604492,5.578106880187988],"max":[-2.8977670669555664,35.32574462890625,13.022640228271484],"type":"VEC3","bufferView":0,"byteOffset":50136},{"name":"waspIslandWindows_Mesh.001-Mesh_0_normals","componentType":5126,"count":75,"min":[-0.8238697648048401,-0.6971189975738525,-0.8452963829040527],"max":[1,0,0.8461560010910034],"type":"VEC3","bufferView":1,"byteOffset":50136},{"name":"waspIslandWindows_Mesh.001-Mesh_0_texcoords","componentType":5126,"count":75,"min":[0.21959400177001953,0.5052070021629333],"max":[0.3848229944705963,0.6760550141334534],"type":"VEC2","bufferView":2,"byteOffset":33424},{"name":"waspIslandWindows_Mesh.001-Mesh_0_indices","componentType":5123,"count":99,"min":[0],"max":[74],"type":"SCALAR","bufferView":3,"byteOffset":14984},{"name":"waspRearDoor_Mesh.001-Mesh_0_positions","componentType":5126,"count":37,"min":[-13.81213092803955,-0.8782830238342285,-97.21492767333984],"max":[13.77143383026123,7.248064994812012,-96.71923065185547],"type":"VEC3","bufferView":0,"byteOffset":51036},{"name":"waspRearDoor_Mesh.001-Mesh_0_normals","componentType":5126,"count":37,"min":[-1,-0.9999999403953552,-0.9999999403953552],"max":[1,0.9999999403953552,0.9999999403953552],"type":"VEC3","bufferView":1,"byteOffset":51036},{"name":"waspRearDoor_Mesh.001-Mesh_0_texcoords","componentType":5126,"count":37,"min":[0.3000650107860565,0.4509809911251068],"max":[0.3819980025291443,0.8916299939155579],"type":"VEC2","bufferView":2,"byteOffset":34024},{"name":"waspRearDoor_Mesh.001-Mesh_0_indices","componentType":5123,"count":63,"min":[0],"max":[36],"type":"SCALAR","bufferView":3,"byteOffset":15184},{"name":"base_Mesh.001-Mesh_0_positions","componentType":5126,"count":15,"min":[-13.479461669921875,23.944704055786133,23.523038864135742],"max":[-11.593847274780273,24.06334686279297,25.479310989379883],"type":"VEC3","bufferView":0,"byteOffset":51480},{"name":"base_Mesh.001-Mesh_0_normals","componentType":5126,"count":15,"min":[-0.9996079206466675,0,-0.028000222519040108],"max":[0.9996079206466675,1,0.9996079206466675],"type":"VEC3","bufferView":1,"byteOffset":51480},{"name":"base_Mesh.001-Mesh_0_texcoords","componentType":5126,"count":15,"min":[0.003891000058501959,0.4695639908313751],"max":[0.6248980164527893,0.9961090087890625],"type":"VEC2","bufferView":2,"byteOffset":34320},{"name":"base_Mesh.001-Mesh_0_indices","componentType":5123,"count":21,"min":[0],"max":[14],"type":"SCALAR","bufferView":3,"byteOffset":15312},{"name":"base.001_Mesh.001-Mesh_0_positions","componentType":5126,"count":17,"min":[-14.978517532348633,15.422922134399414,-102.82118225097656],"max":[-11.821535110473633,15.619823455810547,-99.78374481201172],"type":"VEC3","bufferView":0,"byteOffset":51660},{"name":"base.001_Mesh.001-Mesh_0_normals","componentType":5126,"count":17,"min":[-0.9999935030937195,-0.0002999979187734425,-0.999993085861206],"max":[0.9999935030937195,0.9999999403953552,0.9999934434890747],"type":"VEC3","bufferView":1,"byteOffset":51660},{"name":"base.001_Mesh.001-Mesh_0_texcoords","componentType":5126,"count":17,"min":[0.003891000058501959,0.36714300513267517],"max":[0.6248980164527893,0.9961090087890625],"type":"VEC2","bufferView":2,"byteOffset":34440},{"name":"base.001_Mesh.001-Mesh_0_indices","componentType":5123,"count":21,"min":[0],"max":[16],"type":"SCALAR","bufferView":3,"byteOffset":15356},{"name":"gear_Mesh.001-Mesh_0_positions","componentType":5126,"count":1064,"min":[-14.80964469909668,15.550948143005371,-102.56950378417969],"max":[-12.066150665283203,18.03015899658203,-99.89400482177734],"type":"VEC3","bufferView":0,"byteOffset":51864},{"name":"gear_Mesh.001-Mesh_0_normals","componentType":5126,"count":1064,"min":[-0.9819371104240417,-0.9991580247879028,-0.968732476234436],"max":[0.9843729734420776,0.999387800693512,0.9991511702537537],"type":"VEC3","bufferView":1,"byteOffset":51864},{"name":"gear_Mesh.001-Mesh_0_texcoords","componentType":5126,"count":1064,"min":[0.003891000058501959,0.034623000770807266],"max":[0.9651700258255005,0.9961090087890625],"type":"VEC2","bufferView":2,"byteOffset":34576},{"name":"gear_Mesh.001-Mesh_0_indices","componentType":5123,"count":1716,"min":[0],"max":[1063],"type":"SCALAR","bufferView":3,"byteOffset":15400},{"name":"Cylinder_Mesh.001-Mesh_0_positions","componentType":5126,"count":538,"min":[-15.634991645812988,17.35651397705078,-103.81736755371094],"max":[-13.53171443939209,17.60785484313965,-101.30533599853516],"type":"VEC3","bufferView":0,"byteOffset":64632},{"name":"Cylinder_Mesh.001-Mesh_0_normals","componentType":5126,"count":538,"min":[-0.8122313022613525,-0.9999339580535889,-0.7767707705497742],"max":[0.8211992383003235,0.9999396204948425,0.6671882271766663],"type":"VEC3","bufferView":1,"byteOffset":64632},{"name":"Cylinder_Mesh.001-Mesh_0_texcoords","componentType":5126,"count":538,"min":[0.5618219971656799,0.5926889777183533],"max":[0.7182739973068237,0.6899830102920532],"type":"VEC2","bufferView":2,"byteOffset":43088},{"name":"Cylinder_Mesh.001-Mesh_0_indices","componentType":5123,"count":1506,"min":[0],"max":[537],"type":"SCALAR","bufferView":3,"byteOffset":18832},{"name":"barrels.002_Mesh.001-Mesh_0_positions","componentType":5126,"count":78,"min":[-15.637958526611328,17.356897354125977,-103.81227111816406],"max":[-15.094057083129883,17.602956771850586,-103.22350311279297],"type":"VEC3","bufferView":0,"byteOffset":71088},{"name":"barrels.002_Mesh.001-Mesh_0_normals","componentType":5126,"count":78,"min":[-0.7750257849693298,-0.9999943375587463,-0.7751585245132446],"max":[0.775025486946106,0.9999943375587463,0.7750298380851746],"type":"VEC3","bufferView":1,"byteOffset":71088},{"name":"barrels.002_Mesh.001-Mesh_0_texcoords","componentType":5126,"count":78,"min":[0.2886979877948761,0.16768699884414673],"max":[0.55936598777771,0.5651140213012695],"type":"VEC2","bufferView":2,"byteOffset":47392},{"name":"barrels.002_Mesh.001-Mesh_0_indices","componentType":5123,"count":174,"min":[0],"max":[77],"type":"SCALAR","bufferView":3,"byteOffset":21844},{"name":"barrels_Mesh.001-Mesh_0_positions","componentType":5126,"count":249,"min":[-14.587198257446289,17.30384063720703,-102.5130615234375],"max":[-13.484500885009766,17.658447265625,-101.26593017578125],"type":"VEC3","bufferView":0,"byteOffset":72024},{"name":"barrels_Mesh.001-Mesh_0_normals","componentType":5126,"count":249,"min":[-0.7644346356391907,-0.9860379099845886,-0.7755628824234009],"max":[0.8459876179695129,0.9875984191894531,0.7749807834625244],"type":"VEC3","bufferView":1,"byteOffset":72024},{"name":"barrels_Mesh.001-Mesh_0_texcoords","componentType":5126,"count":249,"min":[0.5138339996337891,0.4010069966316223],"max":[0.5436210036277771,0.4619449973106384],"type":"VEC2","bufferView":2,"byteOffset":48016},{"name":"barrels_Mesh.001-Mesh_0_indices","componentType":5123,"count":693,"min":[0],"max":[248],"type":"SCALAR","bufferView":3,"byteOffset":22192},{"name":"turret_Mesh.001-Mesh_0_positions","componentType":5126,"count":5766,"min":[-14.619460105895996,16.244972229003906,-102.53083038330078],"max":[-12.40471363067627,20.28670883178711,-100.09542083740234],"type":"VEC3","bufferView":0,"byteOffset":75012},{"name":"turret_Mesh.001-Mesh_0_normals","componentType":5126,"count":5766,"min":[-0.9994688630104065,-0.9999068975448608,-0.9995306134223938],"max":[0.999453604221344,0.9998961091041565,0.999586284160614],"type":"VEC3","bufferView":1,"byteOffset":75012},{"name":"turret_Mesh.001-Mesh_0_texcoords","componentType":5126,"count":5766,"min":[0.003891000058501959,0.011679000221192837],"max":[0.9882400035858154,0.9961090087890625],"type":"VEC2","bufferView":2,"byteOffset":50008},{"name":"turret_Mesh.001-Mesh_0_indices","componentType":5123,"count":9570,"min":[0],"max":[5765],"type":"SCALAR","bufferView":3,"byteOffset":23580},{"name":"basemech.001_Mesh.001-Mesh_0_positions","componentType":5126,"count":206,"min":[-0.6458659768104553,18.881744384765625,-101.03923034667969],"max":[0.46586599946022034,20.12323760986328,-99.99970245361328],"type":"VEC3","bufferView":0,"byteOffset":144204},{"name":"basemech.001_Mesh.001-Mesh_0_normals","componentType":5126,"count":206,"min":[-1,-0.9999999403953552,-0.9999999403953552],"max":[0.983511745929718,0.9999999403953552,0.9999999403953552],"type":"VEC3","bufferView":1,"byteOffset":144204},{"name":"basemech.001_Mesh.001-Mesh_0_texcoords","componentType":5126,"count":206,"min":[0.0026549999602138996,0.04243599995970726],"max":[0.9559310078620911,0.8345609903335571],"type":"VEC2","bufferView":2,"byteOffset":96136},{"name":"basemech.001_Mesh.001-Mesh_0_indices","componentType":5123,"count":456,"min":[0],"max":[205],"type":"SCALAR","bufferView":3,"byteOffset":42720},{"name":"pitchmesh.001_Mesh.001-Mesh_0_positions","componentType":5126,"count":386,"min":[-0.6505489945411682,19.596147537231445,-101.04977416992188],"max":[0.47054800391197205,21.422964096069336,-99.6232681274414],"type":"VEC3","bufferView":0,"byteOffset":146676},{"name":"pitchmesh.001_Mesh.001-Mesh_0_normals","componentType":5126,"count":386,"min":[-1,-1,-1],"max":[1,1,1],"type":"VEC3","bufferView":1,"byteOffset":146676},{"name":"pitchmesh.001_Mesh.001-Mesh_0_texcoords","componentType":5126,"count":386,"min":[0.0026549999602138996,0.03178400173783302],"max":[0.968093991279602,0.997344970703125],"type":"VEC2","bufferView":2,"byteOffset":97784},{"name":"pitchmesh.001_Mesh.001-Mesh_0_indices","componentType":5123,"count":870,"min":[0],"max":[385],"type":"SCALAR","bufferView":3,"byteOffset":43632},{"name":"tubes.001_Mesh.001-Mesh_0_positions","componentType":5126,"count":6388,"min":[-2.39634108543396,20.1144962310791,-102.7264633178711],"max":[2.216341018676758,22.051830291748047,-98.46337890625],"type":"VEC3","bufferView":0,"byteOffset":151308},{"name":"tubes.001_Mesh.001-Mesh_0_normals","componentType":5126,"count":6388,"min":[-1,-1,-1],"max":[1,1,1],"type":"VEC3","bufferView":1,"byteOffset":151308},{"name":"tubes.001_Mesh.001-Mesh_0_texcoords","componentType":5126,"count":6388,"min":[0.0026549999602138996,0.010254000313580036],"max":[0.9898300170898438,0.997344970703125],"type":"VEC2","bufferView":2,"byteOffset":100872},{"name":"tubes.001_Mesh.001-Mesh_0_indices","componentType":5123,"count":11454,"min":[0],"max":[6387],"type":"SCALAR","bufferView":3,"byteOffset":45372},{"name":"base.002_Mesh.001-Mesh_0_positions","componentType":5126,"count":18,"min":[-1.0470889806747437,18.84470558166504,-101.46288299560547],"max":[0.7859749794006348,18.963348388671875,-99.55712127685547],"type":"VEC3","bufferView":0,"byteOffset":227964},{"name":"base.002_Mesh.001-Mesh_0_normals","componentType":5126,"count":18,"min":[-1,0,-1],"max":[1,1,1],"type":"VEC3","bufferView":1,"byteOffset":227964},{"name":"base.002_Mesh.001-Mesh_0_texcoords","componentType":5126,"count":18,"min":[0.003891000058501959,0.36714300513267517],"max":[0.6248980164527893,0.9961090087890625],"type":"VEC2","bufferView":2,"byteOffset":151976},{"name":"base.002_Mesh.001-Mesh_0_indices","componentType":5123,"count":24,"min":[0],"max":[17],"type":"SCALAR","bufferView":3,"byteOffset":68280}],"asset":{"generator":"obj2gltf","version":"2.0"},"buffers":[{"name":"vtolvr_AlliedAAShip","byteLength":676808,"uri":"data:application/octet-stream;base64,"}],"bufferViews":[{"name":"bufferView_0","buffer":0,"byteLength":228180,"byteOffset":0,"byteStride":12,"target":34962},{"name":"bufferView_1","buffer":0,"byteLength":228180,"byteOffset":228180,"byteStride":12,"target":34962},{"name":"bufferView_2","buffer":0,"byteLength":152120,"byteOffset":456360,"byteStride":8,"target":34962},{"name":"bufferView_3","buffer":0,"byteLength":68328,"byteOffset":608480,"target":34963}],"materials":[{"name":"mat_carrierDetail.001","pbrMetallicRoughness":{"baseColorFactor":[0.5,0.5,0.5,1],"metallicFactor":0,"roughnessFactor":1},"emissiveFactor":[0,0,0],"alphaMode":"OPAQUE","doubleSided":false},{"name":"mat_carrierDeck_0.001","pbrMetallicRoughness":{"baseColorFactor":[0.5,0.5,0.5,1],"metallicFactor":0,"roughnessFactor":1},"emissiveFactor":[0,0,0],"alphaMode":"OPAQUE","doubleSided":false},{"name":"mat_carrier2.001","pbrMetallicRoughness":{"baseColorFactor":[0.5,0.5,0.5,1],"metallicFactor":0,"roughnessFactor":1},"emissiveFactor":[0,0,0],"alphaMode":"OPAQUE","doubleSided":false},{"name":"mat_carrier_0.001","pbrMetallicRoughness":{"baseColorFactor":[0.5,0.5,0.5,1],"metallicFactor":0,"roughnessFactor":1},"emissiveFactor":[0,0,0],"alphaMode":"OPAQUE","doubleSided":false},{"name":"mat_carrierWindows.001","pbrMetallicRoughness":{"baseColorFactor":[0.5,0.5,0.5,1],"metallicFactor":0,"roughnessFactor":1},"emissiveFactor":[0,0,0],"alphaMode":"OPAQUE","doubleSided":false},{"name":"mat_phalanx.002","pbrMetallicRoughness":{"baseColorFactor":[0.5,0.5,0.5,1],"metallicFactor":0,"roughnessFactor":1},"emissiveFactor":[0,0,0],"alphaMode":"OPAQUE","doubleSided":false},{"name":"mat_mk29.001","pbrMetallicRoughness":{"baseColorFactor":[0.5,0.5,0.5,1],"metallicFactor":0,"roughnessFactor":1},"emissiveFactor":[0,0,0],"alphaMode":"OPAQUE","doubleSided":false}],"meshes":[{"name":"waspAnchors_Mesh.001-Mesh","primitives":[{"attributes":{"POSITION":0,"NORMAL":1,"TEXCOORD_0":2},"indices":3,"material":0,"mode":4}]},{"name":"waspDeck_Mesh.001-Mesh","primitives":[{"attributes":{"POSITION":4,"NORMAL":5,"TEXCOORD_0":6},"indices":7,"material":1,"mode":4}]},{"name":"waspElevatorLeft_Mesh.001-Mesh","primitives":[{"attributes":{"POSITION":8,"NORMAL":9,"TEXCOORD_0":10},"indices":11,"material":2,"mode":4}]},{"name":"waspElevatorRight_Mesh.001-Mesh","primitives":[{"attributes":{"POSITION":12,"NORMAL":13,"TEXCOORD_0":14},"indices":15,"material":2,"mode":4}]},{"name":"waspHull_Mesh.001-Mesh","primitives":[{"attributes":{"POSITION":16,"NORMAL":17,"TEXCOORD_0":18},"indices":19,"material":3,"mode":4}]},{"name":"waspHull2_Mesh.001-Mesh","primitives":[{"attributes":{"POSITION":20,"NORMAL":21,"TEXCOORD_0":22},"indices":23,"material":3,"mode":4}]},{"name":"waspIsland_Mesh.001-Mesh","primitives":[{"attributes":{"POSITION":24,"NORMAL":25,"TEXCOORD_0":26},"indices":27,"material":2,"mode":4}]},{"name":"waspIslandWindows_Mesh.001-Mesh","primitives":[{"attributes":{"POSITION":28,"NORMAL":29,"TEXCOORD_0":30},"indices":31,"material":4,"mode":4}]},{"name":"waspRearDoor_Mesh.001-Mesh","primitives":[{"attributes":{"POSITION":32,"NORMAL":33,"TEXCOORD_0":34},"indices":35,"material":3,"mode":4}]},{"name":"base_Mesh.001-Mesh","primitives":[{"attributes":{"POSITION":36,"NORMAL":37,"TEXCOORD_0":38},"indices":39,"material":5,"mode":4}]},{"name":"base.001_Mesh.001-Mesh","primitives":[{"attributes":{"POSITION":40,"NORMAL":41,"TEXCOORD_0":42},"indices":43,"material":5,"mode":4}]},{"name":"gear_Mesh.001-Mesh","primitives":[{"attributes":{"POSITION":44,"NORMAL":45,"TEXCOORD_0":46},"indices":47,"material":5,"mode":4}]},{"name":"Cylinder_Mesh.001-Mesh","primitives":[{"attributes":{"POSITION":48,"NORMAL":49,"TEXCOORD_0":50},"indices":51,"material":5,"mode":4}]},{"name":"barrels.002_Mesh.001-Mesh","primitives":[{"attributes":{"POSITION":52,"NORMAL":53,"TEXCOORD_0":54},"indices":55,"material":5,"mode":4}]},{"name":"barrels_Mesh.001-Mesh","primitives":[{"attributes":{"POSITION":56,"NORMAL":57,"TEXCOORD_0":58},"indices":59,"material":5,"mode":4}]},{"name":"turret_Mesh.001-Mesh","primitives":[{"attributes":{"POSITION":60,"NORMAL":61,"TEXCOORD_0":62},"indices":63,"material":5,"mode":4}]},{"name":"basemech.001_Mesh.001-Mesh","primitives":[{"attributes":{"POSITION":64,"NORMAL":65,"TEXCOORD_0":66},"indices":67,"material":6,"mode":4}]},{"name":"pitchmesh.001_Mesh.001-Mesh","primitives":[{"attributes":{"POSITION":68,"NORMAL":69,"TEXCOORD_0":70},"indices":71,"material":6,"mode":4}]},{"name":"tubes.001_Mesh.001-Mesh","primitives":[{"attributes":{"POSITION":72,"NORMAL":73,"TEXCOORD_0":74},"indices":75,"material":6,"mode":4}]},{"name":"base.002_Mesh.001-Mesh","primitives":[{"attributes":{"POSITION":76,"NORMAL":77,"TEXCOORD_0":78},"indices":79,"material":5,"mode":4}]}],"nodes":[{"name":"waspAnchors_Mesh.001","mesh":0},{"name":"waspDeck_Mesh.001","mesh":1},{"name":"waspElevatorLeft_Mesh.001","mesh":2},{"name":"waspElevatorRight_Mesh.001","mesh":3},{"name":"waspHull_Mesh.001","mesh":4},{"name":"waspHull2_Mesh.001","mesh":5},{"name":"waspIsland_Mesh.001","mesh":6},{"name":"waspIslandWindows_Mesh.001","mesh":7},{"name":"waspRearDoor_Mesh.001","mesh":8},{"name":"base_Mesh.001","mesh":9},{"name":"base.001_Mesh.001","mesh":10},{"name":"gear_Mesh.001","mesh":11},{"name":"Cylinder_Mesh.001","mesh":12},{"name":"barrels.002_Mesh.001","mesh":13},{"name":"barrels_Mesh.001","mesh":14},{"name":"turret_Mesh.001","mesh":15},{"name":"basemech.001_Mesh.001","mesh":16},{"name":"pitchmesh.001_Mesh.001","mesh":17},{"name":"tubes.001_Mesh.001","mesh":18},{"name":"base.002_Mesh.001","mesh":19}],"scene":0,"scenes":[{"nodes":[0,1,2,3,4,5,6,7,8,9,10,11,12,13,14,15,16,17,18,19]}]}