{"accessors":[{"name":"Cube_Mesh.5260-Mesh_0_positions","componentType":5126,"count":853,"min":[-5.299845218658447,-0.8683440089225769,-5.29981803894043],"max":[5.299845218658447,0.7651529908180237,5.299871921539307],"type":"VEC3","bufferView":0,"byteOffset":0},{"name":"Cube_Mesh.5260-Mesh_0_normals","componentType":5126,"count":853,"min":[-1,-0.9999999403953552,-0.9999999403953552],"max":[1,0.9999999403953552,0.9999999403953552],"type":"VEC3","bufferView":1,"byteOffset":0},{"name":"Cube_Mesh.5260-Mesh_0_texcoords","componentType":5126,"count":853,"min":[0.01056000031530857,0.007042999844998121],"max":[0.9879360198974609,0.9944440126419067],"type":"VEC2","bufferView":2,"byteOffset":0},{"name":"Cube_Mesh.5260-Mesh_0_indices","componentType":5123,"count":1353,"min":[0],"max":[852],"type":"SCALAR","bufferView":3,"byteOffset":0},{"name":"hydrCylinder_Mesh.5262-Mesh_0_positions","componentType":5126,"count":98,"min":[-1.7389860153198242,1.1109050512313843,-2.3356409072875977],"max":[1.7389860153198242,1.7697770595550537,-0.712073028087616],"type":"VEC3","bufferView":0,"byteOffset":10236},{"name":"hydrCylinder_Mesh.5262-Mesh_0_normals","componentType":5126,"count":98,"min":[-1,-0.8835063576698303,-0.956296443939209],"max":[1,0.8835063576698303,0.956296443939209],"type":"VEC3","bufferView":1,"byteOffset":10236},{"name":"hydrCylinder_Mesh.5262-Mesh_0_texcoords","componentType":5126,"count":98,"min":[0.2848770022392273,0.5277379751205444],"max":[0.557673990726471,0.6691250205039978],"type":"VEC2","bufferView":2,"byteOffset":6824},{"name":"hydrCylinder_Mesh.5262-Mesh_0_indices","componentType":5123,"count":210,"min":[0],"max":[97],"type":"SCALAR","bufferView":3,"byteOffset":2708},{"name":"hydrPiston_Mesh.5264-Mesh_0_positions","componentType":5126,"count":159,"min":[-1.7330559492111206,1.5113650560379028,-1.1143100261688232],"max":[1.7330559492111206,2.032371997833252,0.20236200094223022],"type":"VEC3","bufferView":0,"byteOffset":11412},{"name":"hydrPiston_Mesh.5264-Mesh_0_normals","componentType":5126,"count":159,"min":[-1,-0.9418370127677917,-0.7696289420127869],"max":[1,0.9567293524742126,0.956296443939209],"type":"VEC3","bufferView":1,"byteOffset":11412},{"name":"hydrPiston_Mesh.5264-Mesh_0_texcoords","componentType":5126,"count":159,"min":[0.5989599823951721,0.37900999188423157],"max":[0.807299017906189,0.6652839779853821],"type":"VEC2","bufferView":2,"byteOffset":7608},{"name":"hydrPiston_Mesh.5264-Mesh_0_indices","componentType":5123,"count":297,"min":[0],"max":[158],"type":"SCALAR","bufferView":3,"byteOffset":3128},{"name":"pitchMissileRails_Mesh.5263-Mesh_0_positions","componentType":5126,"count":950,"min":[-2.652726888656616,1.2466299533843994,-0.893468976020813],"max":[2.652726888656616,3.6504828929901123,4.8987579345703125],"type":"VEC3","bufferView":0,"byteOffset":13320},{"name":"pitchMissileRails_Mesh.5263-Mesh_0_normals","componentType":5126,"count":950,"min":[-1,-0.9945454001426697,-0.956296443939209],"max":[1,0.9945454001426697,0.9609862565994263],"type":"VEC3","bufferView":1,"byteOffset":13320},{"name":"pitchMissileRails_Mesh.5263-Mesh_0_texcoords","componentType":5126,"count":950,"min":[-0.012304999865591526,0.014560000039637089],"max":[0.9937350153923035,0.993465006351471],"type":"VEC2","bufferView":2,"byteOffset":8880},{"name":"pitchMissileRails_Mesh.5263-Mesh_0_indices","componentType":5123,"count":1410,"min":[0],"max":[949],"type":"SCALAR","bufferView":3,"byteOffset":3724},{"name":"yawMissileRails_Mesh.5261-Mesh_0_positions","componentType":5126,"count":349,"min":[-1.8280830383300781,0.282925009727478,-4.3696980476379395],"max":[1.8280830383300781,3.7160940170288086,0.34421899914741516],"type":"VEC3","bufferView":0,"byteOffset":24720},{"name":"yawMissileRails_Mesh.5261-Mesh_0_normals","componentType":5126,"count":349,"min":[-1,-0.956296443939209,-0.995400607585907],"max":[1,0.956296443939209,0.956296443939209],"type":"VEC3","bufferView":1,"byteOffset":24720},{"name":"yawMissileRails_Mesh.5261-Mesh_0_texcoords","componentType":5126,"count":349,"min":[0.02464899979531765,0.018257999792695045],"max":[0.9804900288581848,0.5618939995765686],"type":"VEC2","bufferView":2,"byteOffset":16480},{"name":"yawMissileRails_Mesh.5261-Mesh_0_indices","componentType":5123,"count":531,"min":[0],"max":[348],"type":"SCALAR","bufferView":3,"byteOffset":6544}],"asset":{"generator":"obj2gltf","version":"2.0"},"buffers":[{"name":"vtolvr_SamBattery1","byteLength":84696,"uri":"data:application/octet-stream;base64,"}],"bufferViews":[{"name":"bufferView_0","buffer":0,"byteLength":28908,"byteOffset":0,"byteStride":12,"target":34962},{"name":"bufferView_1","buffer":0,"byteLength":28908,"byteOffset":28908,"byteStride":12,"target":34962},{"name":"bufferView_2","buffer":0,"byteLength":19272,"byteOffset":57816,"byteStride":8,"target":34962},{"name":"bufferView_3","buffer":0,"byteLength":7608,"byteOffset":77088,"target":34963}],"materials":[{"name":"mat_modularPlatform.001","pbrMetallicRoughness":{"baseColorFactor":[0.5,0.5,0.5,1],"metallicFactor":0,"roughnessFactor":1},"emissiveFactor":[0,0,0],"alphaMode":"OPAQUE","doubleSided":false},{"name":"mat_samBattery.001","pbrMetallicRoughness":{"baseColorFactor":[0.5,0.5,0.5,1],"metallicFactor":0,"roughnessFactor":1},"emissiveFactor":[0,0,0],"alphaMode":"OPAQUE","doubleSided":false}],"meshes":[{"name":"Cube_Mesh.5260-Mesh","primitives":[{"attributes":{"POSITION":0,"NORMAL":1,"TEXCOORD_0":2},"indices":3,"material":0,"mode":4}]},{"name":"hydrCylinder_Mesh.5262-Mesh","primitives":[{"attributes":{"POSITION":4,"NORMAL":5,"TEXCOORD_0":6},"indices":7,"material":1,"mode":4}]},{"name":"hydrPiston_Mesh.5264-Mesh","primitives":[{"attributes":{"POSITION":8,"NORMAL":9,"TEXCOORD_0":10},"indices":11,"material":1,"mode":4}]},{"name":"pitchMissileRails_Mesh.5263-Mesh","primitives":[{"attributes":{"POSITION":12,"NORMAL":13,"TEXCOORD_0":14},"indices":15,"material":1,"mode":4}]},{"name":"yawMissileRails_Mesh.5261-Mesh","primitives":[{"attributes":{"POSITION":16,"NORMAL":17,"TEXCOORD_0":18},"indices":19,"material":1,"mode":4}]}],"nodes":[{"name":"Cube_Mesh.5260","mesh":0},{"name":"hydrCylinder_Mesh.5262","mesh":1},{"name":"hydrPiston_Mesh.5264","mesh":2},{"name":"pitchMissileRails_Mesh.5263","mesh":3},{"name":"yawMissileRails_Mesh.5261","mesh":4}],"scene":0,"scenes":[{"nodes":[0,1,2,3,4]}]}