{"accessors":[{"name":"mbRadar_Mesh.3563-Mesh_0_positions","componentType":5126,"count":152,"min":[-1.9671189785003662,14.377696990966797,0.9539620280265808],"max":[1.9671189785003662,16.228744506835938,3.216099977493286],"type":"VEC3","bufferView":0,"byteOffset":0},{"name":"mbRadar_Mesh.3563-Mesh_0_normals","componentType":5126,"count":152,"min":[-1,-0.9999999403953552,-0.9999999403953552],"max":[1,0.9999999403953552,0.9999999403953552],"type":"VEC3","bufferView":1,"byteOffset":0},{"name":"mbRadar_Mesh.3563-Mesh_0_texcoords","componentType":5126,"count":152,"min":[0.8408250212669373,0.02536500059068203],"max":[0.9192780256271362,0.11323200166225433],"type":"VEC2","bufferView":2,"byteOffset":0},{"name":"mbRadar_Mesh.3563-Mesh_0_indices","componentType":5123,"count":264,"min":[0],"max":[151],"type":"SCALAR","bufferView":3,"byteOffset":0},{"name":"mbRadarBase_Mesh.3564-Mesh_0_positions","componentType":5126,"count":38,"min":[-1.2577910423278809,14.089499473571777,0.8050879836082458],"max":[1.2803410291671753,14.37808895111084,3.342941999435425],"type":"VEC3","bufferView":0,"byteOffset":1824},{"name":"mbRadarBase_Mesh.3564-Mesh_0_normals","componentType":5126,"count":38,"min":[-0.9975262880325317,-0.04129856452345848,-0.9888105392456055],"max":[0.9590677618980408,1,0.9975262880325317],"type":"VEC3","bufferView":1,"byteOffset":1824},{"name":"mbRadarBase_Mesh.3564-Mesh_0_texcoords","componentType":5126,"count":38,"min":[0.6944590210914612,0.022153999656438828],"max":[0.8178120255470276,0.07212100178003311],"type":"VEC2","bufferView":2,"byteOffset":1216},{"name":"mbRadarBase_Mesh.3564-Mesh_0_indices","componentType":5123,"count":102,"min":[0],"max":[37],"type":"SCALAR","bufferView":3,"byteOffset":528},{"name":"eMineBoat_Mesh.3562-Mesh_0_positions","componentType":5126,"count":505,"min":[-12.310521125793457,-6.125422954559326,-29.06816291809082],"max":[12.310522079467773,18.421358108520508,43.61511993408203],"type":"VEC3","bufferView":0,"byteOffset":2280},{"name":"eMineBoat_Mesh.3562-Mesh_0_normals","componentType":5126,"count":505,"min":[-1,-1,-1],"max":[1,1,1],"type":"VEC3","bufferView":1,"byteOffset":2280},{"name":"eMineBoat_Mesh.3562-Mesh_0_texcoords","componentType":5126,"count":505,"min":[0.011130000464618206,0.09463199973106384],"max":[0.9888709783554077,0.9883559942245483],"type":"VEC2","bufferView":2,"byteOffset":1520},{"name":"eMineBoat_Mesh.3562-Mesh_0_indices","componentType":5123,"count":1089,"min":[0],"max":[504],"type":"SCALAR","bufferView":3,"byteOffset":732},{"name":"gunBase_Mesh.3569-Mesh_0_positions","componentType":5126,"count":38,"min":[-2.067662000656128,6.090181827545166,28.225290298461914],"max":[3.0615720748901367,6.314611911773682,33.3546028137207],"type":"VEC3","bufferView":0,"byteOffset":8340},{"name":"gunBase_Mesh.3569-Mesh_0_normals","componentType":5126,"count":38,"min":[-0.9175653457641602,-0.1653061956167221,-0.9998472332954407],"max":[0.9998460412025452,0.9999999403953552,0.9835544228553772],"type":"VEC3","bufferView":1,"byteOffset":8340},{"name":"gunBase_Mesh.3569-Mesh_0_texcoords","componentType":5126,"count":38,"min":[0.823032021522522,0.013856999576091766],"max":[0.8709890246391296,0.06384699791669846],"type":"VEC2","bufferView":2,"byteOffset":5560},{"name":"gunBase_Mesh.3569-Mesh_0_indices","componentType":5123,"count":66,"min":[0],"max":[37],"type":"SCALAR","bufferView":3,"byteOffset":2912},{"name":"gunBarrels_Mesh.3571-Mesh_0_positions","componentType":5126,"count":439,"min":[-1.4003759622573853,7.6425628662109375,29.841033935546875],"max":[2.3804659843444824,8.634394645690918,34.31239318847656],"type":"VEC3","bufferView":0,"byteOffset":8796},{"name":"gunBarrels_Mesh.3571-Mesh_0_normals","componentType":5126,"count":439,"min":[-0.9990357756614685,-0.9957281947135925,-0.9962592720985413],"max":[0.9998540282249451,0.9922999143600464,0.9998829364776611],"type":"VEC3","bufferView":1,"byteOffset":8796},{"name":"gunBarrels_Mesh.3571-Mesh_0_texcoords","componentType":5126,"count":439,"min":[0.9319030046463013,0.16015399992465973],"max":[0.9778850078582764,0.20455199480056763],"type":"VEC2","bufferView":2,"byteOffset":5864},{"name":"gunBarrels_Mesh.3571-Mesh_0_indices","componentType":5123,"count":849,"min":[0],"max":[438],"type":"SCALAR","bufferView":3,"byteOffset":3044},{"name":"gunYaw_Mesh.3570-Mesh_0_positions","componentType":5126,"count":134,"min":[-2.0339601039886475,6.386263847351074,27.738506317138672],"max":[3.016585111618042,9.426097869873047,34.309600830078125],"type":"VEC3","bufferView":0,"byteOffset":14064},{"name":"gunYaw_Mesh.3570-Mesh_0_normals","componentType":5126,"count":134,"min":[-0.9998687505722046,-1,-0.9998687505722046],"max":[0.9998687505722046,1,0.9998687505722046],"type":"VEC3","bufferView":1,"byteOffset":14064},{"name":"gunYaw_Mesh.3570-Mesh_0_texcoords","componentType":5126,"count":134,"min":[0.8873909711837769,0.009645000100135803],"max":[0.9867879748344421,0.14273400604724884],"type":"VEC2","bufferView":2,"byteOffset":9376},{"name":"gunYaw_Mesh.3570-Mesh_0_indices","componentType":5123,"count":228,"min":[0],"max":[133],"type":"SCALAR","bufferView":3,"byteOffset":4744},{"name":"Cube_Mesh.3586-Mesh_0_positions","componentType":5126,"count":55,"min":[-6.352528095245361,3.2419490814208984,-24.88861083984375],"max":[6.352528095245361,13.339240074157715,-2.910511016845703],"type":"VEC3","bufferView":0,"byteOffset":15672},{"name":"Cube_Mesh.3586-Mesh_0_normals","componentType":5126,"count":55,"min":[-1,0,-1],"max":[1,1,1],"type":"VEC3","bufferView":1,"byteOffset":15672},{"name":"Cube_Mesh.3586-Mesh_0_texcoords","componentType":5126,"count":55,"min":[0.2729870080947876,0.2977310121059418],"max":[0.5110139846801758,0.984171986579895],"type":"VEC2","bufferView":2,"byteOffset":10448},{"name":"Cube_Mesh.3586-Mesh_0_indices","componentType":5123,"count":81,"min":[0],"max":[54],"type":"SCALAR","bufferView":3,"byteOffset":5200},{"name":"Cube.001_Mesh.3588-Mesh_0_positions","componentType":5126,"count":483,"min":[-4.853678226470947,14.135276794433594,-24.20988655090332],"max":[4.853678226470947,20.255373001098633,-6.343515872955322],"type":"VEC3","bufferView":0,"byteOffset":16332},{"name":"Cube.001_Mesh.3588-Mesh_0_normals","componentType":5126,"count":483,"min":[-1,-1,-1],"max":[1,1,1],"type":"VEC3","bufferView":1,"byteOffset":16332},{"name":"Cube.001_Mesh.3588-Mesh_0_texcoords","componentType":5126,"count":483,"min":[0.008576000109314919,0.009327000007033348],"max":[0.9898130297660828,0.9936140179634094],"type":"VEC2","bufferView":2,"byteOffset":10888},{"name":"Cube.001_Mesh.3588-Mesh_0_indices","componentType":5123,"count":927,"min":[0],"max":[482],"type":"SCALAR","bufferView":3,"byteOffset":5364},{"name":"Cylinder.002_Mesh.3587-Mesh_0_positions","componentType":5126,"count":99,"min":[-5.426652908325195,13.339239120483398,-24.502084732055664],"max":[5.426652908325195,16.10486602783203,-13.090967178344727],"type":"VEC3","bufferView":0,"byteOffset":22128},{"name":"Cylinder.002_Mesh.3587-Mesh_0_normals","componentType":5126,"count":99,"min":[-1,-0.3808951675891876,-1],"max":[1,1,1],"type":"VEC3","bufferView":1,"byteOffset":22128},{"name":"Cylinder.002_Mesh.3587-Mesh_0_texcoords","componentType":5126,"count":99,"min":[0.2728689908981323,0.01235399954020977],"max":[0.8664900064468384,0.19113899767398834],"type":"VEC2","bufferView":2,"byteOffset":14752},{"name":"Cylinder.002_Mesh.3587-Mesh_0_indices","componentType":5123,"count":165,"min":[0],"max":[98],"type":"SCALAR","bufferView":3,"byteOffset":7220}],"asset":{"generator":"obj2gltf","version":"2.0"},"buffers":[{"name":"vtolvr_DroneGunBoatRocket","byteLength":69728,"uri":"data:application/octet-stream;base64,"}],"bufferViews":[{"name":"bufferView_0","buffer":0,"byteLength":23316,"byteOffset":0,"byteStride":12,"target":34962},{"name":"bufferView_1","buffer":0,"byteLength":23316,"byteOffset":23316,"byteStride":12,"target":34962},{"name":"bufferView_2","buffer":0,"byteLength":15544,"byteOffset":46632,"byteStride":8,"target":34962},{"name":"bufferView_3","buffer":0,"byteLength":7552,"byteOffset":62176,"target":34963}],"materials":[{"name":"mat_eMineBoat.001","pbrMetallicRoughness":{"baseColorFactor":[0.5,0.5,0.5,1],"metallicFactor":0,"roughnessFactor":1},"emissiveFactor":[0,0,0],"alphaMode":"OPAQUE","doubleSided":false},{"name":"mat_eDroneCarrier.002","pbrMetallicRoughness":{"baseColorFactor":[0.5,0.5,0.5,1],"metallicFactor":0,"roughnessFactor":1},"emissiveFactor":[0,0,0],"alphaMode":"OPAQUE","doubleSided":false},{"name":"mat_eVehRL","pbrMetallicRoughness":{"baseColorFactor":[0.5,0.5,0.5,1],"metallicFactor":0,"roughnessFactor":1},"emissiveFactor":[0,0,0],"alphaMode":"OPAQUE","doubleSided":false}],"meshes":[{"name":"mbRadar_Mesh.3563-Mesh","primitives":[{"attributes":{"POSITION":0,"NORMAL":1,"TEXCOORD_0":2},"indices":3,"material":0,"mode":4}]},{"name":"mbRadarBase_Mesh.3564-Mesh","primitives":[{"attributes":{"POSITION":4,"NORMAL":5,"TEXCOORD_0":6},"indices":7,"material":0,"mode":4}]},{"name":"eMineBoat_Mesh.3562-Mesh","primitives":[{"attributes":{"POSITION":8,"NORMAL":9,"TEXCOORD_0":10},"indices":11,"material":0,"mode":4}]},{"name":"gunBase_Mesh.3569-Mesh","primitives":[{"attributes":{"POSITION":12,"NORMAL":13,"TEXCOORD_0":14},"indices":15,"material":1,"mode":4}]},{"name":"gunBarrels_Mesh.3571-Mesh","primitives":[{"attributes":{"POSITION":16,"NORMAL":17,"TEXCOORD_0":18},"indices":19,"material":1,"mode":4}]},{"name":"gunYaw_Mesh.3570-Mesh","primitives":[{"attributes":{"POSITION":20,"NORMAL":21,"TEXCOORD_0":22},"indices":23,"material":1,"mode":4}]},{"name":"Cube_Mesh.3586-Mesh","primitives":[{"attributes":{"POSITION":24,"NORMAL":25,"TEXCOORD_0":26},"indices":27,"material":2,"mode":4}]},{"name":"Cube.001_Mesh.3588-Mesh","primitives":[{"attributes":{"POSITION":28,"NORMAL":29,"TEXCOORD_0":30},"indices":31,"material":2,"mode":4}]},{"name":"Cylinder.002_Mesh.3587-Mesh","primitives":[{"attributes":{"POSITION":32,"NORMAL":33,"TEXCOORD_0":34},"indices":35,"material":2,"mode":4}]}],"nodes":[{"name":"mbRadar_Mesh.3563","mesh":0},{"name":"mbRadarBase_Mesh.3564","mesh":1},{"name":"eMineBoat_Mesh.3562","mesh":2},{"name":"gunBase_Mesh.3569","mesh":3},{"name":"gunBarrels_Mesh.3571","mesh":4},{"name":"gunYaw_Mesh.3570","mesh":5},{"name":"Cube_Mesh.3586","mesh":6},{"name":"Cube.001_Mesh.3588","mesh":7},{"name":"Cylinder.002_Mesh.3587","mesh":8}],"scene":0,"scenes":[{"nodes":[0,1,2,3,4,5,6,7,8]}]}