{"accessors":[{"name":"lowPolyTruck_Mesh.310-Mesh_0_positions","componentType":5126,"count":495,"min":[-2.147691011428833,-0.06939899921417236,-8.040534019470215],"max":[2.147646903991699,4.254354000091553,6.7919769287109375],"type":"VEC3","bufferView":0,"byteOffset":0},{"name":"lowPolyTruck_Mesh.310-Mesh_0_normals","componentType":5126,"count":495,"min":[-1,-0.9999999403953552,-0.9999999403953552],"max":[1,0.9999999403953552,0.9999999403953552],"type":"VEC3","bufferView":1,"byteOffset":0},{"name":"lowPolyTruck_Mesh.310-Mesh_0_texcoords","componentType":5126,"count":495,"min":[0.03629099950194359,0.05906299874186516],"max":[0.7509890198707581,0.9671279788017273],"type":"VEC2","bufferView":2,"byteOffset":0},{"name":"lowPolyTruck_Mesh.310-Mesh_0_indices","componentType":5123,"count":807,"min":[0],"max":[494],"type":"SCALAR","bufferView":3,"byteOffset":0},{"name":"gear_Mesh.325-Mesh_0_positions","componentType":5126,"count":1418,"min":[-1.2945770025253296,2.210897922515869,2.381364107131958],"max":[1.2946699857711792,4.594285011291504,4.799613952636719],"type":"VEC3","bufferView":0,"byteOffset":5940},{"name":"gear_Mesh.325-Mesh_0_normals","componentType":5126,"count":1418,"min":[-1,-0.9999999403953552,-0.9999999403953552],"max":[1,0.9999999403953552,0.9999999403953552],"type":"VEC3","bufferView":1,"byteOffset":5940},{"name":"gear_Mesh.325-Mesh_0_texcoords","componentType":5126,"count":1418,"min":[0.003891000058501959,0.025405000895261765],"max":[0.9744849801063538,0.9961090087890625],"type":"VEC2","bufferView":2,"byteOffset":3960},{"name":"gear_Mesh.325-Mesh_0_indices","componentType":5123,"count":2268,"min":[0],"max":[1417],"type":"SCALAR","bufferView":3,"byteOffset":1616},{"name":"Cylinder_Mesh.330-Mesh_0_positions","componentType":5126,"count":700,"min":[-0.11415799707174301,3.968498945236206,3.810857057571411],"max":[0.11424999684095383,4.221354961395264,6.882339000701904],"type":"VEC3","bufferView":0,"byteOffset":22956},{"name":"Cylinder_Mesh.330-Mesh_0_normals","componentType":5126,"count":700,"min":[-0.9995390176773071,-0.9999967813491821,-0.04190009832382202],"max":[0.9991263151168823,0.9999982118606567,1],"type":"VEC3","bufferView":1,"byteOffset":22956},{"name":"Cylinder_Mesh.330-Mesh_0_texcoords","componentType":5126,"count":700,"min":[0.5618219971656799,0.5926889777183533],"max":[0.7182739973068237,0.6899830102920532],"type":"VEC2","bufferView":2,"byteOffset":15304},{"name":"Cylinder_Mesh.330-Mesh_0_indices","componentType":5123,"count":1992,"min":[0],"max":[699],"type":"SCALAR","bufferView":3,"byteOffset":6152},{"name":"barrels_Mesh.328-Mesh_0_positions","componentType":5126,"count":198,"min":[-0.18261900544166565,3.917725086212158,3.7964611053466797],"max":[0.18271200358867645,4.276975154876709,5.157064914703369],"type":"VEC3","bufferView":0,"byteOffset":31356},{"name":"barrels_Mesh.328-Mesh_0_normals","componentType":5126,"count":198,"min":[-0.9999409914016724,-0.9961610436439514,-0.9999999403953552],"max":[0.9999409914016724,0.9993953704833984,0.9999999403953552],"type":"VEC3","bufferView":1,"byteOffset":31356},{"name":"barrels_Mesh.328-Mesh_0_texcoords","componentType":5126,"count":198,"min":[0.5141130089759827,0.4013809859752655],"max":[0.5436210036277771,0.4619449973106384],"type":"VEC2","bufferView":2,"byteOffset":20904},{"name":"barrels_Mesh.328-Mesh_0_indices","componentType":5123,"count":546,"min":[0],"max":[197],"type":"SCALAR","bufferView":3,"byteOffset":10136},{"name":"turret_Mesh.332-Mesh_0_positions","componentType":5126,"count":7113,"min":[-0.6497700214385986,2.8704710006713867,2.3554248809814453],"max":[1.168355941772461,6.888370037078857,5.11421012878418],"type":"VEC3","bufferView":0,"byteOffset":33732},{"name":"turret_Mesh.332-Mesh_0_normals","componentType":5126,"count":7113,"min":[-1,-0.9999999403953552,-0.9999999403953552],"max":[1,0.9999999403953552,0.9999999403953552],"type":"VEC3","bufferView":1,"byteOffset":33732},{"name":"turret_Mesh.332-Mesh_0_texcoords","componentType":5126,"count":7113,"min":[0.003891000058501959,0.011679000221192837],"max":[0.9886549711227417,0.9961090087890625],"type":"VEC2","bufferView":2,"byteOffset":22488},{"name":"turret_Mesh.332-Mesh_0_indices","componentType":5123,"count":12654,"min":[0],"max":[7112],"type":"SCALAR","bufferView":3,"byteOffset":11228}],"asset":{"generator":"obj2gltf","version":"2.0"},"buffers":[{"name":"vtolvr_PhallanxTruck","byteLength":354104,"uri":"data:application/octet-stream;base64,"}],"bufferViews":[{"name":"bufferView_0","buffer":0,"byteLength":119088,"byteOffset":0,"byteStride":12,"target":34962},{"name":"bufferView_1","buffer":0,"byteLength":119088,"byteOffset":119088,"byteStride":12,"target":34962},{"name":"bufferView_2","buffer":0,"byteLength":79392,"byteOffset":238176,"byteStride":8,"target":34962},{"name":"bufferView_3","buffer":0,"byteLength":36536,"byteOffset":317568,"target":34963}],"materials":[{"name":"truck_ao","pbrMetallicRoughness":{"baseColorFactor":[0.5,0.5,0.5,1],"metallicFactor":0,"roughnessFactor":1},"emissiveFactor":[0,0,0],"alphaMode":"OPAQUE","doubleSided":false},{"name":"mat_phalanx","pbrMetallicRoughness":{"baseColorFactor":[0.5,0.5,0.5,1],"metallicFactor":0,"roughnessFactor":1},"emissiveFactor":[0,0,0],"alphaMode":"OPAQUE","doubleSided":false}],"meshes":[{"name":"lowPolyTruck_Mesh.310-Mesh","primitives":[{"attributes":{"POSITION":0,"NORMAL":1,"TEXCOORD_0":2},"indices":3,"material":0,"mode":4}]},{"name":"gear_Mesh.325-Mesh","primitives":[{"attributes":{"POSITION":4,"NORMAL":5,"TEXCOORD_0":6},"indices":7,"material":1,"mode":4}]},{"name":"Cylinder_Mesh.330-Mesh","primitives":[{"attributes":{"POSITION":8,"NORMAL":9,"TEXCOORD_0":10},"indices":11,"material":1,"mode":4}]},{"name":"barrels_Mesh.328-Mesh","primitives":[{"attributes":{"POSITION":12,"NORMAL":13,"TEXCOORD_0":14},"indices":15,"material":1,"mode":4}]},{"name":"turret_Mesh.332-Mesh","primitives":[{"attributes":{"POSITION":16,"NORMAL":17,"TEXCOORD_0":18},"indices":19,"material":1,"mode":4}]}],"nodes":[{"name":"lowPolyTruck_Mesh.310","mesh":0},{"name":"gear_Mesh.325","mesh":1},{"name":"Cylinder_Mesh.330","mesh":2},{"name":"barrels_Mesh.328","mesh":3},{"name":"turret_Mesh.332","mesh":4}],"scene":0,"scenes":[{"nodes":[0,1,2,3,4]}]}