{"accessors":[{"name":"apc_lowPoly_Mesh.5027-Mesh_0_positions","componentType":5126,"count":238,"min":[-1.9789220094680786,-0.0050650001503527164,-4.1731719970703125],"max":[1.982442021369934,2.6090989112854004,4.144018173217773],"type":"VEC3","bufferView":0,"byteOffset":0},{"name":"apc_lowPoly_Mesh.5027-Mesh_0_normals","componentType":5126,"count":238,"min":[-1,-1,-0.7071067690849304],"max":[1,0.9999977350234985,1],"type":"VEC3","bufferView":1,"byteOffset":0},{"name":"apc_lowPoly_Mesh.5027-Mesh_0_texcoords","componentType":5126,"count":238,"min":[0.1579589992761612,0.2153320014476776],"max":[0.5634769797325134,0.8129879832267761],"type":"VEC2","bufferView":2,"byteOffset":0},{"name":"apc_lowPoly_Mesh.5027-Mesh_0_indices","componentType":5123,"count":360,"min":[0],"max":[237],"type":"SCALAR","bufferView":3,"byteOffset":0},{"name":"wheel_L_1_Mesh.5030-Mesh_0_positions","componentType":5126,"count":396,"min":[-1.785230040550232,-0.004251000005751848,-3.174767017364502],"max":[-1.220128059387207,1.362828016281128,-1.790945053100586],"type":"VEC3","bufferView":0,"byteOffset":2856},{"name":"wheel_L_1_Mesh.5030-Mesh_0_normals","componentType":5126,"count":396,"min":[-1,-0.9995716214179993,-0.9995716214179993],"max":[0.945999026298523,0.9995716214179993,0.9995716214179993],"type":"VEC3","bufferView":1,"byteOffset":2856},{"name":"wheel_L_1_Mesh.5030-Mesh_0_texcoords","componentType":5126,"count":396,"min":[0.0006220000213943422,0.001981999957934022],"max":[0.9944279789924622,0.5686129927635193],"type":"VEC2","bufferView":2,"byteOffset":1904},{"name":"wheel_L_1_Mesh.5030-Mesh_0_indices","componentType":5123,"count":987,"min":[0],"max":[395],"type":"SCALAR","bufferView":3,"byteOffset":720},{"name":"wheel_L_2_Mesh.5031-Mesh_0_positions","componentType":5126,"count":396,"min":[-1.785230040550232,-0.003728999989107251,-1.666208028793335],"max":[-1.220128059387207,1.3633509874343872,-0.28238600492477417],"type":"VEC3","bufferView":0,"byteOffset":7608},{"name":"wheel_L_2_Mesh.5031-Mesh_0_normals","componentType":5126,"count":396,"min":[-1,-0.9995716214179993,-0.9995716214179993],"max":[0.945999026298523,0.9995716214179993,0.9995716214179993],"type":"VEC3","bufferView":1,"byteOffset":7608},{"name":"wheel_L_2_Mesh.5031-Mesh_0_texcoords","componentType":5126,"count":396,"min":[0.0006220000213943422,0.001981999957934022],"max":[0.9944279789924622,0.5686129927635193],"type":"VEC2","bufferView":2,"byteOffset":5072},{"name":"wheel_L_2_Mesh.5031-Mesh_0_indices","componentType":5123,"count":987,"min":[0],"max":[395],"type":"SCALAR","bufferView":3,"byteOffset":2696},{"name":"wheel_L_3_Mesh.5032-Mesh_0_positions","componentType":5126,"count":396,"min":[-1.785230040550232,-0.00303900009021163,0.32600900530815125],"max":[-1.220128059387207,1.3640400171279907,1.7098309993743896],"type":"VEC3","bufferView":0,"byteOffset":12360},{"name":"wheel_L_3_Mesh.5032-Mesh_0_normals","componentType":5126,"count":396,"min":[-1,-0.9995716214179993,-0.9995716214179993],"max":[0.945999026298523,0.9995716214179993,0.9995716214179993],"type":"VEC3","bufferView":1,"byteOffset":12360},{"name":"wheel_L_3_Mesh.5032-Mesh_0_texcoords","componentType":5126,"count":396,"min":[0.0006220000213943422,0.001981999957934022],"max":[0.9944279789924622,0.5686129927635193],"type":"VEC2","bufferView":2,"byteOffset":8240},{"name":"wheel_L_3_Mesh.5032-Mesh_0_indices","componentType":5123,"count":987,"min":[0],"max":[395],"type":"SCALAR","bufferView":3,"byteOffset":4672},{"name":"wheel_L_4_Mesh.5033-Mesh_0_positions","componentType":5126,"count":396,"min":[-1.785230040550232,-0.0025080000050365925,1.8612289428710938],"max":[-1.220128059387207,1.3645720481872559,3.2450509071350098],"type":"VEC3","bufferView":0,"byteOffset":17112},{"name":"wheel_L_4_Mesh.5033-Mesh_0_normals","componentType":5126,"count":396,"min":[-1,-0.9995716214179993,-0.9995716214179993],"max":[0.945999026298523,0.9995716214179993,0.9995716214179993],"type":"VEC3","bufferView":1,"byteOffset":17112},{"name":"wheel_L_4_Mesh.5033-Mesh_0_texcoords","componentType":5126,"count":396,"min":[0.0006220000213943422,0.001981999957934022],"max":[0.9944279789924622,0.5686129927635193],"type":"VEC2","bufferView":2,"byteOffset":11408},{"name":"wheel_L_4_Mesh.5033-Mesh_0_indices","componentType":5123,"count":987,"min":[0],"max":[395],"type":"SCALAR","bufferView":3,"byteOffset":6648},{"name":"wheel_R_1_Mesh.5034-Mesh_0_positions","componentType":5126,"count":396,"min":[1.2201319932937622,-0.004251000005751848,-3.174767017364502],"max":[1.785233974456787,1.362828016281128,-1.790945053100586],"type":"VEC3","bufferView":0,"byteOffset":21864},{"name":"wheel_R_1_Mesh.5034-Mesh_0_normals","componentType":5126,"count":396,"min":[-0.945999026298523,-0.9995716214179993,-0.9995716214179993],"max":[1,0.9995716214179993,0.9995716214179993],"type":"VEC3","bufferView":1,"byteOffset":21864},{"name":"wheel_R_1_Mesh.5034-Mesh_0_texcoords","componentType":5126,"count":396,"min":[0.0006220000213943422,0.001981999957934022],"max":[0.9944279789924622,0.5686129927635193],"type":"VEC2","bufferView":2,"byteOffset":14576},{"name":"wheel_R_1_Mesh.5034-Mesh_0_indices","componentType":5123,"count":987,"min":[0],"max":[395],"type":"SCALAR","bufferView":3,"byteOffset":8624},{"name":"wheel_R_2_Mesh.5035-Mesh_0_positions","componentType":5126,"count":396,"min":[1.2201319932937622,-0.003728999989107251,-1.666208028793335],"max":[1.785233974456787,1.3633509874343872,-0.28238600492477417],"type":"VEC3","bufferView":0,"byteOffset":26616},{"name":"wheel_R_2_Mesh.5035-Mesh_0_normals","componentType":5126,"count":396,"min":[-0.945999026298523,-0.9995716214179993,-0.9995716214179993],"max":[1,0.9995716214179993,0.9995716214179993],"type":"VEC3","bufferView":1,"byteOffset":26616},{"name":"wheel_R_2_Mesh.5035-Mesh_0_texcoords","componentType":5126,"count":396,"min":[0.0006220000213943422,0.001981999957934022],"max":[0.9944279789924622,0.5686129927635193],"type":"VEC2","bufferView":2,"byteOffset":17744},{"name":"wheel_R_2_Mesh.5035-Mesh_0_indices","componentType":5123,"count":987,"min":[0],"max":[395],"type":"SCALAR","bufferView":3,"byteOffset":10600},{"name":"wheel_R_3_Mesh.5036-Mesh_0_positions","componentType":5126,"count":396,"min":[1.2201319932937622,-0.00303900009021163,0.32600900530815125],"max":[1.785233974456787,1.3640400171279907,1.7098309993743896],"type":"VEC3","bufferView":0,"byteOffset":31368},{"name":"wheel_R_3_Mesh.5036-Mesh_0_normals","componentType":5126,"count":396,"min":[-0.945999026298523,-0.9995716214179993,-0.9995716214179993],"max":[1,0.9995716214179993,0.9995716214179993],"type":"VEC3","bufferView":1,"byteOffset":31368},{"name":"wheel_R_3_Mesh.5036-Mesh_0_texcoords","componentType":5126,"count":396,"min":[0.0006220000213943422,0.001981999957934022],"max":[0.9944279789924622,0.5686129927635193],"type":"VEC2","bufferView":2,"byteOffset":20912},{"name":"wheel_R_3_Mesh.5036-Mesh_0_indices","componentType":5123,"count":987,"min":[0],"max":[395],"type":"SCALAR","bufferView":3,"byteOffset":12576},{"name":"wheel_R_4_Mesh.5037-Mesh_0_positions","componentType":5126,"count":396,"min":[1.2201319932937622,-0.0025080000050365925,1.8612289428710938],"max":[1.785233974456787,1.3645720481872559,3.2450509071350098],"type":"VEC3","bufferView":0,"byteOffset":36120},{"name":"wheel_R_4_Mesh.5037-Mesh_0_normals","componentType":5126,"count":396,"min":[-0.945999026298523,-0.9995716214179993,-0.9995716214179993],"max":[1,0.9995716214179993,0.9995716214179993],"type":"VEC3","bufferView":1,"byteOffset":36120},{"name":"wheel_R_4_Mesh.5037-Mesh_0_texcoords","componentType":5126,"count":396,"min":[0.0006220000213943422,0.001981999957934022],"max":[0.9944279789924622,0.5686129927635193],"type":"VEC2","bufferView":2,"byteOffset":24080},{"name":"wheel_R_4_Mesh.5037-Mesh_0_indices","componentType":5123,"count":987,"min":[0],"max":[395],"type":"SCALAR","bufferView":3,"byteOffset":14552},{"name":"launcher_LOD_Mesh.5041-Mesh_0_positions","componentType":5126,"count":22,"min":[-1.3517669439315796,2.9983789920806885,-0.4265030026435852],"max":[1.3517669439315796,3.7996439933776855,1.6643019914627075],"type":"VEC3","bufferView":0,"byteOffset":40872},{"name":"launcher_LOD_Mesh.5041-Mesh_0_normals","componentType":5126,"count":22,"min":[0,-1,0],"max":[1,1,1],"type":"VEC3","bufferView":1,"byteOffset":40872},{"name":"launcher_LOD_Mesh.5041-Mesh_0_texcoords","componentType":5126,"count":22,"min":[0.520609974861145,0.39080899953842163],"max":[0.5924429893493652,0.46264201402664185],"type":"VEC2","bufferView":2,"byteOffset":27248},{"name":"launcher_LOD_Mesh.5041-Mesh_0_indices","componentType":5123,"count":30,"min":[0],"max":[21],"type":"SCALAR","bufferView":3,"byteOffset":16528},{"name":"tubes_Mesh.5042-Mesh_0_positions","componentType":5126,"count":676,"min":[-1.3479549884796143,3.0036609172821045,-0.42420798540115356],"max":[1.3479549884796143,3.797898054122925,1.6609129905700684],"type":"VEC3","bufferView":0,"byteOffset":41136},{"name":"tubes_Mesh.5042-Mesh_0_normals","componentType":5126,"count":676,"min":[-1,-1,-1],"max":[1,1,0.9995715022087097],"type":"VEC3","bufferView":1,"byteOffset":41136},{"name":"tubes_Mesh.5042-Mesh_0_texcoords","componentType":5126,"count":676,"min":[0.0015360000543296337,0.006302000023424625],"max":[0.9854450225830078,0.9993839859962463],"type":"VEC2","bufferView":2,"byteOffset":27424},{"name":"tubes_Mesh.5042-Mesh_0_indices","componentType":5123,"count":1014,"min":[0],"max":[675],"type":"SCALAR","bufferView":3,"byteOffset":16588},{"name":"turret_LOD_Mesh.5051-Mesh_0_positions","componentType":5126,"count":91,"min":[-0.9780229926109314,2.6335349082946777,-0.31436601281166077],"max":[0.9780229926109314,4.122269153594971,1.6856319904327393],"type":"VEC3","bufferView":0,"byteOffset":49248},{"name":"turret_LOD_Mesh.5051-Mesh_0_normals","componentType":5126,"count":91,"min":[-1,-1,-1],"max":[1,1,1],"type":"VEC3","bufferView":1,"byteOffset":49248},{"name":"turret_LOD_Mesh.5051-Mesh_0_texcoords","componentType":5126,"count":91,"min":[0.4203850030899048,0.4062480032444],"max":[0.4909839928150177,0.47684600949287415],"type":"VEC2","bufferView":2,"byteOffset":32832},{"name":"turret_LOD_Mesh.5051-Mesh_0_indices","componentType":5123,"count":153,"min":[0],"max":[90],"type":"SCALAR","bufferView":3,"byteOffset":18616},{"name":"camera_Mesh.5054-Mesh_0_positions","componentType":5126,"count":352,"min":[-0.1592009961605072,3.737942934036255,0.8383060097694397],"max":[0.1592019945383072,4.134034156799316,1.324537992477417],"type":"VEC3","bufferView":0,"byteOffset":50340},{"name":"camera_Mesh.5054-Mesh_0_normals","componentType":5126,"count":352,"min":[-1,-1,-1],"max":[1,1,1],"type":"VEC3","bufferView":1,"byteOffset":50340},{"name":"camera_Mesh.5054-Mesh_0_texcoords","componentType":5126,"count":352,"min":[0.04720599949359894,0.009844000451266766],"max":[0.9873440265655518,0.765703022480011],"type":"VEC2","bufferView":2,"byteOffset":33560},{"name":"camera_Mesh.5054-Mesh_0_indices","componentType":5123,"count":993,"min":[0],"max":[351],"type":"SCALAR","bufferView":3,"byteOffset":18924}],"asset":{"generator":"obj2gltf","version":"2.0"},"buffers":[{"name":"vtolvr_IRAPC","byteLength":166416,"uri":"data:application/octet-stream;base64,"}],"bufferViews":[{"name":"bufferView_0","buffer":0,"byteLength":54564,"byteOffset":0,"byteStride":12,"target":34962},{"name":"bufferView_1","buffer":0,"byteLength":54564,"byteOffset":54564,"byteStride":12,"target":34962},{"name":"bufferView_2","buffer":0,"byteLength":36376,"byteOffset":109128,"byteStride":8,"target":34962},{"name":"bufferView_3","buffer":0,"byteLength":20912,"byteOffset":145504,"target":34963}],"materials":[{"name":"Material.002","pbrMetallicRoughness":{"baseColorFactor":[0.5,0.5,0.5,1],"metallicFactor":0,"roughnessFactor":1},"emissiveFactor":[0,0,0],"alphaMode":"OPAQUE","doubleSided":false},{"name":"mat_apcAA.001","pbrMetallicRoughness":{"baseColorFactor":[0.5,0.5,0.5,1],"metallicFactor":0,"roughnessFactor":1},"emissiveFactor":[0,0,0],"alphaMode":"OPAQUE","doubleSided":false}],"meshes":[{"name":"apc_lowPoly_Mesh.5027-Mesh","primitives":[{"attributes":{"POSITION":0,"NORMAL":1,"TEXCOORD_0":2},"indices":3,"material":0,"mode":4}]},{"name":"wheel_L_1_Mesh.5030-Mesh","primitives":[{"attributes":{"POSITION":4,"NORMAL":5,"TEXCOORD_0":6},"indices":7,"material":1,"mode":4}]},{"name":"wheel_L_2_Mesh.5031-Mesh","primitives":[{"attributes":{"POSITION":8,"NORMAL":9,"TEXCOORD_0":10},"indices":11,"material":1,"mode":4}]},{"name":"wheel_L_3_Mesh.5032-Mesh","primitives":[{"attributes":{"POSITION":12,"NORMAL":13,"TEXCOORD_0":14},"indices":15,"material":1,"mode":4}]},{"name":"wheel_L_4_Mesh.5033-Mesh","primitives":[{"attributes":{"POSITION":16,"NORMAL":17,"TEXCOORD_0":18},"indices":19,"material":1,"mode":4}]},{"name":"wheel_R_1_Mesh.5034-Mesh","primitives":[{"attributes":{"POSITION":20,"NORMAL":21,"TEXCOORD_0":22},"indices":23,"material":1,"mode":4}]},{"name":"wheel_R_2_Mesh.5035-Mesh","primitives":[{"attributes":{"POSITION":24,"NORMAL":25,"TEXCOORD_0":26},"indices":27,"material":1,"mode":4}]},{"name":"wheel_R_3_Mesh.5036-Mesh","primitives":[{"attributes":{"POSITION":28,"NORMAL":29,"TEXCOORD_0":30},"indices":31,"material":1,"mode":4}]},{"name":"wheel_R_4_Mesh.5037-Mesh","primitives":[{"attributes":{"POSITION":32,"NORMAL":33,"TEXCOORD_0":34},"indices":35,"material":1,"mode":4}]},{"name":"launcher_LOD_Mesh.5041-Mesh","primitives":[{"attributes":{"POSITION":36,"NORMAL":37,"TEXCOORD_0":38},"indices":39,"material":0,"mode":4}]},{"name":"tubes_Mesh.5042-Mesh","primitives":[{"attributes":{"POSITION":40,"NORMAL":41,"TEXCOORD_0":42},"indices":43,"material":1,"mode":4}]},{"name":"turret_LOD_Mesh.5051-Mesh","primitives":[{"attributes":{"POSITION":44,"NORMAL":45,"TEXCOORD_0":46},"indices":47,"material":0,"mode":4}]},{"name":"camera_Mesh.5054-Mesh","primitives":[{"attributes":{"POSITION":48,"NORMAL":49,"TEXCOORD_0":50},"indices":51,"material":1,"mode":4}]}],"nodes":[{"name":"apc_lowPoly_Mesh.5027","mesh":0},{"name":"wheel_L_1_Mesh.5030","mesh":1},{"name":"wheel_L_2_Mesh.5031","mesh":2},{"name":"wheel_L_3_Mesh.5032","mesh":3},{"name":"wheel_L_4_Mesh.5033","mesh":4},{"name":"wheel_R_1_Mesh.5034","mesh":5},{"name":"wheel_R_2_Mesh.5035","mesh":6},{"name":"wheel_R_3_Mesh.5036","mesh":7},{"name":"wheel_R_4_Mesh.5037","mesh":8},{"name":"launcher_LOD_Mesh.5041","mesh":9},{"name":"tubes_Mesh.5042","mesh":10},{"name":"turret_LOD_Mesh.5051","mesh":11},{"name":"camera_Mesh.5054","mesh":12}],"scene":0,"scenes":[{"nodes":[0,1,2,3,4,5,6,7,8,9,10,11,12]}]}