{"accessors":[{"name":"ramp_Mesh.4567-Mesh_0_positions","componentType":5126,"count":44,"min":[-0.9876610040664673,0.6993659734725952,-5.079521179199219],"max":[0.9876610040664673,1.6641989946365356,-4.626367092132568],"type":"VEC3","bufferView":0,"byteOffset":0},{"name":"ramp_Mesh.4567-Mesh_0_normals","componentType":5126,"count":44,"min":[-1,-0.9870733618736267,-0.9912357330322266],"max":[1,0.8926769495010376,0.9913027882575989],"type":"VEC3","bufferView":1,"byteOffset":0},{"name":"ramp_Mesh.4567-Mesh_0_texcoords","componentType":5126,"count":44,"min":[0.03053399920463562,0.07407499849796295],"max":[0.9916399717330933,0.5033169984817505],"type":"VEC2","bufferView":2,"byteOffset":0},{"name":"ramp_Mesh.4567-Mesh_0_indices","componentType":5123,"count":66,"min":[0],"max":[43],"type":"SCALAR","bufferView":3,"byteOffset":0},{"name":"wheel_L_1_Mesh.4568-Mesh_0_positions","componentType":5126,"count":328,"min":[1.2175970077514648,0.0014530000044032931,1.7093009948730469],"max":[1.785230040550232,1.3628289699554443,3.0698719024658203],"type":"VEC3","bufferView":0,"byteOffset":528},{"name":"wheel_L_1_Mesh.4568-Mesh_0_normals","componentType":5126,"count":328,"min":[-0.9863165020942688,-0.9994184374809265,-0.9955046772956848],"max":[1,0.9944770336151123,0.9943274855613708],"type":"VEC3","bufferView":1,"byteOffset":528},{"name":"wheel_L_1_Mesh.4568-Mesh_0_texcoords","componentType":5126,"count":328,"min":[0.0006549999816343188,0.0018449999624863267],"max":[0.994642972946167,0.3930659890174866],"type":"VEC2","bufferView":2,"byteOffset":352},{"name":"wheel_L_1_Mesh.4568-Mesh_0_indices","componentType":5123,"count":807,"min":[0],"max":[327],"type":"SCALAR","bufferView":3,"byteOffset":132},{"name":"wheel_L_2_Mesh.4569-Mesh_0_positions","componentType":5126,"count":328,"min":[1.2175970077514648,0.0019749999046325684,0.20074300467967987],"max":[1.785230040550232,1.3633509874343872,1.5613139867782593],"type":"VEC3","bufferView":0,"byteOffset":4464},{"name":"wheel_L_2_Mesh.4569-Mesh_0_normals","componentType":5126,"count":328,"min":[-0.9863165020942688,-0.9994184374809265,-0.9955046772956848],"max":[1,0.9944770336151123,0.9943274855613708],"type":"VEC3","bufferView":1,"byteOffset":4464},{"name":"wheel_L_2_Mesh.4569-Mesh_0_texcoords","componentType":5126,"count":328,"min":[0.0006549999816343188,0.0018449999624863267],"max":[0.994642972946167,0.3930659890174866],"type":"VEC2","bufferView":2,"byteOffset":2976},{"name":"wheel_L_2_Mesh.4569-Mesh_0_indices","componentType":5123,"count":807,"min":[0],"max":[327],"type":"SCALAR","bufferView":3,"byteOffset":1748},{"name":"wheel_L_3_Mesh.4570-Mesh_0_positions","componentType":5126,"count":328,"min":[1.2175970077514648,0.0030249999836087227,-2.8341760635375977],"max":[1.785230040550232,1.3644009828567505,-1.473605990409851],"type":"VEC3","bufferView":0,"byteOffset":8400},{"name":"wheel_L_3_Mesh.4570-Mesh_0_normals","componentType":5126,"count":328,"min":[-0.9863165020942688,-0.9994184374809265,-0.9955046772956848],"max":[1,0.9944770336151123,0.9943240284919739],"type":"VEC3","bufferView":1,"byteOffset":8400},{"name":"wheel_L_3_Mesh.4570-Mesh_0_texcoords","componentType":5126,"count":328,"min":[0.0006549999816343188,0.0018449999624863267],"max":[0.994642972946167,0.3930659890174866],"type":"VEC2","bufferView":2,"byteOffset":5600},{"name":"wheel_L_3_Mesh.4570-Mesh_0_indices","componentType":5123,"count":807,"min":[0],"max":[327],"type":"SCALAR","bufferView":3,"byteOffset":3364},{"name":"wheel_L_4_Mesh.4571-Mesh_0_positions","componentType":5126,"count":328,"min":[1.2175970077514648,0.0035550000611692667,-4.369397163391113],"max":[1.785230040550232,1.3649309873580933,-3.0088260173797607],"type":"VEC3","bufferView":0,"byteOffset":12336},{"name":"wheel_L_4_Mesh.4571-Mesh_0_normals","componentType":5126,"count":328,"min":[-0.9863165020942688,-0.9994184374809265,-0.9955046772956848],"max":[1,0.9944770336151123,0.9943274855613708],"type":"VEC3","bufferView":1,"byteOffset":12336},{"name":"wheel_L_4_Mesh.4571-Mesh_0_texcoords","componentType":5126,"count":328,"min":[0.0006549999816343188,0.0018449999624863267],"max":[0.994642972946167,0.3930659890174866],"type":"VEC2","bufferView":2,"byteOffset":8224},{"name":"wheel_L_4_Mesh.4571-Mesh_0_indices","componentType":5123,"count":807,"min":[0],"max":[327],"type":"SCALAR","bufferView":3,"byteOffset":4980},{"name":"wheel_R_1_Mesh.4572-Mesh_0_positions","componentType":5126,"count":328,"min":[-1.785233974456787,0.0014530000044032931,1.7093009948730469],"max":[-1.2175999879837036,1.3628289699554443,3.0698719024658203],"type":"VEC3","bufferView":0,"byteOffset":16272},{"name":"wheel_R_1_Mesh.4572-Mesh_0_normals","componentType":5126,"count":328,"min":[-1,-0.9994184374809265,-0.9955046772956848],"max":[0.9842395186424255,0.9944770336151123,0.9943274855613708],"type":"VEC3","bufferView":1,"byteOffset":16272},{"name":"wheel_R_1_Mesh.4572-Mesh_0_texcoords","componentType":5126,"count":328,"min":[0.0006549999816343188,0.0018449999624863267],"max":[0.994642972946167,0.3930659890174866],"type":"VEC2","bufferView":2,"byteOffset":10848},{"name":"wheel_R_1_Mesh.4572-Mesh_0_indices","componentType":5123,"count":807,"min":[0],"max":[327],"type":"SCALAR","bufferView":3,"byteOffset":6596},{"name":"wheel_R_2_Mesh.4573-Mesh_0_positions","componentType":5126,"count":328,"min":[-1.785233974456787,0.0019749999046325684,0.20074300467967987],"max":[-1.2175999879837036,1.3633509874343872,1.5613139867782593],"type":"VEC3","bufferView":0,"byteOffset":20208},{"name":"wheel_R_2_Mesh.4573-Mesh_0_normals","componentType":5126,"count":328,"min":[-1,-0.9994184374809265,-0.9955046772956848],"max":[0.9842395186424255,0.9944770336151123,0.9943274855613708],"type":"VEC3","bufferView":1,"byteOffset":20208},{"name":"wheel_R_2_Mesh.4573-Mesh_0_texcoords","componentType":5126,"count":328,"min":[0.0006549999816343188,0.0018449999624863267],"max":[0.994642972946167,0.3930659890174866],"type":"VEC2","bufferView":2,"byteOffset":13472},{"name":"wheel_R_2_Mesh.4573-Mesh_0_indices","componentType":5123,"count":807,"min":[0],"max":[327],"type":"SCALAR","bufferView":3,"byteOffset":8212},{"name":"wheel_R_3_Mesh.4574-Mesh_0_positions","componentType":5126,"count":328,"min":[-1.785233974456787,0.0030249999836087227,-2.8341760635375977],"max":[-1.2175999879837036,1.3644009828567505,-1.4736050367355347],"type":"VEC3","bufferView":0,"byteOffset":24144},{"name":"wheel_R_3_Mesh.4574-Mesh_0_normals","componentType":5126,"count":328,"min":[-1,-0.9994184374809265,-0.9955046772956848],"max":[0.9842395186424255,0.9944770336151123,0.9943240284919739],"type":"VEC3","bufferView":1,"byteOffset":24144},{"name":"wheel_R_3_Mesh.4574-Mesh_0_texcoords","componentType":5126,"count":328,"min":[0.0006549999816343188,0.0018449999624863267],"max":[0.994642972946167,0.3930659890174866],"type":"VEC2","bufferView":2,"byteOffset":16096},{"name":"wheel_R_3_Mesh.4574-Mesh_0_indices","componentType":5123,"count":807,"min":[0],"max":[327],"type":"SCALAR","bufferView":3,"byteOffset":9828},{"name":"wheel_R_4_Mesh.4575-Mesh_0_positions","componentType":5126,"count":328,"min":[-1.785233974456787,0.0035550000611692667,-4.369397163391113],"max":[-1.2175999879837036,1.3649309873580933,-3.0088260173797607],"type":"VEC3","bufferView":0,"byteOffset":28080},{"name":"wheel_R_4_Mesh.4575-Mesh_0_normals","componentType":5126,"count":328,"min":[-1,-0.9994184374809265,-0.9955046772956848],"max":[0.9842395186424255,0.9944770336151123,0.9943274855613708],"type":"VEC3","bufferView":1,"byteOffset":28080},{"name":"wheel_R_4_Mesh.4575-Mesh_0_texcoords","componentType":5126,"count":328,"min":[0.0006549999816343188,0.0018449999624863267],"max":[0.994642972946167,0.3930659890174866],"type":"VEC2","bufferView":2,"byteOffset":18720},{"name":"wheel_R_4_Mesh.4575-Mesh_0_indices","componentType":5123,"count":807,"min":[0],"max":[327],"type":"SCALAR","bufferView":3,"byteOffset":11444},{"name":"eRocketTruck_Mesh.4566-Mesh_0_positions","componentType":5126,"count":1281,"min":[-2.1027441024780273,0.5818719863891602,-5.316166877746582],"max":[2.1027441024780273,3.244086980819702,4.096646785736084],"type":"VEC3","bufferView":0,"byteOffset":32016},{"name":"eRocketTruck_Mesh.4566-Mesh_0_normals","componentType":5126,"count":1281,"min":[-1,-0.9999999403953552,-1],"max":[1,0.9999999403953552,0.9999999403953552],"type":"VEC3","bufferView":1,"byteOffset":32016},{"name":"eRocketTruck_Mesh.4566-Mesh_0_texcoords","componentType":5126,"count":1281,"min":[0.000615999975707382,0.0014649999793618917],"max":[0.9995120167732239,0.9993839859962463],"type":"VEC2","bufferView":2,"byteOffset":21344},{"name":"eRocketTruck_Mesh.4566-Mesh_0_indices","componentType":5123,"count":2145,"min":[0],"max":[1280],"type":"SCALAR","bufferView":3,"byteOffset":13060},{"name":"Cylinder_Mesh.4581-Mesh_0_positions","componentType":5126,"count":1504,"min":[-1.5360020399093628,2.468679904937744,-5.278100967407227],"max":[1.5478320121765137,3.335202932357788,0.18802499771118164],"type":"VEC3","bufferView":0,"byteOffset":47388},{"name":"Cylinder_Mesh.4581-Mesh_0_normals","componentType":5126,"count":1504,"min":[-0.9999153017997742,-0.999686062335968,-1],"max":[0.999785304069519,0.9994359016418457,1],"type":"VEC3","bufferView":1,"byteOffset":47388},{"name":"Cylinder_Mesh.4581-Mesh_0_texcoords","componentType":5126,"count":1504,"min":[0.6995639801025391,0.14111299812793732],"max":[0.84375,0.6824259757995605],"type":"VEC2","bufferView":2,"byteOffset":31592},{"name":"Cylinder_Mesh.4581-Mesh_0_indices","componentType":5123,"count":2928,"min":[0],"max":[1503],"type":"SCALAR","bufferView":3,"byteOffset":17352},{"name":"Cylinder.002_Mesh.4582-Mesh_0_positions","componentType":5126,"count":65,"min":[-1.5192739963531494,1.7917280197143555,-2.8541390895843506],"max":[1.4992059469223022,2.2474069595336914,-1.086006999015808],"type":"VEC3","bufferView":0,"byteOffset":65436},{"name":"Cylinder.002_Mesh.4582-Mesh_0_normals","componentType":5126,"count":65,"min":[-1,-0.9828177690505981,-0.9930065870285034],"max":[1,0.9647266864776611,0.9972712993621826],"type":"VEC3","bufferView":1,"byteOffset":65436},{"name":"Cylinder.002_Mesh.4582-Mesh_0_texcoords","componentType":5126,"count":65,"min":[0.38480401039123535,0.020073000341653824],"max":[0.4854640066623688,0.24807199835777283],"type":"VEC2","bufferView":2,"byteOffset":43624},{"name":"Cylinder.002_Mesh.4582-Mesh_0_indices","componentType":5123,"count":123,"min":[0],"max":[64],"type":"SCALAR","bufferView":3,"byteOffset":23208},{"name":"m_rocketPitch_Mesh.4580-Mesh_0_positions","componentType":5126,"count":339,"min":[-1.8021199703216553,1.9985100030899048,-5.546504020690918],"max":[1.8021199703216553,3.5796189308166504,1.0541720390319824],"type":"VEC3","bufferView":0,"byteOffset":66216},{"name":"m_rocketPitch_Mesh.4580-Mesh_0_normals","componentType":5126,"count":339,"min":[-1,-1,-1],"max":[1,1,1],"type":"VEC3","bufferView":1,"byteOffset":66216},{"name":"m_rocketPitch_Mesh.4580-Mesh_0_texcoords","componentType":5126,"count":339,"min":[0.004668999928981066,0.28320300579071045],"max":[0.7045900225639343,0.9953309893608093],"type":"VEC2","bufferView":2,"byteOffset":44144},{"name":"m_rocketPitch_Mesh.4580-Mesh_0_indices","componentType":5123,"count":555,"min":[0],"max":[338],"type":"SCALAR","bufferView":3,"byteOffset":23456},{"name":"Cylinder.001_Mesh.4597-Mesh_0_positions","componentType":5126,"count":65,"min":[-1.5236929655075073,1.7570010423660278,-3.230797052383423],"max":[1.5166959762573242,2.2010860443115234,-1.4674819707870483],"type":"VEC3","bufferView":0,"byteOffset":70284},{"name":"Cylinder.001_Mesh.4597-Mesh_0_normals","componentType":5126,"count":65,"min":[-1,-0.9990506172180176,-0.9541664719581604],"max":[1,0.9833148717880249,0.9895046949386597],"type":"VEC3","bufferView":1,"byteOffset":70284},{"name":"Cylinder.001_Mesh.4597-Mesh_0_texcoords","componentType":5126,"count":65,"min":[0.17241600155830383,0.028876999393105507],"max":[0.352400004863739,0.23788000643253326],"type":"VEC2","bufferView":2,"byteOffset":46856},{"name":"Cylinder.001_Mesh.4597-Mesh_0_indices","componentType":5123,"count":123,"min":[0],"max":[64],"type":"SCALAR","bufferView":3,"byteOffset":24568},{"name":"Cube_Mesh.4596-Mesh_0_positions","componentType":5126,"count":145,"min":[-1.3829400539398193,1.7264330387115479,-5.570973873138428],"max":[1.3829400539398193,2.479975938796997,-2.6042730808258057],"type":"VEC3","bufferView":0,"byteOffset":71064},{"name":"Cube_Mesh.4596-Mesh_0_normals","componentType":5126,"count":145,"min":[-1,-1,-1],"max":[1,1,1],"type":"VEC3","bufferView":1,"byteOffset":71064},{"name":"Cube_Mesh.4596-Mesh_0_texcoords","componentType":5126,"count":145,"min":[0.7128909826278687,0.7072749733924866],"max":[0.9833980202674866,0.9812009930610657],"type":"VEC2","bufferView":2,"byteOffset":47376},{"name":"Cube_Mesh.4596-Mesh_0_indices","componentType":5123,"count":279,"min":[0],"max":[144],"type":"SCALAR","bufferView":3,"byteOffset":24816}],"asset":{"generator":"obj2gltf","version":"2.0"},"buffers":[{"name":"vtolvr_ERocketTruck","byteLength":219520,"uri":"data:application/octet-stream;base64,"}],"bufferViews":[{"name":"bufferView_0","buffer":0,"byteLength":72804,"byteOffset":0,"byteStride":12,"target":34962},{"name":"bufferView_1","buffer":0,"byteLength":72804,"byteOffset":72804,"byteStride":12,"target":34962},{"name":"bufferView_2","buffer":0,"byteLength":48536,"byteOffset":145608,"byteStride":8,"target":34962},{"name":"bufferView_3","buffer":0,"byteLength":25376,"byteOffset":194144,"target":34963}],"materials":[{"name":"mat_apcAA","pbrMetallicRoughness":{"baseColorFactor":[0.5,0.5,0.5,1],"metallicFactor":0,"roughnessFactor":1},"emissiveFactor":[0,0,0],"alphaMode":"OPAQUE","doubleSided":false},{"name":"mat_truckRockets.002","pbrMetallicRoughness":{"baseColorFactor":[0.5,0.5,0.5,1],"metallicFactor":0,"roughnessFactor":1},"emissiveFactor":[0,0,0],"alphaMode":"OPAQUE","doubleSided":false}],"meshes":[{"name":"ramp_Mesh.4567-Mesh","primitives":[{"attributes":{"POSITION":0,"NORMAL":1,"TEXCOORD_0":2},"indices":3,"material":0,"mode":4}]},{"name":"wheel_L_1_Mesh.4568-Mesh","primitives":[{"attributes":{"POSITION":4,"NORMAL":5,"TEXCOORD_0":6},"indices":7,"material":0,"mode":4}]},{"name":"wheel_L_2_Mesh.4569-Mesh","primitives":[{"attributes":{"POSITION":8,"NORMAL":9,"TEXCOORD_0":10},"indices":11,"material":0,"mode":4}]},{"name":"wheel_L_3_Mesh.4570-Mesh","primitives":[{"attributes":{"POSITION":12,"NORMAL":13,"TEXCOORD_0":14},"indices":15,"material":0,"mode":4}]},{"name":"wheel_L_4_Mesh.4571-Mesh","primitives":[{"attributes":{"POSITION":16,"NORMAL":17,"TEXCOORD_0":18},"indices":19,"material":0,"mode":4}]},{"name":"wheel_R_1_Mesh.4572-Mesh","primitives":[{"attributes":{"POSITION":20,"NORMAL":21,"TEXCOORD_0":22},"indices":23,"material":0,"mode":4}]},{"name":"wheel_R_2_Mesh.4573-Mesh","primitives":[{"attributes":{"POSITION":24,"NORMAL":25,"TEXCOORD_0":26},"indices":27,"material":0,"mode":4}]},{"name":"wheel_R_3_Mesh.4574-Mesh","primitives":[{"attributes":{"POSITION":28,"NORMAL":29,"TEXCOORD_0":30},"indices":31,"material":0,"mode":4}]},{"name":"wheel_R_4_Mesh.4575-Mesh","primitives":[{"attributes":{"POSITION":32,"NORMAL":33,"TEXCOORD_0":34},"indices":35,"material":0,"mode":4}]},{"name":"eRocketTruck_Mesh.4566-Mesh","primitives":[{"attributes":{"POSITION":36,"NORMAL":37,"TEXCOORD_0":38},"indices":39,"material":0,"mode":4}]},{"name":"Cylinder_Mesh.4581-Mesh","primitives":[{"attributes":{"POSITION":40,"NORMAL":41,"TEXCOORD_0":42},"indices":43,"material":1,"mode":4}]},{"name":"Cylinder.002_Mesh.4582-Mesh","primitives":[{"attributes":{"POSITION":44,"NORMAL":45,"TEXCOORD_0":46},"indices":47,"material":1,"mode":4}]},{"name":"m_rocketPitch_Mesh.4580-Mesh","primitives":[{"attributes":{"POSITION":48,"NORMAL":49,"TEXCOORD_0":50},"indices":51,"material":1,"mode":4}]},{"name":"Cylinder.001_Mesh.4597-Mesh","primitives":[{"attributes":{"POSITION":52,"NORMAL":53,"TEXCOORD_0":54},"indices":55,"material":1,"mode":4}]},{"name":"Cube_Mesh.4596-Mesh","primitives":[{"attributes":{"POSITION":56,"NORMAL":57,"TEXCOORD_0":58},"indices":59,"material":1,"mode":4}]}],"nodes":[{"name":"ramp_Mesh.4567","mesh":0},{"name":"wheel_L_1_Mesh.4568","mesh":1},{"name":"wheel_L_2_Mesh.4569","mesh":2},{"name":"wheel_L_3_Mesh.4570","mesh":3},{"name":"wheel_L_4_Mesh.4571","mesh":4},{"name":"wheel_R_1_Mesh.4572","mesh":5},{"name":"wheel_R_2_Mesh.4573","mesh":6},{"name":"wheel_R_3_Mesh.4574","mesh":7},{"name":"wheel_R_4_Mesh.4575","mesh":8},{"name":"eRocketTruck_Mesh.4566","mesh":9},{"name":"Cylinder_Mesh.4581","mesh":10},{"name":"Cylinder.002_Mesh.4582","mesh":11},{"name":"m_rocketPitch_Mesh.4580","mesh":12},{"name":"Cylinder.001_Mesh.4597","mesh":13},{"name":"Cube_Mesh.4596","mesh":14}],"scene":0,"scenes":[{"nodes":[0,1,2,3,4,5,6,7,8,9,10,11,12,13,14]}]}