{"accessors":[{"name":"lockingFlipTop_Mesh.5094-Mesh_0_positions","componentType":5126,"count":61,"min":[-1.32470703125,2.561429977416992,-0.4600149989128113],"max":[0.5522300004959106,3.3164188861846924,2.2109789848327637],"type":"VEC3","bufferView":0,"byteOffset":0},{"name":"lockingFlipTop_Mesh.5094-Mesh_0_normals","componentType":5126,"count":61,"min":[-1,-1,-1],"max":[1,1,1],"type":"VEC3","bufferView":1,"byteOffset":0},{"name":"lockingFlipTop_Mesh.5094-Mesh_0_texcoords","componentType":5126,"count":61,"min":[0.3754650056362152,0.2849009931087494],"max":[0.7126510143280029,0.7802860140800476],"type":"VEC2","bufferView":2,"byteOffset":0},{"name":"lockingFlipTop_Mesh.5094-Mesh_0_indices","componentType":5123,"count":105,"min":[0],"max":[60],"type":"SCALAR","bufferView":3,"byteOffset":0},{"name":"radarRot_Mesh.5097-Mesh_0_positions","componentType":5126,"count":39,"min":[0.26057499647140503,2.9159810543060303,1.9466429948806763],"max":[1.7191779613494873,3.4156219959259033,3.5797510147094727],"type":"VEC3","bufferView":0,"byteOffset":732},{"name":"radarRot_Mesh.5097-Mesh_0_normals","componentType":5126,"count":39,"min":[-1,-1,-1],"max":[1,1,0.7071067690849304],"type":"VEC3","bufferView":1,"byteOffset":732},{"name":"radarRot_Mesh.5097-Mesh_0_texcoords","componentType":5126,"count":39,"min":[0.077844999730587,0.3718720078468323],"max":[0.6811959743499756,0.8714969754219055],"type":"VEC2","bufferView":2,"byteOffset":488},{"name":"radarRot_Mesh.5097-Mesh_0_indices","componentType":5123,"count":57,"min":[0],"max":[38],"type":"SCALAR","bufferView":3,"byteOffset":212},{"name":"scannerHinge2_Mesh.5096-Mesh_0_positions","componentType":5126,"count":26,"min":[0.8731160163879395,2.915982961654663,-0.46001601219177246],"max":[1.1066370010375977,3.2094969749450684,1.9466429948806763],"type":"VEC3","bufferView":0,"byteOffset":1200},{"name":"scannerHinge2_Mesh.5096-Mesh_0_normals","componentType":5126,"count":26,"min":[-1,-1,-1],"max":[1,1,1],"type":"VEC3","bufferView":1,"byteOffset":1200},{"name":"scannerHinge2_Mesh.5096-Mesh_0_texcoords","componentType":5126,"count":26,"min":[0.8227789998054504,0.5335069894790649],"max":[0.8227789998054504,0.5335069894790649],"type":"VEC2","bufferView":2,"byteOffset":800},{"name":"scannerHinge2_Mesh.5096-Mesh_0_indices","componentType":5123,"count":36,"min":[0],"max":[25],"type":"SCALAR","bufferView":3,"byteOffset":328},{"name":"scannerHinge1_Mesh.5095-Mesh_0_positions","componentType":5126,"count":95,"min":[0.6550459861755371,2.518615961074829,-0.5317379832267761],"max":[1.32470703125,3.250354051589966,6.485754013061523],"type":"VEC3","bufferView":0,"byteOffset":1512},{"name":"scannerHinge1_Mesh.5095-Mesh_0_normals","componentType":5126,"count":95,"min":[-1,-0.9999660849571228,-1],"max":[1,1,1],"type":"VEC3","bufferView":1,"byteOffset":1512},{"name":"scannerHinge1_Mesh.5095-Mesh_0_texcoords","componentType":5126,"count":95,"min":[0.8093760013580322,0.30007800459861755],"max":[0.8093770146369934,0.30007800459861755],"type":"VEC2","bufferView":2,"byteOffset":1008},{"name":"scannerHinge1_Mesh.5095-Mesh_0_indices","componentType":5123,"count":189,"min":[0],"max":[94],"type":"SCALAR","bufferView":3,"byteOffset":400},{"name":"eSamTruckRadar_Mesh.5093-Mesh_0_positions","componentType":5126,"count":102,"min":[-1.32470703125,1.635985016822815,-0.46001601219177246],"max":[1.32470703125,3.2153639793395996,6.730085849761963],"type":"VEC3","bufferView":0,"byteOffset":2652},{"name":"eSamTruckRadar_Mesh.5093-Mesh_0_normals","componentType":5126,"count":102,"min":[-1,-1,-1],"max":[1,1,1],"type":"VEC3","bufferView":1,"byteOffset":2652},{"name":"eSamTruckRadar_Mesh.5093-Mesh_0_texcoords","componentType":5126,"count":102,"min":[0.870805025100708,0.8551689982414246],"max":[0.870805025100708,0.8551689982414246],"type":"VEC2","bufferView":2,"byteOffset":1768},{"name":"eSamTruckRadar_Mesh.5093-Mesh_0_indices","componentType":5123,"count":168,"min":[0],"max":[101],"type":"SCALAR","bufferView":3,"byteOffset":780},{"name":"wheel_L_1_Mesh.5105-Mesh_0_positions","componentType":5126,"count":389,"min":[-1.6152299642562866,-0.004251000005751848,-3.174767017364502],"max":[-1.0501279830932617,1.362828016281128,-1.790945053100586],"type":"VEC3","bufferView":0,"byteOffset":3876},{"name":"wheel_L_1_Mesh.5105-Mesh_0_normals","componentType":5126,"count":389,"min":[-1,-0.9995716214179993,-0.9995716214179993],"max":[0.945999026298523,0.9995716214179993,0.9995716214179993],"type":"VEC3","bufferView":1,"byteOffset":3876},{"name":"wheel_L_1_Mesh.5105-Mesh_0_texcoords","componentType":5126,"count":389,"min":[0.0006220000213943422,0.001981999957934022],"max":[0.9944279789924622,0.5686129927635193],"type":"VEC2","bufferView":2,"byteOffset":2584},{"name":"wheel_L_1_Mesh.5105-Mesh_0_indices","componentType":5123,"count":966,"min":[0],"max":[388],"type":"SCALAR","bufferView":3,"byteOffset":1116},{"name":"wheel_L_2_Mesh.5106-Mesh_0_positions","componentType":5126,"count":389,"min":[-1.6152299642562866,-0.003728999989107251,-1.666208028793335],"max":[-1.0501279830932617,1.3633509874343872,-0.28238600492477417],"type":"VEC3","bufferView":0,"byteOffset":8544},{"name":"wheel_L_2_Mesh.5106-Mesh_0_normals","componentType":5126,"count":389,"min":[-1,-0.9995716214179993,-0.9995716214179993],"max":[0.945999026298523,0.9995716214179993,0.9995716214179993],"type":"VEC3","bufferView":1,"byteOffset":8544},{"name":"wheel_L_2_Mesh.5106-Mesh_0_texcoords","componentType":5126,"count":389,"min":[0.0006220000213943422,0.001981999957934022],"max":[0.9944279789924622,0.5686129927635193],"type":"VEC2","bufferView":2,"byteOffset":5696},{"name":"wheel_L_2_Mesh.5106-Mesh_0_indices","componentType":5123,"count":966,"min":[0],"max":[388],"type":"SCALAR","bufferView":3,"byteOffset":3048},{"name":"wheel_L_3_Mesh.5107-Mesh_0_positions","componentType":5126,"count":389,"min":[-1.6152299642562866,-0.00215999991632998,2.868710994720459],"max":[-1.0501279830932617,1.3649200201034546,4.252532958984375],"type":"VEC3","bufferView":0,"byteOffset":13212},{"name":"wheel_L_3_Mesh.5107-Mesh_0_normals","componentType":5126,"count":389,"min":[-1,-0.9995716214179993,-0.9995716214179993],"max":[0.945999026298523,0.9995716214179993,0.9995716214179993],"type":"VEC3","bufferView":1,"byteOffset":13212},{"name":"wheel_L_3_Mesh.5107-Mesh_0_texcoords","componentType":5126,"count":389,"min":[0.0006220000213943422,0.001981999957934022],"max":[0.9944279789924622,0.5686129927635193],"type":"VEC2","bufferView":2,"byteOffset":8808},{"name":"wheel_L_3_Mesh.5107-Mesh_0_indices","componentType":5123,"count":966,"min":[0],"max":[388],"type":"SCALAR","bufferView":3,"byteOffset":4980},{"name":"wheel_L_4_Mesh.5108-Mesh_0_positions","componentType":5126,"count":389,"min":[-1.6152299642562866,-0.0016289999475702643,4.403932094573975],"max":[-1.0501279830932617,1.3654509782791138,5.787754058837891],"type":"VEC3","bufferView":0,"byteOffset":17880},{"name":"wheel_L_4_Mesh.5108-Mesh_0_normals","componentType":5126,"count":389,"min":[-1,-0.9995716214179993,-0.9995716214179993],"max":[0.945999026298523,0.9995716214179993,0.9995716214179993],"type":"VEC3","bufferView":1,"byteOffset":17880},{"name":"wheel_L_4_Mesh.5108-Mesh_0_texcoords","componentType":5126,"count":389,"min":[0.0006220000213943422,0.001981999957934022],"max":[0.9944279789924622,0.5686129927635193],"type":"VEC2","bufferView":2,"byteOffset":11920},{"name":"wheel_L_4_Mesh.5108-Mesh_0_indices","componentType":5123,"count":966,"min":[0],"max":[388],"type":"SCALAR","bufferView":3,"byteOffset":6912},{"name":"wheel_R_1_Mesh.5109-Mesh_0_positions","componentType":5126,"count":389,"min":[1.0471320152282715,-0.0042500002309679985,-3.174767017364502],"max":[1.6122339963912964,1.362828016281128,-1.790945053100586],"type":"VEC3","bufferView":0,"byteOffset":22548},{"name":"wheel_R_1_Mesh.5109-Mesh_0_normals","componentType":5126,"count":389,"min":[-0.945999026298523,-0.9995716214179993,-0.9995716214179993],"max":[1,0.9995716214179993,0.9995716214179993],"type":"VEC3","bufferView":1,"byteOffset":22548},{"name":"wheel_R_1_Mesh.5109-Mesh_0_texcoords","componentType":5126,"count":389,"min":[0.0006220000213943422,0.001981999957934022],"max":[0.9944279789924622,0.5686129927635193],"type":"VEC2","bufferView":2,"byteOffset":15032},{"name":"wheel_R_1_Mesh.5109-Mesh_0_indices","componentType":5123,"count":966,"min":[0],"max":[388],"type":"SCALAR","bufferView":3,"byteOffset":8844},{"name":"wheel_R_2_Mesh.5110-Mesh_0_positions","componentType":5126,"count":389,"min":[1.0471320152282715,-0.003728999989107251,-1.666208028793335],"max":[1.6122339963912964,1.3633509874343872,-0.28238600492477417],"type":"VEC3","bufferView":0,"byteOffset":27216},{"name":"wheel_R_2_Mesh.5110-Mesh_0_normals","componentType":5126,"count":389,"min":[-0.945999026298523,-0.9995716214179993,-0.9995716214179993],"max":[1,0.9995716214179993,0.9995716214179993],"type":"VEC3","bufferView":1,"byteOffset":27216},{"name":"wheel_R_2_Mesh.5110-Mesh_0_texcoords","componentType":5126,"count":389,"min":[0.0006220000213943422,0.001981999957934022],"max":[0.9944279789924622,0.5686129927635193],"type":"VEC2","bufferView":2,"byteOffset":18144},{"name":"wheel_R_2_Mesh.5110-Mesh_0_indices","componentType":5123,"count":966,"min":[0],"max":[388],"type":"SCALAR","bufferView":3,"byteOffset":10776},{"name":"wheel_R_3_Mesh.5111-Mesh_0_positions","componentType":5126,"count":389,"min":[1.0471320152282715,-0.00215999991632998,2.868710994720459],"max":[1.6122339963912964,1.3649200201034546,4.252532958984375],"type":"VEC3","bufferView":0,"byteOffset":31884},{"name":"wheel_R_3_Mesh.5111-Mesh_0_normals","componentType":5126,"count":389,"min":[-0.945999026298523,-0.9995716214179993,-0.9995716214179993],"max":[1,0.9995716214179993,0.9995716214179993],"type":"VEC3","bufferView":1,"byteOffset":31884},{"name":"wheel_R_3_Mesh.5111-Mesh_0_texcoords","componentType":5126,"count":389,"min":[0.0006220000213943422,0.001981999957934022],"max":[0.9944279789924622,0.5686129927635193],"type":"VEC2","bufferView":2,"byteOffset":21256},{"name":"wheel_R_3_Mesh.5111-Mesh_0_indices","componentType":5123,"count":966,"min":[0],"max":[388],"type":"SCALAR","bufferView":3,"byteOffset":12708},{"name":"wheel_R_4_Mesh.5112-Mesh_0_positions","componentType":5126,"count":389,"min":[1.0471320152282715,-0.0016289999475702643,4.403932094573975],"max":[1.6122339963912964,1.3654509782791138,5.787754058837891],"type":"VEC3","bufferView":0,"byteOffset":36552},{"name":"wheel_R_4_Mesh.5112-Mesh_0_normals","componentType":5126,"count":389,"min":[-0.945999026298523,-0.9995716214179993,-0.9995716214179993],"max":[1,0.9995716214179993,0.9995716214179993],"type":"VEC3","bufferView":1,"byteOffset":36552},{"name":"wheel_R_4_Mesh.5112-Mesh_0_texcoords","componentType":5126,"count":389,"min":[0.0006220000213943422,0.001981999957934022],"max":[0.9944279789924622,0.5686129927635193],"type":"VEC2","bufferView":2,"byteOffset":24368},{"name":"wheel_R_4_Mesh.5112-Mesh_0_indices","componentType":5123,"count":966,"min":[0],"max":[388],"type":"SCALAR","bufferView":3,"byteOffset":14640},{"name":"eSamTruckLOD_Mesh.5113-Mesh_0_positions","componentType":5126,"count":312,"min":[-1.638627052307129,0.009331000037491322,-4.136137008666992],"max":[1.6872559785842896,3.0287179946899414,5.976937770843506],"type":"VEC3","bufferView":0,"byteOffset":41220},{"name":"eSamTruckLOD_Mesh.5113-Mesh_0_normals","componentType":5126,"count":312,"min":[-1,-0.9999999403953552,-0.9953604936599731],"max":[1,0.9999999403953552,0.9999999403953552],"type":"VEC3","bufferView":1,"byteOffset":41220},{"name":"eSamTruckLOD_Mesh.5113-Mesh_0_texcoords","componentType":5126,"count":312,"min":[0.005016000010073185,0.08392100036144257],"max":[0.694832980632782,0.6899750232696533],"type":"VEC2","bufferView":2,"byteOffset":27480},{"name":"eSamTruckLOD_Mesh.5113-Mesh_0_indices","componentType":5123,"count":504,"min":[0],"max":[311],"type":"SCALAR","bufferView":3,"byteOffset":16572}],"asset":{"generator":"obj2gltf","version":"2.0"},"buffers":[{"name":"vtolvr_MAD-4Radar","byteLength":137484,"uri":"data:application/octet-stream;base64,"}],"bufferViews":[{"name":"bufferView_0","buffer":0,"byteLength":44964,"byteOffset":0,"byteStride":12,"target":34962},{"name":"bufferView_1","buffer":0,"byteLength":44964,"byteOffset":44964,"byteStride":12,"target":34962},{"name":"bufferView_2","buffer":0,"byteLength":29976,"byteOffset":89928,"byteStride":8,"target":34962},{"name":"bufferView_3","buffer":0,"byteLength":17580,"byteOffset":119904,"target":34963}],"materials":[{"name":"mat_samFCR","pbrMetallicRoughness":{"baseColorFactor":[0.5,0.5,0.5,1],"metallicFactor":0,"roughnessFactor":1},"emissiveFactor":[0,0,0],"alphaMode":"OPAQUE","doubleSided":false},{"name":"mat_apcAA.003","pbrMetallicRoughness":{"baseColorFactor":[0.5,0.5,0.5,1],"metallicFactor":0,"roughnessFactor":1},"emissiveFactor":[0,0,0],"alphaMode":"OPAQUE","doubleSided":false},{"name":"Material.003","pbrMetallicRoughness":{"baseColorFactor":[0.5,0.5,0.5,1],"metallicFactor":0,"roughnessFactor":1},"emissiveFactor":[0,0,0],"alphaMode":"OPAQUE","doubleSided":false}],"meshes":[{"name":"lockingFlipTop_Mesh.5094-Mesh","primitives":[{"attributes":{"POSITION":0,"NORMAL":1,"TEXCOORD_0":2},"indices":3,"material":0,"mode":4}]},{"name":"radarRot_Mesh.5097-Mesh","primitives":[{"attributes":{"POSITION":4,"NORMAL":5,"TEXCOORD_0":6},"indices":7,"material":0,"mode":4}]},{"name":"scannerHinge2_Mesh.5096-Mesh","primitives":[{"attributes":{"POSITION":8,"NORMAL":9,"TEXCOORD_0":10},"indices":11,"material":0,"mode":4}]},{"name":"scannerHinge1_Mesh.5095-Mesh","primitives":[{"attributes":{"POSITION":12,"NORMAL":13,"TEXCOORD_0":14},"indices":15,"material":0,"mode":4}]},{"name":"eSamTruckRadar_Mesh.5093-Mesh","primitives":[{"attributes":{"POSITION":16,"NORMAL":17,"TEXCOORD_0":18},"indices":19,"material":0,"mode":4}]},{"name":"wheel_L_1_Mesh.5105-Mesh","primitives":[{"attributes":{"POSITION":20,"NORMAL":21,"TEXCOORD_0":22},"indices":23,"material":1,"mode":4}]},{"name":"wheel_L_2_Mesh.5106-Mesh","primitives":[{"attributes":{"POSITION":24,"NORMAL":25,"TEXCOORD_0":26},"indices":27,"material":1,"mode":4}]},{"name":"wheel_L_3_Mesh.5107-Mesh","primitives":[{"attributes":{"POSITION":28,"NORMAL":29,"TEXCOORD_0":30},"indices":31,"material":1,"mode":4}]},{"name":"wheel_L_4_Mesh.5108-Mesh","primitives":[{"attributes":{"POSITION":32,"NORMAL":33,"TEXCOORD_0":34},"indices":35,"material":1,"mode":4}]},{"name":"wheel_R_1_Mesh.5109-Mesh","primitives":[{"attributes":{"POSITION":36,"NORMAL":37,"TEXCOORD_0":38},"indices":39,"material":1,"mode":4}]},{"name":"wheel_R_2_Mesh.5110-Mesh","primitives":[{"attributes":{"POSITION":40,"NORMAL":41,"TEXCOORD_0":42},"indices":43,"material":1,"mode":4}]},{"name":"wheel_R_3_Mesh.5111-Mesh","primitives":[{"attributes":{"POSITION":44,"NORMAL":45,"TEXCOORD_0":46},"indices":47,"material":1,"mode":4}]},{"name":"wheel_R_4_Mesh.5112-Mesh","primitives":[{"attributes":{"POSITION":48,"NORMAL":49,"TEXCOORD_0":50},"indices":51,"material":1,"mode":4}]},{"name":"eSamTruckLOD_Mesh.5113-Mesh","primitives":[{"attributes":{"POSITION":52,"NORMAL":53,"TEXCOORD_0":54},"indices":55,"material":2,"mode":4}]}],"nodes":[{"name":"lockingFlipTop_Mesh.5094","mesh":0},{"name":"radarRot_Mesh.5097","mesh":1},{"name":"scannerHinge2_Mesh.5096","mesh":2},{"name":"scannerHinge1_Mesh.5095","mesh":3},{"name":"eSamTruckRadar_Mesh.5093","mesh":4},{"name":"wheel_L_1_Mesh.5105","mesh":5},{"name":"wheel_L_2_Mesh.5106","mesh":6},{"name":"wheel_L_3_Mesh.5107","mesh":7},{"name":"wheel_L_4_Mesh.5108","mesh":8},{"name":"wheel_R_1_Mesh.5109","mesh":9},{"name":"wheel_R_2_Mesh.5110","mesh":10},{"name":"wheel_R_3_Mesh.5111","mesh":11},{"name":"wheel_R_4_Mesh.5112","mesh":12},{"name":"eSamTruckLOD_Mesh.5113","mesh":13}],"scene":0,"scenes":[{"nodes":[0,1,2,3,4,5,6,7,8,9,10,11,12,13]}]}