{"accessors":[{"name":"finThings_Mesh.5136-Mesh_0_positions","componentType":5126,"count":288,"min":[-342.3633117675781,3125.69970703125,-317.708740234375],"max":[342.3631286621094,3497.447998046875,317.7088623046875],"type":"VEC3","bufferView":0,"byteOffset":0},{"name":"finThings_Mesh.5136-Mesh_0_normals","componentType":5126,"count":288,"min":[-0.9637810587882996,-1,-0.9954585433006287],"max":[0.9637810587882996,0.3110932409763336,0.9954585433006287],"type":"VEC3","bufferView":1,"byteOffset":0},{"name":"finThings_Mesh.5136-Mesh_0_texcoords","componentType":5126,"count":288,"min":[0.7365890145301819,0.7858369946479797],"max":[0.782496988773346,0.8255800008773804],"type":"VEC2","bufferView":2,"byteOffset":0},{"name":"finThings_Mesh.5136-Mesh_0_indices","componentType":5123,"count":504,"min":[0],"max":[287],"type":"SCALAR","bufferView":3,"byteOffset":0},{"name":"Quad_Mesh.5195-Mesh_0_positions","componentType":5126,"count":4,"min":[-0.6017259955406189,5.462890148162842,-0.6007919907569885],"max":[0.6007000207901001,5.462892055511475,0.6016340255737305],"type":"VEC3","bufferView":0,"byteOffset":3456},{"name":"Quad_Mesh.5195-Mesh_0_normals","componentType":5126,"count":4,"min":[0,1,0],"max":[0,1,0],"type":"VEC3","bufferView":1,"byteOffset":3456},{"name":"Quad_Mesh.5195-Mesh_0_texcoords","componentType":5126,"count":4,"min":[0,0],"max":[1,1],"type":"VEC2","bufferView":2,"byteOffset":2304},{"name":"Quad_Mesh.5195-Mesh_0_indices","componentType":5123,"count":6,"min":[0],"max":[3],"type":"SCALAR","bufferView":3,"byteOffset":1008},{"name":"explodeSphere_Mesh.5194-Mesh_0_positions","componentType":5126,"count":516,"min":[-0.5005130171775818,4.962891101837158,-0.4995790123939514],"max":[0.4994870126247406,5.962891101837158,0.5004209876060486],"type":"VEC3","bufferView":0,"byteOffset":3504},{"name":"explodeSphere_Mesh.5194-Mesh_0_normals","componentType":5126,"count":516,"min":[-0.9999775290489197,-0.9999750852584839,-1],"max":[0.9999755024909973,0.9999750852584839,1],"type":"VEC3","bufferView":1,"byteOffset":3504},{"name":"explodeSphere_Mesh.5194-Mesh_0_texcoords","componentType":5126,"count":516,"min":[-0.0009210000280290842,0.024109000340104103],"max":[0.9983339905738831,0.9823709726333618],"type":"VEC2","bufferView":2,"byteOffset":2336},{"name":"explodeSphere_Mesh.5194-Mesh_0_indices","componentType":5123,"count":2304,"min":[0],"max":[515],"type":"SCALAR","bufferView":3,"byteOffset":1020},{"name":"motherCyl_Mesh.5133-Mesh_0_positions","componentType":5126,"count":3688,"min":[-16957.552734375,3411.517822265625,-16957.5390625],"max":[16957.552734375,6681.17138671875,16957.5390625],"type":"VEC3","bufferView":0,"byteOffset":9696},{"name":"motherCyl_Mesh.5133-Mesh_0_normals","componentType":5126,"count":3688,"min":[-0.9993518590927124,-1,-0.9993518590927124],"max":[0.9993518590927124,1,0.9993518590927124],"type":"VEC3","bufferView":1,"byteOffset":9696},{"name":"motherCyl_Mesh.5133-Mesh_0_texcoords","componentType":5126,"count":3688,"min":[0.004815999884158373,0.012865000404417515],"max":[0.9898999929428101,0.9918410181999207],"type":"VEC2","bufferView":2,"byteOffset":6464},{"name":"motherCyl_Mesh.5133-Mesh_0_indices","componentType":5123,"count":8688,"min":[0],"max":[3687],"type":"SCALAR","bufferView":3,"byteOffset":5628}],"asset":{"generator":"obj2gltf","version":"2.0"},"buffers":[{"name":"vtolvr_Mothership","byteLength":166876,"uri":"data:application/octet-stream;base64,"}],"bufferViews":[{"name":"bufferView_0","buffer":0,"byteLength":53952,"byteOffset":0,"byteStride":12,"target":34962},{"name":"bufferView_1","buffer":0,"byteLength":53952,"byteOffset":53952,"byteStride":12,"target":34962},{"name":"bufferView_2","buffer":0,"byteLength":35968,"byteOffset":107904,"byteStride":8,"target":34962},{"name":"bufferView_3","buffer":0,"byteLength":23004,"byteOffset":143872,"target":34963}],"materials":[{"name":"mat_j4mother","pbrMetallicRoughness":{"baseColorFactor":[0.5,0.5,0.5,1],"metallicFactor":0,"roughnessFactor":1},"emissiveFactor":[0,0,0],"alphaMode":"OPAQUE","doubleSided":false},{"name":"None.007","pbrMetallicRoughness":{"baseColorFactor":[0.5,0.5,0.5,1],"metallicFactor":0,"roughnessFactor":1},"emissiveFactor":[0,0,0],"alphaMode":"OPAQUE","doubleSided":false}],"meshes":[{"name":"finThings_Mesh.5136-Mesh","primitives":[{"attributes":{"POSITION":0,"NORMAL":1,"TEXCOORD_0":2},"indices":3,"material":0,"mode":4}]},{"name":"Quad_Mesh.5195-Mesh","primitives":[{"attributes":{"POSITION":4,"NORMAL":5,"TEXCOORD_0":6},"indices":7,"material":1,"mode":4}]},{"name":"explodeSphere_Mesh.5194-Mesh","primitives":[{"attributes":{"POSITION":8,"NORMAL":9,"TEXCOORD_0":10},"indices":11,"material":1,"mode":4}]},{"name":"motherCyl_Mesh.5133-Mesh","primitives":[{"attributes":{"POSITION":12,"NORMAL":13,"TEXCOORD_0":14},"indices":15,"material":0,"mode":4}]}],"nodes":[{"name":"finThings_Mesh.5136","mesh":0},{"name":"Quad_Mesh.5195","mesh":1},{"name":"explodeSphere_Mesh.5194","mesh":2},{"name":"motherCyl_Mesh.5133","mesh":3}],"scene":0,"scenes":[{"nodes":[0,1,2,3]}]}