{"accessors":[{"name":"fpd_mesh_Mesh.4361-Mesh_0_positions","componentType":5126,"count":2163,"min":[-0.3808630108833313,-0.0005799999926239252,-0.31335100531578064],"max":[0.38944199681282043,1.9016610383987427,0.43008100986480713],"type":"VEC3","bufferView":0,"byteOffset":0},{"name":"fpd_mesh_Mesh.4361-Mesh_0_normals","componentType":5126,"count":2163,"min":[-0.9999449849128723,-0.9999136924743652,-0.9998286962509155],"max":[0.9998161792755127,0.9999702572822571,0.9999510049819946],"type":"VEC3","bufferView":1,"byteOffset":0},{"name":"fpd_mesh_Mesh.4361-Mesh_0_texcoords","componentType":5126,"count":2163,"min":[0.00380500010214746,0.007814000360667706],"max":[0.992684006690979,0.9961599707603455],"type":"VEC2","bufferView":2,"byteOffset":0},{"name":"fpd_mesh_Mesh.4361-Mesh_0_indices","componentType":5123,"count":4599,"min":[0],"max":[2162],"type":"SCALAR","bufferView":3,"byteOffset":0},{"name":"gun_Mesh.4401-Mesh_0_positions","componentType":5126,"count":293,"min":[-0.4029940068721771,0.9787009954452515,0.15366600453853607],"max":[0.6171690225601196,1.408676028251648,0.42221999168395996],"type":"VEC3","bufferView":0,"byteOffset":25956},{"name":"gun_Mesh.4401-Mesh_0_normals","componentType":5126,"count":293,"min":[-0.9426365494728088,-0.9998689293861389,-0.9749612808227539],"max":[0.9865822792053223,0.9378747344017029,0.9749612808227539],"type":"VEC3","bufferView":1,"byteOffset":25956},{"name":"gun_Mesh.4401-Mesh_0_texcoords","componentType":5126,"count":293,"min":[0,1],"max":[0,1],"type":"VEC2","bufferView":2,"byteOffset":17304},{"name":"gun_Mesh.4401-Mesh_0_indices","componentType":5123,"count":453,"min":[0],"max":[292],"type":"SCALAR","bufferView":3,"byteOffset":9200}],"asset":{"generator":"obj2gltf","version":"2.0"},"buffers":[{"name":"vtolvr_EnemySoldier","byteLength":88700,"uri":"data:application/octet-stream;base64,"}],"bufferViews":[{"name":"bufferView_0","buffer":0,"byteLength":29472,"byteOffset":0,"byteStride":12,"target":34962},{"name":"bufferView_1","buffer":0,"byteLength":29472,"byteOffset":29472,"byteStride":12,"target":34962},{"name":"bufferView_2","buffer":0,"byteLength":19648,"byteOffset":58944,"byteStride":8,"target":34962},{"name":"bufferView_3","buffer":0,"byteLength":10108,"byteOffset":78592,"target":34963}],"materials":[{"name":"None","pbrMetallicRoughness":{"baseColorFactor":[0.5,0.5,0.5,1],"metallicFactor":0,"roughnessFactor":1},"emissiveFactor":[0,0,0],"alphaMode":"OPAQUE","doubleSided":false},{"name":"mat_soldier.003","pbrMetallicRoughness":{"baseColorFactor":[0.5,0.5,0.5,1],"metallicFactor":0,"roughnessFactor":1},"emissiveFactor":[0,0,0],"alphaMode":"OPAQUE","doubleSided":false}],"meshes":[{"name":"fpd_mesh_Mesh.4361-Mesh","primitives":[{"attributes":{"POSITION":0,"NORMAL":1,"TEXCOORD_0":2},"indices":3,"material":0,"mode":4}]},{"name":"gun_Mesh.4401-Mesh","primitives":[{"attributes":{"POSITION":4,"NORMAL":5,"TEXCOORD_0":6},"indices":7,"material":1,"mode":4}]}],"nodes":[{"name":"fpd_mesh_Mesh.4361","mesh":0},{"name":"gun_Mesh.4401","mesh":1}],"scene":0,"scenes":[{"nodes":[0,1]}]}