{"accessors":[{"name":"vehicle_Mesh.001-Mesh_0_positions","componentType":5126,"count":1420,"min":[-2.202812910079956,-0.621284008026123,-4.185410976409912],"max":[2.202812910079956,1.2427959442138672,4.595952987670898],"type":"VEC3","bufferView":0,"byteOffset":0},{"name":"vehicle_Mesh.001-Mesh_0_normals","componentType":5126,"count":1420,"min":[-1,-0.9999999403953552,-0.9999999403953552],"max":[1,1,0.9999999403953552],"type":"VEC3","bufferView":1,"byteOffset":0},{"name":"vehicle_Mesh.001-Mesh_0_texcoords","componentType":5126,"count":1420,"min":[0.007794000208377838,0.16496799886226654],"max":[0.9958080053329468,0.9904329776763916],"type":"VEC2","bufferView":2,"byteOffset":0},{"name":"vehicle_Mesh.001-Mesh_0_indices","componentType":5123,"count":2976,"min":[0],"max":[1419],"type":"SCALAR","bufferView":3,"byteOffset":0},{"name":"cannonBarrel_Mesh.001-Mesh_0_positions","componentType":5126,"count":289,"min":[-0.30292901396751404,1.301427960395813,0.9178169965744019],"max":[0.30292999744415283,1.8736679553985596,5.6256489753723145],"type":"VEC3","bufferView":0,"byteOffset":17040},{"name":"cannonBarrel_Mesh.001-Mesh_0_normals","componentType":5126,"count":289,"min":[-0.9998746514320374,-1,-0.9992730021476746],"max":[0.9998746514320374,0.9943090081214905,1],"type":"VEC3","bufferView":1,"byteOffset":17040},{"name":"cannonBarrel_Mesh.001-Mesh_0_texcoords","componentType":5126,"count":289,"min":[0.008952000178396702,0.413114994764328],"max":[0.34738901257514954,0.6464830040931702],"type":"VEC2","bufferView":2,"byteOffset":11360},{"name":"cannonBarrel_Mesh.001-Mesh_0_indices","componentType":5123,"count":639,"min":[0],"max":[288],"type":"SCALAR","bufferView":3,"byteOffset":5952},{"name":"turretBodyLOD_Mesh.001-Mesh_0_positions","componentType":5126,"count":39,"min":[-2.0861101150512695,0.3939349949359894,-3.0812010765075684],"max":[2.0861101150512695,2.013390064239502,2.0445809364318848],"type":"VEC3","bufferView":0,"byteOffset":20508},{"name":"turretBodyLOD_Mesh.001-Mesh_0_normals","componentType":5126,"count":39,"min":[-1,-0.9997330904006958,-0.8576850891113281],"max":[1,0.9995852112770081,0.9947397112846375],"type":"VEC3","bufferView":1,"byteOffset":20508},{"name":"turretBodyLOD_Mesh.001-Mesh_0_texcoords","componentType":5126,"count":39,"min":[0,0.02177399955689907],"max":[0.5480809807777405,1],"type":"VEC2","bufferView":2,"byteOffset":13672},{"name":"turretBodyLOD_Mesh.001-Mesh_0_indices","componentType":5123,"count":51,"min":[0],"max":[38],"type":"SCALAR","bufferView":3,"byteOffset":7232},{"name":"turretBody_Mesh.001-Mesh_0_positions","componentType":5126,"count":385,"min":[-1.7700910568237305,1.1851099729537964,-3.494791030883789],"max":[1.7700910568237305,2.134035110473633,1.947363018989563],"type":"VEC3","bufferView":0,"byteOffset":20976},{"name":"turretBody_Mesh.001-Mesh_0_normals","componentType":5126,"count":385,"min":[-1,-0.9999711513519287,-1],"max":[1,1,1],"type":"VEC3","bufferView":1,"byteOffset":20976},{"name":"turretBody_Mesh.001-Mesh_0_texcoords","componentType":5126,"count":385,"min":[0.259768009185791,0.08467499911785126],"max":[0.9944990277290344,0.5424489974975586],"type":"VEC2","bufferView":2,"byteOffset":13984},{"name":"turretBody_Mesh.001-Mesh_0_indices","componentType":5123,"count":687,"min":[0],"max":[384],"type":"SCALAR","bufferView":3,"byteOffset":7336},{"name":"machineGun_Mesh.001-Mesh_0_positions","componentType":5126,"count":328,"min":[-0.5799880027770996,2.2352490425109863,-1.32123601436615],"max":[-0.27421998977661133,2.4238150119781494,-0.07501599937677383],"type":"VEC3","bufferView":0,"byteOffset":25596},{"name":"machineGun_Mesh.001-Mesh_0_normals","componentType":5126,"count":328,"min":[-1,-1,-1],"max":[1,1,1],"type":"VEC3","bufferView":1,"byteOffset":25596},{"name":"machineGun_Mesh.001-Mesh_0_texcoords","componentType":5126,"count":328,"min":[0.005679999943822622,0.34708601236343384],"max":[0.18171800673007965,0.5468459725379944],"type":"VEC2","bufferView":2,"byteOffset":17064},{"name":"machineGun_Mesh.001-Mesh_0_indices","componentType":5123,"count":552,"min":[0],"max":[327],"type":"SCALAR","bufferView":3,"byteOffset":8712},{"name":"machineGunBase_Mesh.001-Mesh_0_positions","componentType":5126,"count":77,"min":[-0.8800470232963562,2.1317760944366455,-1.218912959098816],"max":[-0.4019390046596527,2.252923011779785,-0.7334619760513306],"type":"VEC3","bufferView":0,"byteOffset":29532},{"name":"machineGunBase_Mesh.001-Mesh_0_normals","componentType":5126,"count":77,"min":[-1,-1,-1],"max":[1,1,1],"type":"VEC3","bufferView":1,"byteOffset":29532},{"name":"machineGunBase_Mesh.001-Mesh_0_texcoords","componentType":5126,"count":77,"min":[0.03870699927210808,0.21823899447917938],"max":[0.14729900658130646,0.3164460062980652],"type":"VEC2","bufferView":2,"byteOffset":19688},{"name":"machineGunBase_Mesh.001-Mesh_0_indices","componentType":5123,"count":129,"min":[0],"max":[76],"type":"SCALAR","bufferView":3,"byteOffset":9816}],"asset":{"generator":"obj2gltf","version":"2.0"},"buffers":[{"name":"vtolvr_alliedMBT1","byteLength":91292,"uri":"data:application/octet-stream;base64,"}],"bufferViews":[{"name":"bufferView_0","buffer":0,"byteLength":30456,"byteOffset":0,"byteStride":12,"target":34962},{"name":"bufferView_1","buffer":0,"byteLength":30456,"byteOffset":30456,"byteStride":12,"target":34962},{"name":"bufferView_2","buffer":0,"byteLength":20304,"byteOffset":60912,"byteStride":8,"target":34962},{"name":"bufferView_3","buffer":0,"byteLength":10076,"byteOffset":81216,"target":34963}],"materials":[{"name":"mat_alliedTank.002","pbrMetallicRoughness":{"baseColorFactor":[0.5,0.5,0.5,1],"metallicFactor":0,"roughnessFactor":1},"emissiveFactor":[0,0,0],"alphaMode":"OPAQUE","doubleSided":false}],"meshes":[{"name":"vehicle_Mesh.001-Mesh","primitives":[{"attributes":{"POSITION":0,"NORMAL":1,"TEXCOORD_0":2},"indices":3,"material":0,"mode":4}]},{"name":"cannonBarrel_Mesh.001-Mesh","primitives":[{"attributes":{"POSITION":4,"NORMAL":5,"TEXCOORD_0":6},"indices":7,"material":0,"mode":4}]},{"name":"turretBodyLOD_Mesh.001-Mesh","primitives":[{"attributes":{"POSITION":8,"NORMAL":9,"TEXCOORD_0":10},"indices":11,"material":0,"mode":4}]},{"name":"turretBody_Mesh.001-Mesh","primitives":[{"attributes":{"POSITION":12,"NORMAL":13,"TEXCOORD_0":14},"indices":15,"material":0,"mode":4}]},{"name":"machineGun_Mesh.001-Mesh","primitives":[{"attributes":{"POSITION":16,"NORMAL":17,"TEXCOORD_0":18},"indices":19,"material":0,"mode":4}]},{"name":"machineGunBase_Mesh.001-Mesh","primitives":[{"attributes":{"POSITION":20,"NORMAL":21,"TEXCOORD_0":22},"indices":23,"material":0,"mode":4}]}],"nodes":[{"name":"vehicle_Mesh.001","mesh":0},{"name":"cannonBarrel_Mesh.001","mesh":1},{"name":"turretBodyLOD_Mesh.001","mesh":2},{"name":"turretBody_Mesh.001","mesh":3},{"name":"machineGun_Mesh.001","mesh":4},{"name":"machineGunBase_Mesh.001","mesh":5}],"scene":0,"scenes":[{"nodes":[0,1,2,3,4,5]}]}