{"accessors":[{"name":"fpd_mesh_Mesh.232-Mesh_0_positions","componentType":5126,"count":4478,"min":[-0.39656001329421997,0.0030610000248998404,-0.4217900037765503],"max":[0.3838709890842438,1.896947979927063,0.29517701268196106],"type":"VEC3","bufferView":0,"byteOffset":0},{"name":"fpd_mesh_Mesh.232-Mesh_0_normals","componentType":5126,"count":4478,"min":[-0.9999346137046814,-0.9999954700469971,-0.9994716644287109],"max":[0.9999549388885498,0.9999141693115234,0.9995655417442322],"type":"VEC3","bufferView":1,"byteOffset":0},{"name":"fpd_mesh_Mesh.232-Mesh_0_texcoords","componentType":5126,"count":4478,"min":[0.0038389998953789473,0.003942999988794327],"max":[0.9961609840393066,0.9961599707603455],"type":"VEC2","bufferView":2,"byteOffset":0},{"name":"fpd_mesh_Mesh.232-Mesh_0_indices","componentType":5123,"count":11349,"min":[0],"max":[4477],"type":"SCALAR","bufferView":3,"byteOffset":0},{"name":"gun_Mesh.272-Mesh_0_positions","componentType":5126,"count":700,"min":[-0.6210269927978516,0.9803760051727295,-0.4258340001106262],"max":[0.40316298604011536,1.4115819931030273,-0.1515430063009262],"type":"VEC3","bufferView":0,"byteOffset":53736},{"name":"gun_Mesh.272-Mesh_0_normals","componentType":5126,"count":700,"min":[-0.9638228416442871,-0.9998689293861389,-0.981085479259491],"max":[0.9592297673225403,0.9999247193336487,0.9918838143348694],"type":"VEC3","bufferView":1,"byteOffset":53736},{"name":"gun_Mesh.272-Mesh_0_texcoords","componentType":5126,"count":700,"min":[0,1],"max":[0,1],"type":"VEC2","bufferView":2,"byteOffset":35824},{"name":"gun_Mesh.272-Mesh_0_indices","componentType":5123,"count":1116,"min":[0],"max":[699],"type":"SCALAR","bufferView":3,"byteOffset":22700}],"asset":{"generator":"obj2gltf","version":"2.0"},"buffers":[{"name":"vtolvr_AlliedSoldier","byteLength":190628,"uri":"data:application/octet-stream;base64,"}],"bufferViews":[{"name":"bufferView_0","buffer":0,"byteLength":62136,"byteOffset":0,"byteStride":12,"target":34962},{"name":"bufferView_1","buffer":0,"byteLength":62136,"byteOffset":62136,"byteStride":12,"target":34962},{"name":"bufferView_2","buffer":0,"byteLength":41424,"byteOffset":124272,"byteStride":8,"target":34962},{"name":"bufferView_3","buffer":0,"byteLength":24932,"byteOffset":165696,"target":34963}],"materials":[{"name":"None.002","pbrMetallicRoughness":{"baseColorFactor":[0.5,0.5,0.5,1],"metallicFactor":0,"roughnessFactor":1},"emissiveFactor":[0,0,0],"alphaMode":"OPAQUE","doubleSided":false},{"name":"mat_soldier.002","pbrMetallicRoughness":{"baseColorFactor":[0.5,0.5,0.5,1],"metallicFactor":0,"roughnessFactor":1},"emissiveFactor":[0,0,0],"alphaMode":"OPAQUE","doubleSided":false}],"meshes":[{"name":"fpd_mesh_Mesh.232-Mesh","primitives":[{"attributes":{"POSITION":0,"NORMAL":1,"TEXCOORD_0":2},"indices":3,"material":0,"mode":4}]},{"name":"gun_Mesh.272-Mesh","primitives":[{"attributes":{"POSITION":4,"NORMAL":5,"TEXCOORD_0":6},"indices":7,"material":1,"mode":4}]}],"nodes":[{"name":"fpd_mesh_Mesh.232","mesh":0},{"name":"gun_Mesh.272","mesh":1}],"scene":0,"scenes":[{"nodes":[0,1]}]}