{"accessors":[{"name":"vehicle_Mesh.202-Mesh_0_positions","componentType":5126,"count":2550,"min":[-2.202812910079956,-0.621284008026123,-4.204425811767578],"max":[2.202812910079956,1.1968770027160645,4.595952987670898],"type":"VEC3","bufferView":0,"byteOffset":0},{"name":"vehicle_Mesh.202-Mesh_0_normals","componentType":5126,"count":2550,"min":[-1,-0.9999999403953552,-0.9999999403953552],"max":[1,1,0.9999999403953552],"type":"VEC3","bufferView":1,"byteOffset":0},{"name":"vehicle_Mesh.202-Mesh_0_texcoords","componentType":5126,"count":2550,"min":[0.0047519998624920845,0.16496799886226654],"max":[0.9958080053329468,0.9930300116539001],"type":"VEC2","bufferView":2,"byteOffset":0},{"name":"vehicle_Mesh.202-Mesh_0_indices","componentType":5123,"count":5226,"min":[0],"max":[2549],"type":"SCALAR","bufferView":3,"byteOffset":0},{"name":"barrelLOD_Mesh.212-Mesh_0_positions","componentType":5126,"count":9,"min":[-0.05385800078511238,1.3389979600906372,1.2746690511703491],"max":[0.2030310034751892,1.6472829580307007,5.616805076599121],"type":"VEC3","bufferView":0,"byteOffset":30600},{"name":"barrelLOD_Mesh.212-Mesh_0_normals","componentType":5126,"count":9,"min":[-0.8281629681587219,-0.9982550144195557,-0.021499037742614746],"max":[0.9800077676773071,0.5877066850662231,1],"type":"VEC3","bufferView":1,"byteOffset":30600},{"name":"barrelLOD_Mesh.212-Mesh_0_texcoords","componentType":5126,"count":9,"min":[0.02131200022995472,0.12741799652576447],"max":[0.34248098731040955,0.6308190226554871],"type":"VEC2","bufferView":2,"byteOffset":20400},{"name":"barrelLOD_Mesh.212-Mesh_0_indices","componentType":5123,"count":15,"min":[0],"max":[8],"type":"SCALAR","bufferView":3,"byteOffset":10452},{"name":"cannonBarrel_Mesh.213-Mesh_0_positions","componentType":5126,"count":442,"min":[-0.30292901396751404,1.3158960342407227,0.9178169965744019],"max":[0.30292999744415283,1.8736679553985596,5.6256279945373535],"type":"VEC3","bufferView":0,"byteOffset":30708},{"name":"cannonBarrel_Mesh.213-Mesh_0_normals","componentType":5126,"count":442,"min":[-0.9998746514320374,-1,-0.9977800250053406],"max":[0.9998746514320374,0.9930732846260071,1],"type":"VEC3","bufferView":1,"byteOffset":30708},{"name":"cannonBarrel_Mesh.213-Mesh_0_texcoords","componentType":5126,"count":442,"min":[0.008952000178396702,0.413114994764328],"max":[0.34738901257514954,0.6464830040931702],"type":"VEC2","bufferView":2,"byteOffset":20472},{"name":"cannonBarrel_Mesh.213-Mesh_0_indices","componentType":5123,"count":1122,"min":[0],"max":[441],"type":"SCALAR","bufferView":3,"byteOffset":10484},{"name":"turretBodyLOD_Mesh.214-Mesh_0_positions","componentType":5126,"count":67,"min":[-2.0861101150512695,0.3939349949359894,-3.0812010765075684],"max":[2.0861101150512695,2.0133910179138184,2.0445809364318848],"type":"VEC3","bufferView":0,"byteOffset":36012},{"name":"turretBodyLOD_Mesh.214-Mesh_0_normals","componentType":5126,"count":67,"min":[-1,-0.9997330904006958,-0.8576878309249878],"max":[1,1,1],"type":"VEC3","bufferView":1,"byteOffset":36012},{"name":"turretBodyLOD_Mesh.214-Mesh_0_texcoords","componentType":5126,"count":67,"min":[0,0.02177399955689907],"max":[0.5480809807777405,1],"type":"VEC2","bufferView":2,"byteOffset":24008},{"name":"turretBodyLOD_Mesh.214-Mesh_0_indices","componentType":5123,"count":93,"min":[0],"max":[66],"type":"SCALAR","bufferView":3,"byteOffset":12728},{"name":"turretBody_Mesh.215-Mesh_0_positions","componentType":5126,"count":666,"min":[-1.7700910568237305,1.1851099729537964,-3.494791030883789],"max":[1.7700910568237305,2.134035110473633,1.947363018989563],"type":"VEC3","bufferView":0,"byteOffset":36816},{"name":"turretBody_Mesh.215-Mesh_0_normals","componentType":5126,"count":666,"min":[-1,-1,-1],"max":[1,1,1],"type":"VEC3","bufferView":1,"byteOffset":36816},{"name":"turretBody_Mesh.215-Mesh_0_texcoords","componentType":5126,"count":666,"min":[0.2585879862308502,0.05321599915623665],"max":[0.9945160150527954,0.5445600152015686],"type":"VEC2","bufferView":2,"byteOffset":24544},{"name":"turretBody_Mesh.215-Mesh_0_indices","componentType":5123,"count":1206,"min":[0],"max":[665],"type":"SCALAR","bufferView":3,"byteOffset":12916},{"name":"machineGun_Mesh.221-Mesh_0_positions","componentType":5126,"count":578,"min":[-0.5799880027770996,2.2352490425109863,-1.32123601436615],"max":[-0.27421998977661133,2.4238150119781494,-0.07501599937677383],"type":"VEC3","bufferView":0,"byteOffset":44808},{"name":"machineGun_Mesh.221-Mesh_0_normals","componentType":5126,"count":578,"min":[-1,-1,-1],"max":[1,1,1],"type":"VEC3","bufferView":1,"byteOffset":44808},{"name":"machineGun_Mesh.221-Mesh_0_texcoords","componentType":5126,"count":578,"min":[0.005679999943822622,0.34708601236343384],"max":[0.18171800673007965,0.5468819737434387],"type":"VEC2","bufferView":2,"byteOffset":29872},{"name":"machineGun_Mesh.221-Mesh_0_indices","componentType":5123,"count":972,"min":[0],"max":[577],"type":"SCALAR","bufferView":3,"byteOffset":15328},{"name":"machineGunBase_Mesh.222-Mesh_0_positions","componentType":5126,"count":138,"min":[-0.9044039845466614,2.1317760944366455,-1.2532589435577393],"max":[-0.3846069872379303,2.252923011779785,-0.7334619760513306],"type":"VEC3","bufferView":0,"byteOffset":51744},{"name":"machineGunBase_Mesh.222-Mesh_0_normals","componentType":5126,"count":138,"min":[-1,-1,-1],"max":[1,1,1],"type":"VEC3","bufferView":1,"byteOffset":51744},{"name":"machineGunBase_Mesh.222-Mesh_0_texcoords","componentType":5126,"count":138,"min":[0.020190000534057617,0.21823899447917938],"max":[0.16425999999046326,0.3164460062980652],"type":"VEC2","bufferView":2,"byteOffset":34496},{"name":"machineGunBase_Mesh.222-Mesh_0_indices","componentType":5123,"count":228,"min":[0],"max":[137],"type":"SCALAR","bufferView":3,"byteOffset":17272}],"asset":{"generator":"obj2gltf","version":"2.0"},"buffers":[{"name":"vtolvr_enemyMBT1","byteLength":160128,"uri":"data:application/octet-stream;base64,"}],"bufferViews":[{"name":"bufferView_0","buffer":0,"byteLength":53400,"byteOffset":0,"byteStride":12,"target":34962},{"name":"bufferView_1","buffer":0,"byteLength":53400,"byteOffset":53400,"byteStride":12,"target":34962},{"name":"bufferView_2","buffer":0,"byteLength":35600,"byteOffset":106800,"byteStride":8,"target":34962},{"name":"bufferView_3","buffer":0,"byteLength":17728,"byteOffset":142400,"target":34963}],"materials":[{"name":"mat_alliedTank.001","pbrMetallicRoughness":{"baseColorFactor":[0.5,0.5,0.5,1],"metallicFactor":0,"roughnessFactor":1},"emissiveFactor":[0,0,0],"alphaMode":"OPAQUE","doubleSided":false}],"meshes":[{"name":"vehicle_Mesh.202-Mesh","primitives":[{"attributes":{"POSITION":0,"NORMAL":1,"TEXCOORD_0":2},"indices":3,"material":0,"mode":4}]},{"name":"barrelLOD_Mesh.212-Mesh","primitives":[{"attributes":{"POSITION":4,"NORMAL":5,"TEXCOORD_0":6},"indices":7,"material":0,"mode":4}]},{"name":"cannonBarrel_Mesh.213-Mesh","primitives":[{"attributes":{"POSITION":8,"NORMAL":9,"TEXCOORD_0":10},"indices":11,"material":0,"mode":4}]},{"name":"turretBodyLOD_Mesh.214-Mesh","primitives":[{"attributes":{"POSITION":12,"NORMAL":13,"TEXCOORD_0":14},"indices":15,"material":0,"mode":4}]},{"name":"turretBody_Mesh.215-Mesh","primitives":[{"attributes":{"POSITION":16,"NORMAL":17,"TEXCOORD_0":18},"indices":19,"material":0,"mode":4}]},{"name":"machineGun_Mesh.221-Mesh","primitives":[{"attributes":{"POSITION":20,"NORMAL":21,"TEXCOORD_0":22},"indices":23,"material":0,"mode":4}]},{"name":"machineGunBase_Mesh.222-Mesh","primitives":[{"attributes":{"POSITION":24,"NORMAL":25,"TEXCOORD_0":26},"indices":27,"material":0,"mode":4}]}],"nodes":[{"name":"vehicle_Mesh.202","mesh":0},{"name":"barrelLOD_Mesh.212","mesh":1},{"name":"cannonBarrel_Mesh.213","mesh":2},{"name":"turretBodyLOD_Mesh.214","mesh":3},{"name":"turretBody_Mesh.215","mesh":4},{"name":"machineGun_Mesh.221","mesh":5},{"name":"machineGunBase_Mesh.222","mesh":6}],"scene":0,"scenes":[{"nodes":[0,1,2,3,4,5,6]}]}