{"accessors":[{"name":"bunker1.001_Mesh.2842-Mesh_0_positions","componentType":5126,"count":509,"min":[-9.4999418258667,-4.0639328956604,-9.499940872192383],"max":[9.4999418258667,5.696261882781982,9.499940872192383],"type":"VEC3","bufferView":0,"byteOffset":0},{"name":"bunker1.001_Mesh.2842-Mesh_0_normals","componentType":5126,"count":509,"min":[-1,-0.9285111427307129,-1],"max":[1,1,1],"type":"VEC3","bufferView":1,"byteOffset":0},{"name":"bunker1.001_Mesh.2842-Mesh_0_texcoords","componentType":5126,"count":509,"min":[0.016807999461889267,0.0037380000576376915],"max":[0.994038999080658,0.9969279766082764],"type":"VEC2","bufferView":2,"byteOffset":0},{"name":"bunker1.001_Mesh.2842-Mesh_0_indices","componentType":5123,"count":1029,"min":[0],"max":[508],"type":"SCALAR","bufferView":3,"byteOffset":0}],"asset":{"generator":"obj2gltf","version":"2.0"},"buffers":[{"name":"vtolvr_bunker1","byteLength":18348,"uri":"data:application/octet-stream;base64,"}],"bufferViews":[{"name":"bufferView_0","buffer":0,"byteLength":6108,"byteOffset":0,"byteStride":12,"target":34962},{"name":"bufferView_1","buffer":0,"byteLength":6108,"byteOffset":6108,"byteStride":12,"target":34962},{"name":"bufferView_2","buffer":0,"byteLength":4072,"byteOffset":12216,"byteStride":8,"target":34962},{"name":"bufferView_3","buffer":0,"byteLength":2060,"byteOffset":16288,"target":34963}],"materials":[{"name":"mat_bunker1","pbrMetallicRoughness":{"baseColorFactor":[0.5,0.5,0.5,1],"metallicFactor":0,"roughnessFactor":1},"emissiveFactor":[0,0,0],"alphaMode":"OPAQUE","doubleSided":false}],"meshes":[{"name":"bunker1.001_Mesh.2842-Mesh","primitives":[{"attributes":{"POSITION":0,"NORMAL":1,"TEXCOORD_0":2},"indices":3,"material":0,"mode":4}]}],"nodes":[{"name":"bunker1.001_Mesh.2842","mesh":0}],"scene":0,"scenes":[{"nodes":[0]}]}