{"accessors":[{"name":"hydroPiston.LOD_Mesh.5063-Mesh_0_positions","componentType":5126,"count":22,"min":[-0.6765890121459961,1.8228789567947388,2.090056896209717],"max":[0.6975520253181458,2.102574110031128,4.316454887390137],"type":"VEC3","bufferView":0,"byteOffset":0},{"name":"hydroPiston.LOD_Mesh.5063-Mesh_0_normals","componentType":5126,"count":22,"min":[-1,-0.3812966048717499,-0.9964576363563538],"max":[1,0.9205995798110962,0.032199714332818985],"type":"VEC3","bufferView":1,"byteOffset":0},{"name":"hydroPiston.LOD_Mesh.5063-Mesh_0_texcoords","componentType":5126,"count":22,"min":[0.456061989068985,0.3694959878921509],"max":[0.7556099891662598,0.4430469870567322],"type":"VEC2","bufferView":2,"byteOffset":0},{"name":"hydroPiston.LOD_Mesh.5063-Mesh_0_indices","componentType":5123,"count":24,"min":[0],"max":[21],"type":"SCALAR","bufferView":3,"byteOffset":0},{"name":"hydroCylinder.LOD_Mesh.5066-Mesh_0_positions","componentType":5126,"count":25,"min":[-0.6803060173988342,1.8255410194396973,2.3537380695343018],"max":[0.7254049777984619,2.176400899887085,4.977900981903076],"type":"VEC3","bufferView":0,"byteOffset":264},{"name":"hydroCylinder.LOD_Mesh.5066-Mesh_0_normals","componentType":5126,"count":25,"min":[-1,-0.9205780625343323,-0.9964317083358765],"max":[1,0.9205780625343323,0.07799813896417618],"type":"VEC3","bufferView":1,"byteOffset":264},{"name":"hydroCylinder.LOD_Mesh.5066-Mesh_0_texcoords","componentType":5126,"count":25,"min":[0.47748199105262756,0.09459999948740005],"max":[0.6905710101127625,0.41071900725364685],"type":"VEC2","bufferView":2,"byteOffset":176},{"name":"hydroCylinder.LOD_Mesh.5066-Mesh_0_indices","componentType":5123,"count":27,"min":[0],"max":[24],"type":"SCALAR","bufferView":3,"byteOffset":48},{"name":"launcherBracket.LOD_Mesh.5067-Mesh_0_positions","componentType":5126,"count":338,"min":[-1.5076969861984253,1.7752200365066528,-0.51254802942276],"max":[1.5076969861984253,3.758105993270874,7.635765075683594],"type":"VEC3","bufferView":0,"byteOffset":564},{"name":"launcherBracket.LOD_Mesh.5067-Mesh_0_normals","componentType":5126,"count":338,"min":[-1,-0.9999999403953552,-0.9999999403953552],"max":[1,0.9999999403953552,0.9999999403953552],"type":"VEC3","bufferView":1,"byteOffset":564},{"name":"launcherBracket.LOD_Mesh.5067-Mesh_0_texcoords","componentType":5126,"count":338,"min":[0,0.10693400353193283],"max":[0.9829099774360657,1.00861394405365],"type":"VEC2","bufferView":2,"byteOffset":376},{"name":"launcherBracket.LOD_Mesh.5067-Mesh_0_indices","componentType":5123,"count":615,"min":[0],"max":[337],"type":"SCALAR","bufferView":3,"byteOffset":104},{"name":"lowerHinge.LOD_Mesh.5074-Mesh_0_positions","componentType":5126,"count":31,"min":[-0.6677560210227966,1.3657909631729126,5.658143997192383],"max":[0.6677560210227966,2.077702045440674,6.321369171142578],"type":"VEC3","bufferView":0,"byteOffset":4620},{"name":"lowerHinge.LOD_Mesh.5074-Mesh_0_normals","componentType":5126,"count":31,"min":[-1,-0.7015855312347412,-0.7125852704048157],"max":[1,0.7015855312347412,0.7126352787017822],"type":"VEC3","bufferView":1,"byteOffset":4620},{"name":"lowerHinge.LOD_Mesh.5074-Mesh_0_texcoords","componentType":5126,"count":31,"min":[0.17889299988746643,0.7527030110359192],"max":[0.21064800024032593,0.7948240041732788],"type":"VEC2","bufferView":2,"byteOffset":3080},{"name":"lowerHinge.LOD_Mesh.5074-Mesh_0_indices","componentType":5123,"count":45,"min":[0],"max":[30],"type":"SCALAR","bufferView":3,"byteOffset":1336},{"name":"wheel_L_1_Mesh.5078-Mesh_0_positions","componentType":5126,"count":202,"min":[-1.6152299642562866,0.009192000143229961,-3.1575100421905518],"max":[-1.0858639478683472,1.3738410472869873,-1.814195990562439],"type":"VEC3","bufferView":0,"byteOffset":4992},{"name":"wheel_L_1_Mesh.5078-Mesh_0_normals","componentType":5126,"count":202,"min":[-1,-0.9900776147842407,-0.9901415109634399],"max":[0.9991980791091919,0.9900776147842407,0.9955046772956848],"type":"VEC3","bufferView":1,"byteOffset":4992},{"name":"wheel_L_1_Mesh.5078-Mesh_0_texcoords","componentType":5126,"count":202,"min":[0.0006549999816343188,0.001981999957934022],"max":[0.9944329857826233,0.3712159991264343],"type":"VEC2","bufferView":2,"byteOffset":3328},{"name":"wheel_L_1_Mesh.5078-Mesh_0_indices","componentType":5123,"count":459,"min":[0],"max":[201],"type":"SCALAR","bufferView":3,"byteOffset":1428},{"name":"wheel_L_2_Mesh.5079-Mesh_0_positions","componentType":5126,"count":202,"min":[-1.6152299642562866,0.009713999927043915,-1.6489510536193848],"max":[-1.0858639478683472,1.3743629455566406,-0.305637001991272],"type":"VEC3","bufferView":0,"byteOffset":7416},{"name":"wheel_L_2_Mesh.5079-Mesh_0_normals","componentType":5126,"count":202,"min":[-1,-0.9900776147842407,-0.9901415109634399],"max":[0.9991980791091919,0.9900776147842407,0.9955046772956848],"type":"VEC3","bufferView":1,"byteOffset":7416},{"name":"wheel_L_2_Mesh.5079-Mesh_0_texcoords","componentType":5126,"count":202,"min":[0.0006549999816343188,0.001981999957934022],"max":[0.9944329857826233,0.3712159991264343],"type":"VEC2","bufferView":2,"byteOffset":4944},{"name":"wheel_L_2_Mesh.5079-Mesh_0_indices","componentType":5123,"count":459,"min":[0],"max":[201],"type":"SCALAR","bufferView":3,"byteOffset":2348},{"name":"wheel_L_3_Mesh.5080-Mesh_0_positions","componentType":5126,"count":202,"min":[-1.6152299642562866,0.011281999759376049,2.885967969894409],"max":[-1.0858639478683472,1.375931978225708,4.229281902313232],"type":"VEC3","bufferView":0,"byteOffset":9840},{"name":"wheel_L_3_Mesh.5080-Mesh_0_normals","componentType":5126,"count":202,"min":[-1,-0.9900776147842407,-0.9901415109634399],"max":[0.9991980791091919,0.9900776147842407,0.9955008029937744],"type":"VEC3","bufferView":1,"byteOffset":9840},{"name":"wheel_L_3_Mesh.5080-Mesh_0_texcoords","componentType":5126,"count":202,"min":[0.0006549999816343188,0.001981999957934022],"max":[0.9944329857826233,0.3712159991264343],"type":"VEC2","bufferView":2,"byteOffset":6560},{"name":"wheel_L_3_Mesh.5080-Mesh_0_indices","componentType":5123,"count":459,"min":[0],"max":[201],"type":"SCALAR","bufferView":3,"byteOffset":3268},{"name":"wheel_L_4_Mesh.5081-Mesh_0_positions","componentType":5126,"count":202,"min":[-1.6152299642562866,0.011814000084996223,4.421187877655029],"max":[-1.0858639478683472,1.3764630556106567,5.764503002166748],"type":"VEC3","bufferView":0,"byteOffset":12264},{"name":"wheel_L_4_Mesh.5081-Mesh_0_normals","componentType":5126,"count":202,"min":[-1,-0.9900776147842407,-0.9901415109634399],"max":[0.9991980791091919,0.9900776147842407,0.9955046772956848],"type":"VEC3","bufferView":1,"byteOffset":12264},{"name":"wheel_L_4_Mesh.5081-Mesh_0_texcoords","componentType":5126,"count":202,"min":[0.0006549999816343188,0.001981999957934022],"max":[0.9944329857826233,0.3712159991264343],"type":"VEC2","bufferView":2,"byteOffset":8176},{"name":"wheel_L_4_Mesh.5081-Mesh_0_indices","componentType":5123,"count":459,"min":[0],"max":[201],"type":"SCALAR","bufferView":3,"byteOffset":4188},{"name":"wheel_R_1_Mesh.5082-Mesh_0_positions","componentType":5126,"count":202,"min":[1.082867980003357,0.009192000143229961,-3.1575100421905518],"max":[1.6122339963912964,1.3738410472869873,-1.814195990562439],"type":"VEC3","bufferView":0,"byteOffset":14688},{"name":"wheel_R_1_Mesh.5082-Mesh_0_normals","componentType":5126,"count":202,"min":[-0.9991980791091919,-0.9900776147842407,-0.9901415109634399],"max":[1,0.9900776147842407,0.9955046772956848],"type":"VEC3","bufferView":1,"byteOffset":14688},{"name":"wheel_R_1_Mesh.5082-Mesh_0_texcoords","componentType":5126,"count":202,"min":[0.0006549999816343188,0.001981999957934022],"max":[0.9944329857826233,0.3712159991264343],"type":"VEC2","bufferView":2,"byteOffset":9792},{"name":"wheel_R_1_Mesh.5082-Mesh_0_indices","componentType":5123,"count":459,"min":[0],"max":[201],"type":"SCALAR","bufferView":3,"byteOffset":5108},{"name":"wheel_R_2_Mesh.5083-Mesh_0_positions","componentType":5126,"count":202,"min":[1.082867980003357,0.009713999927043915,-1.6489510536193848],"max":[1.6122339963912964,1.3743629455566406,-0.305637001991272],"type":"VEC3","bufferView":0,"byteOffset":17112},{"name":"wheel_R_2_Mesh.5083-Mesh_0_normals","componentType":5126,"count":202,"min":[-0.9991980791091919,-0.9900776147842407,-0.9901415109634399],"max":[1,0.9900776147842407,0.9955046772956848],"type":"VEC3","bufferView":1,"byteOffset":17112},{"name":"wheel_R_2_Mesh.5083-Mesh_0_texcoords","componentType":5126,"count":202,"min":[0.0006549999816343188,0.001981999957934022],"max":[0.9944329857826233,0.3712159991264343],"type":"VEC2","bufferView":2,"byteOffset":11408},{"name":"wheel_R_2_Mesh.5083-Mesh_0_indices","componentType":5123,"count":459,"min":[0],"max":[201],"type":"SCALAR","bufferView":3,"byteOffset":6028},{"name":"wheel_R_3_Mesh.5084-Mesh_0_positions","componentType":5126,"count":202,"min":[1.082867980003357,0.011281999759376049,2.885967969894409],"max":[1.6122339963912964,1.375931978225708,4.229281902313232],"type":"VEC3","bufferView":0,"byteOffset":19536},{"name":"wheel_R_3_Mesh.5084-Mesh_0_normals","componentType":5126,"count":202,"min":[-0.9991980791091919,-0.9900776147842407,-0.9901415109634399],"max":[1,0.9900776147842407,0.9955008029937744],"type":"VEC3","bufferView":1,"byteOffset":19536},{"name":"wheel_R_3_Mesh.5084-Mesh_0_texcoords","componentType":5126,"count":202,"min":[0.0006549999816343188,0.001981999957934022],"max":[0.9944329857826233,0.3712159991264343],"type":"VEC2","bufferView":2,"byteOffset":13024},{"name":"wheel_R_3_Mesh.5084-Mesh_0_indices","componentType":5123,"count":459,"min":[0],"max":[201],"type":"SCALAR","bufferView":3,"byteOffset":6948},{"name":"wheel_R_4_Mesh.5085-Mesh_0_positions","componentType":5126,"count":202,"min":[1.082867980003357,0.011812999844551086,4.421188831329346],"max":[1.6122339963912964,1.3764630556106567,5.764503002166748],"type":"VEC3","bufferView":0,"byteOffset":21960},{"name":"wheel_R_4_Mesh.5085-Mesh_0_normals","componentType":5126,"count":202,"min":[-0.9991980791091919,-0.9900776147842407,-0.9901415109634399],"max":[1,0.9900776147842407,0.9955046772956848],"type":"VEC3","bufferView":1,"byteOffset":21960},{"name":"wheel_R_4_Mesh.5085-Mesh_0_texcoords","componentType":5126,"count":202,"min":[0.0006549999816343188,0.001981999957934022],"max":[0.9944329857826233,0.3712159991264343],"type":"VEC2","bufferView":2,"byteOffset":14640},{"name":"wheel_R_4_Mesh.5085-Mesh_0_indices","componentType":5123,"count":459,"min":[0],"max":[201],"type":"SCALAR","bufferView":3,"byteOffset":7868},{"name":"eSamTruckLOD_Mesh.5086-Mesh_0_positions","componentType":5126,"count":154,"min":[-1.638627052307129,-0.013554000295698643,-4.136137008666992],"max":[1.6872559785842896,3.0287179946899414,6.012722015380859],"type":"VEC3","bufferView":0,"byteOffset":24384},{"name":"eSamTruckLOD_Mesh.5086-Mesh_0_normals","componentType":5126,"count":154,"min":[-1,-0.9999999403953552,-0.5638052821159363],"max":[1,0.9999999403953552,0.9999999403953552],"type":"VEC3","bufferView":1,"byteOffset":24384},{"name":"eSamTruckLOD_Mesh.5086-Mesh_0_texcoords","componentType":5126,"count":154,"min":[0.15722699463367462,0.0859379991889],"max":[0.6948239803314209,0.6899750232696533],"type":"VEC2","bufferView":2,"byteOffset":16256},{"name":"eSamTruckLOD_Mesh.5086-Mesh_0_indices","componentType":5123,"count":240,"min":[0],"max":[153],"type":"SCALAR","bufferView":3,"byteOffset":8788}],"asset":{"generator":"obj2gltf","version":"2.0"},"buffers":[{"name":"vtolvr_PatriotLauncher","byteLength":79220,"uri":"data:application/octet-stream;base64,"}],"bufferViews":[{"name":"bufferView_0","buffer":0,"byteLength":26232,"byteOffset":0,"byteStride":12,"target":34962},{"name":"bufferView_1","buffer":0,"byteLength":26232,"byteOffset":26232,"byteStride":12,"target":34962},{"name":"bufferView_2","buffer":0,"byteLength":17488,"byteOffset":52464,"byteStride":8,"target":34962},{"name":"bufferView_3","buffer":0,"byteLength":9268,"byteOffset":69952,"target":34963}],"materials":[{"name":"mat_apcAA.002","pbrMetallicRoughness":{"baseColorFactor":[0.5,0.5,0.5,1],"metallicFactor":0,"roughnessFactor":1},"emissiveFactor":[0,0,0],"alphaMode":"OPAQUE","doubleSided":false},{"name":"Material.004","pbrMetallicRoughness":{"baseColorFactor":[0.5,0.5,0.5,1],"metallicFactor":0,"roughnessFactor":1},"emissiveFactor":[0,0,0],"alphaMode":"OPAQUE","doubleSided":false}],"meshes":[{"name":"hydroPiston.LOD_Mesh.5063-Mesh","primitives":[{"attributes":{"POSITION":0,"NORMAL":1,"TEXCOORD_0":2},"indices":3,"material":0,"mode":4}]},{"name":"hydroCylinder.LOD_Mesh.5066-Mesh","primitives":[{"attributes":{"POSITION":4,"NORMAL":5,"TEXCOORD_0":6},"indices":7,"material":0,"mode":4}]},{"name":"launcherBracket.LOD_Mesh.5067-Mesh","primitives":[{"attributes":{"POSITION":8,"NORMAL":9,"TEXCOORD_0":10},"indices":11,"material":0,"mode":4}]},{"name":"lowerHinge.LOD_Mesh.5074-Mesh","primitives":[{"attributes":{"POSITION":12,"NORMAL":13,"TEXCOORD_0":14},"indices":15,"material":0,"mode":4}]},{"name":"wheel_L_1_Mesh.5078-Mesh","primitives":[{"attributes":{"POSITION":16,"NORMAL":17,"TEXCOORD_0":18},"indices":19,"material":0,"mode":4}]},{"name":"wheel_L_2_Mesh.5079-Mesh","primitives":[{"attributes":{"POSITION":20,"NORMAL":21,"TEXCOORD_0":22},"indices":23,"material":0,"mode":4}]},{"name":"wheel_L_3_Mesh.5080-Mesh","primitives":[{"attributes":{"POSITION":24,"NORMAL":25,"TEXCOORD_0":26},"indices":27,"material":0,"mode":4}]},{"name":"wheel_L_4_Mesh.5081-Mesh","primitives":[{"attributes":{"POSITION":28,"NORMAL":29,"TEXCOORD_0":30},"indices":31,"material":0,"mode":4}]},{"name":"wheel_R_1_Mesh.5082-Mesh","primitives":[{"attributes":{"POSITION":32,"NORMAL":33,"TEXCOORD_0":34},"indices":35,"material":0,"mode":4}]},{"name":"wheel_R_2_Mesh.5083-Mesh","primitives":[{"attributes":{"POSITION":36,"NORMAL":37,"TEXCOORD_0":38},"indices":39,"material":0,"mode":4}]},{"name":"wheel_R_3_Mesh.5084-Mesh","primitives":[{"attributes":{"POSITION":40,"NORMAL":41,"TEXCOORD_0":42},"indices":43,"material":0,"mode":4}]},{"name":"wheel_R_4_Mesh.5085-Mesh","primitives":[{"attributes":{"POSITION":44,"NORMAL":45,"TEXCOORD_0":46},"indices":47,"material":0,"mode":4}]},{"name":"eSamTruckLOD_Mesh.5086-Mesh","primitives":[{"attributes":{"POSITION":48,"NORMAL":49,"TEXCOORD_0":50},"indices":51,"material":1,"mode":4}]}],"nodes":[{"name":"hydroPiston.LOD_Mesh.5063","mesh":0},{"name":"hydroCylinder.LOD_Mesh.5066","mesh":1},{"name":"launcherBracket.LOD_Mesh.5067","mesh":2},{"name":"lowerHinge.LOD_Mesh.5074","mesh":3},{"name":"wheel_L_1_Mesh.5078","mesh":4},{"name":"wheel_L_2_Mesh.5079","mesh":5},{"name":"wheel_L_3_Mesh.5080","mesh":6},{"name":"wheel_L_4_Mesh.5081","mesh":7},{"name":"wheel_R_1_Mesh.5082","mesh":8},{"name":"wheel_R_2_Mesh.5083","mesh":9},{"name":"wheel_R_3_Mesh.5084","mesh":10},{"name":"wheel_R_4_Mesh.5085","mesh":11},{"name":"eSamTruckLOD_Mesh.5086","mesh":12}],"scene":0,"scenes":[{"nodes":[0,1,2,3,4,5,6,7,8,9,10,11,12]}]}