{"accessors":[{"name":"barrelLeft_Mesh.5288-Mesh_0_positions","componentType":5126,"count":523,"min":[0.3986339867115021,2.2697250843048096,0.07752200216054916],"max":[0.6441130042076111,3.3020880222320557,1.9069859981536865],"type":"VEC3","bufferView":0,"byteOffset":0},{"name":"barrelLeft_Mesh.5288-Mesh_0_normals","componentType":5126,"count":523,"min":[-0.9994832873344421,-0.9215113520622253,-0.9025923013687134],"max":[0.9990721344947815,0.8955984115600586,0.9026311635971069],"type":"VEC3","bufferView":1,"byteOffset":0},{"name":"barrelLeft_Mesh.5288-Mesh_0_texcoords","componentType":5126,"count":523,"min":[0.28981199860572815,0.40007999539375305],"max":[0.8217549920082092,0.7206910252571106],"type":"VEC2","bufferView":2,"byteOffset":0},{"name":"barrelLeft_Mesh.5288-Mesh_0_indices","componentType":5123,"count":927,"min":[0],"max":[522],"type":"SCALAR","bufferView":3,"byteOffset":0},{"name":"barrelRight_Mesh.5289-Mesh_0_positions","componentType":5126,"count":529,"min":[-0.6441130042076111,2.269943952560425,0.08072900027036667],"max":[-0.39438799023628235,3.3020880222320557,1.9069859981536865],"type":"VEC3","bufferView":0,"byteOffset":6276},{"name":"barrelRight_Mesh.5289-Mesh_0_normals","componentType":5126,"count":529,"min":[-0.9994881749153137,-0.9470714926719666,-0.9026311635971069],"max":[0.9994891285896301,0.9026922583580017,0.9026885628700256],"type":"VEC3","bufferView":1,"byteOffset":6276},{"name":"barrelRight_Mesh.5289-Mesh_0_texcoords","componentType":5126,"count":529,"min":[0.28981199860572815,0.40007999539375305],"max":[0.8215600252151489,0.7206910252571106],"type":"VEC2","bufferView":2,"byteOffset":4184},{"name":"barrelRight_Mesh.5289-Mesh_0_indices","componentType":5123,"count":927,"min":[0],"max":[528],"type":"SCALAR","bufferView":3,"byteOffset":1856},{"name":"gun_Mesh.5287-Mesh_0_positions","componentType":5126,"count":1099,"min":[-1.1114979982376099,0.8465070128440857,-1.1598269939422607],"max":[1.1114979982376099,2.8678109645843506,0.9244809746742249],"type":"VEC3","bufferView":0,"byteOffset":12624},{"name":"gun_Mesh.5287-Mesh_0_normals","componentType":5126,"count":1099,"min":[-1,-0.9888448119163513,-0.951253354549408],"max":[1,0.998784065246582,0.9523714184761047],"type":"VEC3","bufferView":1,"byteOffset":12624},{"name":"gun_Mesh.5287-Mesh_0_texcoords","componentType":5126,"count":1099,"min":[0.018842000514268875,0.022265000268816948],"max":[0.9906780123710632,0.9808089733123779],"type":"VEC2","bufferView":2,"byteOffset":8416},{"name":"gun_Mesh.5287-Mesh_0_indices","componentType":5123,"count":2445,"min":[0],"max":[1098],"type":"SCALAR","bufferView":3,"byteOffset":3712},{"name":"gunTurretPitch_Mesh.5286-Mesh_0_positions","componentType":5126,"count":23,"min":[-1.0905530452728271,1.131404995918274,-0.4203670024871826],"max":[1.0905530452728271,1.9721399545669556,0.4203679859638214],"type":"VEC3","bufferView":0,"byteOffset":25812},{"name":"gunTurretPitch_Mesh.5286-Mesh_0_normals","componentType":5126,"count":23,"min":[0,-0.9426390528678894,-0.9426390528678894],"max":[0,0.9426390528678894,0.9426390528678894],"type":"VEC3","bufferView":1,"byteOffset":25812},{"name":"gunTurretPitch_Mesh.5286-Mesh_0_texcoords","componentType":5126,"count":23,"min":[0.9355369806289673,0.8660979866981506],"max":[0.996595025062561,0.9292320013046265],"type":"VEC2","bufferView":2,"byteOffset":17208},{"name":"gunTurretPitch_Mesh.5286-Mesh_0_indices","componentType":5123,"count":33,"min":[0],"max":[22],"type":"SCALAR","bufferView":3,"byteOffset":8604},{"name":"doubleAAA_Mesh.5285-Mesh_0_positions","componentType":5126,"count":437,"min":[-1.2275680303573608,0.6100000143051147,-1.2275680303573608],"max":[2.0103299617767334,2.68485689163208,1.2275689840316772],"type":"VEC3","bufferView":0,"byteOffset":26088},{"name":"doubleAAA_Mesh.5285-Mesh_0_normals","componentType":5126,"count":437,"min":[-1,-1,-1],"max":[1,1,1],"type":"VEC3","bufferView":1,"byteOffset":26088},{"name":"doubleAAA_Mesh.5285-Mesh_0_texcoords","componentType":5126,"count":437,"min":[0.16094200313091278,0.0084610003978014],"max":[0.9965220093727112,0.9896180033683777],"type":"VEC2","bufferView":2,"byteOffset":17392},{"name":"doubleAAA_Mesh.5285-Mesh_0_indices","componentType":5123,"count":807,"min":[0],"max":[436],"type":"SCALAR","bufferView":3,"byteOffset":8672},{"name":"Cube_Mesh.5299-Mesh_0_positions","componentType":5126,"count":771,"min":[-4.292874813079834,-0.7153069972991943,-4.29285192489624],"max":[4.292874813079834,0.6078240275382996,4.292895793914795],"type":"VEC3","bufferView":0,"byteOffset":31332},{"name":"Cube_Mesh.5299-Mesh_0_normals","componentType":5126,"count":771,"min":[-1,-0.9999999403953552,-0.9999999403953552],"max":[1,0.9999999403953552,0.9999999403953552],"type":"VEC3","bufferView":1,"byteOffset":31332},{"name":"Cube_Mesh.5299-Mesh_0_texcoords","componentType":5126,"count":771,"min":[0.01056000031530857,0.007042999844998121],"max":[0.9879360198974609,0.9944440126419067],"type":"VEC2","bufferView":2,"byteOffset":20888},{"name":"Cube_Mesh.5299-Mesh_0_indices","componentType":5123,"count":1218,"min":[0],"max":[770],"type":"SCALAR","bufferView":3,"byteOffset":10288}],"asset":{"generator":"obj2gltf","version":"2.0"},"buffers":[{"name":"vtolvr_staticAAA-20x2","byteLength":120948,"uri":"data:application/octet-stream;base64,"}],"bufferViews":[{"name":"bufferView_0","buffer":0,"byteLength":40584,"byteOffset":0,"byteStride":12,"target":34962},{"name":"bufferView_1","buffer":0,"byteLength":40584,"byteOffset":40584,"byteStride":12,"target":34962},{"name":"bufferView_2","buffer":0,"byteLength":27056,"byteOffset":81168,"byteStride":8,"target":34962},{"name":"bufferView_3","buffer":0,"byteLength":12724,"byteOffset":108224,"target":34963}],"materials":[{"name":"mat_doubleAAA","pbrMetallicRoughness":{"baseColorFactor":[0.5,0.5,0.5,1],"metallicFactor":0,"roughnessFactor":1},"emissiveFactor":[0,0,0],"alphaMode":"OPAQUE","doubleSided":false},{"name":"mat_modularPlatform.003","pbrMetallicRoughness":{"baseColorFactor":[0.5,0.5,0.5,1],"metallicFactor":0,"roughnessFactor":1},"emissiveFactor":[0,0,0],"alphaMode":"OPAQUE","doubleSided":false}],"meshes":[{"name":"barrelLeft_Mesh.5288-Mesh","primitives":[{"attributes":{"POSITION":0,"NORMAL":1,"TEXCOORD_0":2},"indices":3,"material":0,"mode":4}]},{"name":"barrelRight_Mesh.5289-Mesh","primitives":[{"attributes":{"POSITION":4,"NORMAL":5,"TEXCOORD_0":6},"indices":7,"material":0,"mode":4}]},{"name":"gun_Mesh.5287-Mesh","primitives":[{"attributes":{"POSITION":8,"NORMAL":9,"TEXCOORD_0":10},"indices":11,"material":0,"mode":4}]},{"name":"gunTurretPitch_Mesh.5286-Mesh","primitives":[{"attributes":{"POSITION":12,"NORMAL":13,"TEXCOORD_0":14},"indices":15,"material":0,"mode":4}]},{"name":"doubleAAA_Mesh.5285-Mesh","primitives":[{"attributes":{"POSITION":16,"NORMAL":17,"TEXCOORD_0":18},"indices":19,"material":0,"mode":4}]},{"name":"Cube_Mesh.5299-Mesh","primitives":[{"attributes":{"POSITION":20,"NORMAL":21,"TEXCOORD_0":22},"indices":23,"material":1,"mode":4}]}],"nodes":[{"name":"barrelLeft_Mesh.5288","mesh":0},{"name":"barrelRight_Mesh.5289","mesh":1},{"name":"gun_Mesh.5287","mesh":2},{"name":"gunTurretPitch_Mesh.5286","mesh":3},{"name":"doubleAAA_Mesh.5285","mesh":4},{"name":"Cube_Mesh.5299","mesh":5}],"scene":0,"scenes":[{"nodes":[0,1,2,3,4,5]}]}