{"accessors":[{"name":"bodyLOD2_Mesh.003-Mesh_0_positions","componentType":5126,"count":236,"min":[-5.816131114959717,-1.1504830121994019,-12.947362899780273],"max":[5.816129207611084,3.399233102798462,5.129899978637695],"type":"VEC3","bufferView":0,"byteOffset":0},{"name":"bodyLOD2_Mesh.003-Mesh_0_normals","componentType":5126,"count":236,"min":[-1,-0.9997614026069641,-0.5709025859832764],"max":[1,0.9995994567871094,0.9997938871383667],"type":"VEC3","bufferView":1,"byteOffset":0},{"name":"bodyLOD2_Mesh.003-Mesh_0_texcoords","componentType":5126,"count":236,"min":[0,0.013159999623894691],"max":[0.8794659972190857,1],"type":"VEC2","bufferView":2,"byteOffset":0},{"name":"bodyLOD2_Mesh.003-Mesh_0_indices","componentType":5123,"count":402,"min":[0],"max":[235],"type":"SCALAR","bufferView":3,"byteOffset":0},{"name":"elevonLOD2_Mesh.002-Mesh_0_positions","componentType":5126,"count":9,"min":[-4.705074787139893,-0.030396999791264534,1.787701964378357],"max":[-1.6416720151901245,0.14747899770736694,5.191806793212891],"type":"VEC3","bufferView":0,"byteOffset":2832},{"name":"elevonLOD2_Mesh.002-Mesh_0_normals","componentType":5126,"count":9,"min":[0,-0.9997999668121338,-0.019999999552965164],"max":[0,0.9997999668121338,0.019999999552965164],"type":"VEC3","bufferView":1,"byteOffset":2832},{"name":"elevonLOD2_Mesh.002-Mesh_0_texcoords","componentType":5126,"count":9,"min":[0.10143300145864487,0.3859660029411316],"max":[0.8078579902648926,0.5765910148620605],"type":"VEC2","bufferView":2,"byteOffset":1888},{"name":"elevonLOD2_Mesh.002-Mesh_0_indices","componentType":5123,"count":15,"min":[0],"max":[8],"type":"SCALAR","bufferView":3,"byteOffset":804},{"name":"elevonLOD2.001_Mesh.002-Mesh_0_positions","componentType":5126,"count":9,"min":[1.6416690349578857,-0.030396999791264534,1.7877039909362793],"max":[4.705071926116943,0.14747899770736694,5.191810131072998],"type":"VEC3","bufferView":0,"byteOffset":2940},{"name":"elevonLOD2.001_Mesh.002-Mesh_0_normals","componentType":5126,"count":9,"min":[0,-0.9997999668121338,-0.019999999552965164],"max":[0,0.9997999668121338,0.019999999552965164],"type":"VEC3","bufferView":1,"byteOffset":2940},{"name":"elevonLOD2.001_Mesh.002-Mesh_0_texcoords","componentType":5126,"count":9,"min":[0.10143300145864487,0.3859660029411316],"max":[0.8078579902648926,0.5765910148620605],"type":"VEC2","bufferView":2,"byteOffset":1960},{"name":"elevonLOD2.001_Mesh.002-Mesh_0_indices","componentType":5123,"count":15,"min":[0],"max":[8],"type":"SCALAR","bufferView":3,"byteOffset":836},{"name":"wingFoldLOD2_Mesh.002-Mesh_0_positions","componentType":5126,"count":27,"min":[-9.224981307983398,-0.2765890061855316,-1.716907024383545],"max":[-5.6366472244262695,0.09986899793148041,1.8525559902191162],"type":"VEC3","bufferView":0,"byteOffset":3048},{"name":"wingFoldLOD2_Mesh.002-Mesh_0_normals","componentType":5126,"count":27,"min":[-0.9995822906494141,-0.9998750686645508,-0.13480542600154877],"max":[0.9995822906494141,0.9985401034355164,0.16610141098499298],"type":"VEC3","bufferView":1,"byteOffset":3048},{"name":"wingFoldLOD2_Mesh.002-Mesh_0_texcoords","componentType":5126,"count":27,"min":[0,0],"max":[1,1],"type":"VEC2","bufferView":2,"byteOffset":2032},{"name":"wingFoldLOD2_Mesh.002-Mesh_0_indices","componentType":5123,"count":39,"min":[0],"max":[26],"type":"SCALAR","bufferView":3,"byteOffset":868},{"name":"wingFoldLOD2.001_Mesh.002-Mesh_0_positions","componentType":5126,"count":27,"min":[5.636645793914795,-0.2765890061855316,-1.7169049978256226],"max":[9.224980354309082,0.09986899793148041,1.852558970451355],"type":"VEC3","bufferView":0,"byteOffset":3372},{"name":"wingFoldLOD2.001_Mesh.002-Mesh_0_normals","componentType":5126,"count":27,"min":[-0.9995822906494141,-0.9998750686645508,-0.13480542600154877],"max":[0.9995822906494141,0.9985401034355164,0.16610141098499298],"type":"VEC3","bufferView":1,"byteOffset":3372},{"name":"wingFoldLOD2.001_Mesh.002-Mesh_0_texcoords","componentType":5126,"count":27,"min":[0,0],"max":[1,1],"type":"VEC2","bufferView":2,"byteOffset":2248},{"name":"wingFoldLOD2.001_Mesh.002-Mesh_0_indices","componentType":5123,"count":39,"min":[0],"max":[26],"type":"SCALAR","bufferView":3,"byteOffset":948}],"asset":{"generator":"obj2gltf","version":"2.0"},"buffers":[{"name":"vtolvr_ASF-30","byteLength":10884,"uri":"data:application/octet-stream;base64,"}],"bufferViews":[{"name":"bufferView_0","buffer":0,"byteLength":3696,"byteOffset":0,"byteStride":12,"target":34962},{"name":"bufferView_1","buffer":0,"byteLength":3696,"byteOffset":3696,"byteStride":12,"target":34962},{"name":"bufferView_2","buffer":0,"byteLength":2464,"byteOffset":7392,"byteStride":8,"target":34962},{"name":"bufferView_3","buffer":0,"byteLength":1028,"byteOffset":9856,"target":34963}],"materials":[{"name":"mat_efighterNS.002","pbrMetallicRoughness":{"baseColorFactor":[0.5,0.5,0.5,1],"metallicFactor":0,"roughnessFactor":1},"emissiveFactor":[0,0,0],"alphaMode":"OPAQUE","doubleSided":false}],"meshes":[{"name":"bodyLOD2_Mesh.003-Mesh","primitives":[{"attributes":{"POSITION":0,"NORMAL":1,"TEXCOORD_0":2},"indices":3,"material":0,"mode":4}]},{"name":"elevonLOD2_Mesh.002-Mesh","primitives":[{"attributes":{"POSITION":4,"NORMAL":5,"TEXCOORD_0":6},"indices":7,"material":0,"mode":4}]},{"name":"elevonLOD2.001_Mesh.002-Mesh","primitives":[{"attributes":{"POSITION":8,"NORMAL":9,"TEXCOORD_0":10},"indices":11,"material":0,"mode":4}]},{"name":"wingFoldLOD2_Mesh.002-Mesh","primitives":[{"attributes":{"POSITION":12,"NORMAL":13,"TEXCOORD_0":14},"indices":15,"material":0,"mode":4}]},{"name":"wingFoldLOD2.001_Mesh.002-Mesh","primitives":[{"attributes":{"POSITION":16,"NORMAL":17,"TEXCOORD_0":18},"indices":19,"material":0,"mode":4}]}],"nodes":[{"name":"bodyLOD2_Mesh.003","mesh":0},{"name":"elevonLOD2_Mesh.002","mesh":1},{"name":"elevonLOD2.001_Mesh.002","mesh":2},{"name":"wingFoldLOD2_Mesh.002","mesh":3},{"name":"wingFoldLOD2.001_Mesh.002","mesh":4}],"scene":0,"scenes":[{"nodes":[0,1,2,3,4]}]}