{"accessors":[{"name":"fpd_mesh_Mesh.338-Mesh_0_positions","componentType":5126,"count":7712,"min":[-0.3970809876918793,0.0030610000248998404,-0.4204089939594269],"max":[0.3838709890842438,1.8972419500350952,0.298768013715744],"type":"VEC3","bufferView":0,"byteOffset":0},{"name":"fpd_mesh_Mesh.338-Mesh_0_normals","componentType":5126,"count":7712,"min":[-0.9998161792755127,-0.9999954700469971,-0.9998619556427002],"max":[0.9998509883880615,0.9999999403953552,0.9996739029884338],"type":"VEC3","bufferView":1,"byteOffset":0},{"name":"fpd_mesh_Mesh.338-Mesh_0_texcoords","componentType":5126,"count":7712,"min":[0.0038389998953789473,0.0038399999029934406],"max":[0.9961609840393066,0.9961599707603455],"type":"VEC2","bufferView":2,"byteOffset":0},{"name":"fpd_mesh_Mesh.338-Mesh_0_indices","componentType":5123,"count":24849,"min":[0],"max":[7711],"type":"SCALAR","bufferView":3,"byteOffset":0},{"name":"manpad_Mesh.378-Mesh_0_positions","componentType":5126,"count":174,"min":[-0.36485999822616577,1.0216879844665527,-0.5545520186424255],"max":[0.7542080283164978,1.6083710193634033,-0.1737229973077774],"type":"VEC3","bufferView":0,"byteOffset":92544},{"name":"manpad_Mesh.378-Mesh_0_normals","componentType":5126,"count":174,"min":[-0.9861101508140564,-0.9655179381370544,-0.9749563336372375],"max":[0.9052764177322388,0.9296435117721558,0.9915881752967834],"type":"VEC3","bufferView":1,"byteOffset":92544},{"name":"manpad_Mesh.378-Mesh_0_texcoords","componentType":5126,"count":174,"min":[0.01824299991130829,0.023818999528884888],"max":[0.9817569851875305,0.9817569851875305],"type":"VEC2","bufferView":2,"byteOffset":61696},{"name":"manpad_Mesh.378-Mesh_0_indices","componentType":5123,"count":306,"min":[0],"max":[173],"type":"SCALAR","bufferView":3,"byteOffset":49700}],"asset":{"generator":"obj2gltf","version":"2.0"},"buffers":[{"name":"vtolvr_AlliedSoldierMANPAD","byteLength":302664,"uri":"data:application/octet-stream;base64,"}],"bufferViews":[{"name":"bufferView_0","buffer":0,"byteLength":94632,"byteOffset":0,"byteStride":12,"target":34962},{"name":"bufferView_1","buffer":0,"byteLength":94632,"byteOffset":94632,"byteStride":12,"target":34962},{"name":"bufferView_2","buffer":0,"byteLength":63088,"byteOffset":189264,"byteStride":8,"target":34962},{"name":"bufferView_3","buffer":0,"byteLength":50312,"byteOffset":252352,"target":34963}],"materials":[{"name":"None.003","pbrMetallicRoughness":{"baseColorFactor":[0.5,0.5,0.5,1],"metallicFactor":0,"roughnessFactor":1},"emissiveFactor":[0,0,0],"alphaMode":"OPAQUE","doubleSided":false},{"name":"mat_manpad.001","pbrMetallicRoughness":{"baseColorFactor":[0.5,0.5,0.5,1],"metallicFactor":0,"roughnessFactor":1},"emissiveFactor":[0,0,0],"alphaMode":"OPAQUE","doubleSided":false}],"meshes":[{"name":"fpd_mesh_Mesh.338-Mesh","primitives":[{"attributes":{"POSITION":0,"NORMAL":1,"TEXCOORD_0":2},"indices":3,"material":0,"mode":4}]},{"name":"manpad_Mesh.378-Mesh","primitives":[{"attributes":{"POSITION":4,"NORMAL":5,"TEXCOORD_0":6},"indices":7,"material":1,"mode":4}]}],"nodes":[{"name":"fpd_mesh_Mesh.338","mesh":0},{"name":"manpad_Mesh.378","mesh":1}],"scene":0,"scenes":[{"nodes":[0,1]}]}