{"accessors":[{"name":"Cylinder.001-Mesh_0_positions","componentType":5126,"count":1043,"min":[-3.878774881362915,-0.47351399064064026,-5.75206995010376],"max":[3.8787760734558105,1.5394270420074463,2.7740159034729004],"type":"VEC3","bufferView":0,"byteOffset":0},{"name":"Cylinder.001-Mesh_0_normals","componentType":5126,"count":1043,"min":[-1,-1,-1],"max":[1,1,1],"type":"VEC3","bufferView":1,"byteOffset":0},{"name":"Cylinder.001-Mesh_0_indices","componentType":5123,"count":3264,"min":[0],"max":[1042],"type":"SCALAR","bufferView":2,"byteOffset":0}],"asset":{"generator":"obj2gltf","version":"2.0"},"buffers":[{"name":"vtolvr_FA-26","byteLength":31560,"uri":"data:application/octet-stream;base64,"}],"bufferViews":[{"name":"bufferView_0","buffer":0,"byteLength":12516,"byteOffset":0,"byteStride":12,"target":34962},{"name":"bufferView_1","buffer":0,"byteLength":12516,"byteOffset":12516,"byteStride":12,"target":34962},{"name":"bufferView_2","buffer":0,"byteLength":6528,"byteOffset":25032,"target":34963}],"materials":[{"name":"Material","pbrMetallicRoughness":{"baseColorFactor":[0.5,0.5,0.5,1],"metallicFactor":0,"roughnessFactor":1},"emissiveFactor":[0,0,0],"alphaMode":"OPAQUE","doubleSided":false}],"meshes":[{"name":"Cylinder.001-Mesh","primitives":[{"attributes":{"POSITION":0,"NORMAL":1},"indices":2,"material":0,"mode":4}]}],"nodes":[{"name":"Cylinder.001","mesh":0}],"scene":0,"scenes":[{"nodes":[0]}]}