{"accessors":[{"name":"turretModel_Mesh.2211-Mesh_0_positions","componentType":5126,"count":330,"min":[-1.5078109502792358,0.7855560183525085,-0.244035005569458],"max":[1.5110399723052979,2.060415029525757,3.465675115585327],"type":"VEC3","bufferView":0,"byteOffset":0},{"name":"turretModel_Mesh.2211-Mesh_0_normals","componentType":5126,"count":330,"min":[-1,-0.9999999403953552,-0.9999999403953552],"max":[1,0.9999999403953552,0.9999999403953552],"type":"VEC3","bufferView":1,"byteOffset":0},{"name":"turretModel_Mesh.2211-Mesh_0_texcoords","componentType":5126,"count":330,"min":[0.04073699936270714,0.03239300101995468],"max":[0.9813770055770874,0.998744010925293],"type":"VEC2","bufferView":2,"byteOffset":0},{"name":"turretModel_Mesh.2211-Mesh_0_indices","componentType":5123,"count":516,"min":[0],"max":[329],"type":"SCALAR","bufferView":3,"byteOffset":0},{"name":"lowPolyCollider.003_Mesh.2219-Mesh_0_positions","componentType":5126,"count":8,"min":[-0.36307498812675476,1.1119719743728638,-0.35909900069236755],"max":[0.36307498812675476,1.9093680381774902,0.5840240120887756],"type":"VEC3","bufferView":0,"byteOffset":3960},{"name":"lowPolyCollider.003_Mesh.2219-Mesh_0_normals","componentType":5126,"count":8,"min":[-1,0,0],"max":[1,0,0],"type":"VEC3","bufferView":1,"byteOffset":3960},{"name":"lowPolyCollider.003_Mesh.2219-Mesh_0_texcoords","componentType":5126,"count":8,"min":[0.6608009934425354,0.4237160086631775],"max":[0.6964719891548157,0.44808799028396606],"type":"VEC2","bufferView":2,"byteOffset":2640},{"name":"lowPolyCollider.003_Mesh.2219-Mesh_0_indices","componentType":5123,"count":12,"min":[0],"max":[7],"type":"SCALAR","bufferView":3,"byteOffset":1032},{"name":"barrel_Mesh.2220-Mesh_0_positions","componentType":5126,"count":137,"min":[-0.15951800346374512,1.3140430450439453,-6.289146900177002],"max":[0.15951800346374512,1.6158989667892456,-1.7367409467697144],"type":"VEC3","bufferView":0,"byteOffset":4056},{"name":"barrel_Mesh.2220-Mesh_0_normals","componentType":5126,"count":137,"min":[-0.9940081238746643,-0.9996153116226196,-0.9999999403953552],"max":[0.9940081238746643,0.9995440244674683,1],"type":"VEC3","bufferView":1,"byteOffset":4056},{"name":"barrel_Mesh.2220-Mesh_0_texcoords","componentType":5126,"count":137,"min":[0.21638500690460205,0.06260400265455246],"max":[0.9876390099525452,0.9586790204048157],"type":"VEC2","bufferView":2,"byteOffset":2704},{"name":"barrel_Mesh.2220-Mesh_0_indices","componentType":5123,"count":315,"min":[0],"max":[136],"type":"SCALAR","bufferView":3,"byteOffset":1056},{"name":"receiver_Mesh.2218-Mesh_0_positions","componentType":5126,"count":164,"min":[-0.4126009941101074,1.1101759672164917,-2.4843850135803223],"max":[0.4126009941101074,2.0852599143981934,0.803820013999939],"type":"VEC3","bufferView":0,"byteOffset":5700},{"name":"receiver_Mesh.2218-Mesh_0_normals","componentType":5126,"count":164,"min":[-1,-0.9999999403953552,-0.9999999403953552],"max":[1,0.9999999403953552,0.9999999403953552],"type":"VEC3","bufferView":1,"byteOffset":5700},{"name":"receiver_Mesh.2218-Mesh_0_texcoords","componentType":5126,"count":164,"min":[0.03252299875020981,0.06833499670028687],"max":[0.9507290124893188,0.9309239983558655],"type":"VEC2","bufferView":2,"byteOffset":3800},{"name":"receiver_Mesh.2218-Mesh_0_indices","componentType":5123,"count":300,"min":[0],"max":[163],"type":"SCALAR","bufferView":3,"byteOffset":1688},{"name":"hull_Mesh.2207-Mesh_0_positions","componentType":5126,"count":2515,"min":[-1.6792110204696655,-0.5981069803237915,-3.506558895111084],"max":[1.6800309419631958,1.0743839740753174,2.9612369537353516],"type":"VEC3","bufferView":0,"byteOffset":7668},{"name":"hull_Mesh.2207-Mesh_0_normals","componentType":5126,"count":2515,"min":[-1,-1,-0.9999999403953552],"max":[1,1,0.9999999403953552],"type":"VEC3","bufferView":1,"byteOffset":7668},{"name":"hull_Mesh.2207-Mesh_0_texcoords","componentType":5126,"count":2515,"min":[0.0011360000353306532,0.005781999789178371],"max":[0.9914870262145996,0.998744010925293],"type":"VEC2","bufferView":2,"byteOffset":5112},{"name":"hull_Mesh.2207-Mesh_0_indices","componentType":5123,"count":4362,"min":[0],"max":[2514],"type":"SCALAR","bufferView":3,"byteOffset":2288}],"asset":{"generator":"obj2gltf","version":"2.0"},"buffers":[{"name":"vtolvr_Artillery","byteLength":111940,"uri":"data:application/octet-stream;base64,"}],"bufferViews":[{"name":"bufferView_0","buffer":0,"byteLength":37848,"byteOffset":0,"byteStride":12,"target":34962},{"name":"bufferView_1","buffer":0,"byteLength":37848,"byteOffset":37848,"byteStride":12,"target":34962},{"name":"bufferView_2","buffer":0,"byteLength":25232,"byteOffset":75696,"byteStride":8,"target":34962},{"name":"bufferView_3","buffer":0,"byteLength":11012,"byteOffset":100928,"target":34963}],"materials":[{"name":"selfpropelledarty_dif_ao","pbrMetallicRoughness":{"baseColorFactor":[0.5,0.5,0.5,1],"metallicFactor":0,"roughnessFactor":1},"emissiveFactor":[0,0,0],"alphaMode":"OPAQUE","doubleSided":false}],"meshes":[{"name":"turretModel_Mesh.2211-Mesh","primitives":[{"attributes":{"POSITION":0,"NORMAL":1,"TEXCOORD_0":2},"indices":3,"material":0,"mode":4}]},{"name":"lowPolyCollider.003_Mesh.2219-Mesh","primitives":[{"attributes":{"POSITION":4,"NORMAL":5,"TEXCOORD_0":6},"indices":7,"material":0,"mode":4}]},{"name":"barrel_Mesh.2220-Mesh","primitives":[{"attributes":{"POSITION":8,"NORMAL":9,"TEXCOORD_0":10},"indices":11,"material":0,"mode":4}]},{"name":"receiver_Mesh.2218-Mesh","primitives":[{"attributes":{"POSITION":12,"NORMAL":13,"TEXCOORD_0":14},"indices":15,"material":0,"mode":4}]},{"name":"hull_Mesh.2207-Mesh","primitives":[{"attributes":{"POSITION":16,"NORMAL":17,"TEXCOORD_0":18},"indices":19,"material":0,"mode":4}]}],"nodes":[{"name":"turretModel_Mesh.2211","mesh":0},{"name":"lowPolyCollider.003_Mesh.2219","mesh":1},{"name":"barrel_Mesh.2220","mesh":2},{"name":"receiver_Mesh.2218","mesh":3},{"name":"hull_Mesh.2207","mesh":4}],"scene":0,"scenes":[{"nodes":[0,1,2,3,4]}]}