{"accessors":[{"name":"body_LOD2_Mesh.044-Mesh_0_positions","componentType":5126,"count":566,"min":[-6.948703765869141,-1.423732042312622,-7.323370933532715],"max":[6.948703765869141,3.4904088973999023,8.177018165588379],"type":"VEC3","bufferView":0,"byteOffset":0},{"name":"body_LOD2_Mesh.044-Mesh_0_normals","componentType":5126,"count":566,"min":[-0.9921883940696716,-0.9839508533477783,-0.9887815713882446],"max":[0.9921883940696716,0.9999556541442871,0.8760243058204651],"type":"VEC3","bufferView":1,"byteOffset":0},{"name":"body_LOD2_Mesh.044-Mesh_0_texcoords","componentType":5126,"count":566,"min":[0.012249000370502472,0.03615099936723709],"max":[0.9807860255241394,0.9507070183753967],"type":"VEC2","bufferView":2,"byteOffset":0},{"name":"body_LOD2_Mesh.044-Mesh_0_indices","componentType":5123,"count":948,"min":[0],"max":[565],"type":"SCALAR","bufferView":3,"byteOffset":0},{"name":"frontGearDoorLeft_Mesh.151-Mesh_0_positions","componentType":5126,"count":28,"min":[-0.4145840108394623,-1.2429289817810059,-0.34874001145362854],"max":[0.002357000019401312,-0.38754498958587646,-0.24209800362586975],"type":"VEC3","bufferView":0,"byteOffset":6792},{"name":"frontGearDoorLeft_Mesh.151-Mesh_0_normals","componentType":5126,"count":28,"min":[-0.9920150637626648,-0.9303085207939148,-0.9951515793800354],"max":[0.9960909485816956,0.9303041696548462,0.9951809644699097],"type":"VEC3","bufferView":1,"byteOffset":6792},{"name":"frontGearDoorLeft_Mesh.151-Mesh_0_texcoords","componentType":5126,"count":28,"min":[0.6927899718284607,0.7197350263595581],"max":[0.7242400050163269,0.7495899796485901],"type":"VEC2","bufferView":2,"byteOffset":4528},{"name":"frontGearDoorLeft_Mesh.151-Mesh_0_indices","componentType":5123,"count":48,"min":[0],"max":[27],"type":"SCALAR","bufferView":3,"byteOffset":1896},{"name":"frontGearDoorRight_Mesh.152-Mesh_0_positions","componentType":5126,"count":28,"min":[-0.0013020000187680125,-1.242501974105835,-0.3500880002975464],"max":[0.4160259962081909,-0.3876360058784485,-0.24128100275993347],"type":"VEC3","bufferView":0,"byteOffset":7128},{"name":"frontGearDoorRight_Mesh.152-Mesh_0_normals","componentType":5126,"count":28,"min":[-0.995592474937439,-0.9301999807357788,-0.9949674010276794],"max":[0.9912923574447632,0.930228054523468,0.9950302243232727],"type":"VEC3","bufferView":1,"byteOffset":7128},{"name":"frontGearDoorRight_Mesh.152-Mesh_0_texcoords","componentType":5126,"count":28,"min":[0.7356770038604736,0.7264959812164307],"max":[0.7670239806175232,0.7562940120697021],"type":"VEC2","bufferView":2,"byteOffset":4752},{"name":"frontGearDoorRight_Mesh.152-Mesh_0_indices","componentType":5123,"count":48,"min":[0],"max":[27],"type":"SCALAR","bufferView":3,"byteOffset":1992},{"name":"wingLeft_LOD1_Mesh.200-Mesh_0_positions","componentType":5126,"count":189,"min":[-5.427580833435059,0.9839239716529846,-1.771865963935852],"max":[-2.425494909286499,1.7973990440368652,0.894760012626648],"type":"VEC3","bufferView":0,"byteOffset":7464},{"name":"wingLeft_LOD1_Mesh.200-Mesh_0_normals","componentType":5126,"count":189,"min":[-1,-0.9998288750648499,-0.9933390617370605],"max":[1,0.9990701675415039,0.9957820177078247],"type":"VEC3","bufferView":1,"byteOffset":7464},{"name":"wingLeft_LOD1_Mesh.200-Mesh_0_texcoords","componentType":5126,"count":189,"min":[0.031238999217748642,0.04311399906873703],"max":[0.4854179918766022,0.4768339991569519],"type":"VEC2","bufferView":2,"byteOffset":4976},{"name":"wingLeft_LOD1_Mesh.200-Mesh_0_indices","componentType":5123,"count":315,"min":[0],"max":[188],"type":"SCALAR","bufferView":3,"byteOffset":2088},{"name":"WingLeft_Mesh.167-Mesh_0_positions","componentType":5126,"count":708,"min":[-5.4992499351501465,1.0097310543060303,-1.740211009979248],"max":[-2.431488037109375,1.8176109790802002,0.9285860061645508],"type":"VEC3","bufferView":0,"byteOffset":9732},{"name":"WingLeft_Mesh.167-Mesh_0_normals","componentType":5126,"count":708,"min":[-1,-1,-0.99453204870224],"max":[1,0.9952055215835571,1],"type":"VEC3","bufferView":1,"byteOffset":9732},{"name":"WingLeft_Mesh.167-Mesh_0_texcoords","componentType":5126,"count":708,"min":[0.021623000502586365,0.012489999644458294],"max":[0.48797398805618286,0.4768339991569519],"type":"VEC2","bufferView":2,"byteOffset":6488},{"name":"WingLeft_Mesh.167-Mesh_0_indices","componentType":5123,"count":1536,"min":[0],"max":[707],"type":"SCALAR","bufferView":3,"byteOffset":2720},{"name":"wingRightLOD1_Mesh.238-Mesh_0_positions","componentType":5126,"count":189,"min":[2.4255049228668213,0.9839239716529846,-1.771865963935852],"max":[5.426415920257568,1.7973999977111816,0.894760012626648],"type":"VEC3","bufferView":0,"byteOffset":18228},{"name":"wingRightLOD1_Mesh.238-Mesh_0_normals","componentType":5126,"count":189,"min":[-1,-0.9998288750648499,-0.9933390617370605],"max":[1,0.9990701675415039,0.9957820177078247],"type":"VEC3","bufferView":1,"byteOffset":18228},{"name":"wingRightLOD1_Mesh.238-Mesh_0_texcoords","componentType":5126,"count":189,"min":[0.031238999217748642,0.04311399906873703],"max":[0.4854179918766022,0.4768339991569519],"type":"VEC2","bufferView":2,"byteOffset":12152},{"name":"wingRightLOD1_Mesh.238-Mesh_0_indices","componentType":5123,"count":315,"min":[0],"max":[188],"type":"SCALAR","bufferView":3,"byteOffset":5792},{"name":"WingRight_Mesh.208-Mesh_0_positions","componentType":5126,"count":451,"min":[2.4313759803771973,0.9742929935455322,-1.7441120147705078],"max":[5.499259948730469,1.8176120519638062,0.9332619905471802],"type":"VEC3","bufferView":0,"byteOffset":20496},{"name":"WingRight_Mesh.208-Mesh_0_normals","componentType":5126,"count":451,"min":[-1,-0.9999372959136963,-0.9756693840026855],"max":[1,0.9951968789100647,0.9993079900741577],"type":"VEC3","bufferView":1,"byteOffset":20496},{"name":"WingRight_Mesh.208-Mesh_0_texcoords","componentType":5126,"count":451,"min":[0.021668000146746635,0.01413000002503395],"max":[0.4879330098628998,0.4768339991569519],"type":"VEC2","bufferView":2,"byteOffset":13664},{"name":"WingRight_Mesh.208-Mesh_0_indices","componentType":5123,"count":891,"min":[0],"max":[450],"type":"SCALAR","bufferView":3,"byteOffset":6424},{"name":"leftTailplane_LOD1_Mesh.257-Mesh_0_positions","componentType":5126,"count":112,"min":[-2.6376140117645264,1.5575120449066162,6.314582824707031],"max":[-0.1553100049495697,3.485814094543457,8.187573432922363],"type":"VEC3","bufferView":0,"byteOffset":25908},{"name":"leftTailplane_LOD1_Mesh.257-Mesh_0_normals","componentType":5126,"count":112,"min":[-0.9998612403869629,-0.999626100063324,-0.9953468441963196],"max":[0.9962933659553528,0.9977823495864868,0.9891959428787231],"type":"VEC3","bufferView":1,"byteOffset":25908},{"name":"leftTailplane_LOD1_Mesh.257-Mesh_0_texcoords","componentType":5126,"count":112,"min":[0.6851909756660461,0.3076629936695099],"max":[0.9766749739646912,0.5689859986305237],"type":"VEC2","bufferView":2,"byteOffset":17272},{"name":"leftTailplane_LOD1_Mesh.257-Mesh_0_indices","componentType":5123,"count":153,"min":[0],"max":[111],"type":"SCALAR","bufferView":3,"byteOffset":8208},{"name":"TailplaneLeft_Mesh.256-Mesh_0_positions","componentType":5126,"count":556,"min":[-2.6462841033935547,1.5638649463653564,6.281033992767334],"max":[-0.1509380042552948,3.485811948776245,8.496173858642578],"type":"VEC3","bufferView":0,"byteOffset":27252},{"name":"TailplaneLeft_Mesh.256-Mesh_0_normals","componentType":5126,"count":556,"min":[-1,-1,-0.9911116361618042],"max":[1,1,1],"type":"VEC3","bufferView":1,"byteOffset":27252},{"name":"TailplaneLeft_Mesh.256-Mesh_0_texcoords","componentType":5126,"count":556,"min":[0.6613699793815613,0.3076629936695099],"max":[0.9766749739646912,0.5689859986305237],"type":"VEC2","bufferView":2,"byteOffset":18168},{"name":"TailplaneLeft_Mesh.256-Mesh_0_indices","componentType":5123,"count":1293,"min":[0],"max":[555],"type":"SCALAR","bufferView":3,"byteOffset":8516},{"name":"rightTailplane_LOD1_Mesh.269-Mesh_0_positions","componentType":5126,"count":112,"min":[0.1553100049495697,1.5575129985809326,6.314582824707031],"max":[2.6376140117645264,3.4858129024505615,8.187573432922363],"type":"VEC3","bufferView":0,"byteOffset":33924},{"name":"rightTailplane_LOD1_Mesh.269-Mesh_0_normals","componentType":5126,"count":112,"min":[-0.9962933659553528,-0.999626100063324,-0.9953468441963196],"max":[0.9998612403869629,0.9977823495864868,0.9891959428787231],"type":"VEC3","bufferView":1,"byteOffset":33924},{"name":"rightTailplane_LOD1_Mesh.269-Mesh_0_texcoords","componentType":5126,"count":112,"min":[0.6851909756660461,0.3076629936695099],"max":[0.9766749739646912,0.5689859986305237],"type":"VEC2","bufferView":2,"byteOffset":22616},{"name":"rightTailplane_LOD1_Mesh.269-Mesh_0_indices","componentType":5123,"count":153,"min":[0],"max":[111],"type":"SCALAR","bufferView":3,"byteOffset":11104},{"name":"rightTailplane_Mesh.264-Mesh_0_positions","componentType":5126,"count":457,"min":[0.1509380042552948,1.5638649463653564,6.281033992767334],"max":[2.6452291011810303,3.48587703704834,8.4966459274292],"type":"VEC3","bufferView":0,"byteOffset":35268},{"name":"rightTailplane_Mesh.264-Mesh_0_normals","componentType":5126,"count":457,"min":[-1,-1,-0.9748722910881042],"max":[1,1,1],"type":"VEC3","bufferView":1,"byteOffset":35268},{"name":"rightTailplane_Mesh.264-Mesh_0_texcoords","componentType":5126,"count":457,"min":[0.6613699793815613,0.3076629936695099],"max":[0.9766749739646912,0.5696660280227661],"type":"VEC2","bufferView":2,"byteOffset":23512},{"name":"rightTailplane_Mesh.264-Mesh_0_indices","componentType":5123,"count":1029,"min":[0],"max":[456],"type":"SCALAR","bufferView":3,"byteOffset":11412}],"asset":{"generator":"obj2gltf","version":"2.0"},"buffers":[{"name":"vtolvr_AV-42CAI","byteLength":122144,"uri":"data:application/octet-stream;base64,"}],"bufferViews":[{"name":"bufferView_0","buffer":0,"byteLength":40752,"byteOffset":0,"byteStride":12,"target":34962},{"name":"bufferView_1","buffer":0,"byteLength":40752,"byteOffset":40752,"byteStride":12,"target":34962},{"name":"bufferView_2","buffer":0,"byteLength":27168,"byteOffset":81504,"byteStride":8,"target":34962},{"name":"bufferView_3","buffer":0,"byteLength":13472,"byteOffset":108672,"target":34963}],"materials":[{"name":"mat_vtol4Exterior","pbrMetallicRoughness":{"baseColorFactor":[0.5,0.5,0.5,1],"metallicFactor":0,"roughnessFactor":1},"emissiveFactor":[0,0,0],"alphaMode":"OPAQUE","doubleSided":false},{"name":"mat_vtol4Exterior2","pbrMetallicRoughness":{"baseColorFactor":[0.5,0.5,0.5,1],"metallicFactor":0,"roughnessFactor":1},"emissiveFactor":[0,0,0],"alphaMode":"OPAQUE","doubleSided":false}],"meshes":[{"name":"body_LOD2_Mesh.044-Mesh","primitives":[{"attributes":{"POSITION":0,"NORMAL":1,"TEXCOORD_0":2},"indices":3,"material":0,"mode":4}]},{"name":"frontGearDoorLeft_Mesh.151-Mesh","primitives":[{"attributes":{"POSITION":4,"NORMAL":5,"TEXCOORD_0":6},"indices":7,"material":0,"mode":4}]},{"name":"frontGearDoorRight_Mesh.152-Mesh","primitives":[{"attributes":{"POSITION":8,"NORMAL":9,"TEXCOORD_0":10},"indices":11,"material":0,"mode":4}]},{"name":"wingLeft_LOD1_Mesh.200-Mesh","primitives":[{"attributes":{"POSITION":12,"NORMAL":13,"TEXCOORD_0":14},"indices":15,"material":1,"mode":4}]},{"name":"WingLeft_Mesh.167-Mesh","primitives":[{"attributes":{"POSITION":16,"NORMAL":17,"TEXCOORD_0":18},"indices":19,"material":1,"mode":4}]},{"name":"wingRightLOD1_Mesh.238-Mesh","primitives":[{"attributes":{"POSITION":20,"NORMAL":21,"TEXCOORD_0":22},"indices":23,"material":1,"mode":4}]},{"name":"WingRight_Mesh.208-Mesh","primitives":[{"attributes":{"POSITION":24,"NORMAL":25,"TEXCOORD_0":26},"indices":27,"material":1,"mode":4}]},{"name":"leftTailplane_LOD1_Mesh.257-Mesh","primitives":[{"attributes":{"POSITION":28,"NORMAL":29,"TEXCOORD_0":30},"indices":31,"material":1,"mode":4}]},{"name":"TailplaneLeft_Mesh.256-Mesh","primitives":[{"attributes":{"POSITION":32,"NORMAL":33,"TEXCOORD_0":34},"indices":35,"material":1,"mode":4}]},{"name":"rightTailplane_LOD1_Mesh.269-Mesh","primitives":[{"attributes":{"POSITION":36,"NORMAL":37,"TEXCOORD_0":38},"indices":39,"material":1,"mode":4}]},{"name":"rightTailplane_Mesh.264-Mesh","primitives":[{"attributes":{"POSITION":40,"NORMAL":41,"TEXCOORD_0":42},"indices":43,"material":1,"mode":4}]}],"nodes":[{"name":"body_LOD2_Mesh.044","mesh":0},{"name":"frontGearDoorLeft_Mesh.151","mesh":1},{"name":"frontGearDoorRight_Mesh.152","mesh":2},{"name":"wingLeft_LOD1_Mesh.200","mesh":3},{"name":"WingLeft_Mesh.167","mesh":4},{"name":"wingRightLOD1_Mesh.238","mesh":5},{"name":"WingRight_Mesh.208","mesh":6},{"name":"leftTailplane_LOD1_Mesh.257","mesh":7},{"name":"TailplaneLeft_Mesh.256","mesh":8},{"name":"rightTailplane_LOD1_Mesh.269","mesh":9},{"name":"rightTailplane_Mesh.264","mesh":10}],"scene":0,"scenes":[{"nodes":[0,1,2,3,4,5,6,7,8,9,10]}]}