{"accessors":[{"name":"wheel_BBL_Mesh.001-Mesh_0_positions","componentType":5126,"count":428,"min":[1.3203580379486084,0.0708329975605011,-6.105387210845947],"max":[2.1596059799194336,2.095612049102783,-4.126814842224121],"type":"VEC3","bufferView":0,"byteOffset":0},{"name":"wheel_BBL_Mesh.001-Mesh_0_normals","componentType":5126,"count":428,"min":[-1,-0.9998775124549866,-0.9991732835769653],"max":[1,0.9998879432678223,0.9957312345504761],"type":"VEC3","bufferView":1,"byteOffset":0},{"name":"wheel_BBL_Mesh.001-Mesh_0_texcoords","componentType":5126,"count":428,"min":[0.0006140000186860561,0.010274999774992466],"max":[0.9505860209465027,0.9993460178375244],"type":"VEC2","bufferView":2,"byteOffset":0},{"name":"wheel_BBL_Mesh.001-Mesh_0_indices","componentType":5123,"count":1017,"min":[0],"max":[427],"type":"SCALAR","bufferView":3,"byteOffset":0},{"name":"wheel_BBR_Mesh.001-Mesh_0_positions","componentType":5126,"count":425,"min":[-2.159619092941284,0.02345299907028675,-6.101928234100342],"max":[-1.3203179836273193,2.050827980041504,-4.125644207000732],"type":"VEC3","bufferView":0,"byteOffset":5136},{"name":"wheel_BBR_Mesh.001-Mesh_0_normals","componentType":5126,"count":425,"min":[-1,-0.9944522380828857,-0.9994903802871704],"max":[1,0.9989948272705078,0.999160647392273],"type":"VEC3","bufferView":1,"byteOffset":5136},{"name":"wheel_BBR_Mesh.001-Mesh_0_texcoords","componentType":5126,"count":425,"min":[0.0006220000213943422,0.010205999948084354],"max":[0.9505869746208191,0.9993460178375244],"type":"VEC2","bufferView":2,"byteOffset":3424},{"name":"wheel_BBR_Mesh.001-Mesh_0_indices","componentType":5123,"count":1017,"min":[0],"max":[424],"type":"SCALAR","bufferView":3,"byteOffset":2036},{"name":"wheel_BL_Mesh.001-Mesh_0_positions","componentType":5126,"count":428,"min":[1.3203569650650024,0.06888099759817123,-3.851346969604492],"max":[2.159527063369751,2.058387041091919,-1.87506103515625],"type":"VEC3","bufferView":0,"byteOffset":10236},{"name":"wheel_BL_Mesh.001-Mesh_0_normals","componentType":5126,"count":428,"min":[-1,-0.9958258271217346,-0.9941246509552002],"max":[1,0.9971616864204407,0.998378336429596],"type":"VEC3","bufferView":1,"byteOffset":10236},{"name":"wheel_BL_Mesh.001-Mesh_0_texcoords","componentType":5126,"count":428,"min":[0.0006339999963529408,0.010193999856710434],"max":[0.9505860209465027,0.9993460178375244],"type":"VEC2","bufferView":2,"byteOffset":6824},{"name":"wheel_BL_Mesh.001-Mesh_0_indices","componentType":5123,"count":1017,"min":[0],"max":[427],"type":"SCALAR","bufferView":3,"byteOffset":4072},{"name":"wheel_BR_Mesh.001-Mesh_0_positions","componentType":5126,"count":428,"min":[-2.1594860553741455,0.06888099759817123,-3.90291690826416],"max":[-1.320317029953003,2.0622940063476562,-1.8727760314941406],"type":"VEC3","bufferView":0,"byteOffset":15372},{"name":"wheel_BR_Mesh.001-Mesh_0_normals","componentType":5126,"count":428,"min":[-1,-0.9958258271217346,-0.9998879432678223],"max":[1,0.9957854747772217,0.9998775124549866],"type":"VEC3","bufferView":1,"byteOffset":15372},{"name":"wheel_BR_Mesh.001-Mesh_0_texcoords","componentType":5126,"count":428,"min":[0.0006339999963529408,0.010193999856710434],"max":[0.9505860209465027,0.9993889927864075],"type":"VEC2","bufferView":2,"byteOffset":10248},{"name":"wheel_BR_Mesh.001-Mesh_0_indices","componentType":5123,"count":1017,"min":[0],"max":[427],"type":"SCALAR","bufferView":3,"byteOffset":6108},{"name":"wheel_FFL_Mesh.001-Mesh_0_positions","componentType":5126,"count":423,"min":[1.3203589916229248,0.0661420002579689,4.071537971496582],"max":[2.159637928009033,2.0485739707946777,6.046651840209961],"type":"VEC3","bufferView":0,"byteOffset":20508},{"name":"wheel_FFL_Mesh.001-Mesh_0_normals","componentType":5126,"count":423,"min":[-1,-0.993144690990448,-0.9946730732917786],"max":[1,0.9970186352729797,0.9937846660614014],"type":"VEC3","bufferView":1,"byteOffset":20508},{"name":"wheel_FFL_Mesh.001-Mesh_0_texcoords","componentType":5126,"count":423,"min":[0.0006339999963529408,0.010255999863147736],"max":[0.9505879878997803,0.9993889927864075],"type":"VEC2","bufferView":2,"byteOffset":13672},{"name":"wheel_FFL_Mesh.001-Mesh_0_indices","componentType":5123,"count":1017,"min":[0],"max":[422],"type":"SCALAR","bufferView":3,"byteOffset":8144},{"name":"wheel_FL_Mesh.001-Mesh_0_positions","componentType":5126,"count":429,"min":[1.3203580379486084,0.06692200154066086,1.817499041557312],"max":[2.159527063369751,2.0603370666503906,3.792064905166626],"type":"VEC3","bufferView":0,"byteOffset":25584},{"name":"wheel_FL_Mesh.001-Mesh_0_normals","componentType":5126,"count":429,"min":[-1,-0.9994430541992188,-0.9994403123855591],"max":[1,0.9991732835769653,0.9977893829345703],"type":"VEC3","bufferView":1,"byteOffset":25584},{"name":"wheel_FL_Mesh.001-Mesh_0_texcoords","componentType":5126,"count":429,"min":[0.0006339999963529408,0.010205999948084354],"max":[0.9505860209465027,0.9993889927864075],"type":"VEC2","bufferView":2,"byteOffset":17056},{"name":"wheel_FL_Mesh.001-Mesh_0_indices","componentType":5123,"count":1017,"min":[0],"max":[428],"type":"SCALAR","bufferView":3,"byteOffset":10180},{"name":"wheel_FR_Mesh.001-Mesh_0_positions","componentType":5126,"count":427,"min":[-2.1594860553741455,0.06692200154066086,1.817499041557312],"max":[-1.3203179836273193,2.0603370666503906,3.797492027282715],"type":"VEC3","bufferView":0,"byteOffset":30732},{"name":"wheel_FR_Mesh.001-Mesh_0_normals","componentType":5126,"count":427,"min":[-1,-0.9981043338775635,-0.9991554021835327],"max":[1,0.9991732835769653,0.9994929432868958],"type":"VEC3","bufferView":1,"byteOffset":30732},{"name":"wheel_FR_Mesh.001-Mesh_0_texcoords","componentType":5126,"count":427,"min":[0.0006339999963529408,0.010205999948084354],"max":[0.9505860209465027,0.9993889927864075],"type":"VEC2","bufferView":2,"byteOffset":20488},{"name":"wheel_FR_Mesh.001-Mesh_0_indices","componentType":5123,"count":1017,"min":[0],"max":[426],"type":"SCALAR","bufferView":3,"byteOffset":12216},{"name":"wheelFF_R_Mesh.001-Mesh_0_positions","componentType":5126,"count":428,"min":[-2.1594860553741455,0.07014700025320053,4.071537017822266],"max":[-1.3203179836273193,2.0595569610595703,6.048935890197754],"type":"VEC3","bufferView":0,"byteOffset":35856},{"name":"wheelFF_R_Mesh.001-Mesh_0_normals","componentType":5126,"count":428,"min":[-1,-0.996753454208374,-0.9946730732917786],"max":[1,0.9965670704841614,0.9940993189811707],"type":"VEC3","bufferView":1,"byteOffset":35856},{"name":"wheelFF_R_Mesh.001-Mesh_0_texcoords","componentType":5126,"count":428,"min":[0.0006339999963529408,0.010255999863147736],"max":[0.9505860209465027,0.9993889927864075],"type":"VEC2","bufferView":2,"byteOffset":23904},{"name":"wheelFF_R_Mesh.001-Mesh_0_indices","componentType":5123,"count":1017,"min":[0],"max":[427],"type":"SCALAR","bufferView":3,"byteOffset":14252},{"name":"truck_Mesh.001-Mesh_0_positions","componentType":5126,"count":1950,"min":[-2.3005900382995605,0.7611799836158752,-7.409067153930664],"max":[2.3006339073181152,4.29885721206665,8.139646530151367],"type":"VEC3","bufferView":0,"byteOffset":40992},{"name":"truck_Mesh.001-Mesh_0_normals","componentType":5126,"count":1950,"min":[-1,-1,-0.9999999403953552],"max":[1,1,0.9999999403953552],"type":"VEC3","bufferView":1,"byteOffset":40992},{"name":"truck_Mesh.001-Mesh_0_texcoords","componentType":5126,"count":1950,"min":[0.0006060000159777701,0.003522000042721629],"max":[0.9921330213546753,0.9993929862976074],"type":"VEC2","bufferView":2,"byteOffset":27328},{"name":"truck_Mesh.001-Mesh_0_indices","componentType":5123,"count":3291,"min":[0],"max":[1949],"type":"SCALAR","bufferView":3,"byteOffset":16288},{"name":"m_rocketPitch_Mesh.001-Mesh_0_positions","componentType":5126,"count":250,"min":[-1.8021199703216553,2.508510112762451,-5.546504020690918],"max":[1.8021199703216553,4.089619159698486,1.0541720390319824],"type":"VEC3","bufferView":0,"byteOffset":64392},{"name":"m_rocketPitch_Mesh.001-Mesh_0_normals","componentType":5126,"count":250,"min":[-1,-1,-1],"max":[1,1,1],"type":"VEC3","bufferView":1,"byteOffset":64392},{"name":"m_rocketPitch_Mesh.001-Mesh_0_texcoords","componentType":5126,"count":250,"min":[0.004668999928981066,0.34912100434303284],"max":[0.7045900225639343,0.9953309893608093],"type":"VEC2","bufferView":2,"byteOffset":42928},{"name":"m_rocketPitch_Mesh.001-Mesh_0_indices","componentType":5123,"count":420,"min":[0],"max":[249],"type":"SCALAR","bufferView":3,"byteOffset":22872},{"name":"Cube_Mesh.001-Mesh_0_positions","componentType":5126,"count":122,"min":[-1.3829400539398193,2.2364330291748047,-5.570972919464111],"max":[1.3829400539398193,2.989975929260254,-2.6042749881744385],"type":"VEC3","bufferView":0,"byteOffset":67392},{"name":"Cube_Mesh.001-Mesh_0_normals","componentType":5126,"count":122,"min":[-1,-1,-1],"max":[1,1,1],"type":"VEC3","bufferView":1,"byteOffset":67392},{"name":"Cube_Mesh.001-Mesh_0_texcoords","componentType":5126,"count":122,"min":[0.7128909826278687,0.7101749777793884],"max":[0.9814450144767761,0.9812009930610657],"type":"VEC2","bufferView":2,"byteOffset":44928},{"name":"Cube_Mesh.001-Mesh_0_indices","componentType":5123,"count":210,"min":[0],"max":[121],"type":"SCALAR","bufferView":3,"byteOffset":23712}],"asset":{"generator":"obj2gltf","version":"2.0"},"buffers":[{"name":"vtolvr_ARocketTruck","byteLength":207748,"uri":"data:application/octet-stream;base64,"}],"bufferViews":[{"name":"bufferView_0","buffer":0,"byteLength":68856,"byteOffset":0,"byteStride":12,"target":34962},{"name":"bufferView_1","buffer":0,"byteLength":68856,"byteOffset":68856,"byteStride":12,"target":34962},{"name":"bufferView_2","buffer":0,"byteLength":45904,"byteOffset":137712,"byteStride":8,"target":34962},{"name":"bufferView_3","buffer":0,"byteLength":24132,"byteOffset":183616,"target":34963}],"materials":[{"name":"truck_ao.002","pbrMetallicRoughness":{"baseColorFactor":[0.5,0.5,0.5,1],"metallicFactor":0,"roughnessFactor":1},"emissiveFactor":[0,0,0],"alphaMode":"OPAQUE","doubleSided":false},{"name":"mat_truckRockets.002","pbrMetallicRoughness":{"baseColorFactor":[0.5,0.5,0.5,1],"metallicFactor":0,"roughnessFactor":1},"emissiveFactor":[0,0,0],"alphaMode":"OPAQUE","doubleSided":false}],"meshes":[{"name":"wheel_BBL_Mesh.001-Mesh","primitives":[{"attributes":{"POSITION":0,"NORMAL":1,"TEXCOORD_0":2},"indices":3,"material":0,"mode":4}]},{"name":"wheel_BBR_Mesh.001-Mesh","primitives":[{"attributes":{"POSITION":4,"NORMAL":5,"TEXCOORD_0":6},"indices":7,"material":0,"mode":4}]},{"name":"wheel_BL_Mesh.001-Mesh","primitives":[{"attributes":{"POSITION":8,"NORMAL":9,"TEXCOORD_0":10},"indices":11,"material":0,"mode":4}]},{"name":"wheel_BR_Mesh.001-Mesh","primitives":[{"attributes":{"POSITION":12,"NORMAL":13,"TEXCOORD_0":14},"indices":15,"material":0,"mode":4}]},{"name":"wheel_FFL_Mesh.001-Mesh","primitives":[{"attributes":{"POSITION":16,"NORMAL":17,"TEXCOORD_0":18},"indices":19,"material":0,"mode":4}]},{"name":"wheel_FL_Mesh.001-Mesh","primitives":[{"attributes":{"POSITION":20,"NORMAL":21,"TEXCOORD_0":22},"indices":23,"material":0,"mode":4}]},{"name":"wheel_FR_Mesh.001-Mesh","primitives":[{"attributes":{"POSITION":24,"NORMAL":25,"TEXCOORD_0":26},"indices":27,"material":0,"mode":4}]},{"name":"wheelFF_R_Mesh.001-Mesh","primitives":[{"attributes":{"POSITION":28,"NORMAL":29,"TEXCOORD_0":30},"indices":31,"material":0,"mode":4}]},{"name":"truck_Mesh.001-Mesh","primitives":[{"attributes":{"POSITION":32,"NORMAL":33,"TEXCOORD_0":34},"indices":35,"material":0,"mode":4}]},{"name":"m_rocketPitch_Mesh.001-Mesh","primitives":[{"attributes":{"POSITION":36,"NORMAL":37,"TEXCOORD_0":38},"indices":39,"material":1,"mode":4}]},{"name":"Cube_Mesh.001-Mesh","primitives":[{"attributes":{"POSITION":40,"NORMAL":41,"TEXCOORD_0":42},"indices":43,"material":1,"mode":4}]}],"nodes":[{"name":"wheel_BBL_Mesh.001","mesh":0},{"name":"wheel_BBR_Mesh.001","mesh":1},{"name":"wheel_BL_Mesh.001","mesh":2},{"name":"wheel_BR_Mesh.001","mesh":3},{"name":"wheel_FFL_Mesh.001","mesh":4},{"name":"wheel_FL_Mesh.001","mesh":5},{"name":"wheel_FR_Mesh.001","mesh":6},{"name":"wheelFF_R_Mesh.001","mesh":7},{"name":"truck_Mesh.001","mesh":8},{"name":"m_rocketPitch_Mesh.001","mesh":9},{"name":"Cube_Mesh.001","mesh":10}],"scene":0,"scenes":[{"nodes":[0,1,2,3,4,5,6,7,8,9,10]}]}