{"accessors":[{"name":"enemyFighter2lod_Mesh.002-Mesh_0_positions","componentType":5126,"count":676,"min":[-13.76073169708252,-1.1819050312042236,-19.533485412597656],"max":[13.760727882385254,4.47783899307251,9.776988983154297],"type":"VEC3","bufferView":0,"byteOffset":0},{"name":"enemyFighter2lod_Mesh.002-Mesh_0_normals","componentType":5126,"count":676,"min":[-1,-0.9999999403953552,-0.4430934190750122],"max":[1,0.9997304677963257,0.9999999403953552],"type":"VEC3","bufferView":1,"byteOffset":0},{"name":"enemyFighter2lod_Mesh.002-Mesh_0_texcoords","componentType":5126,"count":676,"min":[0.005609000101685524,0.005123999901115894],"max":[0.9908789992332458,0.9966350197792053],"type":"VEC2","bufferView":2,"byteOffset":0},{"name":"enemyFighter2lod_Mesh.002-Mesh_0_indices","componentType":5123,"count":1188,"min":[0],"max":[675],"type":"SCALAR","bufferView":3,"byteOffset":0}],"asset":{"generator":"obj2gltf","version":"2.0"},"buffers":[{"name":"vtolvr_ASF-58","byteLength":24008,"uri":"data:application/octet-stream;base64,"}],"bufferViews":[{"name":"bufferView_0","buffer":0,"byteLength":8112,"byteOffset":0,"byteStride":12,"target":34962},{"name":"bufferView_1","buffer":0,"byteLength":8112,"byteOffset":8112,"byteStride":12,"target":34962},{"name":"bufferView_2","buffer":0,"byteLength":5408,"byteOffset":16224,"byteStride":8,"target":34962},{"name":"bufferView_3","buffer":0,"byteLength":2376,"byteOffset":21632,"target":34963}],"materials":[{"name":"mat_efighter2.002","pbrMetallicRoughness":{"baseColorFactor":[0.5,0.5,0.5,1],"metallicFactor":0,"roughnessFactor":1},"emissiveFactor":[0,0,0],"alphaMode":"OPAQUE","doubleSided":false}],"meshes":[{"name":"enemyFighter2lod_Mesh.002-Mesh","primitives":[{"attributes":{"POSITION":0,"NORMAL":1,"TEXCOORD_0":2},"indices":3,"material":0,"mode":4}]}],"nodes":[{"name":"enemyFighter2lod_Mesh.002","mesh":0}],"scene":0,"scenes":[{"nodes":[0]}]}