{"accessors":[{"name":"mbRadar_Mesh.5116-Mesh_0_positions","componentType":5126,"count":87,"min":[-1.9671189785003662,14.377696990966797,0.9539620280265808],"max":[1.9671189785003662,16.228744506835938,3.1902151107788086],"type":"VEC3","bufferView":0,"byteOffset":0},{"name":"mbRadar_Mesh.5116-Mesh_0_normals","componentType":5126,"count":87,"min":[-1,-0.9999999403953552,-0.9999999403953552],"max":[1,0.9999999403953552,0.9999999403953552],"type":"VEC3","bufferView":1,"byteOffset":0},{"name":"mbRadar_Mesh.5116-Mesh_0_texcoords","componentType":5126,"count":87,"min":[0.8408250212669373,0.02536500059068203],"max":[0.9192780256271362,0.11323200166225433],"type":"VEC2","bufferView":2,"byteOffset":0},{"name":"mbRadar_Mesh.5116-Mesh_0_indices","componentType":5123,"count":153,"min":[0],"max":[86],"type":"SCALAR","bufferView":3,"byteOffset":0},{"name":"mbRadarBase_Mesh.5117-Mesh_0_positions","componentType":5126,"count":24,"min":[-1.2655349969863892,14.089499473571777,0.8050879836082458],"max":[1.2803410291671753,14.37808895111084,3.3506860733032227],"type":"VEC3","bufferView":0,"byteOffset":1044},{"name":"mbRadarBase_Mesh.5117-Mesh_0_normals","componentType":5126,"count":24,"min":[-0.9771628379821777,-0.04129856452345848,-0.9969760179519653],"max":[0.9590677618980408,1,0.9518725872039795],"type":"VEC3","bufferView":1,"byteOffset":1044},{"name":"mbRadarBase_Mesh.5117-Mesh_0_texcoords","componentType":5126,"count":24,"min":[0.6944620013237,0.022153999656438828],"max":[0.8178120255470276,0.07168199867010117],"type":"VEC2","bufferView":2,"byteOffset":696},{"name":"mbRadarBase_Mesh.5117-Mesh_0_indices","componentType":5123,"count":60,"min":[0],"max":[23],"type":"SCALAR","bufferView":3,"byteOffset":308},{"name":"seaMine_Mesh.5118-Mesh_0_positions","componentType":5126,"count":446,"min":[1.1142610311508179,3.173861026763916,-26.866134643554688],"max":[5.659176826477051,6.806127071380615,-23.23386573791504],"type":"VEC3","bufferView":0,"byteOffset":1332},{"name":"seaMine_Mesh.5118-Mesh_0_normals","componentType":5126,"count":446,"min":[-1,-0.9997233748435974,-0.9882839322090149],"max":[1,0.9950788617134094,0.991543710231781],"type":"VEC3","bufferView":1,"byteOffset":1332},{"name":"seaMine_Mesh.5118-Mesh_0_texcoords","componentType":5126,"count":446,"min":[0.01737000048160553,0.006558000110089779],"max":[0.6925119757652283,0.9917960166931152],"type":"VEC2","bufferView":2,"byteOffset":888},{"name":"seaMine_Mesh.5118-Mesh_0_indices","componentType":5123,"count":774,"min":[0],"max":[445],"type":"SCALAR","bufferView":3,"byteOffset":428},{"name":"seaMine_(1)_Mesh.5119-Mesh_0_positions","componentType":5126,"count":446,"min":[-5.1624579429626465,3.173861026763916,-26.866134643554688],"max":[-0.617542028427124,6.806127071380615,-23.23386573791504],"type":"VEC3","bufferView":0,"byteOffset":6684},{"name":"seaMine_(1)_Mesh.5119-Mesh_0_normals","componentType":5126,"count":446,"min":[-1,-0.9997233748435974,-0.9882839322090149],"max":[1,0.9950788617134094,0.991543710231781],"type":"VEC3","bufferView":1,"byteOffset":6684},{"name":"seaMine_(1)_Mesh.5119-Mesh_0_texcoords","componentType":5126,"count":446,"min":[0.01737000048160553,0.006558000110089779],"max":[0.6925119757652283,0.9917960166931152],"type":"VEC2","bufferView":2,"byteOffset":4456},{"name":"seaMine_(1)_Mesh.5119-Mesh_0_indices","componentType":5123,"count":774,"min":[0],"max":[445],"type":"SCALAR","bufferView":3,"byteOffset":1976},{"name":"seaMine_(2)_Mesh.5120-Mesh_0_positions","componentType":5126,"count":446,"min":[-5.162473201751709,3.4438610076904297,-23.006134033203125],"max":[-0.6175569891929626,7.076128005981445,-19.373865127563477],"type":"VEC3","bufferView":0,"byteOffset":12036},{"name":"seaMine_(2)_Mesh.5120-Mesh_0_normals","componentType":5126,"count":446,"min":[-1,-0.9997233748435974,-0.9882839322090149],"max":[1,0.9950788617134094,0.991543710231781],"type":"VEC3","bufferView":1,"byteOffset":12036},{"name":"seaMine_(2)_Mesh.5120-Mesh_0_texcoords","componentType":5126,"count":446,"min":[0.01737000048160553,0.006558000110089779],"max":[0.6925119757652283,0.9917960166931152],"type":"VEC2","bufferView":2,"byteOffset":8024},{"name":"seaMine_(2)_Mesh.5120-Mesh_0_indices","componentType":5123,"count":774,"min":[0],"max":[445],"type":"SCALAR","bufferView":3,"byteOffset":3524},{"name":"seaMine_(3)_Mesh.5121-Mesh_0_positions","componentType":5126,"count":446,"min":[1.1142610311508179,3.4438610076904297,-23.006134033203125],"max":[5.659176826477051,7.076128005981445,-19.373865127563477],"type":"VEC3","bufferView":0,"byteOffset":17388},{"name":"seaMine_(3)_Mesh.5121-Mesh_0_normals","componentType":5126,"count":446,"min":[-1,-0.9997233748435974,-0.9882839322090149],"max":[1,0.9950788617134094,0.991543710231781],"type":"VEC3","bufferView":1,"byteOffset":17388},{"name":"seaMine_(3)_Mesh.5121-Mesh_0_texcoords","componentType":5126,"count":446,"min":[0.01737000048160553,0.006558000110089779],"max":[0.6925119757652283,0.9917960166931152],"type":"VEC2","bufferView":2,"byteOffset":11592},{"name":"seaMine_(3)_Mesh.5121-Mesh_0_indices","componentType":5123,"count":774,"min":[0],"max":[445],"type":"SCALAR","bufferView":3,"byteOffset":5072},{"name":"seaMine_(4)_Mesh.5122-Mesh_0_positions","componentType":5126,"count":446,"min":[1.1142610311508179,3.693861961364746,-19.056137084960938],"max":[5.659176826477051,7.326128005981445,-15.423869132995605],"type":"VEC3","bufferView":0,"byteOffset":22740},{"name":"seaMine_(4)_Mesh.5122-Mesh_0_normals","componentType":5126,"count":446,"min":[-1,-0.9997233748435974,-0.9882839322090149],"max":[1,0.9950788617134094,0.991543710231781],"type":"VEC3","bufferView":1,"byteOffset":22740},{"name":"seaMine_(4)_Mesh.5122-Mesh_0_texcoords","componentType":5126,"count":446,"min":[0.01737000048160553,0.006558000110089779],"max":[0.6925119757652283,0.9917960166931152],"type":"VEC2","bufferView":2,"byteOffset":15160},{"name":"seaMine_(4)_Mesh.5122-Mesh_0_indices","componentType":5123,"count":774,"min":[0],"max":[445],"type":"SCALAR","bufferView":3,"byteOffset":6620},{"name":"seaMine_(5)_Mesh.5123-Mesh_0_positions","componentType":5126,"count":446,"min":[-5.162473201751709,3.693861961364746,-19.056137084960938],"max":[-0.6175569891929626,7.326128005981445,-15.423869132995605],"type":"VEC3","bufferView":0,"byteOffset":28092},{"name":"seaMine_(5)_Mesh.5123-Mesh_0_normals","componentType":5126,"count":446,"min":[-1,-0.9997233748435974,-0.9882839322090149],"max":[1,0.9950788617134094,0.991543710231781],"type":"VEC3","bufferView":1,"byteOffset":28092},{"name":"seaMine_(5)_Mesh.5123-Mesh_0_texcoords","componentType":5126,"count":446,"min":[0.01737000048160553,0.006558000110089779],"max":[0.6925119757652283,0.9917960166931152],"type":"VEC2","bufferView":2,"byteOffset":18728},{"name":"seaMine_(5)_Mesh.5123-Mesh_0_indices","componentType":5123,"count":774,"min":[0],"max":[445],"type":"SCALAR","bufferView":3,"byteOffset":8168},{"name":"seaMine_(6)_Mesh.5124-Mesh_0_positions","componentType":5126,"count":446,"min":[-5.162473201751709,3.853863000869751,-15.446133613586426],"max":[-0.6175569891929626,7.486128807067871,-11.81386947631836],"type":"VEC3","bufferView":0,"byteOffset":33444},{"name":"seaMine_(6)_Mesh.5124-Mesh_0_normals","componentType":5126,"count":446,"min":[-1,-0.9997233748435974,-0.9882839322090149],"max":[1,0.9950788617134094,0.991543710231781],"type":"VEC3","bufferView":1,"byteOffset":33444},{"name":"seaMine_(6)_Mesh.5124-Mesh_0_texcoords","componentType":5126,"count":446,"min":[0.01737000048160553,0.006558000110089779],"max":[0.6925119757652283,0.9917960166931152],"type":"VEC2","bufferView":2,"byteOffset":22296},{"name":"seaMine_(6)_Mesh.5124-Mesh_0_indices","componentType":5123,"count":774,"min":[0],"max":[445],"type":"SCALAR","bufferView":3,"byteOffset":9716},{"name":"seaMine_(7)_Mesh.5125-Mesh_0_positions","componentType":5126,"count":446,"min":[1.1142610311508179,3.853863000869751,-15.446133613586426],"max":[5.659176826477051,7.486128807067871,-11.81386947631836],"type":"VEC3","bufferView":0,"byteOffset":38796},{"name":"seaMine_(7)_Mesh.5125-Mesh_0_normals","componentType":5126,"count":446,"min":[-1,-0.9997233748435974,-0.9882839322090149],"max":[1,0.9950788617134094,0.991543710231781],"type":"VEC3","bufferView":1,"byteOffset":38796},{"name":"seaMine_(7)_Mesh.5125-Mesh_0_texcoords","componentType":5126,"count":446,"min":[0.01737000048160553,0.006558000110089779],"max":[0.6925119757652283,0.9917960166931152],"type":"VEC2","bufferView":2,"byteOffset":25864},{"name":"seaMine_(7)_Mesh.5125-Mesh_0_indices","componentType":5123,"count":774,"min":[0],"max":[445],"type":"SCALAR","bufferView":3,"byteOffset":11264},{"name":"eMineBoat_Mesh.5115-Mesh_0_positions","componentType":5126,"count":311,"min":[-12.310521125793457,-6.125830173492432,-29.06816291809082],"max":[12.310522079467773,14.501299858093262,44.17874526977539],"type":"VEC3","bufferView":0,"byteOffset":44148},{"name":"eMineBoat_Mesh.5115-Mesh_0_normals","componentType":5126,"count":311,"min":[-1,-1,-1],"max":[1,1,1],"type":"VEC3","bufferView":1,"byteOffset":44148},{"name":"eMineBoat_Mesh.5115-Mesh_0_texcoords","componentType":5126,"count":311,"min":[0.011068999767303467,0.09463199973106384],"max":[0.9888709783554077,0.9883559942245483],"type":"VEC2","bufferView":2,"byteOffset":29432},{"name":"eMineBoat_Mesh.5115-Mesh_0_indices","componentType":5123,"count":633,"min":[0],"max":[310],"type":"SCALAR","bufferView":3,"byteOffset":12812}],"asset":{"generator":"obj2gltf","version":"2.0"},"buffers":[{"name":"vtolvr_MineBoat","byteLength":141760,"uri":"data:application/octet-stream;base64,"}],"bufferViews":[{"name":"bufferView_0","buffer":0,"byteLength":47880,"byteOffset":0,"byteStride":12,"target":34962},{"name":"bufferView_1","buffer":0,"byteLength":47880,"byteOffset":47880,"byteStride":12,"target":34962},{"name":"bufferView_2","buffer":0,"byteLength":31920,"byteOffset":95760,"byteStride":8,"target":34962},{"name":"bufferView_3","buffer":0,"byteLength":14080,"byteOffset":127680,"target":34963}],"materials":[{"name":"mat_eMineBoat.002","pbrMetallicRoughness":{"baseColorFactor":[0.5,0.5,0.5,1],"metallicFactor":0,"roughnessFactor":1},"emissiveFactor":[0,0,0],"alphaMode":"OPAQUE","doubleSided":false},{"name":"mat_seaMine","pbrMetallicRoughness":{"baseColorFactor":[0.5,0.5,0.5,1],"metallicFactor":0,"roughnessFactor":1},"emissiveFactor":[0,0,0],"alphaMode":"OPAQUE","doubleSided":false}],"meshes":[{"name":"mbRadar_Mesh.5116-Mesh","primitives":[{"attributes":{"POSITION":0,"NORMAL":1,"TEXCOORD_0":2},"indices":3,"material":0,"mode":4}]},{"name":"mbRadarBase_Mesh.5117-Mesh","primitives":[{"attributes":{"POSITION":4,"NORMAL":5,"TEXCOORD_0":6},"indices":7,"material":0,"mode":4}]},{"name":"seaMine_Mesh.5118-Mesh","primitives":[{"attributes":{"POSITION":8,"NORMAL":9,"TEXCOORD_0":10},"indices":11,"material":1,"mode":4}]},{"name":"seaMine_(1)_Mesh.5119-Mesh","primitives":[{"attributes":{"POSITION":12,"NORMAL":13,"TEXCOORD_0":14},"indices":15,"material":1,"mode":4}]},{"name":"seaMine_(2)_Mesh.5120-Mesh","primitives":[{"attributes":{"POSITION":16,"NORMAL":17,"TEXCOORD_0":18},"indices":19,"material":1,"mode":4}]},{"name":"seaMine_(3)_Mesh.5121-Mesh","primitives":[{"attributes":{"POSITION":20,"NORMAL":21,"TEXCOORD_0":22},"indices":23,"material":1,"mode":4}]},{"name":"seaMine_(4)_Mesh.5122-Mesh","primitives":[{"attributes":{"POSITION":24,"NORMAL":25,"TEXCOORD_0":26},"indices":27,"material":1,"mode":4}]},{"name":"seaMine_(5)_Mesh.5123-Mesh","primitives":[{"attributes":{"POSITION":28,"NORMAL":29,"TEXCOORD_0":30},"indices":31,"material":1,"mode":4}]},{"name":"seaMine_(6)_Mesh.5124-Mesh","primitives":[{"attributes":{"POSITION":32,"NORMAL":33,"TEXCOORD_0":34},"indices":35,"material":1,"mode":4}]},{"name":"seaMine_(7)_Mesh.5125-Mesh","primitives":[{"attributes":{"POSITION":36,"NORMAL":37,"TEXCOORD_0":38},"indices":39,"material":1,"mode":4}]},{"name":"eMineBoat_Mesh.5115-Mesh","primitives":[{"attributes":{"POSITION":40,"NORMAL":41,"TEXCOORD_0":42},"indices":43,"material":0,"mode":4}]}],"nodes":[{"name":"mbRadar_Mesh.5116","mesh":0},{"name":"mbRadarBase_Mesh.5117","mesh":1},{"name":"seaMine_Mesh.5118","mesh":2},{"name":"seaMine_(1)_Mesh.5119","mesh":3},{"name":"seaMine_(2)_Mesh.5120","mesh":4},{"name":"seaMine_(3)_Mesh.5121","mesh":5},{"name":"seaMine_(4)_Mesh.5122","mesh":6},{"name":"seaMine_(5)_Mesh.5123","mesh":7},{"name":"seaMine_(6)_Mesh.5124","mesh":8},{"name":"seaMine_(7)_Mesh.5125","mesh":9},{"name":"eMineBoat_Mesh.5115","mesh":10}],"scene":0,"scenes":[{"nodes":[0,1,2,3,4,5,6,7,8,9,10]}]}