{"accessors":[{"name":"samFCRadar1_Mesh.002-Mesh_0_positions","componentType":5126,"count":198,"min":[-1.7747950553894043,0.7537209987640381,-1.6118730306625366],"max":[1.6116230487823486,7.0183939933776855,1.7744810581207275],"type":"VEC3","bufferView":0,"byteOffset":0},{"name":"samFCRadar1_Mesh.002-Mesh_0_normals","componentType":5126,"count":198,"min":[-1,-0.9999999403953552,-0.9999999403953552],"max":[1,0.9999999403953552,0.9999999403953552],"type":"VEC3","bufferView":1,"byteOffset":0},{"name":"samFCRadar1_Mesh.002-Mesh_0_texcoords","componentType":5126,"count":198,"min":[0.012311000376939774,0.01773899979889393],"max":[0.9604150056838989,0.9854059815406799],"type":"VEC2","bufferView":2,"byteOffset":0},{"name":"samFCRadar1_Mesh.002-Mesh_0_indices","componentType":5123,"count":324,"min":[0],"max":[197],"type":"SCALAR","bufferView":3,"byteOffset":0},{"name":"Cube_Mesh.003-Mesh_0_positions","componentType":5126,"count":1040,"min":[-5.299845218658447,-0.8683450222015381,-5.299871921539307],"max":[5.299845218658447,0.7651529908180237,5.29981803894043],"type":"VEC3","bufferView":0,"byteOffset":2376},{"name":"Cube_Mesh.003-Mesh_0_normals","componentType":5126,"count":1040,"min":[-1,-0.9999999403953552,-0.9999999403953552],"max":[1,0.9999999403953552,0.9999999403953552],"type":"VEC3","bufferView":1,"byteOffset":2376},{"name":"Cube_Mesh.003-Mesh_0_texcoords","componentType":5126,"count":1040,"min":[0.01056000031530857,0.007042999844998121],"max":[0.9879360198974609,0.9944440126419067],"type":"VEC2","bufferView":2,"byteOffset":1584},{"name":"Cube_Mesh.003-Mesh_0_indices","componentType":5123,"count":1692,"min":[0],"max":[1039],"type":"SCALAR","bufferView":3,"byteOffset":648}],"asset":{"generator":"obj2gltf","version":"2.0"},"buffers":[{"name":"vtolvr_SAMFCR","byteLength":43648,"uri":"data:application/octet-stream;base64,"}],"bufferViews":[{"name":"bufferView_0","buffer":0,"byteLength":14856,"byteOffset":0,"byteStride":12,"target":34962},{"name":"bufferView_1","buffer":0,"byteLength":14856,"byteOffset":14856,"byteStride":12,"target":34962},{"name":"bufferView_2","buffer":0,"byteLength":9904,"byteOffset":29712,"byteStride":8,"target":34962},{"name":"bufferView_3","buffer":0,"byteLength":4032,"byteOffset":39616,"target":34963}],"materials":[{"name":"mat_samFCR","pbrMetallicRoughness":{"baseColorFactor":[0.5,0.5,0.5,1],"metallicFactor":0,"roughnessFactor":1},"emissiveFactor":[0,0,0],"alphaMode":"OPAQUE","doubleSided":false},{"name":"mat_modularPlatform","pbrMetallicRoughness":{"baseColorFactor":[0.5,0.5,0.5,1],"metallicFactor":0,"roughnessFactor":1},"emissiveFactor":[0,0,0],"alphaMode":"OPAQUE","doubleSided":false}],"meshes":[{"name":"samFCRadar1_Mesh.002-Mesh","primitives":[{"attributes":{"POSITION":0,"NORMAL":1,"TEXCOORD_0":2},"indices":3,"material":0,"mode":4}]},{"name":"Cube_Mesh.003-Mesh","primitives":[{"attributes":{"POSITION":4,"NORMAL":5,"TEXCOORD_0":6},"indices":7,"material":1,"mode":4}]}],"nodes":[{"name":"samFCRadar1_Mesh.002","mesh":0},{"name":"Cube_Mesh.003","mesh":1}],"scene":0,"scenes":[{"nodes":[0,1]}]}