{"accessors":[{"name":"mbRadar_Mesh.3539-Mesh_0_positions","componentType":5126,"count":51,"min":[-1.9671189785003662,14.469021797180176,-3.1902170181274414],"max":[1.9671189785003662,16.228744506835938,-0.9798269867897034],"type":"VEC3","bufferView":0,"byteOffset":0},{"name":"mbRadar_Mesh.3539-Mesh_0_normals","componentType":5126,"count":51,"min":[-1,-0.9999999403953552,-0.9999999403953552],"max":[1,0.9999999403953552,0.9999999403953552],"type":"VEC3","bufferView":1,"byteOffset":0},{"name":"mbRadar_Mesh.3539-Mesh_0_texcoords","componentType":5126,"count":51,"min":[0.8408250212669373,0.027931999415159225],"max":[0.9192780256271362,0.11323200166225433],"type":"VEC2","bufferView":2,"byteOffset":0},{"name":"mbRadar_Mesh.3539-Mesh_0_indices","componentType":5123,"count":105,"min":[0],"max":[50],"type":"SCALAR","bufferView":3,"byteOffset":0},{"name":"eMineBoat_Mesh.3538-Mesh_0_positions","componentType":5126,"count":237,"min":[-12.682921409606934,-6.353096008300781,-44.11705017089844],"max":[12.682921409606934,14.501297950744629,29.068161010742188],"type":"VEC3","bufferView":0,"byteOffset":612},{"name":"eMineBoat_Mesh.3538-Mesh_0_normals","componentType":5126,"count":237,"min":[-1,-1,-0.9991509914398193],"max":[1,1,1],"type":"VEC3","bufferView":1,"byteOffset":612},{"name":"eMineBoat_Mesh.3538-Mesh_0_texcoords","componentType":5126,"count":237,"min":[0.011130000464618206,0.09463199973106384],"max":[0.9888709783554077,0.9882959723472595],"type":"VEC2","bufferView":2,"byteOffset":408},{"name":"eMineBoat_Mesh.3538-Mesh_0_indices","componentType":5123,"count":432,"min":[0],"max":[236],"type":"SCALAR","bufferView":3,"byteOffset":212},{"name":"gunBase_Mesh.3545-Mesh_0_positions","componentType":5126,"count":11,"min":[-3.050942897796631,6.312833786010742,-33.350982666015625],"max":[2.074953079223633,6.314606189727783,-28.22909927368164],"type":"VEC3","bufferView":0,"byteOffset":3456},{"name":"gunBase_Mesh.3545-Mesh_0_normals","componentType":5126,"count":11,"min":[0,0.9999999403953552,-0.00029999998514540493],"max":[0,0.9999999403953552,-0.00029999998514540493],"type":"VEC3","bufferView":1,"byteOffset":3456},{"name":"gunBase_Mesh.3545-Mesh_0_texcoords","componentType":5126,"count":11,"min":[0.823032021522522,0.01763799972832203],"max":[0.8672080039978027,0.061813998967409134],"type":"VEC2","bufferView":2,"byteOffset":2304},{"name":"gunBase_Mesh.3545-Mesh_0_indices","componentType":5123,"count":27,"min":[0],"max":[10],"type":"SCALAR","bufferView":3,"byteOffset":1076},{"name":"gunBarrels_Mesh.3547-Mesh_0_positions","componentType":5126,"count":205,"min":[-2.372659921646118,7.599487781524658,-34.28874206542969],"max":[1.3926600217819214,8.65789794921875,-29.83783531188965],"type":"VEC3","bufferView":0,"byteOffset":3588},{"name":"gunBarrels_Mesh.3547-Mesh_0_normals","componentType":5126,"count":205,"min":[-0.997002363204956,-0.9993718862533569,-1],"max":[0.9949530959129333,0.9886487126350403,0.9994805455207825],"type":"VEC3","bufferView":1,"byteOffset":3588},{"name":"gunBarrels_Mesh.3547-Mesh_0_texcoords","componentType":5126,"count":205,"min":[0.9318529963493347,0.16015399992465973],"max":[0.9778850078582764,0.20460300147533417],"type":"VEC2","bufferView":2,"byteOffset":2392},{"name":"gunBarrels_Mesh.3547-Mesh_0_indices","componentType":5123,"count":339,"min":[0],"max":[204],"type":"SCALAR","bufferView":3,"byteOffset":1132},{"name":"gunYaw_Mesh.3546-Mesh_0_positions","componentType":5126,"count":58,"min":[-2.9885311126708984,6.569479942321777,-34.3084716796875],"max":[2.008531093597412,9.637493133544922,-28.128767013549805],"type":"VEC3","bufferView":0,"byteOffset":6048},{"name":"gunYaw_Mesh.3546-Mesh_0_normals","componentType":5126,"count":58,"min":[-1,-1,-0.643960177898407],"max":[1,1,1],"type":"VEC3","bufferView":1,"byteOffset":6048},{"name":"gunYaw_Mesh.3546-Mesh_0_texcoords","componentType":5126,"count":58,"min":[0.8873909711837769,0.009645000100135803],"max":[0.9867860078811646,0.13319799304008484],"type":"VEC2","bufferView":2,"byteOffset":4032},{"name":"gunYaw_Mesh.3546-Mesh_0_indices","componentType":5123,"count":90,"min":[0],"max":[57],"type":"SCALAR","bufferView":3,"byteOffset":1812}],"asset":{"generator":"obj2gltf","version":"2.0"},"buffers":[{"name":"vtolvr_DroneGunBoat","byteLength":19976,"uri":"data:application/octet-stream;base64,"}],"bufferViews":[{"name":"bufferView_0","buffer":0,"byteLength":6744,"byteOffset":0,"byteStride":12,"target":34962},{"name":"bufferView_1","buffer":0,"byteLength":6744,"byteOffset":6744,"byteStride":12,"target":34962},{"name":"bufferView_2","buffer":0,"byteLength":4496,"byteOffset":13488,"byteStride":8,"target":34962},{"name":"bufferView_3","buffer":0,"byteLength":1992,"byteOffset":17984,"target":34963}],"materials":[{"name":"mat_eMineBoat","pbrMetallicRoughness":{"baseColorFactor":[0.5,0.5,0.5,1],"metallicFactor":0,"roughnessFactor":1},"emissiveFactor":[0,0,0],"alphaMode":"OPAQUE","doubleSided":false},{"name":"mat_eDroneCarrier.003","pbrMetallicRoughness":{"baseColorFactor":[0.5,0.5,0.5,1],"metallicFactor":0,"roughnessFactor":1},"emissiveFactor":[0,0,0],"alphaMode":"OPAQUE","doubleSided":false}],"meshes":[{"name":"mbRadar_Mesh.3539-Mesh","primitives":[{"attributes":{"POSITION":0,"NORMAL":1,"TEXCOORD_0":2},"indices":3,"material":0,"mode":4}]},{"name":"eMineBoat_Mesh.3538-Mesh","primitives":[{"attributes":{"POSITION":4,"NORMAL":5,"TEXCOORD_0":6},"indices":7,"material":0,"mode":4}]},{"name":"gunBase_Mesh.3545-Mesh","primitives":[{"attributes":{"POSITION":8,"NORMAL":9,"TEXCOORD_0":10},"indices":11,"material":1,"mode":4}]},{"name":"gunBarrels_Mesh.3547-Mesh","primitives":[{"attributes":{"POSITION":12,"NORMAL":13,"TEXCOORD_0":14},"indices":15,"material":1,"mode":4}]},{"name":"gunYaw_Mesh.3546-Mesh","primitives":[{"attributes":{"POSITION":16,"NORMAL":17,"TEXCOORD_0":18},"indices":19,"material":1,"mode":4}]}],"nodes":[{"name":"mbRadar_Mesh.3539","mesh":0},{"name":"eMineBoat_Mesh.3538","mesh":1},{"name":"gunBase_Mesh.3545","mesh":2},{"name":"gunBarrels_Mesh.3547","mesh":3},{"name":"gunYaw_Mesh.3546","mesh":4}],"scene":0,"scenes":[{"nodes":[0,1,2,3,4]}]}