{"accessors":[{"name":"Cube_Mesh.2141-Mesh_0_positions","componentType":5126,"count":1859,"min":[-1.1798269748687744,0.3858009874820709,-2.4966540336608887],"max":[1.1798269748687744,1.828974962234497,2.148547887802124],"type":"VEC3","bufferView":0,"byteOffset":0},{"name":"Cube_Mesh.2141-Mesh_0_normals","componentType":5126,"count":1859,"min":[-1,-1,-1],"max":[1,1,1],"type":"VEC3","bufferView":1,"byteOffset":0},{"name":"Cube_Mesh.2141-Mesh_0_texcoords","componentType":5126,"count":1859,"min":[0.006209999788552523,0.009277000091969967],"max":[0.7915040254592896,0.9937899708747864],"type":"VEC2","bufferView":2,"byteOffset":0},{"name":"Cube_Mesh.2141-Mesh_0_indices","componentType":5123,"count":3552,"min":[0],"max":[1858],"type":"SCALAR","bufferView":3,"byteOffset":0},{"name":"Cube.003_Mesh.2142-Mesh_0_positions","componentType":5126,"count":16,"min":[-0.7521979808807373,0.877232015132904,-2.1991450786590576],"max":[0.7521979808807373,1.3109370470046997,-0.4373350143432617],"type":"VEC3","bufferView":0,"byteOffset":22308},{"name":"Cube.003_Mesh.2142-Mesh_0_normals","componentType":5126,"count":16,"min":[-1,0,-0.9999999403953552],"max":[1,0.9999999403953552,0.00029999998514540493],"type":"VEC3","bufferView":1,"byteOffset":22308},{"name":"Cube.003_Mesh.2142-Mesh_0_texcoords","componentType":5126,"count":16,"min":[0.5543500185012817,0.09923700243234634],"max":[0.8067830204963684,0.3718940019607544],"type":"VEC2","bufferView":2,"byteOffset":14872},{"name":"Cube.003_Mesh.2142-Mesh_0_indices","componentType":5123,"count":24,"min":[0],"max":[15],"type":"SCALAR","bufferView":3,"byteOffset":7104},{"name":"Cylinder_Mesh.2143-Mesh_0_positions","componentType":5126,"count":697,"min":[-1.1458909511566162,-0.0009139999747276306,1.1521719694137573],"max":[1.1458909511566162,0.9479809999465942,2.1085939407348633],"type":"VEC3","bufferView":0,"byteOffset":22500},{"name":"Cylinder_Mesh.2143-Mesh_0_normals","componentType":5126,"count":697,"min":[-1,-0.9965903162956238,-0.999940812587738],"max":[1,0.9998050928115845,0.9999789595603943],"type":"VEC3","bufferView":1,"byteOffset":22500},{"name":"Cylinder_Mesh.2143-Mesh_0_texcoords","componentType":5126,"count":697,"min":[0.703125,0.34053099155426025],"max":[0.973143994808197,0.9900209903717041],"type":"VEC2","bufferView":2,"byteOffset":15000},{"name":"Cylinder_Mesh.2143-Mesh_0_indices","componentType":5123,"count":1932,"min":[0],"max":[696],"type":"SCALAR","bufferView":3,"byteOffset":7152},{"name":"Cylinder.001_Mesh.2144-Mesh_0_positions","componentType":5126,"count":698,"min":[-1.1458909511566162,-0.0009130000253207982,-2.213521957397461],"max":[1.1458909511566162,0.9479809999465942,-1.257099986076355],"type":"VEC3","bufferView":0,"byteOffset":30864},{"name":"Cylinder.001_Mesh.2144-Mesh_0_normals","componentType":5126,"count":698,"min":[-1,-0.9965903162956238,-0.999940812587738],"max":[1,0.9998050928115845,0.9999789595603943],"type":"VEC3","bufferView":1,"byteOffset":30864},{"name":"Cylinder.001_Mesh.2144-Mesh_0_texcoords","componentType":5126,"count":698,"min":[0.703125,0.34053099155426025],"max":[0.973143994808197,0.9900209903717041],"type":"VEC2","bufferView":2,"byteOffset":20576},{"name":"Cylinder.001_Mesh.2144-Mesh_0_indices","componentType":5123,"count":1932,"min":[0],"max":[697],"type":"SCALAR","bufferView":3,"byteOffset":11016},{"name":"missilePitch_Mesh.2147-Mesh_0_positions","componentType":5126,"count":636,"min":[-1.0054049491882324,1.5784670114517212,-2.1003990173339844],"max":[1.0054049491882324,2.5809760093688965,-0.5560590028762817],"type":"VEC3","bufferView":0,"byteOffset":39240},{"name":"missilePitch_Mesh.2147-Mesh_0_normals","componentType":5126,"count":636,"min":[-1,-1,-1],"max":[1,1,1],"type":"VEC3","bufferView":1,"byteOffset":39240},{"name":"missilePitch_Mesh.2147-Mesh_0_texcoords","componentType":5126,"count":636,"min":[0.0338129997253418,0.479981005191803],"max":[0.6396480202674866,0.9807130098342896],"type":"VEC2","bufferView":2,"byteOffset":26160},{"name":"missilePitch_Mesh.2147-Mesh_0_indices","componentType":5123,"count":1044,"min":[0],"max":[635],"type":"SCALAR","bufferView":3,"byteOffset":14880},{"name":"gunPitch_Mesh.2156-Mesh_0_positions","componentType":5126,"count":336,"min":[-0.352851003408432,1.97645103931427,-1.605762004852295],"max":[0.3528499901294708,2.4549500942230225,-0.1303499937057495],"type":"VEC3","bufferView":0,"byteOffset":46872},{"name":"gunPitch_Mesh.2156-Mesh_0_normals","componentType":5126,"count":336,"min":[-1,-1,-1],"max":[1,1,1],"type":"VEC3","bufferView":1,"byteOffset":46872},{"name":"gunPitch_Mesh.2156-Mesh_0_texcoords","componentType":5126,"count":336,"min":[0.6308590173721313,0.09570299834012985],"max":[0.9438480138778687,0.4145509898662567],"type":"VEC2","bufferView":2,"byteOffset":31248},{"name":"gunPitch_Mesh.2156-Mesh_0_indices","componentType":5123,"count":594,"min":[0],"max":[335],"type":"SCALAR","bufferView":3,"byteOffset":16968},{"name":"turretYaw_Mesh.2146-Mesh_0_positions","componentType":5126,"count":94,"min":[-0.5110960006713867,1.3106319904327393,-2.096328020095825],"max":[0.5110960006713867,2.4576549530029297,-0.5743380188941956],"type":"VEC3","bufferView":0,"byteOffset":50904},{"name":"turretYaw_Mesh.2146-Mesh_0_normals","componentType":5126,"count":94,"min":[-1,-1,-1],"max":[1,1,1],"type":"VEC3","bufferView":1,"byteOffset":50904},{"name":"turretYaw_Mesh.2146-Mesh_0_texcoords","componentType":5126,"count":94,"min":[0.023086000233888626,0.015279999934136868],"max":[0.9090240001678467,0.9641469717025757],"type":"VEC2","bufferView":2,"byteOffset":33936},{"name":"turretYaw_Mesh.2146-Mesh_0_indices","componentType":5123,"count":168,"min":[0],"max":[93],"type":"SCALAR","bufferView":3,"byteOffset":18156}],"asset":{"generator":"obj2gltf","version":"2.0"},"buffers":[{"name":"vtolvr_SRADTruck","byteLength":157244,"uri":"data:application/octet-stream;base64,"}],"bufferViews":[{"name":"bufferView_0","buffer":0,"byteLength":52032,"byteOffset":0,"byteStride":12,"target":34962},{"name":"bufferView_1","buffer":0,"byteLength":52032,"byteOffset":52032,"byteStride":12,"target":34962},{"name":"bufferView_2","buffer":0,"byteLength":34688,"byteOffset":104064,"byteStride":8,"target":34962},{"name":"bufferView_3","buffer":0,"byteLength":18492,"byteOffset":138752,"target":34963}],"materials":[{"name":"mat_flatbedHumvee","pbrMetallicRoughness":{"baseColorFactor":[0.5,0.5,0.5,1],"metallicFactor":0,"roughnessFactor":1},"emissiveFactor":[0,0,0],"alphaMode":"OPAQUE","doubleSided":false},{"name":"mat_hvAvenger","pbrMetallicRoughness":{"baseColorFactor":[0.5,0.5,0.5,1],"metallicFactor":0,"roughnessFactor":1},"emissiveFactor":[0,0,0],"alphaMode":"OPAQUE","doubleSided":false}],"meshes":[{"name":"Cube_Mesh.2141-Mesh","primitives":[{"attributes":{"POSITION":0,"NORMAL":1,"TEXCOORD_0":2},"indices":3,"material":0,"mode":4}]},{"name":"Cube.003_Mesh.2142-Mesh","primitives":[{"attributes":{"POSITION":4,"NORMAL":5,"TEXCOORD_0":6},"indices":7,"material":0,"mode":4}]},{"name":"Cylinder_Mesh.2143-Mesh","primitives":[{"attributes":{"POSITION":8,"NORMAL":9,"TEXCOORD_0":10},"indices":11,"material":0,"mode":4}]},{"name":"Cylinder.001_Mesh.2144-Mesh","primitives":[{"attributes":{"POSITION":12,"NORMAL":13,"TEXCOORD_0":14},"indices":15,"material":0,"mode":4}]},{"name":"missilePitch_Mesh.2147-Mesh","primitives":[{"attributes":{"POSITION":16,"NORMAL":17,"TEXCOORD_0":18},"indices":19,"material":1,"mode":4}]},{"name":"gunPitch_Mesh.2156-Mesh","primitives":[{"attributes":{"POSITION":20,"NORMAL":21,"TEXCOORD_0":22},"indices":23,"material":1,"mode":4}]},{"name":"turretYaw_Mesh.2146-Mesh","primitives":[{"attributes":{"POSITION":24,"NORMAL":25,"TEXCOORD_0":26},"indices":27,"material":1,"mode":4}]}],"nodes":[{"name":"Cube_Mesh.2141","mesh":0},{"name":"Cube.003_Mesh.2142","mesh":1},{"name":"Cylinder_Mesh.2143","mesh":2},{"name":"Cylinder.001_Mesh.2144","mesh":3},{"name":"missilePitch_Mesh.2147","mesh":4},{"name":"gunPitch_Mesh.2156","mesh":5},{"name":"turretYaw_Mesh.2146","mesh":6}],"scene":0,"scenes":[{"nodes":[0,1,2,3,4,5,6]}]}