{"accessors":[{"name":"elevator_Mesh.023-Mesh_0_positions","componentType":5126,"count":80,"min":[-3.059544086456299,-0.02331800013780594,-3.7717080116271973],"max":[3.059544086456299,0.02621600031852722,-2.460469961166382],"type":"VEC3","bufferView":0,"byteOffset":0},{"name":"elevator_Mesh.023-Mesh_0_normals","componentType":5126,"count":80,"min":[-1,-0.9999338984489441,-0.7071067690849304],"max":[1,0.9999403953552246,0.985615611076355],"type":"VEC3","bufferView":1,"byteOffset":0},{"name":"elevator_Mesh.023-Mesh_0_texcoords","componentType":5126,"count":80,"min":[0.5762109756469727,0.011346999555826187],"max":[0.6977810263633728,0.17421799898147583],"type":"VEC2","bufferView":2,"byteOffset":0},{"name":"elevator_Mesh.023-Mesh_0_indices","componentType":5123,"count":192,"min":[0],"max":[79],"type":"SCALAR","bufferView":3,"byteOffset":0},{"name":"aileronRight_Mesh.025-Mesh_0_positions","componentType":5126,"count":46,"min":[-6.941661834716797,-0.08982100337743759,-5.031364917755127],"max":[-4.595981121063232,0.09334199875593185,-2.685667037963867],"type":"VEC3","bufferView":0,"byteOffset":960},{"name":"aileronRight_Mesh.025-Mesh_0_normals","componentType":5126,"count":46,"min":[-0.7071067690849304,-0.9999207258224487,-0.7075066566467285],"max":[0.7071067690849304,0.9999144077301025,0.7072067260742188],"type":"VEC3","bufferView":1,"byteOffset":960},{"name":"aileronRight_Mesh.025-Mesh_0_texcoords","componentType":5126,"count":46,"min":[0.8473460078239441,0.2819800078868866],"max":[0.9475169777870178,0.4880580008029938],"type":"VEC2","bufferView":2,"byteOffset":640},{"name":"aileronRight_Mesh.025-Mesh_0_indices","componentType":5123,"count":108,"min":[0],"max":[45],"type":"SCALAR","bufferView":3,"byteOffset":384},{"name":"foldWing_Mesh.024-Mesh_0_positions","componentType":5126,"count":122,"min":[-7.036211967468262,-0.09955000132322311,-5.125916004180908],"max":[-3.8056700229644775,0.10210499912500381,1.0361590385437012],"type":"VEC3","bufferView":0,"byteOffset":1512},{"name":"foldWing_Mesh.024-Mesh_0_normals","componentType":5126,"count":122,"min":[-1,-0.9999999403953552,-0.9999999403953552],"max":[1,0.9999999403953552,0.9999999403953552],"type":"VEC3","bufferView":1,"byteOffset":1512},{"name":"foldWing_Mesh.024-Mesh_0_texcoords","componentType":5126,"count":122,"min":[0.5773509740829468,0.6229140162467957],"max":[0.99652498960495,0.9892669916152954],"type":"VEC2","bufferView":2,"byteOffset":1008},{"name":"foldWing_Mesh.024-Mesh_0_indices","componentType":5123,"count":288,"min":[0],"max":[121],"type":"SCALAR","bufferView":3,"byteOffset":600},{"name":"aileronLeft_Mesh.027-Mesh_0_positions","componentType":5126,"count":46,"min":[4.595980167388916,-0.08982100337743759,-5.031365871429443],"max":[6.9416608810424805,0.09334199875593185,-2.6856679916381836],"type":"VEC3","bufferView":0,"byteOffset":2976},{"name":"aileronLeft_Mesh.027-Mesh_0_normals","componentType":5126,"count":46,"min":[-0.7071067690849304,-0.9999207258224487,-0.7071067690849304],"max":[0.7073067426681519,0.9999144077301025,0.7072067260742188],"type":"VEC3","bufferView":1,"byteOffset":2976},{"name":"aileronLeft_Mesh.027-Mesh_0_texcoords","componentType":5126,"count":46,"min":[0.8473460078239441,0.2819800078868866],"max":[0.9475169777870178,0.4880580008029938],"type":"VEC2","bufferView":2,"byteOffset":1984},{"name":"aileronLeft_Mesh.027-Mesh_0_indices","componentType":5123,"count":108,"min":[0],"max":[45],"type":"SCALAR","bufferView":3,"byteOffset":1176},{"name":"foldWingLeft_Mesh.026-Mesh_0_positions","componentType":5126,"count":122,"min":[3.805670976638794,-0.09955000132322311,-5.125916957855225],"max":[7.036212921142578,0.10210499912500381,1.0361590385437012],"type":"VEC3","bufferView":0,"byteOffset":3528},{"name":"foldWingLeft_Mesh.026-Mesh_0_normals","componentType":5126,"count":122,"min":[-1,-0.9999999403953552,-0.9999999403953552],"max":[1,0.9999999403953552,0.9999999403953552],"type":"VEC3","bufferView":1,"byteOffset":3528},{"name":"foldWingLeft_Mesh.026-Mesh_0_texcoords","componentType":5126,"count":122,"min":[0.5773509740829468,0.6229140162467957],"max":[0.99652498960495,0.9892669916152954],"type":"VEC2","bufferView":2,"byteOffset":2352},{"name":"foldWingLeft_Mesh.026-Mesh_0_indices","componentType":5123,"count":288,"min":[0],"max":[121],"type":"SCALAR","bufferView":3,"byteOffset":1392},{"name":"rudderLeft_Mesh.029-Mesh_0_positions","componentType":5126,"count":38,"min":[0.9522119760513306,0.6645330190658569,-3.3095109462738037],"max":[1.9762519598007202,1.8073790073394775,-2.407238006591797],"type":"VEC3","bufferView":0,"byteOffset":4992},{"name":"rudderLeft_Mesh.029-Mesh_0_normals","componentType":5126,"count":38,"min":[-0.7567819356918335,-0.7477182149887085,-0.9580307006835938],"max":[0.781889021396637,0.7477182149887085,0.9134057760238647],"type":"VEC3","bufferView":1,"byteOffset":4992},{"name":"rudderLeft_Mesh.029-Mesh_0_texcoords","componentType":5126,"count":38,"min":[0.8215140104293823,0.15065200626850128],"max":[0.8886650204658508,0.26672399044036865],"type":"VEC2","bufferView":2,"byteOffset":3328},{"name":"rudderLeft_Mesh.029-Mesh_0_indices","componentType":5123,"count":84,"min":[0],"max":[37],"type":"SCALAR","bufferView":3,"byteOffset":1968},{"name":"rudderRight_Mesh.030-Mesh_0_positions","componentType":5126,"count":38,"min":[-1.9762510061264038,0.6645330190658569,-3.3095099925994873],"max":[-0.9522110223770142,1.8073790073394775,-2.407238006591797],"type":"VEC3","bufferView":0,"byteOffset":5448},{"name":"rudderRight_Mesh.030-Mesh_0_normals","componentType":5126,"count":38,"min":[-0.7818745970726013,-0.7477182149887085,-0.9580512046813965],"max":[0.7567819356918335,0.7477182149887085,0.9133967161178589],"type":"VEC3","bufferView":1,"byteOffset":5448},{"name":"rudderRight_Mesh.030-Mesh_0_texcoords","componentType":5126,"count":38,"min":[0.8215140104293823,0.15065200626850128],"max":[0.8886650204658508,0.26672399044036865],"type":"VEC2","bufferView":2,"byteOffset":3632},{"name":"rudderRight_Mesh.030-Mesh_0_indices","componentType":5123,"count":84,"min":[0],"max":[37],"type":"SCALAR","bufferView":3,"byteOffset":2136},{"name":"enemyUcav_Mesh.022-Mesh_0_positions","componentType":5126,"count":1948,"min":[-3.9337000846862793,-0.7483689785003662,-3.3459479808807373],"max":[3.9337000846862793,1.8985300064086914,4.969988822937012],"type":"VEC3","bufferView":0,"byteOffset":5904},{"name":"enemyUcav_Mesh.022-Mesh_0_normals","componentType":5126,"count":1948,"min":[-1,-0.9999999403953552,-1],"max":[1,1,1],"type":"VEC3","bufferView":1,"byteOffset":5904},{"name":"enemyUcav_Mesh.022-Mesh_0_texcoords","componentType":5126,"count":1948,"min":[0.0009239999926649034,0.019696999341249466],"max":[0.9120330214500427,0.9995070099830627],"type":"VEC2","bufferView":2,"byteOffset":3936},{"name":"enemyUcav_Mesh.022-Mesh_0_indices","componentType":5123,"count":4191,"min":[0],"max":[1947],"type":"SCALAR","bufferView":3,"byteOffset":2304}],"asset":{"generator":"obj2gltf","version":"2.0"},"buffers":[{"name":"vtolvr_aiucav","byteLength":88768,"uri":"data:application/octet-stream;base64,"}],"bufferViews":[{"name":"bufferView_0","buffer":0,"byteLength":29280,"byteOffset":0,"byteStride":12,"target":34962},{"name":"bufferView_1","buffer":0,"byteLength":29280,"byteOffset":29280,"byteStride":12,"target":34962},{"name":"bufferView_2","buffer":0,"byteLength":19520,"byteOffset":58560,"byteStride":8,"target":34962},{"name":"bufferView_3","buffer":0,"byteLength":10688,"byteOffset":78080,"target":34963}],"materials":[{"name":"mat_eucav","pbrMetallicRoughness":{"baseColorFactor":[0.5,0.5,0.5,1],"metallicFactor":0,"roughnessFactor":1},"emissiveFactor":[0,0,0],"alphaMode":"OPAQUE","doubleSided":false}],"meshes":[{"name":"elevator_Mesh.023-Mesh","primitives":[{"attributes":{"POSITION":0,"NORMAL":1,"TEXCOORD_0":2},"indices":3,"material":0,"mode":4}]},{"name":"aileronRight_Mesh.025-Mesh","primitives":[{"attributes":{"POSITION":4,"NORMAL":5,"TEXCOORD_0":6},"indices":7,"material":0,"mode":4}]},{"name":"foldWing_Mesh.024-Mesh","primitives":[{"attributes":{"POSITION":8,"NORMAL":9,"TEXCOORD_0":10},"indices":11,"material":0,"mode":4}]},{"name":"aileronLeft_Mesh.027-Mesh","primitives":[{"attributes":{"POSITION":12,"NORMAL":13,"TEXCOORD_0":14},"indices":15,"material":0,"mode":4}]},{"name":"foldWingLeft_Mesh.026-Mesh","primitives":[{"attributes":{"POSITION":16,"NORMAL":17,"TEXCOORD_0":18},"indices":19,"material":0,"mode":4}]},{"name":"rudderLeft_Mesh.029-Mesh","primitives":[{"attributes":{"POSITION":20,"NORMAL":21,"TEXCOORD_0":22},"indices":23,"material":0,"mode":4}]},{"name":"rudderRight_Mesh.030-Mesh","primitives":[{"attributes":{"POSITION":24,"NORMAL":25,"TEXCOORD_0":26},"indices":27,"material":0,"mode":4}]},{"name":"enemyUcav_Mesh.022-Mesh","primitives":[{"attributes":{"POSITION":28,"NORMAL":29,"TEXCOORD_0":30},"indices":31,"material":0,"mode":4}]}],"nodes":[{"name":"elevator_Mesh.023","mesh":0},{"name":"aileronRight_Mesh.025","mesh":1},{"name":"foldWing_Mesh.024","mesh":2},{"name":"aileronLeft_Mesh.027","mesh":3},{"name":"foldWingLeft_Mesh.026","mesh":4},{"name":"rudderLeft_Mesh.029","mesh":5},{"name":"rudderRight_Mesh.030","mesh":6},{"name":"enemyUcav_Mesh.022","mesh":7}],"scene":0,"scenes":[{"nodes":[0,1,2,3,4,5,6,7]}]}