{"accessors":[{"name":"elevator_Mesh.001-Mesh_0_positions","componentType":5126,"count":34,"min":[-3.061232089996338,-0.023103000596165657,2.4549739360809326],"max":[3.061232089996338,0.02621700055897236,3.771789073944092],"type":"VEC3","bufferView":0,"byteOffset":0},{"name":"elevator_Mesh.001-Mesh_0_normals","componentType":5126,"count":34,"min":[-1,-0.9998674392700195,-0.9999942779541016],"max":[1,0.9999448657035828,0.7071067690849304],"type":"VEC3","bufferView":1,"byteOffset":0},{"name":"elevator_Mesh.001-Mesh_0_texcoords","componentType":5126,"count":34,"min":[0.5762109756469727,0.011695999652147293],"max":[0.6975799798965454,0.17421799898147583],"type":"VEC2","bufferView":2,"byteOffset":0},{"name":"elevator_Mesh.001-Mesh_0_indices","componentType":5123,"count":54,"min":[0],"max":[33],"type":"SCALAR","bufferView":3,"byteOffset":0},{"name":"aileronRight_Mesh.004-Mesh_0_positions","componentType":5126,"count":20,"min":[4.595980167388916,-0.08109000325202942,2.6694140434265137],"max":[6.959693908691406,0.08458399772644043,5.031365871429443],"type":"VEC3","bufferView":0,"byteOffset":408},{"name":"aileronRight_Mesh.004-Mesh_0_normals","componentType":5126,"count":20,"min":[-0.7071067690849304,-0.9974361062049866,-0.7071067690849304],"max":[0.7071067690849304,0.9998698830604553,0.7071067690849304],"type":"VEC3","bufferView":1,"byteOffset":408},{"name":"aileronRight_Mesh.004-Mesh_0_texcoords","componentType":5126,"count":20,"min":[0.8474869728088379,0.2829729914665222],"max":[0.9479479789733887,0.48706600069999695],"type":"VEC2","bufferView":2,"byteOffset":272},{"name":"aileronRight_Mesh.004-Mesh_0_indices","componentType":5123,"count":30,"min":[0],"max":[19],"type":"SCALAR","bufferView":3,"byteOffset":108},{"name":"foldWing_Mesh.001-Mesh_0_positions","componentType":5126,"count":53,"min":[3.8056700229644775,-0.1259779930114746,-1.0392019748687744],"max":[7.037381172180176,0.12739799916744232,5.1279730796813965],"type":"VEC3","bufferView":0,"byteOffset":648},{"name":"foldWing_Mesh.001-Mesh_0_normals","componentType":5126,"count":53,"min":[-1,-0.9999999403953552,-0.7071067690849304],"max":[1,0.9999646544456482,0.7071067690849304],"type":"VEC3","bufferView":1,"byteOffset":648},{"name":"foldWing_Mesh.001-Mesh_0_texcoords","componentType":5126,"count":53,"min":[0.5787010192871094,0.6229140162467957],"max":[0.99652498960495,0.9880149960517883],"type":"VEC2","bufferView":2,"byteOffset":432},{"name":"foldWing_Mesh.001-Mesh_0_indices","componentType":5123,"count":81,"min":[0],"max":[52],"type":"SCALAR","bufferView":3,"byteOffset":168},{"name":"aileronLeft_Mesh.004-Mesh_0_positions","componentType":5126,"count":20,"min":[-6.959693908691406,-0.08109000325202942,2.6694140434265137],"max":[-4.595980167388916,0.08458399772644043,5.031365871429443],"type":"VEC3","bufferView":0,"byteOffset":1284},{"name":"aileronLeft_Mesh.004-Mesh_0_normals","componentType":5126,"count":20,"min":[-0.7071067690849304,-0.9974361062049866,-0.7071067690849304],"max":[0.7071067690849304,0.9998698830604553,0.7071067690849304],"type":"VEC3","bufferView":1,"byteOffset":1284},{"name":"aileronLeft_Mesh.004-Mesh_0_texcoords","componentType":5126,"count":20,"min":[0.8474869728088379,0.2829729914665222],"max":[0.9479479789733887,0.48706600069999695],"type":"VEC2","bufferView":2,"byteOffset":856},{"name":"aileronLeft_Mesh.004-Mesh_0_indices","componentType":5123,"count":30,"min":[0],"max":[19],"type":"SCALAR","bufferView":3,"byteOffset":332},{"name":"foldWingLeft_Mesh.001-Mesh_0_positions","componentType":5126,"count":53,"min":[-7.037382125854492,-0.1259779930114746,-1.0392019748687744],"max":[-3.805670976638794,0.12739799916744232,5.1279730796813965],"type":"VEC3","bufferView":0,"byteOffset":1524},{"name":"foldWingLeft_Mesh.001-Mesh_0_normals","componentType":5126,"count":53,"min":[-1,-0.9999999403953552,-0.7071067690849304],"max":[1,0.9999646544456482,0.7071067690849304],"type":"VEC3","bufferView":1,"byteOffset":1524},{"name":"foldWingLeft_Mesh.001-Mesh_0_texcoords","componentType":5126,"count":53,"min":[0.5787010192871094,0.6229140162467957],"max":[0.99652498960495,0.9880149960517883],"type":"VEC2","bufferView":2,"byteOffset":1016},{"name":"foldWingLeft_Mesh.001-Mesh_0_indices","componentType":5123,"count":81,"min":[0],"max":[52],"type":"SCALAR","bufferView":3,"byteOffset":392},{"name":"rudderLeft_Mesh.002-Mesh_0_positions","componentType":5126,"count":18,"min":[-1.9748280048370361,0.669609010219574,2.405791997909546],"max":[-0.9537540078163147,1.8024849891662598,3.3102169036865234],"type":"VEC3","bufferView":0,"byteOffset":2160},{"name":"rudderLeft_Mesh.002-Mesh_0_normals","componentType":5126,"count":18,"min":[-0.7657589912414551,-0.7477181553840637,-0.08349945396184921],"max":[0.7516051530838013,0.7477181553840637,0.9580307006835938],"type":"VEC3","bufferView":1,"byteOffset":2160},{"name":"rudderLeft_Mesh.002-Mesh_0_texcoords","componentType":5126,"count":18,"min":[0.8217489719390869,0.15152500569820404],"max":[0.888604998588562,0.26630300283432007],"type":"VEC2","bufferView":2,"byteOffset":1440},{"name":"rudderLeft_Mesh.002-Mesh_0_indices","componentType":5123,"count":24,"min":[0],"max":[17],"type":"SCALAR","bufferView":3,"byteOffset":556},{"name":"rudderRight_Mesh.002-Mesh_0_positions","componentType":5126,"count":18,"min":[0.9579330086708069,0.6658989787101746,2.4057819843292236],"max":[1.970747947692871,1.806107997894287,3.3102169036865234],"type":"VEC3","bufferView":0,"byteOffset":2376},{"name":"rudderRight_Mesh.002-Mesh_0_normals","componentType":5126,"count":18,"min":[-0.7516051530838013,-0.7477181553840637,-0.08349945396184921],"max":[0.7657589912414551,0.7477182149887085,0.9580307006835938],"type":"VEC3","bufferView":1,"byteOffset":2376},{"name":"rudderRight_Mesh.002-Mesh_0_texcoords","componentType":5126,"count":18,"min":[0.8217489719390869,0.15152500569820404],"max":[0.888604998588562,0.26672399044036865],"type":"VEC2","bufferView":2,"byteOffset":1584},{"name":"rudderRight_Mesh.002-Mesh_0_indices","componentType":5123,"count":24,"min":[0],"max":[17],"type":"SCALAR","bufferView":3,"byteOffset":604},{"name":"enemyUcav_Mesh.001-Mesh_0_positions","componentType":5126,"count":1216,"min":[-3.9337000846862793,-0.7483680248260498,-4.9723219871521],"max":[3.9337000846862793,1.8970869779586792,3.3459479808807373],"type":"VEC3","bufferView":0,"byteOffset":2592},{"name":"enemyUcav_Mesh.001-Mesh_0_normals","componentType":5126,"count":1216,"min":[-1,-0.9999999403953552,-0.9999999403953552],"max":[1,0.9999999403953552,0.9999999403953552],"type":"VEC3","bufferView":1,"byteOffset":2592},{"name":"enemyUcav_Mesh.001-Mesh_0_texcoords","componentType":5126,"count":1216,"min":[0.003684000112116337,0.019633999094367027],"max":[0.9120330214500427,0.9995070099830627],"type":"VEC2","bufferView":2,"byteOffset":1728},{"name":"enemyUcav_Mesh.001-Mesh_0_indices","componentType":5123,"count":2586,"min":[0],"max":[1215],"type":"SCALAR","bufferView":3,"byteOffset":652}],"asset":{"generator":"obj2gltf","version":"2.0"},"buffers":[{"name":"vtolvr_AIUCAV_enemy","byteLength":51648,"uri":"data:application/octet-stream;base64,"}],"bufferViews":[{"name":"bufferView_0","buffer":0,"byteLength":17184,"byteOffset":0,"byteStride":12,"target":34962},{"name":"bufferView_1","buffer":0,"byteLength":17184,"byteOffset":17184,"byteStride":12,"target":34962},{"name":"bufferView_2","buffer":0,"byteLength":11456,"byteOffset":34368,"byteStride":8,"target":34962},{"name":"bufferView_3","buffer":0,"byteLength":5824,"byteOffset":45824,"target":34963}],"materials":[{"name":"mat_eucav.003","pbrMetallicRoughness":{"baseColorFactor":[0.5,0.5,0.5,1],"metallicFactor":0,"roughnessFactor":1},"emissiveFactor":[0,0,0],"alphaMode":"OPAQUE","doubleSided":false}],"meshes":[{"name":"elevator_Mesh.001-Mesh","primitives":[{"attributes":{"POSITION":0,"NORMAL":1,"TEXCOORD_0":2},"indices":3,"material":0,"mode":4}]},{"name":"aileronRight_Mesh.004-Mesh","primitives":[{"attributes":{"POSITION":4,"NORMAL":5,"TEXCOORD_0":6},"indices":7,"material":0,"mode":4}]},{"name":"foldWing_Mesh.001-Mesh","primitives":[{"attributes":{"POSITION":8,"NORMAL":9,"TEXCOORD_0":10},"indices":11,"material":0,"mode":4}]},{"name":"aileronLeft_Mesh.004-Mesh","primitives":[{"attributes":{"POSITION":12,"NORMAL":13,"TEXCOORD_0":14},"indices":15,"material":0,"mode":4}]},{"name":"foldWingLeft_Mesh.001-Mesh","primitives":[{"attributes":{"POSITION":16,"NORMAL":17,"TEXCOORD_0":18},"indices":19,"material":0,"mode":4}]},{"name":"rudderLeft_Mesh.002-Mesh","primitives":[{"attributes":{"POSITION":20,"NORMAL":21,"TEXCOORD_0":22},"indices":23,"material":0,"mode":4}]},{"name":"rudderRight_Mesh.002-Mesh","primitives":[{"attributes":{"POSITION":24,"NORMAL":25,"TEXCOORD_0":26},"indices":27,"material":0,"mode":4}]},{"name":"enemyUcav_Mesh.001-Mesh","primitives":[{"attributes":{"POSITION":28,"NORMAL":29,"TEXCOORD_0":30},"indices":31,"material":0,"mode":4}]}],"nodes":[{"name":"elevator_Mesh.001","mesh":0},{"name":"aileronRight_Mesh.004","mesh":1},{"name":"foldWing_Mesh.001","mesh":2},{"name":"aileronLeft_Mesh.004","mesh":3},{"name":"foldWingLeft_Mesh.001","mesh":4},{"name":"rudderLeft_Mesh.002","mesh":5},{"name":"rudderRight_Mesh.002","mesh":6},{"name":"enemyUcav_Mesh.001","mesh":7}],"scene":0,"scenes":[{"nodes":[0,1,2,3,4,5,6,7]}]}