{"accessors":[{"name":"hydroPiston.LOD_Mesh.435-Mesh_0_positions","componentType":5126,"count":48,"min":[-0.714851975440979,1.8228780031204224,2.090056896209717],"max":[0.7148510217666626,2.1198179721832275,4.316455841064453],"type":"VEC3","bufferView":0,"byteOffset":0},{"name":"hydroPiston.LOD_Mesh.435-Mesh_0_normals","componentType":5126,"count":48,"min":[-1,-0.9205995798110962,-0.9964576363563538],"max":[1,0.9205995798110962,0.07769996672868729],"type":"VEC3","bufferView":1,"byteOffset":0},{"name":"hydroPiston.LOD_Mesh.435-Mesh_0_texcoords","componentType":5126,"count":48,"min":[0.456061989068985,0.3694959878921509],"max":[0.7556099891662598,0.4430469870567322],"type":"VEC2","bufferView":2,"byteOffset":0},{"name":"hydroPiston.LOD_Mesh.435-Mesh_0_indices","componentType":5123,"count":60,"min":[0],"max":[47],"type":"SCALAR","bufferView":3,"byteOffset":0},{"name":"hydroPiston_Mesh.434-Mesh_0_positions","componentType":5126,"count":61,"min":[-0.7307299971580505,1.8228789567947388,2.0931079387664795],"max":[0.7307289838790894,2.0974440574645996,4.31514310836792],"type":"VEC3","bufferView":0,"byteOffset":576},{"name":"hydroPiston_Mesh.434-Mesh_0_normals","componentType":5126,"count":61,"min":[-1,-0.996540904045105,-0.9964576363563538],"max":[1,0.9716288447380066,0.22660380601882935],"type":"VEC3","bufferView":1,"byteOffset":576},{"name":"hydroPiston_Mesh.434-Mesh_0_texcoords","componentType":5126,"count":61,"min":[0.456061989068985,0.3694959878921509],"max":[0.7556099891662598,0.4430469870567322],"type":"VEC2","bufferView":2,"byteOffset":384},{"name":"hydroPiston_Mesh.434-Mesh_0_indices","componentType":5123,"count":99,"min":[0],"max":[60],"type":"SCALAR","bufferView":3,"byteOffset":120},{"name":"hydroCylinder.LOD_Mesh.438-Mesh_0_positions","componentType":5126,"count":52,"min":[-0.7254109978675842,1.8255410194396973,2.3537380695343018],"max":[0.7254049777984619,2.1764039993286133,4.977901935577393],"type":"VEC3","bufferView":0,"byteOffset":1308},{"name":"hydroCylinder.LOD_Mesh.438-Mesh_0_normals","componentType":5126,"count":52,"min":[-1,-0.9205780625343323,-0.9964317083358765],"max":[1,0.9205780625343323,0.9964317083358765],"type":"VEC3","bufferView":1,"byteOffset":1308},{"name":"hydroCylinder.LOD_Mesh.438-Mesh_0_texcoords","componentType":5126,"count":52,"min":[0.47748199105262756,0.09392300248146057],"max":[0.6905710101127625,0.41071900725364685],"type":"VEC2","bufferView":2,"byteOffset":872},{"name":"hydroCylinder.LOD_Mesh.438-Mesh_0_indices","componentType":5123,"count":66,"min":[0],"max":[51],"type":"SCALAR","bufferView":3,"byteOffset":320},{"name":"hydroCylinder_Mesh.437-Mesh_0_positions","componentType":5126,"count":71,"min":[-0.7441210150718689,1.8159630298614502,2.352926015853882],"max":[0.7441200017929077,2.1859819889068604,4.97432279586792],"type":"VEC3","bufferView":0,"byteOffset":1932},{"name":"hydroCylinder_Mesh.437-Mesh_0_normals","componentType":5126,"count":71,"min":[-1,-0.9684246778488159,-0.9964317083358765],"max":[1,0.9965664148330688,0.9964317083358765],"type":"VEC3","bufferView":1,"byteOffset":1932},{"name":"hydroCylinder_Mesh.437-Mesh_0_texcoords","componentType":5126,"count":71,"min":[0.47748199105262756,0.09392300248146057],"max":[0.6905940175056458,0.41071900725364685],"type":"VEC2","bufferView":2,"byteOffset":1288},{"name":"hydroCylinder_Mesh.437-Mesh_0_indices","componentType":5123,"count":117,"min":[0],"max":[70],"type":"SCALAR","bufferView":3,"byteOffset":452},{"name":"launcherBracket.LOD_Mesh.439-Mesh_0_positions","componentType":5126,"count":652,"min":[-1.4869710206985474,1.7752200365066528,-0.51254802942276],"max":[1.4869710206985474,3.733812093734741,7.718666076660156],"type":"VEC3","bufferView":0,"byteOffset":2784},{"name":"launcherBracket.LOD_Mesh.439-Mesh_0_normals","componentType":5126,"count":652,"min":[-1,-0.9999999403953552,-0.9999999403953552],"max":[1,0.9999999403953552,0.9999999403953552],"type":"VEC3","bufferView":1,"byteOffset":2784},{"name":"launcherBracket.LOD_Mesh.439-Mesh_0_texcoords","componentType":5126,"count":652,"min":[0,0.10693400353193283],"max":[0.9829099774360657,1.00861394405365],"type":"VEC2","bufferView":2,"byteOffset":1856},{"name":"launcherBracket.LOD_Mesh.439-Mesh_0_indices","componentType":5123,"count":1533,"min":[0],"max":[651],"type":"SCALAR","bufferView":3,"byteOffset":688},{"name":"launcherBracket_Mesh.436-Mesh_0_positions","componentType":5126,"count":2725,"min":[-1.5309710502624512,1.7752200365066528,-0.5564389824867249],"max":[1.516664981842041,3.81659197807312,7.718673229217529],"type":"VEC3","bufferView":0,"byteOffset":10608},{"name":"launcherBracket_Mesh.436-Mesh_0_normals","componentType":5126,"count":2725,"min":[-1,-0.9999999403953552,-0.9999999403953552],"max":[1,0.9999999403953552,0.9999999403953552],"type":"VEC3","bufferView":1,"byteOffset":10608},{"name":"launcherBracket_Mesh.436-Mesh_0_texcoords","componentType":5126,"count":2725,"min":[0,0.10691899806261063],"max":[0.9829099774360657,1.00861394405365],"type":"VEC2","bufferView":2,"byteOffset":7072},{"name":"launcherBracket_Mesh.436-Mesh_0_indices","componentType":5123,"count":6987,"min":[0],"max":[2724],"type":"SCALAR","bufferView":3,"byteOffset":3756},{"name":"eSamTruckLOD_Mesh.458-Mesh_0_positions","componentType":5126,"count":341,"min":[-1.6128989458084106,0.020371999591588974,-4.136137008666992],"max":[1.6849039793014526,3.0287179946899414,5.976937770843506],"type":"VEC3","bufferView":0,"byteOffset":43308},{"name":"eSamTruckLOD_Mesh.458-Mesh_0_normals","componentType":5126,"count":341,"min":[-1,-0.9999999403953552,-0.9953604936599731],"max":[1,0.9999999403953552,0.9999999403953552],"type":"VEC3","bufferView":1,"byteOffset":43308},{"name":"eSamTruckLOD_Mesh.458-Mesh_0_texcoords","componentType":5126,"count":341,"min":[0.005016000010073185,0.08392100036144257],"max":[0.694832980632782,0.6899750232696533],"type":"VEC2","bufferView":2,"byteOffset":28872},{"name":"eSamTruckLOD_Mesh.458-Mesh_0_indices","componentType":5123,"count":597,"min":[0],"max":[340],"type":"SCALAR","bufferView":3,"byteOffset":17732}],"asset":{"generator":"obj2gltf","version":"2.0"},"buffers":[{"name":"vtolvr_MAD-4Launcher","byteLength":145328,"uri":"data:application/octet-stream;base64,"}],"bufferViews":[{"name":"bufferView_0","buffer":0,"byteLength":47400,"byteOffset":0,"byteStride":12,"target":34962},{"name":"bufferView_1","buffer":0,"byteLength":47400,"byteOffset":47400,"byteStride":12,"target":34962},{"name":"bufferView_2","buffer":0,"byteLength":31600,"byteOffset":94800,"byteStride":8,"target":34962},{"name":"bufferView_3","buffer":0,"byteLength":18928,"byteOffset":126400,"target":34963}],"materials":[{"name":"mat_apcAA","pbrMetallicRoughness":{"baseColorFactor":[0.5,0.5,0.5,1],"metallicFactor":0,"roughnessFactor":1},"emissiveFactor":[0,0,0],"alphaMode":"OPAQUE","doubleSided":false},{"name":"Material.006","pbrMetallicRoughness":{"baseColorFactor":[0.5,0.5,0.5,1],"metallicFactor":0,"roughnessFactor":1},"emissiveFactor":[0,0,0],"alphaMode":"OPAQUE","doubleSided":false}],"meshes":[{"name":"hydroPiston.LOD_Mesh.435-Mesh","primitives":[{"attributes":{"POSITION":0,"NORMAL":1,"TEXCOORD_0":2},"indices":3,"material":0,"mode":4}]},{"name":"hydroPiston_Mesh.434-Mesh","primitives":[{"attributes":{"POSITION":4,"NORMAL":5,"TEXCOORD_0":6},"indices":7,"material":0,"mode":4}]},{"name":"hydroCylinder.LOD_Mesh.438-Mesh","primitives":[{"attributes":{"POSITION":8,"NORMAL":9,"TEXCOORD_0":10},"indices":11,"material":0,"mode":4}]},{"name":"hydroCylinder_Mesh.437-Mesh","primitives":[{"attributes":{"POSITION":12,"NORMAL":13,"TEXCOORD_0":14},"indices":15,"material":0,"mode":4}]},{"name":"launcherBracket.LOD_Mesh.439-Mesh","primitives":[{"attributes":{"POSITION":16,"NORMAL":17,"TEXCOORD_0":18},"indices":19,"material":0,"mode":4}]},{"name":"launcherBracket_Mesh.436-Mesh","primitives":[{"attributes":{"POSITION":20,"NORMAL":21,"TEXCOORD_0":22},"indices":23,"material":0,"mode":4}]},{"name":"eSamTruckLOD_Mesh.458-Mesh","primitives":[{"attributes":{"POSITION":24,"NORMAL":25,"TEXCOORD_0":26},"indices":27,"material":1,"mode":4}]}],"nodes":[{"name":"hydroPiston.LOD_Mesh.435","mesh":0},{"name":"hydroPiston_Mesh.434","mesh":1},{"name":"hydroCylinder.LOD_Mesh.438","mesh":2},{"name":"hydroCylinder_Mesh.437","mesh":3},{"name":"launcherBracket.LOD_Mesh.439","mesh":4},{"name":"launcherBracket_Mesh.436","mesh":5},{"name":"eSamTruckLOD_Mesh.458","mesh":6}],"scene":0,"scenes":[{"nodes":[0,1,2,3,4,5,6]}]}