{"accessors":[{"name":"gFireRadar_Mesh.5278-Mesh_0_positions","componentType":5126,"count":136,"min":[-2.2424910068511963,4.468914985656738,0.41147199273109436],"max":[2.2424910068511963,9.945815086364746,2.7975471019744873],"type":"VEC3","bufferView":0,"byteOffset":0},{"name":"gFireRadar_Mesh.5278-Mesh_0_normals","componentType":5126,"count":136,"min":[-1,-0.9996487498283386,-0.9996487498283386],"max":[1,0.9996487498283386,0.9996487498283386],"type":"VEC3","bufferView":1,"byteOffset":0},{"name":"gFireRadar_Mesh.5278-Mesh_0_texcoords","componentType":5126,"count":136,"min":[0.3920609951019287,0.06528200209140778],"max":[0.9869800209999084,0.7822970151901245],"type":"VEC2","bufferView":2,"byteOffset":0},{"name":"gFireRadar_Mesh.5278-Mesh_0_indices","componentType":5123,"count":252,"min":[0],"max":[135],"type":"SCALAR","bufferView":3,"byteOffset":0},{"name":"gFireRadarHinge_Mesh.5274-Mesh_0_positions","componentType":5126,"count":15,"min":[-1.251574993133545,3.3047590255737305,0.30219000577926636],"max":[1.251574993133545,5.199122905731201,2.674710988998413],"type":"VEC3","bufferView":0,"byteOffset":1632},{"name":"gFireRadarHinge_Mesh.5274-Mesh_0_normals","componentType":5126,"count":15,"min":[0,-0.9918506145477295,-0.9995706677436829],"max":[1,0.9493213891983032,0.3143070638179779],"type":"VEC3","bufferView":1,"byteOffset":1632},{"name":"gFireRadarHinge_Mesh.5274-Mesh_0_texcoords","componentType":5126,"count":15,"min":[0.022119000554084778,0.021044999361038208],"max":[0.47475600242614746,0.29859501123428345],"type":"VEC2","bufferView":2,"byteOffset":1088},{"name":"gFireRadarHinge_Mesh.5274-Mesh_0_indices","componentType":5123,"count":21,"min":[0],"max":[14],"type":"SCALAR","bufferView":3,"byteOffset":504},{"name":"samRadarDish2_Mesh.5273-Mesh_0_positions","componentType":5126,"count":92,"min":[-2.2424910068511963,0.7637450098991394,-4.302967071533203],"max":[2.2424910068511963,4.4083571434021,4.074079990386963],"type":"VEC3","bufferView":0,"byteOffset":1812},{"name":"samRadarDish2_Mesh.5273-Mesh_0_normals","componentType":5126,"count":92,"min":[-1,-0.9999999403953552,-0.9999999403953552],"max":[1,0.9999999403953552,0.9999999403953552],"type":"VEC3","bufferView":1,"byteOffset":1812},{"name":"samRadarDish2_Mesh.5273-Mesh_0_texcoords","componentType":5126,"count":92,"min":[0.012409999966621399,0.32583901286125183],"max":[0.9848350286483765,0.9799200296401978],"type":"VEC2","bufferView":2,"byteOffset":1208},{"name":"samRadarDish2_Mesh.5273-Mesh_0_indices","componentType":5123,"count":144,"min":[0],"max":[91],"type":"SCALAR","bufferView":3,"byteOffset":548},{"name":"Cube_Mesh.5279-Mesh_0_positions","componentType":5126,"count":656,"min":[-5.299845218658447,-0.866907000541687,-5.29981803894043],"max":[5.299845218658447,0.7651619911193848,5.299871921539307],"type":"VEC3","bufferView":0,"byteOffset":2916},{"name":"Cube_Mesh.5279-Mesh_0_normals","componentType":5126,"count":656,"min":[-1,-0.9999999403953552,-0.9999999403953552],"max":[1,0.9999999403953552,0.9999999403953552],"type":"VEC3","bufferView":1,"byteOffset":2916},{"name":"Cube_Mesh.5279-Mesh_0_texcoords","componentType":5126,"count":656,"min":[0.01056000031530857,0.007042999844998121],"max":[0.9879360198974609,0.9944440126419067],"type":"VEC2","bufferView":2,"byteOffset":1944},{"name":"Cube_Mesh.5279-Mesh_0_indices","componentType":5123,"count":1032,"min":[0],"max":[655],"type":"SCALAR","bufferView":3,"byteOffset":836}],"asset":{"generator":"obj2gltf","version":"2.0"},"buffers":[{"name":"vtolvr_SamFCR2","byteLength":31668,"uri":"data:application/octet-stream;base64,"}],"bufferViews":[{"name":"bufferView_0","buffer":0,"byteLength":10788,"byteOffset":0,"byteStride":12,"target":34962},{"name":"bufferView_1","buffer":0,"byteLength":10788,"byteOffset":10788,"byteStride":12,"target":34962},{"name":"bufferView_2","buffer":0,"byteLength":7192,"byteOffset":21576,"byteStride":8,"target":34962},{"name":"bufferView_3","buffer":0,"byteLength":2900,"byteOffset":28768,"target":34963}],"materials":[{"name":"mat_samRadarDish2","pbrMetallicRoughness":{"baseColorFactor":[0.5,0.5,0.5,1],"metallicFactor":0,"roughnessFactor":1},"emissiveFactor":[0,0,0],"alphaMode":"OPAQUE","doubleSided":false},{"name":"mat_modularPlatform.002","pbrMetallicRoughness":{"baseColorFactor":[0.5,0.5,0.5,1],"metallicFactor":0,"roughnessFactor":1},"emissiveFactor":[0,0,0],"alphaMode":"OPAQUE","doubleSided":false}],"meshes":[{"name":"gFireRadar_Mesh.5278-Mesh","primitives":[{"attributes":{"POSITION":0,"NORMAL":1,"TEXCOORD_0":2},"indices":3,"material":0,"mode":4}]},{"name":"gFireRadarHinge_Mesh.5274-Mesh","primitives":[{"attributes":{"POSITION":4,"NORMAL":5,"TEXCOORD_0":6},"indices":7,"material":0,"mode":4}]},{"name":"samRadarDish2_Mesh.5273-Mesh","primitives":[{"attributes":{"POSITION":8,"NORMAL":9,"TEXCOORD_0":10},"indices":11,"material":0,"mode":4}]},{"name":"Cube_Mesh.5279-Mesh","primitives":[{"attributes":{"POSITION":12,"NORMAL":13,"TEXCOORD_0":14},"indices":15,"material":1,"mode":4}]}],"nodes":[{"name":"gFireRadar_Mesh.5278","mesh":0},{"name":"gFireRadarHinge_Mesh.5274","mesh":1},{"name":"samRadarDish2_Mesh.5273","mesh":2},{"name":"Cube_Mesh.5279","mesh":3}],"scene":0,"scenes":[{"nodes":[0,1,2,3]}]}