{"accessors":[{"name":"lockingRadar_Mesh.376-Mesh_0_positions","componentType":5126,"count":116,"min":[-0.36050400137901306,0.10550999641418457,-0.3309060037136078],"max":[0.36050400137901306,0.9675350189208984,0.497871994972229],"type":"VEC3","bufferView":0,"byteOffset":0},{"name":"lockingRadar_Mesh.376-Mesh_0_normals","componentType":5126,"count":116,"min":[-1,-1,-1],"max":[1,1,1],"type":"VEC3","bufferView":1,"byteOffset":0},{"name":"lockingRadar_Mesh.376-Mesh_0_texcoords","componentType":5126,"count":116,"min":[0.7187899947166443,0.6232290267944336],"max":[0.9792850017547607,0.9856749773025513],"type":"VEC2","bufferView":2,"byteOffset":0},{"name":"lockingRadar_Mesh.376-Mesh_0_indices","componentType":5123,"count":198,"min":[0],"max":[115],"type":"SCALAR","bufferView":3,"byteOffset":0},{"name":"AAAGuns_Mesh.379-Mesh_0_positions","componentType":5126,"count":1532,"min":[-0.7546499967575073,2.0219368934631348,-1.7148959636688232],"max":[0.7546489834785461,2.646343946456909,0.7168660163879395],"type":"VEC3","bufferView":0,"byteOffset":1392},{"name":"AAAGuns_Mesh.379-Mesh_0_normals","componentType":5126,"count":1532,"min":[-1,-1,-1],"max":[1,1,1],"type":"VEC3","bufferView":1,"byteOffset":1392},{"name":"AAAGuns_Mesh.379-Mesh_0_texcoords","componentType":5126,"count":1532,"min":[0.6071889996528625,0.024490000680088997],"max":[0.9922369718551636,0.38979199528694153],"type":"VEC2","bufferView":2,"byteOffset":928},{"name":"AAAGuns_Mesh.379-Mesh_0_indices","componentType":5123,"count":3528,"min":[0],"max":[1531],"type":"SCALAR","bufferView":3,"byteOffset":396},{"name":"AALaunchers_Mesh.393-Mesh_0_positions","componentType":5126,"count":564,"min":[-1.3969570398330688,1.580381989479065,-1.032655954360962],"max":[1.396955966949463,2.198096990585327,0.9912199974060059],"type":"VEC3","bufferView":0,"byteOffset":19776},{"name":"AALaunchers_Mesh.393-Mesh_0_normals","componentType":5126,"count":564,"min":[-1,-1,-1],"max":[1,1,1],"type":"VEC3","bufferView":1,"byteOffset":19776},{"name":"AALaunchers_Mesh.393-Mesh_0_texcoords","componentType":5126,"count":564,"min":[0.011113000102341175,0.022887999191880226],"max":[0.5817239880561829,0.4925920069217682],"type":"VEC2","bufferView":2,"byteOffset":13184},{"name":"AALaunchers_Mesh.393-Mesh_0_indices","componentType":5123,"count":1008,"min":[0],"max":[563],"type":"SCALAR","bufferView":3,"byteOffset":7452},{"name":"lowPolyMissileTubes_Mesh.394-Mesh_0_positions","componentType":5126,"count":48,"min":[-1.3618789911270142,1.5731329917907715,-1.0282989740371704],"max":[1.3618789911270142,2.154546022415161,0.9807000160217285],"type":"VEC3","bufferView":0,"byteOffset":26544},{"name":"lowPolyMissileTubes_Mesh.394-Mesh_0_normals","componentType":5126,"count":48,"min":[-1,-1,-1],"max":[1,1,1],"type":"VEC3","bufferView":1,"byteOffset":26544},{"name":"lowPolyMissileTubes_Mesh.394-Mesh_0_texcoords","componentType":5126,"count":48,"min":[0.09651900082826614,0.3585030138492584],"max":[0.18418900668621063,0.4461730122566223],"type":"VEC2","bufferView":2,"byteOffset":17696},{"name":"lowPolyMissileTubes_Mesh.394-Mesh_0_indices","componentType":5123,"count":72,"min":[0],"max":[47],"type":"SCALAR","bufferView":3,"byteOffset":9468},{"name":"lowPolyTurret_Mesh.397-Mesh_0_positions","componentType":5126,"count":128,"min":[-0.8016200065612793,1.5033669471740723,-1.4383139610290527],"max":[0.8016200065612793,3.10089111328125,1.2358109951019287],"type":"VEC3","bufferView":0,"byteOffset":27120},{"name":"lowPolyTurret_Mesh.397-Mesh_0_normals","componentType":5126,"count":128,"min":[-1,-1,-1],"max":[1,1,1],"type":"VEC3","bufferView":1,"byteOffset":27120},{"name":"lowPolyTurret_Mesh.397-Mesh_0_texcoords","componentType":5126,"count":128,"min":[0.34467101097106934,0.776078999042511],"max":[0.4228000044822693,0.8369219899177551],"type":"VEC2","bufferView":2,"byteOffset":18080},{"name":"lowPolyTurret_Mesh.397-Mesh_0_indices","componentType":5123,"count":192,"min":[0],"max":[127],"type":"SCALAR","bufferView":3,"byteOffset":9612},{"name":"vehicleBase1LowPoly_Mesh.400-Mesh_0_positions","componentType":5126,"count":216,"min":[-1.8742070198059082,-0.6041629910469055,-3.4720449447631836],"max":[1.8742079734802246,1.4512239694595337,2.7271358966827393],"type":"VEC3","bufferView":0,"byteOffset":28656},{"name":"vehicleBase1LowPoly_Mesh.400-Mesh_0_normals","componentType":5126,"count":216,"min":[-1,-1,-1],"max":[1,1,1],"type":"VEC3","bufferView":1,"byteOffset":28656},{"name":"vehicleBase1LowPoly_Mesh.400-Mesh_0_texcoords","componentType":5126,"count":216,"min":[0.6799309849739075,0.11929000169038773],"max":[0.9429550170898438,0.22684499621391296],"type":"VEC2","bufferView":2,"byteOffset":19104},{"name":"vehicleBase1LowPoly_Mesh.400-Mesh_0_indices","componentType":5123,"count":312,"min":[0],"max":[215],"type":"SCALAR","bufferView":3,"byteOffset":9996}],"asset":{"generator":"obj2gltf","version":"2.0"},"buffers":[{"name":"vtolvr_SAAW","byteLength":93948,"uri":"data:application/octet-stream;base64,"}],"bufferViews":[{"name":"bufferView_0","buffer":0,"byteLength":31248,"byteOffset":0,"byteStride":12,"target":34962},{"name":"bufferView_1","buffer":0,"byteLength":31248,"byteOffset":31248,"byteStride":12,"target":34962},{"name":"bufferView_2","buffer":0,"byteLength":20832,"byteOffset":62496,"byteStride":8,"target":34962},{"name":"bufferView_3","buffer":0,"byteLength":10620,"byteOffset":83328,"target":34963}],"materials":[{"name":"mat_saawTurret.001","pbrMetallicRoughness":{"baseColorFactor":[0.5,0.5,0.5,1],"metallicFactor":0,"roughnessFactor":1},"emissiveFactor":[0,0,0],"alphaMode":"OPAQUE","doubleSided":false},{"name":"mat_vehicleBase","pbrMetallicRoughness":{"baseColorFactor":[0.5,0.5,0.5,1],"metallicFactor":0,"roughnessFactor":1},"emissiveFactor":[0,0,0],"alphaMode":"OPAQUE","doubleSided":false}],"meshes":[{"name":"lockingRadar_Mesh.376-Mesh","primitives":[{"attributes":{"POSITION":0,"NORMAL":1,"TEXCOORD_0":2},"indices":3,"material":0,"mode":4}]},{"name":"AAAGuns_Mesh.379-Mesh","primitives":[{"attributes":{"POSITION":4,"NORMAL":5,"TEXCOORD_0":6},"indices":7,"material":0,"mode":4}]},{"name":"AALaunchers_Mesh.393-Mesh","primitives":[{"attributes":{"POSITION":8,"NORMAL":9,"TEXCOORD_0":10},"indices":11,"material":0,"mode":4}]},{"name":"lowPolyMissileTubes_Mesh.394-Mesh","primitives":[{"attributes":{"POSITION":12,"NORMAL":13,"TEXCOORD_0":14},"indices":15,"material":0,"mode":4}]},{"name":"lowPolyTurret_Mesh.397-Mesh","primitives":[{"attributes":{"POSITION":16,"NORMAL":17,"TEXCOORD_0":18},"indices":19,"material":0,"mode":4}]},{"name":"vehicleBase1LowPoly_Mesh.400-Mesh","primitives":[{"attributes":{"POSITION":20,"NORMAL":21,"TEXCOORD_0":22},"indices":23,"material":1,"mode":4}]}],"nodes":[{"name":"lockingRadar_Mesh.376","mesh":0},{"name":"AAAGuns_Mesh.379","mesh":1},{"name":"AALaunchers_Mesh.393","mesh":2},{"name":"lowPolyMissileTubes_Mesh.394","mesh":3},{"name":"lowPolyTurret_Mesh.397","mesh":4},{"name":"vehicleBase1LowPoly_Mesh.400","mesh":5}],"scene":0,"scenes":[{"nodes":[0,1,2,3,4,5]}]}