{"accessors":[{"name":"Cylinder.007_Mesh.2038-Mesh_0_positions","componentType":5126,"count":74,"min":[-1.2311220169067383,2.7986600399017334,-2.0101230144500732],"max":[1.2311220169067383,3.5502800941467285,-1.171779990196228],"type":"VEC3","bufferView":0,"byteOffset":0},{"name":"Cylinder.007_Mesh.2038-Mesh_0_normals","componentType":5126,"count":74,"min":[-1,-0.9461535215377808,-0.6805239319801331],"max":[1,0.905332088470459,0.9461640119552612],"type":"VEC3","bufferView":1,"byteOffset":0},{"name":"Cylinder.007_Mesh.2038-Mesh_0_texcoords","componentType":5126,"count":74,"min":[0.7029809951782227,0.8674920201301575],"max":[0.7915999889373779,0.9674739837646484],"type":"VEC2","bufferView":2,"byteOffset":0},{"name":"Cylinder.007_Mesh.2038-Mesh_0_indices","componentType":5123,"count":150,"min":[0],"max":[73],"type":"SCALAR","bufferView":3,"byteOffset":0},{"name":"Cube.027_Mesh.2044-Mesh_0_positions","componentType":5126,"count":176,"min":[-1.402398943901062,1.1623870134353638,-1.9703940153121948],"max":[1.402398943901062,2.9640369415283203,1.9648710489273071],"type":"VEC3","bufferView":0,"byteOffset":888},{"name":"Cube.027_Mesh.2044-Mesh_0_normals","componentType":5126,"count":176,"min":[-1,-0.9999999403953552,-0.9999999403953552],"max":[1,0.9999999403953552,0.9999999403953552],"type":"VEC3","bufferView":1,"byteOffset":888},{"name":"Cube.027_Mesh.2044-Mesh_0_texcoords","componentType":5126,"count":176,"min":[0.028508000075817108,0.542087972164154],"max":[0.9961130023002625,0.9976339936256409],"type":"VEC2","bufferView":2,"byteOffset":592},{"name":"Cube.027_Mesh.2044-Mesh_0_indices","componentType":5123,"count":264,"min":[0],"max":[175],"type":"SCALAR","bufferView":3,"byteOffset":300},{"name":"Cube.026_Mesh.2047-Mesh_0_positions","componentType":5126,"count":221,"min":[-1.3971869945526123,1.6797620058059692,-2.6962931156158447],"max":[1.3971869945526123,5.530163764953613,-1.113832950592041],"type":"VEC3","bufferView":0,"byteOffset":3000},{"name":"Cube.026_Mesh.2047-Mesh_0_normals","componentType":5126,"count":221,"min":[-1,-0.9987088441848755,-0.9461640119552612],"max":[1,0.9461640119552612,0.9999991655349731],"type":"VEC3","bufferView":1,"byteOffset":3000},{"name":"Cube.026_Mesh.2047-Mesh_0_texcoords","componentType":5126,"count":221,"min":[0.016728999093174934,0.009429999627172947],"max":[0.9645429849624634,0.5721889734268188],"type":"VEC2","bufferView":2,"byteOffset":2000},{"name":"Cube.026_Mesh.2047-Mesh_0_indices","componentType":5123,"count":339,"min":[0],"max":[220],"type":"SCALAR","bufferView":3,"byteOffset":828},{"name":"Cube.021_Mesh.2049-Mesh_0_positions","componentType":5126,"count":774,"min":[-3.637554883956909,-0.5906310081481934,-4.689126014709473],"max":[3.531024932861328,1.9489749670028687,3.940824031829834],"type":"VEC3","bufferView":0,"byteOffset":5652},{"name":"Cube.021_Mesh.2049-Mesh_0_normals","componentType":5126,"count":774,"min":[-0.999768853187561,-0.9999999403953552,-0.9482925534248352],"max":[0.9999794960021973,0.9999999403953552,0.9710184335708618],"type":"VEC3","bufferView":1,"byteOffset":5652},{"name":"Cube.021_Mesh.2049-Mesh_0_texcoords","componentType":5126,"count":774,"min":[0.021676000207662582,0.015302999876439571],"max":[0.9945440292358398,0.9804779887199402],"type":"VEC2","bufferView":2,"byteOffset":3768},{"name":"Cube.021_Mesh.2049-Mesh_0_indices","componentType":5123,"count":1122,"min":[0],"max":[773],"type":"SCALAR","bufferView":3,"byteOffset":1508},{"name":"Cube.025_Mesh.2050-Mesh_0_positions","componentType":5126,"count":212,"min":[-1.9072389602661133,-0.07152900099754333,-1.2930099964141846],"max":[-0.8990859985351562,1.0867520570755005,-0.13732799887657166],"type":"VEC3","bufferView":0,"byteOffset":14940},{"name":"Cube.025_Mesh.2050-Mesh_0_normals","componentType":5126,"count":212,"min":[-0.9165826439857483,-0.9944659471511841,-0.9106370210647583],"max":[0.9719038009643555,0.956588625907898,0.9385783076286316],"type":"VEC3","bufferView":1,"byteOffset":14940},{"name":"Cube.025_Mesh.2050-Mesh_0_texcoords","componentType":5126,"count":212,"min":[0.765608012676239,0.025930000469088554],"max":[0.9738540053367615,0.8588780164718628],"type":"VEC2","bufferView":2,"byteOffset":9960},{"name":"Cube.025_Mesh.2050-Mesh_0_indices","componentType":5123,"count":432,"min":[0],"max":[211],"type":"SCALAR","bufferView":3,"byteOffset":3752},{"name":"Cube.025_(1)_Mesh.2051-Mesh_0_positions","componentType":5126,"count":212,"min":[-2.5802149772644043,-0.07157900184392929,-0.3518980145454407],"max":[-1.5720570087432861,1.0866550207138062,0.8037760257720947],"type":"VEC3","bufferView":0,"byteOffset":17484},{"name":"Cube.025_(1)_Mesh.2051-Mesh_0_normals","componentType":5126,"count":212,"min":[-0.9165826439857483,-0.9944271445274353,-0.9105010032653809],"max":[0.971934974193573,0.9564796686172485,0.9386699795722961],"type":"VEC3","bufferView":1,"byteOffset":17484},{"name":"Cube.025_(1)_Mesh.2051-Mesh_0_texcoords","componentType":5126,"count":212,"min":[0.765608012676239,0.025930000469088554],"max":[0.9738540053367615,0.8588780164718628],"type":"VEC2","bufferView":2,"byteOffset":11656},{"name":"Cube.025_(1)_Mesh.2051-Mesh_0_indices","componentType":5123,"count":432,"min":[0],"max":[211],"type":"SCALAR","bufferView":3,"byteOffset":4616},{"name":"Cube.025_(2)_Mesh.2052-Mesh_0_positions","componentType":5126,"count":212,"min":[0.640209972858429,-0.07153300195932388,0.49935999512672424],"max":[1.6483689546585083,1.0867010354995728,1.6550339460372925],"type":"VEC3","bufferView":0,"byteOffset":20028},{"name":"Cube.025_(2)_Mesh.2052-Mesh_0_normals","componentType":5126,"count":212,"min":[-0.9719145894050598,-0.9944271445274353,-0.9386699795722961],"max":[0.9165826439857483,0.9564796686172485,0.9105010032653809],"type":"VEC3","bufferView":1,"byteOffset":20028},{"name":"Cube.025_(2)_Mesh.2052-Mesh_0_texcoords","componentType":5126,"count":212,"min":[0.765608012676239,0.025930000469088554],"max":[0.9738540053367615,0.8588780164718628],"type":"VEC2","bufferView":2,"byteOffset":13352},{"name":"Cube.025_(2)_Mesh.2052-Mesh_0_indices","componentType":5123,"count":432,"min":[0],"max":[211],"type":"SCALAR","bufferView":3,"byteOffset":5480},{"name":"Cube.025_(3)_Mesh.2053-Mesh_0_positions","componentType":5126,"count":212,"min":[-0.032760001718997955,-0.07158000022172928,1.4404710531234741],"max":[0.9753990173339844,1.0866559743881226,2.5961461067199707],"type":"VEC3","bufferView":0,"byteOffset":22572},{"name":"Cube.025_(3)_Mesh.2053-Mesh_0_normals","componentType":5126,"count":212,"min":[-0.9719145894050598,-0.9944271445274353,-0.9386699795722961],"max":[0.9165826439857483,0.9564796686172485,0.9105010032653809],"type":"VEC3","bufferView":1,"byteOffset":22572},{"name":"Cube.025_(3)_Mesh.2053-Mesh_0_texcoords","componentType":5126,"count":212,"min":[0.765608012676239,0.025930000469088554],"max":[0.9738540053367615,0.8588780164718628],"type":"VEC2","bufferView":2,"byteOffset":15048},{"name":"Cube.025_(3)_Mesh.2053-Mesh_0_indices","componentType":5123,"count":432,"min":[0],"max":[211],"type":"SCALAR","bufferView":3,"byteOffset":6344}],"asset":{"generator":"obj2gltf","version":"2.0"},"buffers":[{"name":"vtolvr_PatRadarTrailer","byteLength":74184,"uri":"data:application/octet-stream;base64,"}],"bufferViews":[{"name":"bufferView_0","buffer":0,"byteLength":25116,"byteOffset":0,"byteStride":12,"target":34962},{"name":"bufferView_1","buffer":0,"byteLength":25116,"byteOffset":25116,"byteStride":12,"target":34962},{"name":"bufferView_2","buffer":0,"byteLength":16744,"byteOffset":50232,"byteStride":8,"target":34962},{"name":"bufferView_3","buffer":0,"byteLength":7208,"byteOffset":66976,"target":34963}],"materials":[{"name":"mat_patRadar","pbrMetallicRoughness":{"baseColorFactor":[0.5,0.5,0.5,1],"metallicFactor":0,"roughnessFactor":1},"emissiveFactor":[0,0,0],"alphaMode":"OPAQUE","doubleSided":false},{"name":"mat_patRadarTrailer","pbrMetallicRoughness":{"baseColorFactor":[0.5,0.5,0.5,1],"metallicFactor":0,"roughnessFactor":1},"emissiveFactor":[0,0,0],"alphaMode":"OPAQUE","doubleSided":false}],"meshes":[{"name":"Cylinder.007_Mesh.2038-Mesh","primitives":[{"attributes":{"POSITION":0,"NORMAL":1,"TEXCOORD_0":2},"indices":3,"material":0,"mode":4}]},{"name":"Cube.027_Mesh.2044-Mesh","primitives":[{"attributes":{"POSITION":4,"NORMAL":5,"TEXCOORD_0":6},"indices":7,"material":0,"mode":4}]},{"name":"Cube.026_Mesh.2047-Mesh","primitives":[{"attributes":{"POSITION":8,"NORMAL":9,"TEXCOORD_0":10},"indices":11,"material":0,"mode":4}]},{"name":"Cube.021_Mesh.2049-Mesh","primitives":[{"attributes":{"POSITION":12,"NORMAL":13,"TEXCOORD_0":14},"indices":15,"material":1,"mode":4}]},{"name":"Cube.025_Mesh.2050-Mesh","primitives":[{"attributes":{"POSITION":16,"NORMAL":17,"TEXCOORD_0":18},"indices":19,"material":1,"mode":4}]},{"name":"Cube.025_(1)_Mesh.2051-Mesh","primitives":[{"attributes":{"POSITION":20,"NORMAL":21,"TEXCOORD_0":22},"indices":23,"material":1,"mode":4}]},{"name":"Cube.025_(2)_Mesh.2052-Mesh","primitives":[{"attributes":{"POSITION":24,"NORMAL":25,"TEXCOORD_0":26},"indices":27,"material":1,"mode":4}]},{"name":"Cube.025_(3)_Mesh.2053-Mesh","primitives":[{"attributes":{"POSITION":28,"NORMAL":29,"TEXCOORD_0":30},"indices":31,"material":1,"mode":4}]}],"nodes":[{"name":"Cylinder.007_Mesh.2038","mesh":0},{"name":"Cube.027_Mesh.2044","mesh":1},{"name":"Cube.026_Mesh.2047","mesh":2},{"name":"Cube.021_Mesh.2049","mesh":3},{"name":"Cube.025_Mesh.2050","mesh":4},{"name":"Cube.025_(1)_Mesh.2051","mesh":5},{"name":"Cube.025_(2)_Mesh.2052","mesh":6},{"name":"Cube.025_(3)_Mesh.2053","mesh":7}],"scene":0,"scenes":[{"nodes":[0,1,2,3,4,5,6,7]}]}