{"accessors":[{"name":"deflector1_Mesh.002-Mesh_0_positions","componentType":5126,"count":340,"min":[28.425872802734375,22.924602508544922,-66.49968719482422],"max":[42.900840759277344,24.039918899536133,-58.43313217163086],"type":"VEC3","bufferView":0,"byteOffset":0},{"name":"deflector1_Mesh.002-Mesh_0_normals","componentType":5126,"count":340,"min":[-0.9999999403953552,-0.9999999403953552,-0.9999985694885254],"max":[1,0.9999999403953552,0.9999985694885254],"type":"VEC3","bufferView":1,"byteOffset":0},{"name":"deflector1_Mesh.002-Mesh_0_texcoords","componentType":5126,"count":340,"min":[0.004395000170916319,0.8985139727592468],"max":[0.11993499845266342,0.9996950030326843],"type":"VEC2","bufferView":2,"byteOffset":0},{"name":"deflector1_Mesh.002-Mesh_0_indices","componentType":5123,"count":672,"min":[0],"max":[339],"type":"SCALAR","bufferView":3,"byteOffset":0},{"name":"deflector2_Mesh.002-Mesh_0_positions","componentType":5126,"count":338,"min":[12.971885681152344,22.90043830871582,-60.116512298583984],"max":[27.878263473510742,24.04464340209961,-51.359073638916016],"type":"VEC3","bufferView":0,"byteOffset":4080},{"name":"deflector2_Mesh.002-Mesh_0_normals","componentType":5126,"count":338,"min":[-0.9975889921188354,-1,-0.9975117444992065],"max":[0.9975889921188354,1,0.99751877784729],"type":"VEC3","bufferView":1,"byteOffset":4080},{"name":"deflector2_Mesh.002-Mesh_0_texcoords","componentType":5126,"count":338,"min":[0.004395000170916319,0.8985139727592468],"max":[0.11990799754858017,0.9996950030326843],"type":"VEC2","bufferView":2,"byteOffset":2720},{"name":"deflector2_Mesh.002-Mesh_0_indices","componentType":5123,"count":672,"min":[0],"max":[337],"type":"SCALAR","bufferView":3,"byteOffset":1344},{"name":"deflector3_Mesh.002-Mesh_0_positions","componentType":5126,"count":333,"min":[1.0637099742889404,22.900421142578125,47.904598236083984],"max":[15.537759780883789,24.040517807006836,56.00631332397461],"type":"VEC3","bufferView":0,"byteOffset":8136},{"name":"deflector3_Mesh.002-Mesh_0_normals","componentType":5126,"count":333,"min":[-0.9999966025352478,-1,-0.9999935030937195],"max":[0.9999966025352478,1,0.9999935030937195],"type":"VEC3","bufferView":1,"byteOffset":8136},{"name":"deflector3_Mesh.002-Mesh_0_texcoords","componentType":5126,"count":333,"min":[0.004395000170916319,0.8985139727592468],"max":[0.11998700350522995,0.9996950030326843],"type":"VEC2","bufferView":2,"byteOffset":5424},{"name":"deflector3_Mesh.002-Mesh_0_indices","componentType":5123,"count":669,"min":[0],"max":[332],"type":"SCALAR","bufferView":3,"byteOffset":2688},{"name":"deflector4_Mesh.002-Mesh_0_positions","componentType":5126,"count":340,"min":[-22.465354919433594,22.924646377563477,48.44538116455078],"max":[-7.574756145477295,24.030559539794922,57.17548370361328],"type":"VEC3","bufferView":0,"byteOffset":12132},{"name":"deflector4_Mesh.002-Mesh_0_normals","componentType":5126,"count":340,"min":[-0.9977665543556213,-0.9999975562095642,-0.9976965188980103],"max":[0.9977665543556213,0.9999975562095642,0.9976965188980103],"type":"VEC3","bufferView":1,"byteOffset":12132},{"name":"deflector4_Mesh.002-Mesh_0_texcoords","componentType":5126,"count":340,"min":[0.004395000170916319,0.8985139727592468],"max":[0.11993400007486343,0.9996950030326843],"type":"VEC2","bufferView":2,"byteOffset":8088},{"name":"deflector4_Mesh.002-Mesh_0_indices","componentType":5123,"count":672,"min":[0],"max":[339],"type":"SCALAR","bufferView":3,"byteOffset":4028},{"name":"doorLeft1_Mesh.002-Mesh_0_positions","componentType":5126,"count":147,"min":[22.255823135375977,8.637776374816895,-105.86116027832031],"max":[22.893901824951172,20.71950340270996,-93.1871337890625],"type":"VEC3","bufferView":0,"byteOffset":16212},{"name":"doorLeft1_Mesh.002-Mesh_0_normals","componentType":5126,"count":147,"min":[-0.9999999403953552,-0.7719123363494873,-1],"max":[0.9999999403953552,0.6569895148277283,0.6087357401847839],"type":"VEC3","bufferView":1,"byteOffset":16212},{"name":"doorLeft1_Mesh.002-Mesh_0_texcoords","componentType":5126,"count":147,"min":[0.3978799879550934,0.01258500013500452],"max":[0.6266810297966003,0.3528839945793152],"type":"VEC2","bufferView":2,"byteOffset":10808},{"name":"doorLeft1_Mesh.002-Mesh_0_indices","componentType":5123,"count":339,"min":[0],"max":[146],"type":"SCALAR","bufferView":3,"byteOffset":5372},{"name":"doorLeft2_Mesh.002-Mesh_0_positions","componentType":5126,"count":147,"min":[22.255823135375977,8.637776374816895,-117.55596923828125],"max":[22.886892318725586,20.71950340270996,-104.9145736694336],"type":"VEC3","bufferView":0,"byteOffset":17976},{"name":"doorLeft2_Mesh.002-Mesh_0_normals","componentType":5126,"count":147,"min":[-0.9999999403953552,-0.656883955001831,-0.608779788017273],"max":[0.9999999403953552,0.7720032334327698,1],"type":"VEC3","bufferView":1,"byteOffset":17976},{"name":"doorLeft2_Mesh.002-Mesh_0_texcoords","componentType":5126,"count":147,"min":[0.5247229933738708,0.014259999617934227],"max":[0.7519689798355103,0.3555009961128235],"type":"VEC2","bufferView":2,"byteOffset":11984},{"name":"doorLeft2_Mesh.002-Mesh_0_indices","componentType":5123,"count":339,"min":[0],"max":[146],"type":"SCALAR","bufferView":3,"byteOffset":6052},{"name":"doorRight1_Mesh.002-Mesh_0_positions","componentType":5126,"count":149,"min":[-15.101709365844727,8.63753890991211,-32.2470703125],"max":[-14.467455863952637,20.719079971313477,-19.573043823242188],"type":"VEC3","bufferView":0,"byteOffset":19740},{"name":"doorRight1_Mesh.002-Mesh_0_normals","componentType":5126,"count":149,"min":[-1,-0.7717737555503845,-0.608791172504425],"max":[1,0.6568263173103333,1],"type":"VEC3","bufferView":1,"byteOffset":19740},{"name":"doorRight1_Mesh.002-Mesh_0_texcoords","componentType":5126,"count":149,"min":[0.3978799879550934,0.01258500013500452],"max":[0.6266810297966003,0.3528839945793152],"type":"VEC2","bufferView":2,"byteOffset":13160},{"name":"doorRight1_Mesh.002-Mesh_0_indices","componentType":5123,"count":339,"min":[0],"max":[148],"type":"SCALAR","bufferView":3,"byteOffset":6732},{"name":"doorRight2_Mesh.002-Mesh_0_positions","componentType":5126,"count":149,"min":[-15.09469985961914,8.63753890991211,-20.51963233947754],"max":[-14.467458724975586,20.719079971313477,-7.878230094909668],"type":"VEC3","bufferView":0,"byteOffset":21528},{"name":"doorRight2_Mesh.002-Mesh_0_normals","componentType":5126,"count":149,"min":[-1,-0.656883955001831,-1],"max":[1,0.7718242406845093,0.6648050546646118],"type":"VEC3","bufferView":1,"byteOffset":21528},{"name":"doorRight2_Mesh.002-Mesh_0_texcoords","componentType":5126,"count":149,"min":[0.524412989616394,0.014259999617934227],"max":[0.7519689798355103,0.3555009961128235],"type":"VEC2","bufferView":2,"byteOffset":14352},{"name":"doorRight2_Mesh.002-Mesh_0_indices","componentType":5123,"count":339,"min":[0],"max":[148],"type":"SCALAR","bufferView":3,"byteOffset":7412},{"name":"elevatorLeft_Mesh.005-Mesh_0_positions","componentType":5126,"count":304,"min":[24.127721786499023,18.64310073852539,-118.1149673461914],"max":[46.43425750732422,23.978866577148438,-88.0245361328125],"type":"VEC3","bufferView":0,"byteOffset":23316},{"name":"elevatorLeft_Mesh.005-Mesh_0_normals","componentType":5126,"count":304,"min":[-0.9999999403953552,-0.9999999403953552,-1],"max":[0.9999999403953552,0.9999999403953552,1],"type":"VEC3","bufferView":1,"byteOffset":23316},{"name":"elevatorLeft_Mesh.005-Mesh_0_texcoords","componentType":5126,"count":304,"min":[0.00929499976336956,0.003369000041857362],"max":[0.4134179949760437,0.3958269953727722],"type":"VEC2","bufferView":2,"byteOffset":15544},{"name":"elevatorLeft_Mesh.005-Mesh_0_indices","componentType":5123,"count":480,"min":[0],"max":[303],"type":"SCALAR","bufferView":3,"byteOffset":8092},{"name":"elevatorRight_Mesh.005-Mesh_0_positions","componentType":5126,"count":314,"min":[-38.638214111328125,18.640703201293945,-32.89994430541992],"max":[-16.333457946777344,23.975828170776367,-2.809523105621338],"type":"VEC3","bufferView":0,"byteOffset":26964},{"name":"elevatorRight_Mesh.005-Mesh_0_normals","componentType":5126,"count":314,"min":[-1,-1,-1],"max":[1,1,1],"type":"VEC3","bufferView":1,"byteOffset":26964},{"name":"elevatorRight_Mesh.005-Mesh_0_texcoords","componentType":5126,"count":314,"min":[0.00929499976336956,0.003369000041857362],"max":[0.4134179949760437,0.3958269953727722],"type":"VEC2","bufferView":2,"byteOffset":17976},{"name":"elevatorRight_Mesh.005-Mesh_0_indices","componentType":5123,"count":486,"min":[0],"max":[313],"type":"SCALAR","bufferView":3,"byteOffset":9052},{"name":"flightdeck.001_Mesh.002-Mesh_0_positions","componentType":5126,"count":47,"min":[-34.15337371826172,23.55084991455078,-166.00308227539062],"max":[45.451019287109375,23.987627029418945,166.33090209960938],"type":"VEC3","bufferView":0,"byteOffset":30732},{"name":"flightdeck.001_Mesh.002-Mesh_0_normals","componentType":5126,"count":47,"min":[-0.038698844611644745,0.9991702437400818,0],"max":[0.030101362615823746,1,0.02589920535683632],"type":"VEC3","bufferView":1,"byteOffset":30732},{"name":"flightdeck.001_Mesh.002-Mesh_0_texcoords","componentType":5126,"count":47,"min":[0.01020899973809719,0.04702800139784813],"max":[0.9751260280609131,0.9771180152893066],"type":"VEC2","bufferView":2,"byteOffset":20488},{"name":"flightdeck.001_Mesh.002-Mesh_0_indices","componentType":5123,"count":165,"min":[0],"max":[46],"type":"SCALAR","bufferView":3,"byteOffset":10024},{"name":"hull_Mesh.002-Mesh_0_positions","componentType":5126,"count":1616,"min":[-34.155487060546875,-5.684020042419434,-169.99339294433594],"max":[50.926753997802734,24.024484634399414,165.9965057373047],"type":"VEC3","bufferView":0,"byteOffset":31296},{"name":"hull_Mesh.002-Mesh_0_normals","componentType":5126,"count":1616,"min":[-1,-0.9999999403953552,-1],"max":[1,1,1],"type":"VEC3","bufferView":1,"byteOffset":31296},{"name":"hull_Mesh.002-Mesh_0_texcoords","componentType":5126,"count":1616,"min":[0.0003110000106971711,0.04278099909424782],"max":[0.9963499903678894,0.9942650198936462],"type":"VEC2","bufferView":2,"byteOffset":20864},{"name":"hull_Mesh.002-Mesh_0_indices","componentType":5123,"count":3045,"min":[0],"max":[1615],"type":"SCALAR","bufferView":3,"byteOffset":10356},{"name":"island_Mesh.002-Mesh_0_positions","componentType":5126,"count":2079,"min":[-37.94256591796875,3.2200241088867188,-118.1053466796875],"max":[24.126089096069336,66.07115173339844,-7.424702167510986],"type":"VEC3","bufferView":0,"byteOffset":50688},{"name":"island_Mesh.002-Mesh_0_normals","componentType":5126,"count":2079,"min":[-0.9999999403953552,-1,-1],"max":[0.9999999403953552,0.9999999403953552,1],"type":"VEC3","bufferView":1,"byteOffset":50688},{"name":"island_Mesh.002-Mesh_0_texcoords","componentType":5126,"count":2079,"min":[0.0026630000211298466,0.0056940000504255295],"max":[0.9955419898033142,0.9936829805374146],"type":"VEC2","bufferView":2,"byteOffset":33792},{"name":"island_Mesh.002-Mesh_0_indices","componentType":5123,"count":3489,"min":[0],"max":[2078],"type":"SCALAR","bufferView":3,"byteOffset":16448}],"asset":{"generator":"obj2gltf","version":"2.0"},"buffers":[{"name":"vtolvr_AlliedCarrier","byteLength":225124,"uri":"data:application/octet-stream;base64,"}],"bufferViews":[{"name":"bufferView_0","buffer":0,"byteLength":75636,"byteOffset":0,"byteStride":12,"target":34962},{"name":"bufferView_1","buffer":0,"byteLength":75636,"byteOffset":75636,"byteStride":12,"target":34962},{"name":"bufferView_2","buffer":0,"byteLength":50424,"byteOffset":151272,"byteStride":8,"target":34962},{"name":"bufferView_3","buffer":0,"byteLength":23428,"byteOffset":201696,"target":34963}],"materials":[{"name":"mat_carrierDetail.002","pbrMetallicRoughness":{"baseColorFactor":[0.5,0.5,0.5,1],"metallicFactor":0,"roughnessFactor":1},"emissiveFactor":[0,0,0],"alphaMode":"OPAQUE","doubleSided":false},{"name":"mat_carrier2.002","pbrMetallicRoughness":{"baseColorFactor":[0.5,0.5,0.5,1],"metallicFactor":0,"roughnessFactor":1},"emissiveFactor":[0,0,0],"alphaMode":"OPAQUE","doubleSided":false},{"name":"mat_carrierDeck_0.002","pbrMetallicRoughness":{"baseColorFactor":[0.5,0.5,0.5,1],"metallicFactor":0,"roughnessFactor":1},"emissiveFactor":[0,0,0],"alphaMode":"OPAQUE","doubleSided":false},{"name":"mat_carrier_0.002","pbrMetallicRoughness":{"baseColorFactor":[0.5,0.5,0.5,1],"metallicFactor":0,"roughnessFactor":1},"emissiveFactor":[0,0,0],"alphaMode":"OPAQUE","doubleSided":false}],"meshes":[{"name":"deflector1_Mesh.002-Mesh","primitives":[{"attributes":{"POSITION":0,"NORMAL":1,"TEXCOORD_0":2},"indices":3,"material":0,"mode":4}]},{"name":"deflector2_Mesh.002-Mesh","primitives":[{"attributes":{"POSITION":4,"NORMAL":5,"TEXCOORD_0":6},"indices":7,"material":0,"mode":4}]},{"name":"deflector3_Mesh.002-Mesh","primitives":[{"attributes":{"POSITION":8,"NORMAL":9,"TEXCOORD_0":10},"indices":11,"material":0,"mode":4}]},{"name":"deflector4_Mesh.002-Mesh","primitives":[{"attributes":{"POSITION":12,"NORMAL":13,"TEXCOORD_0":14},"indices":15,"material":0,"mode":4}]},{"name":"doorLeft1_Mesh.002-Mesh","primitives":[{"attributes":{"POSITION":16,"NORMAL":17,"TEXCOORD_0":18},"indices":19,"material":1,"mode":4}]},{"name":"doorLeft2_Mesh.002-Mesh","primitives":[{"attributes":{"POSITION":20,"NORMAL":21,"TEXCOORD_0":22},"indices":23,"material":1,"mode":4}]},{"name":"doorRight1_Mesh.002-Mesh","primitives":[{"attributes":{"POSITION":24,"NORMAL":25,"TEXCOORD_0":26},"indices":27,"material":1,"mode":4}]},{"name":"doorRight2_Mesh.002-Mesh","primitives":[{"attributes":{"POSITION":28,"NORMAL":29,"TEXCOORD_0":30},"indices":31,"material":1,"mode":4}]},{"name":"elevatorLeft_Mesh.005-Mesh","primitives":[{"attributes":{"POSITION":32,"NORMAL":33,"TEXCOORD_0":34},"indices":35,"material":1,"mode":4}]},{"name":"elevatorRight_Mesh.005-Mesh","primitives":[{"attributes":{"POSITION":36,"NORMAL":37,"TEXCOORD_0":38},"indices":39,"material":1,"mode":4}]},{"name":"flightdeck.001_Mesh.002-Mesh","primitives":[{"attributes":{"POSITION":40,"NORMAL":41,"TEXCOORD_0":42},"indices":43,"material":2,"mode":4}]},{"name":"hull_Mesh.002-Mesh","primitives":[{"attributes":{"POSITION":44,"NORMAL":45,"TEXCOORD_0":46},"indices":47,"material":3,"mode":4}]},{"name":"island_Mesh.002-Mesh","primitives":[{"attributes":{"POSITION":48,"NORMAL":49,"TEXCOORD_0":50},"indices":51,"material":1,"mode":4}]}],"nodes":[{"name":"deflector1_Mesh.002","mesh":0},{"name":"deflector2_Mesh.002","mesh":1},{"name":"deflector3_Mesh.002","mesh":2},{"name":"deflector4_Mesh.002","mesh":3},{"name":"doorLeft1_Mesh.002","mesh":4},{"name":"doorLeft2_Mesh.002","mesh":5},{"name":"doorRight1_Mesh.002","mesh":6},{"name":"doorRight2_Mesh.002","mesh":7},{"name":"elevatorLeft_Mesh.005","mesh":8},{"name":"elevatorRight_Mesh.005","mesh":9},{"name":"flightdeck.001_Mesh.002","mesh":10},{"name":"hull_Mesh.002","mesh":11},{"name":"island_Mesh.002","mesh":12}],"scene":0,"scenes":[{"nodes":[0,1,2,3,4,5,6,7,8,9,10,11,12]}]}