{"accessors":[{"name":"tankerDrone_lod_Mesh.001-Mesh_0_positions","componentType":5126,"count":102,"min":[-4.984775066375732,3.172816038131714,-10.186544418334961],"max":[4.984775066375732,5.269567966461182,8.538994789123535],"type":"VEC3","bufferView":0,"byteOffset":0},{"name":"tankerDrone_lod_Mesh.001-Mesh_0_normals","componentType":5126,"count":102,"min":[-1,-0.9999992847442627,-0.9992194771766663],"max":[1,0.9999992847442627,0.9999999403953552],"type":"VEC3","bufferView":1,"byteOffset":0},{"name":"tankerDrone_lod_Mesh.001-Mesh_0_texcoords","componentType":5126,"count":102,"min":[0.6356859803199768,0.020888999104499817],"max":[0.7156350016593933,0.10089799761772156],"type":"VEC2","bufferView":2,"byteOffset":0},{"name":"tankerDrone_lod_Mesh.001-Mesh_0_indices","componentType":5123,"count":210,"min":[0],"max":[101],"type":"SCALAR","bufferView":3,"byteOffset":0},{"name":"ruddervatorLeft_Mesh.001-Mesh_0_positions","componentType":5126,"count":38,"min":[-4.32881498336792,3.732697010040283,6.381000995635986],"max":[-1.2514220476150513,5.314016819000244,8.305179595947266],"type":"VEC3","bufferView":0,"byteOffset":1224},{"name":"ruddervatorLeft_Mesh.001-Mesh_0_normals","componentType":5126,"count":38,"min":[-0.8940268158912659,-0.8910118937492371,-0.9960681796073914],"max":[0.8904972672462463,0.9059205055236816,0.9960760474205017],"type":"VEC3","bufferView":1,"byteOffset":1224},{"name":"ruddervatorLeft_Mesh.001-Mesh_0_texcoords","componentType":5126,"count":38,"min":[0.25335800647735596,0.33927300572395325],"max":[0.44122999906539917,0.5120769739151001],"type":"VEC2","bufferView":2,"byteOffset":816},{"name":"ruddervatorLeft_Mesh.001-Mesh_0_indices","componentType":5123,"count":84,"min":[0],"max":[37],"type":"SCALAR","bufferView":3,"byteOffset":420},{"name":"ruddervatorRight_Mesh.001-Mesh_0_positions","componentType":5126,"count":38,"min":[1.251418948173523,3.732697010040283,6.381000995635986],"max":[4.328812122344971,5.314015865325928,8.305182456970215],"type":"VEC3","bufferView":0,"byteOffset":1680},{"name":"ruddervatorRight_Mesh.001-Mesh_0_normals","componentType":5126,"count":38,"min":[-0.8904972672462463,-0.8910074830055237,-0.9960760474205017],"max":[0.8940869569778442,0.9059215188026428,0.9960760474205017],"type":"VEC3","bufferView":1,"byteOffset":1680},{"name":"ruddervatorRight_Mesh.001-Mesh_0_texcoords","componentType":5126,"count":38,"min":[0.25335800647735596,0.33927300572395325],"max":[0.44122999906539917,0.5120769739151001],"type":"VEC2","bufferView":2,"byteOffset":1120},{"name":"ruddervatorRight_Mesh.001-Mesh_0_indices","componentType":5123,"count":84,"min":[0],"max":[37],"type":"SCALAR","bufferView":3,"byteOffset":588},{"name":"wing_lod_Mesh.001-Mesh_0_positions","componentType":5126,"count":11,"min":[-13.955280303955078,3.689929962158203,-0.614657998085022],"max":[-4.987101078033447,3.818603992462158,1.4100689888000488],"type":"VEC3","bufferView":0,"byteOffset":2136},{"name":"wing_lod_Mesh.001-Mesh_0_normals","componentType":5126,"count":11,"min":[-0.04089849814772606,-0.9999983906745911,-0.0027999889571219683],"max":[0.00009999983740272,0.9999983906745911,0.9991633296012878],"type":"VEC3","bufferView":1,"byteOffset":2136},{"name":"wing_lod_Mesh.001-Mesh_0_texcoords","componentType":5126,"count":11,"min":[0.536391019821167,0.017382999882102013],"max":[0.6206550002098083,0.10669399797916412],"type":"VEC2","bufferView":2,"byteOffset":1424},{"name":"wing_lod_Mesh.001-Mesh_0_indices","componentType":5123,"count":15,"min":[0],"max":[10],"type":"SCALAR","bufferView":3,"byteOffset":756},{"name":"wing_lod.001_Mesh.001-Mesh_0_positions","componentType":5126,"count":11,"min":[4.977333068847656,3.6879079341888428,-0.6139659881591797],"max":[13.94550895690918,3.8165810108184814,1.4107609987258911],"type":"VEC3","bufferView":0,"byteOffset":2268},{"name":"wing_lod.001_Mesh.001-Mesh_0_normals","componentType":5126,"count":11,"min":[-0.00009999983740272,-0.9999983906745911,-0.0027999889571219683],"max":[0.04089849814772606,0.9999983906745911,0.9991633296012878],"type":"VEC3","bufferView":1,"byteOffset":2268},{"name":"wing_lod.001_Mesh.001-Mesh_0_texcoords","componentType":5126,"count":11,"min":[0.536391019821167,0.017382999882102013],"max":[0.6206550002098083,0.10669399797916412],"type":"VEC2","bufferView":2,"byteOffset":1512},{"name":"wing_lod.001_Mesh.001-Mesh_0_indices","componentType":5123,"count":15,"min":[0],"max":[10],"type":"SCALAR","bufferView":3,"byteOffset":788}],"asset":{"generator":"obj2gltf","version":"2.0"},"buffers":[{"name":"vtolvr_MQ-31","byteLength":7220,"uri":"data:application/octet-stream;base64,"}],"bufferViews":[{"name":"bufferView_0","buffer":0,"byteLength":2400,"byteOffset":0,"byteStride":12,"target":34962},{"name":"bufferView_1","buffer":0,"byteLength":2400,"byteOffset":2400,"byteStride":12,"target":34962},{"name":"bufferView_2","buffer":0,"byteLength":1600,"byteOffset":4800,"byteStride":8,"target":34962},{"name":"bufferView_3","buffer":0,"byteLength":820,"byteOffset":6400,"target":34963}],"materials":[{"name":"mat_tankerDrone.001","pbrMetallicRoughness":{"baseColorFactor":[0.5,0.5,0.5,1],"metallicFactor":0,"roughnessFactor":1},"emissiveFactor":[0,0,0],"alphaMode":"OPAQUE","doubleSided":false}],"meshes":[{"name":"tankerDrone_lod_Mesh.001-Mesh","primitives":[{"attributes":{"POSITION":0,"NORMAL":1,"TEXCOORD_0":2},"indices":3,"material":0,"mode":4}]},{"name":"ruddervatorLeft_Mesh.001-Mesh","primitives":[{"attributes":{"POSITION":4,"NORMAL":5,"TEXCOORD_0":6},"indices":7,"material":0,"mode":4}]},{"name":"ruddervatorRight_Mesh.001-Mesh","primitives":[{"attributes":{"POSITION":8,"NORMAL":9,"TEXCOORD_0":10},"indices":11,"material":0,"mode":4}]},{"name":"wing_lod_Mesh.001-Mesh","primitives":[{"attributes":{"POSITION":12,"NORMAL":13,"TEXCOORD_0":14},"indices":15,"material":0,"mode":4}]},{"name":"wing_lod.001_Mesh.001-Mesh","primitives":[{"attributes":{"POSITION":16,"NORMAL":17,"TEXCOORD_0":18},"indices":19,"material":0,"mode":4}]}],"nodes":[{"name":"tankerDrone_lod_Mesh.001","mesh":0},{"name":"ruddervatorLeft_Mesh.001","mesh":1},{"name":"ruddervatorRight_Mesh.001","mesh":2},{"name":"wing_lod_Mesh.001","mesh":3},{"name":"wing_lod.001_Mesh.001","mesh":4}],"scene":0,"scenes":[{"nodes":[0,1,2,3,4]}]}