{"accessors":[{"name":"Cylinder-Mesh_0_positions","componentType":5126,"count":1105,"min":[-3.409264087677002,-0.7398009896278381,-8.48432731628418],"max":[3.3979499340057373,1.4190130233764648,0.752714991569519],"type":"VEC3","bufferView":0,"byteOffset":0},{"name":"Cylinder-Mesh_0_normals","componentType":5126,"count":1105,"min":[-1,-1,-1],"max":[1,1,1],"type":"VEC3","bufferView":1,"byteOffset":0},{"name":"Cylinder-Mesh_0_indices","componentType":5123,"count":3414,"min":[0],"max":[1104],"type":"SCALAR","bufferView":2,"byteOffset":0}],"asset":{"generator":"obj2gltf","version":"2.0"},"buffers":[{"name":"vtolvr_F-45A","byteLength":33348,"uri":"data:application/octet-stream;base64,"}],"bufferViews":[{"name":"bufferView_0","buffer":0,"byteLength":13260,"byteOffset":0,"byteStride":12,"target":34962},{"name":"bufferView_1","buffer":0,"byteLength":13260,"byteOffset":13260,"byteStride":12,"target":34962},{"name":"bufferView_2","buffer":0,"byteLength":6828,"byteOffset":26520,"target":34963}],"materials":[{"name":"None","pbrMetallicRoughness":{"baseColorFactor":[0.5,0.5,0.5,1],"metallicFactor":0,"roughnessFactor":1},"emissiveFactor":[0,0,0],"alphaMode":"OPAQUE","doubleSided":false}],"meshes":[{"name":"Cylinder-Mesh","primitives":[{"attributes":{"POSITION":0,"NORMAL":1},"indices":2,"material":0,"mode":4}]}],"nodes":[{"name":"Cylinder","mesh":0}],"scene":0,"scenes":[{"nodes":[0]}]}