{"accessors":[{"name":"auxEngineLOD_Mesh.002-Mesh_0_positions","componentType":5126,"count":65,"min":[-1.7749600410461426,-0.13107100129127502,1.075461983680725],"max":[1.7749580144882202,0.7458959817886353,2.8162848949432373],"type":"VEC3","bufferView":0,"byteOffset":0},{"name":"auxEngineLOD_Mesh.002-Mesh_0_normals","componentType":5126,"count":65,"min":[-1,-0.9999999403953552,-0.00029999998514540493],"max":[1,0.9999999403953552,0.9717556834220886],"type":"VEC3","bufferView":1,"byteOffset":0},{"name":"auxEngineLOD_Mesh.002-Mesh_0_texcoords","componentType":5126,"count":65,"min":[0.22751499712467194,0.02812100015580654],"max":[0.5524629950523376,0.16069400310516357],"type":"VEC2","bufferView":2,"byteOffset":0},{"name":"auxEngineLOD_Mesh.002-Mesh_0_indices","componentType":5123,"count":93,"min":[0],"max":[64],"type":"SCALAR","bufferView":3,"byteOffset":0},{"name":"wingLeftLOD_Mesh.002-Mesh_0_positions","componentType":5126,"count":217,"min":[-10.18640422821045,-0.04087899997830391,-0.6480630040168762],"max":[-3.5238358974456787,0.6828250288963318,2.7681679725646973],"type":"VEC3","bufferView":0,"byteOffset":780},{"name":"wingLeftLOD_Mesh.002-Mesh_0_normals","componentType":5126,"count":217,"min":[-1,-0.9999999403953552,-0.938371479511261],"max":[1,0.999125063419342,0.9880234599113464],"type":"VEC3","bufferView":1,"byteOffset":780},{"name":"wingLeftLOD_Mesh.002-Mesh_0_texcoords","componentType":5126,"count":217,"min":[0.3588840067386627,0.024762000888586044],"max":[1.0006320476531982,0.9791579842567444],"type":"VEC2","bufferView":2,"byteOffset":520},{"name":"wingLeftLOD_Mesh.002-Mesh_0_indices","componentType":5123,"count":363,"min":[0],"max":[216],"type":"SCALAR","bufferView":3,"byteOffset":188},{"name":"wingRightLOD_Mesh.002-Mesh_0_positions","componentType":5126,"count":217,"min":[3.5238349437713623,-0.04087899997830391,-0.648048996925354],"max":[10.186402320861816,0.6828250288963318,2.768181085586548],"type":"VEC3","bufferView":0,"byteOffset":3384},{"name":"wingRightLOD_Mesh.002-Mesh_0_normals","componentType":5126,"count":217,"min":[-1,-0.9999999403953552,-0.938371479511261],"max":[1,0.9991264939308167,0.9880234599113464],"type":"VEC3","bufferView":1,"byteOffset":3384},{"name":"wingRightLOD_Mesh.002-Mesh_0_texcoords","componentType":5126,"count":217,"min":[0.3588840067386627,0.024762000888586044],"max":[1.0006320476531982,0.9791579842567444],"type":"VEC2","bufferView":2,"byteOffset":2256},{"name":"wingRightLOD_Mesh.002-Mesh_0_indices","componentType":5123,"count":363,"min":[0],"max":[216],"type":"SCALAR","bufferView":3,"byteOffset":916},{"name":"eVtAttackPlaneLOD_Mesh.002-Mesh_0_positions","componentType":5126,"count":926,"min":[-3.5670809745788574,-1.4205750226974487,-8.533984184265137],"max":[3.567056894302368,3.1410160064697266,7.778842926025391],"type":"VEC3","bufferView":0,"byteOffset":5988},{"name":"eVtAttackPlaneLOD_Mesh.002-Mesh_0_normals","componentType":5126,"count":926,"min":[-1,-0.9999999403953552,-0.9915668964385986],"max":[1,0.9999995827674866,0.9999999403953552],"type":"VEC3","bufferView":1,"byteOffset":5988},{"name":"eVtAttackPlaneLOD_Mesh.002-Mesh_0_texcoords","componentType":5126,"count":926,"min":[0.008346999995410442,0.020764000713825226],"max":[0.9660990238189697,0.9979649782180786],"type":"VEC2","bufferView":2,"byteOffset":3992},{"name":"eVtAttackPlaneLOD_Mesh.002-Mesh_0_indices","componentType":5123,"count":1914,"min":[0],"max":[925],"type":"SCALAR","bufferView":3,"byteOffset":1644}],"asset":{"generator":"obj2gltf","version":"2.0"},"buffers":[{"name":"vtolvr_GAV-25","byteLength":51072,"uri":"data:application/octet-stream;base64,"}],"bufferViews":[{"name":"bufferView_0","buffer":0,"byteLength":17100,"byteOffset":0,"byteStride":12,"target":34962},{"name":"bufferView_1","buffer":0,"byteLength":17100,"byteOffset":17100,"byteStride":12,"target":34962},{"name":"bufferView_2","buffer":0,"byteLength":11400,"byteOffset":34200,"byteStride":8,"target":34962},{"name":"bufferView_3","buffer":0,"byteLength":5472,"byteOffset":45600,"target":34963}],"materials":[{"name":"mat_evtol.002","pbrMetallicRoughness":{"baseColorFactor":[0.5,0.5,0.5,1],"metallicFactor":0,"roughnessFactor":1},"emissiveFactor":[0,0,0],"alphaMode":"OPAQUE","doubleSided":false}],"meshes":[{"name":"auxEngineLOD_Mesh.002-Mesh","primitives":[{"attributes":{"POSITION":0,"NORMAL":1,"TEXCOORD_0":2},"indices":3,"material":0,"mode":4}]},{"name":"wingLeftLOD_Mesh.002-Mesh","primitives":[{"attributes":{"POSITION":4,"NORMAL":5,"TEXCOORD_0":6},"indices":7,"material":0,"mode":4}]},{"name":"wingRightLOD_Mesh.002-Mesh","primitives":[{"attributes":{"POSITION":8,"NORMAL":9,"TEXCOORD_0":10},"indices":11,"material":0,"mode":4}]},{"name":"eVtAttackPlaneLOD_Mesh.002-Mesh","primitives":[{"attributes":{"POSITION":12,"NORMAL":13,"TEXCOORD_0":14},"indices":15,"material":0,"mode":4}]}],"nodes":[{"name":"auxEngineLOD_Mesh.002","mesh":0},{"name":"wingLeftLOD_Mesh.002","mesh":1},{"name":"wingRightLOD_Mesh.002","mesh":2},{"name":"eVtAttackPlaneLOD_Mesh.002","mesh":3}],"scene":0,"scenes":[{"nodes":[0,1,2,3]}]}